<?xml version="1.0" encoding="UTF-8" standalone="no"?>
<svg
   width="348.04401"
   height="110"
   viewBox="0 0 348.044 110"
   version="1.1"
   id="svg1"
   sodipodi:docname="hits-logo-large.svg"
   inkscape:version="1.3.2 (091e20e, 2023-11-25)"
   xmlns:inkscape="http://www.inkscape.org/namespaces/inkscape"
   xmlns:sodipodi="http://sodipodi.sourceforge.net/DTD/sodipodi-0.dtd"
   xmlns="http://www.w3.org/2000/svg"
   xmlns:svg="http://www.w3.org/2000/svg">
  <sodipodi:namedview
     id="namedview1"
     pagecolor="#ffffff"
     bordercolor="#000000"
     borderopacity="0.25"
     inkscape:showpageshadow="2"
     inkscape:pageopacity="0.0"
     inkscape:pagecheckerboard="0"
     inkscape:deskcolor="#d1d1d1"
     inkscape:zoom="2.3100527"
     inkscape:cx="86.794556"
     inkscape:cy="27.704996"
     inkscape:window-width="2320"
     inkscape:window-height="821"
     inkscape:window-x="0"
     inkscape:window-y="25"
     inkscape:window-maximized="0"
     inkscape:current-layer="svg1" />
  <defs
     id="defs1">
    <style
       id="style1">
      .cls-1 {
        fill: #c2e1f3;
      }

      .cls-2 {
        fill: #002551;
      }
    </style>
  </defs>
  <g
     id="Gruppe_228"
     data-name="Gruppe 228"
     transform="matrix(1.9994189,0,0,1.9994189,-32.332604,-34.00558)">
    <rect
       id="Rechteck_192"
       data-name="Rechteck 192"
       class="cls-1"
       width="34.465"
       height="34.465"
       transform="translate(34.32,18.996)"
       x="0"
       y="0" />
    <path
       id="Pfad_49"
       data-name="Pfad 49"
       class="cls-2"
       d="M 92.514,71.141 V 55.929 h 13.768 v 15.212 h 7.025 v -34.8 h -7.025 V 50.038 H 92.514 V 36.345 h -7.025 v 34.8 z m 34.869,-34.8 h -7.025 v 34.8 h 7.025 z m 21.559,34.8 V 42.229 h 10.3 v -5.884 h -27.655 v 5.885 h 10.327 v 28.911 z m 16.265,-2.431 q 3.54,3.05 10.138,3.05 a 19.783,19.783 0 0 0 7.572,-1.268 9.963,9.963 0 0 0 4.7,-3.885 10.231,10.231 0 0 0 1.663,-5.6 10.347,10.347 0 0 0 -1.388,-5.541 9.773,9.773 0 0 0 -3.845,-3.538 34.293,34.293 0 0 0 -7.584,-2.506 q -5.128,-1.207 -6.46,-2.327 a 2.659,2.659 0 0 1 -1.041,-2.111 2.533,2.533 0 0 1 1.112,-2.159 8.038,8.038 0 0 1 4.8,-1.259 7.086,7.086 0 0 1 4.45,1.175 5.968,5.968 0 0 1 1.935,3.857 l 7.028,-0.308 a 10.133,10.133 0 0 0 -3.478,-7.667 q -3.31,-2.875 -9.863,-2.874 a 17.449,17.449 0 0 0 -6.848,1.212 9.445,9.445 0 0 0 -4.345,3.523 8.952,8.952 0 0 0 -1.508,4.976 9.052,9.052 0 0 0 3.2,7 q 2.284,2.041 7.931,3.442 4.388,1.098 5.624,1.523 a 5.763,5.763 0 0 1 2.524,1.507 3.155,3.155 0 0 1 0.727,2.1 4.271,4.271 0 0 1 -1.722,3.359 7.833,7.833 0 0 1 -5.114,1.435 7.554,7.554 0 0 1 -5.093,-1.614 8.319,8.319 0 0 1 -2.5,-5.054 l -6.836,0.664 q 0.685,5.841 4.222,8.891"
       transform="translate(0.916,0.248)" />
    <path
       id="Pfad_50"
       data-name="Pfad 50"
       class="cls-2"
       d="m 70.768,36.229 a 1.981,1.981 0 0 0 -1.6,-1.943 V 20.933 A 1.981,1.981 0 1 0 66.844,18.616 H 53.5 a 1.979,1.979 0 0 0 -3.888,0 H 36.265 a 1.98,1.98 0 0 0 -3.889,0 H 16.171 l 16.505,16.505 a 1.982,1.982 0 0 0 2.751,2.751 l 6.973,6.973 -6.973,6.972 a 1.982,1.982 0 0 0 -2.751,2.751 l -16.5,16.5 H 17.25 L 33.214,55.1 a 1.982,1.982 0 0 0 2.751,-2.75 l 6.972,-6.973 6.972,6.972 A 1.982,1.982 0 0 0 52.66,55.1 L 69.166,71.611 V 55.4 a 1.98,1.98 0 0 0 0,-3.887 V 38.172 a 1.982,1.982 0 0 0 1.602,-1.943 z m -34.8,1.106 a 1.982,1.982 0 0 0 -2.75,-2.751 L 18,19.376 h 14.377 a 1.981,1.981 0 0 0 3.886,0 H 49.61 a 1.981,1.981 0 0 0 3.886,0 h 13.347 a 1.962,1.962 0 0 0 0.3,0.724 L 52.66,34.584 a 1.982,1.982 0 0 0 -2.751,2.751 l -6.972,6.972 z M 53.2,54.568 A 1.982,1.982 0 0 0 50.45,51.817 L 43.477,44.845 50.45,37.873 A 1.981,1.981 0 0 0 53.2,35.122 L 67.683,20.636 a 1.966,1.966 0 0 0 0.723,0.3 v 13.349 a 1.98,1.98 0 0 0 0,3.887 v 13.345 a 1.98,1.98 0 0 0 0,3.888 v 14.371 z" />
  </g>
</svg>
