<?xml version="1.0" encoding="UTF-8" standalone="no"?>
<!-- Generator: Adobe Illustrator 15.0.2, SVG Export Plug-In . SVG Version: 6.00 Build 0)  -->

<svg
   xmlns:dc="http://purl.org/dc/elements/1.1/"
   xmlns:cc="http://creativecommons.org/ns#"
   xmlns:rdf="http://www.w3.org/1999/02/22-rdf-syntax-ns#"
   xmlns:svg="http://www.w3.org/2000/svg"
   xmlns="http://www.w3.org/2000/svg"
   xmlns:sodipodi="http://sodipodi.sourceforge.net/DTD/sodipodi-0.dtd"
   xmlns:inkscape="http://www.inkscape.org/namespaces/inkscape"
   version="1.1"
   id="Layer_1"
   x="0px"
   y="0px"
   width="293.693970128"
   height="340.490477065"
   viewBox="0 0 333.89221 387.09381"
   enable-background="new 0 0 946.453 418.479"
   xml:space="preserve"
   inkscape:version="0.91 r13725"
   sodipodi:docname="logo.svg"><metadata
     id="metadata283"><rdf:RDF><cc:Work
         rdf:about=""><dc:format>image/svg+xml</dc:format><dc:type
           rdf:resource="http://purl.org/dc/dcmitype/StillImage" /><dc:title></dc:title></cc:Work></rdf:RDF></metadata><defs
     id="defs281" /><sodipodi:namedview
     pagecolor="#ffffff"
     bordercolor="#666666"
     borderopacity="1"
     objecttolerance="10"
     gridtolerance="10"
     guidetolerance="10"
     inkscape:pageopacity="0"
     inkscape:pageshadow="2"
     inkscape:window-width="1449"
     inkscape:window-height="870"
     id="namedview279"
     showgrid="false"
     fit-margin-top="0"
     fit-margin-left="0"
     fit-margin-right="0"
     fit-margin-bottom="0"
     inkscape:zoom="1"
     inkscape:cx="241.0424"
     inkscape:cy="210.0134"
     inkscape:window-x="0"
     inkscape:window-y="0"
     inkscape:window-maximized="0"
     inkscape:current-layer="Layer_1" /><g
     id="g5"
     transform="matrix(0.97005021,0,0,0.97005021,-11.66944,-11.818551)"><path
       style="fill:#014189;stroke:#014189;stroke-width:0.0938;stroke-miterlimit:10.43000031"
       inkscape:connector-curvature="0"
       id="path7"
       d="m 181.805,18.206 4.552,0 c 25.672,0.45 51.12,7.777 73.185,20.88 26.122,15.33 47.52,38.04 62.768,64.095 38.1,65.19 38.295,150.683 0.562,216.068 -14.018,24.263 -33.3,45.667 -56.812,61.035 -23.535,15.547 -51.435,24.45 -79.673,24.922 l -4.478,0 c -19.583,-0.397 -39.075,-4.635 -56.985,-12.57 C 90.401,377.478 62.314,349.661 44.081,316.916 26.786,286.174 17.996,250.991 17.231,215.809 l 0,-7.522 c 0.562,-29.272 6.593,-58.522 18.57,-85.283 14.01,-31.5 36.232,-59.708 65.01,-78.945 23.806,-16.103 52.224,-25.358 80.994,-25.853 z m -15.645,3.615 c -28.058,3.502 -54.735,15.652 -76.508,33.57 -23.85,19.462 -42.067,45.367 -53.812,73.732 -21.51,52.245 -21.502,112.965 0.015,165.203 10.545,25.44 26.25,48.885 46.627,67.492 24.375,22.523 55.987,37.59 89.212,40.343 32.573,3 65.85,-5.925 93.045,-23.962 22.267,-14.558 40.71,-34.628 54.352,-57.398 19.005,-31.635 28.86,-68.475 29.415,-105.3 0.863,-44.917 -12.15,-90.413 -38.655,-126.893 C 292.901,65.246 270.326,45.663 243.926,33.738 219.777,22.661 192.522,18.468 166.16,21.821 Z"
       stroke-miterlimit="10.43" /></g><path
     style="fill:#014189;stroke:#014189;stroke-width:0.09099071;stroke-miterlimit:10.43000031"
     inkscape:connector-curvature="0"
     id="path9"
     d="m 163.59923,15.226449 c 3.8705,-3.09252 9.20384,-2.727781 13.72912,-1.593792 0.13096,1.797503 0.24737,3.594036 0.23282,5.398329 -1.54238,-1.236814 -1.97891,-3.579485 -3.92192,-4.321574 -2.64047,-1.199952 -6.17631,-0.342427 -7.55184,2.328121 -1.49873,2.916941 -1.45507,6.649694 0.11641,9.530743 1.25815,2.292229 4.47387,3.86371 6.90385,2.539592 0.58203,-1.644235 0.28325,-3.411667 0.24057,-5.114105 -1.02632,-0.18916 -2.05166,-0.38511 -3.077,-0.567479 l 0.007,-1.025343 c 3.17885,0.174609 6.45277,-0.284225 9.5385,0.661574 -0.54517,0.291015 -1.63744,0.873045 -2.18261,1.16406 -0.10186,1.942041 -0.0941,3.891842 -0.0213,5.834852 -4.62714,1.120408 -10.06233,1.600583 -14.06379,-1.506488 -4.23524,-3.120651 -4.08973,-10.200078 0.0504,-13.32849 z"
     stroke-miterlimit="10.43" /><path
     style="fill:#014189;stroke:#014189;stroke-width:0.09099071;stroke-miterlimit:10.43000031"
     inkscape:connector-curvature="0"
     id="path11"
     d="m 147.57885,15.182797 c 2.42998,-1.571481 5.5225,-1.330909 8.27938,-1.797503 -0.7644,0.909907 -1.97114,1.506488 -2.44452,2.619136 -0.29102,4.510733 2.37177,9.385235 -0.16006,13.582643 -2.60459,3.193405 -8.03978,4.182856 -11.45145,1.767431 -3.39711,-3.608587 -2.0371,-9.159214 -4.08197,-13.357591 -0.96035,-0.261914 -1.92846,-0.501516 -2.8956,-0.712987 3.1061,-1.592823 6.73021,-1.578272 10.12733,-2.051656 -0.8294,0.771189 -1.79751,1.396872 -2.53959,2.269917 0.0504,2.837397 0.64702,5.645692 1.2727,8.410335 0.42876,1.812054 1.33188,3.84916 3.25937,4.467082 2.45132,0.829393 5.33334,-0.902147 5.57294,-3.528073 0.29877,-3.390325 -0.41421,-6.816543 -1.38911,-10.05457 -0.26095,-1.656846 -2.48721,-0.995272 -3.54942,-1.614164 z"
     stroke-miterlimit="10.43" /><g
     id="g13"
     transform="matrix(0.97005021,0,0,0.97005021,-11.66944,-11.818551)"><path
       style="fill:#014189;stroke:#014189;stroke-width:0.0938;stroke-miterlimit:10.43000031"
       inkscape:connector-curvature="0"
       id="path15"
       d="m 203.952,26.92 c 5.212,1.125 10.867,1.47 15.488,4.35 4.927,3.217 3.63,11.22 -1.185,13.883 -3.465,2.002 -7.65,1.334 -11.355,0.487 -2.317,-0.607 -4.845,-0.758 -6.923,-2.055 1.208,-0.54 3.367,0.067 3.66,-1.665 1.05,-3.622 1.755,-7.35 2.512,-11.04 0.751,-1.807 -1.319,-2.729 -2.197,-3.96 z m 6.833,2.978 c -0.975,4.35 -2.227,8.663 -2.827,13.088 -0.165,2.152 2.835,2.069 4.32,1.972 4.703,-0.757 6.345,-6.6 5.483,-10.672 -0.773,-3.098 -4.194,-4.096 -6.976,-4.388 z"
       stroke-miterlimit="10.43" /></g><path
     style="fill:#014189;stroke:#014189;stroke-width:0.09099071;stroke-miterlimit:10.43000031"
     inkscape:connector-curvature="0"
     id="path17"
     d="m 116.38204,23.120718 c 3.25937,-1.120408 6.48963,-3.076999 10.00316,-3.033347 -0.81485,0.785741 -1.81885,1.396872 -2.45908,2.349461 0.93901,3.870501 2.33588,7.639146 3.76185,11.357348 0.50249,2.000244 2.82285,1.193162 4.15376,0.611132 2.53959,-0.705226 1.87705,-3.776405 3.01977,-5.623381 0.54516,1.855706 0.8517,3.768645 1.0913,5.689344 -4.80951,1.520069 -9.4803,3.47763 -14.37614,4.685343 0.75664,-0.931248 1.67333,-1.716989 2.37953,-2.691889 -0.85849,-3.84916 -2.35043,-7.5305 -3.66,-11.247733 -0.37153,-1.878017 -2.52407,-1.572451 -3.91415,-2.096278 z"
     stroke-miterlimit="10.43" /><path
     style="fill:#014189;stroke:#014189;stroke-width:0.09099071;stroke-miterlimit:10.43000031"
     inkscape:connector-curvature="0"
     id="path19"
     d="m 210.66413,20.26877 c 3.20796,1.199952 6.48187,2.364983 9.41434,4.176066 -1.069,0.108646 -2.13896,0.254154 -3.20117,0.428763 -1.32412,1.767431 -1.99345,3.914152 -2.8665,5.921186 -0.77895,2.146721 -1.86249,4.612589 -0.7353,6.832064 1.32412,2.465867 5.16552,2.939252 6.93295,0.676125 2.03711,-2.553172 3.18662,-5.703895 4.19062,-8.774104 0.78574,-1.73154 -1.27271,-2.801505 -2.02255,-4.110103 2.76464,0.800291 5.54383,1.797503 7.8865,3.506731 -1.04765,0.09506 -2.08754,0.211471 -3.12065,0.363769 -3.02655,3.601797 -3.14296,9.574396 -7.85061,11.684255 -4.00146,1.170851 -9.45023,-0.9749 -10.58519,-5.22372 -0.34243,-4.532075 2.9247,-8.250277 3.89184,-12.521409 -0.57427,-1.032133 -1.31636,-1.955621 -1.93428,-2.959623 z"
     stroke-miterlimit="10.43" /><path
     style="fill:#014189;stroke:#014189;stroke-width:0.09099071;stroke-miterlimit:10.43000031"
     inkscape:connector-curvature="0"
     id="path21"
     d="m 106.37112,31.574706 c 3.01201,-1.520069 6.75155,1.571481 5.9435,4.809508 -0.43652,3.128412 -4.73676,4.460291 -6.91937,2.219475 -2.2253,-1.863466 -1.67237,-5.850372 0.97587,-7.028983 z"
     stroke-miterlimit="10.43" /><path
     style="fill:#014189;stroke:#014189;stroke-width:0.09099071;stroke-miterlimit:10.43000031"
     inkscape:connector-curvature="0"
     id="path23"
     d="m 233.85706,30.919922 c 2.14575,0.756639 3.9937,2.117619 5.8494,3.404876 0.77119,5.129625 1.54238,10.251491 2.35722,15.365595 1.73154,-2.648237 3.8123,-5.143206 4.91816,-8.133871 -0.50928,-1.120408 -1.14951,-2.161272 -1.68789,-3.259368 2.59683,1.324118 4.97636,3.018796 7.28993,4.787197 -1.19995,0.03686 -2.40088,-0.07275 -3.58725,0.0291 -3.36122,3.86371 -5.89305,8.359893 -8.81096,12.5573 -0.39287,-0.276464 -1.17085,-0.822603 -1.56372,-1.099067 -0.75664,-5.674794 -1.55014,-11.349588 -2.33491,-17.024381 -1.88481,2.997455 -4.15473,5.791199 -5.55839,9.057359 0.42197,1.16406 1.2727,2.102098 1.89936,3.165273 -2.79375,-0.960349 -5.15097,-2.816055 -7.43544,-4.620349 1.08355,-0.03686 2.16806,0.06499 3.25937,0.05141 1.50552,-0.939009 2.31357,-2.648237 3.36122,-4.030559 1.49873,-2.371773 3.46308,-4.568936 4.04511,-7.391782 -0.70619,-0.923488 -1.38232,-1.869287 -2.00121,-2.858738 z"
     stroke-miterlimit="10.43" /><g
     id="g25"
     transform="matrix(0.97005021,0,0,0.97005021,-11.66944,-11.818551)"><path
       style="fill:#014189;stroke:#014189;stroke-width:0.0938;stroke-miterlimit:10.43000031"
       inkscape:connector-curvature="0"
       id="path27"
       d="m 102.425,52.63 c 0.142,-0.442 0.42,-1.32 0.562,-1.755 4.635,2.857 9.12,5.955 13.755,8.812 1.5,1.058 3.36,0.345 5.055,0.48 -2.565,2.16 -5.347,4.05 -8.22,5.782 0.308,-0.922 0.63,-1.838 0.983,-2.738 -1.133,-0.788 -2.265,-1.567 -3.413,-2.333 -1.5,1.065 -3.015,2.115 -4.522,3.165 0.412,1.26 0.765,2.542 1.305,3.765 0.57,-0.09 1.725,-0.277 2.302,-0.368 l 0.42,0.705 c -2.115,1.5 -4.215,3.045 -6.517,4.252 0.48,-1.544 1.673,-2.992 1.282,-4.702 -0.81,-5.052 -2.19,-10.009 -2.992,-15.065 z m 2.19,3.841 c 0.495,2.002 0.99,3.998 1.485,5.992 1.208,-0.825 2.415,-1.658 3.63,-2.482 -1.688,-1.2 -3.397,-2.356 -5.115,-3.51 z"
       stroke-miterlimit="10.43" /></g><g
     id="g29"
     transform="matrix(0.97005021,0,0,0.97005021,-11.66944,-11.818551)"><path
       style="fill:#014189;stroke:#014189;stroke-width:0.0938;stroke-miterlimit:10.43000031"
       inkscape:connector-curvature="0"
       id="path31"
       d="m 134.037,64.488 c 12.24,-9.225 27.9,-12.188 42.885,-13.05 16.68,-0.78 34.275,0.862 48.968,9.442 13.448,7.74 22.568,22.688 22.673,38.273 0,20.16 -0.008,40.32 0.007,60.472 -1.365,0.45 -3.105,0.645 -3.757,2.138 -1.095,1.604 -0.09,3.405 0.48,4.995 0.472,-1.462 0.555,-3.217 1.77,-4.312 1.095,-1.162 2.797,-1.132 4.26,-1.417 0.24,1.35 0.938,2.782 0.36,4.14 -0.525,0.997 -1.463,1.688 -2.213,2.497 1.868,4.095 6.915,6.428 11.145,4.583 2.752,-1.17 5.422,-4.575 3.787,-7.568 -1.215,1.133 -2.265,2.963 -4.177,2.843 -2.347,0.105 -4.35,-2.272 -3.802,-4.567 0.367,-2.257 3.03,-3.698 5.13,-2.79 1.59,0.555 2.107,2.31 2.94,3.6 0.465,-0.712 0.922,-1.425 1.387,-2.145 -1.665,-1.013 -3.772,-2.378 -3.255,-4.672 0.285,-3.54 5.655,-4.47 7.14,-1.253 1.387,2.445 -0.57,4.98 -2.858,5.843 0.473,0.757 0.96,1.507 1.455,2.25 0.81,-1.38 1.365,-3.315 3.142,-3.72 2.325,-0.817 5.025,1.178 4.92,3.645 0.045,2.183 -2.018,4.042 -4.177,3.803 -1.808,-0.112 -2.76,-1.837 -3.938,-2.948 -1.538,3.188 1.185,6.683 4.132,7.785 4.147,1.62 9.053,-0.637 10.815,-4.658 -1.665,-1.26 -1.252,-3.54 -0.015,-4.92 1.08,-1.342 2.948,-1.425 4.455,-1.98 -1.283,-0.428 -2.573,-0.825 -3.863,-1.192 0.067,-18.473 0.03,-36.953 0.022,-55.425 15.765,21.255 26.288,46.245 31.08,72.247 6.352,34.118 3.33,69.998 -9.06,102.442 -4.77,-0.015 -9.54,0.053 -14.31,-0.022 1.32,1.657 2.97,3.757 2.025,6.007 -0.817,1.815 -3.202,1.5 -4.837,1.672 -15.015,0.053 -30.022,0.045 -45.038,0.008 -1.815,-0.105 -4.522,0.067 -5.212,-2.093 -0.742,-2.205 0.893,-4.095 2.16,-5.685 -8.948,0.127 -17.895,0 -26.842,0.068 4.11,-6.3 5.812,-13.732 7.215,-21.015 3.105,-16.688 2.663,-33.735 2.955,-50.633 0.09,-4.709 -0.203,-9.412 -0.285,-14.122 1.44,-2.1 1.087,-4.815 -0.353,-6.825 -2.535,-3.308 -5.647,-6.765 -5.663,-11.183 -0.322,-5.82 -2.01,-11.452 -3.863,-16.935 1.298,-0.36 3.495,0.105 3.923,-1.62 0.488,-2.01 -0.915,-3.795 -1.95,-5.37 -2.542,-3.36 -4.508,-7.238 -5.295,-11.4 -0.915,-9.233 2.018,-19.268 -2.67,-27.833 -2.22,-4.32 -7.268,-5.28 -11.032,-7.71 -1.478,4.11 -6.157,5.475 -10.103,5.67 -3.69,0.105 -7.83,-0.397 -10.627,-3.038 -1.155,-0.967 -1.087,-2.565 -1.305,-3.915 -2.423,0.405 -4.875,0.728 -7.268,1.29 -2.512,0.578 -4.448,2.625 -5.348,4.98 -1.702,4.245 -3.412,8.498 -4.86,12.84 -3.337,-3.742 -6.938,-7.268 -10.748,-10.515 -1.605,-0.195 -3.18,0.45 -4.74,0.712 6.188,5.317 12.188,11.04 16.732,17.865 -7.087,-3.127 -14.948,-3.765 -22.59,-3.21 -0.93,1.29 -1.853,2.58 -2.782,3.87 6.81,-0.51 13.815,-0.915 20.468,0.908 2.19,0.502 3.9,1.995 5.587,3.375 1.215,1.125 3.63,0.48 3.69,-1.32 1.05,-4.267 3.938,-7.777 7.02,-10.777 4.642,-4.402 10.192,-7.763 16.087,-10.192 2.19,6.757 4.335,13.53 6.54,20.28 1.567,0.255 3.142,0.525 4.702,0.84 -1.05,-1.5 -2.002,-3.068 -2.73,-4.748 2.363,-0.39 5.333,-0.293 6.66,-2.7 1.875,-3.255 -0.045,-6.953 -1.185,-10.103 0.285,-0.067 0.863,-0.203 1.147,-0.27 1.148,3.24 2.91,6.66 1.958,10.178 -0.623,2.19 -2.835,3.322 -3.893,5.25 -0.547,1.71 0.72,3.143 1.943,4.147 0.038,1.417 0.052,2.834 0.075,4.26 -5.423,-1.673 -11.13,-1.995 -16.763,-2.325 0.532,-0.473 1.598,-1.418 2.13,-1.89 -1.492,0.052 -2.978,0.143 -4.47,0.225 2.19,-1.53 4.432,-3.061 5.962,-5.311 -0.54,-0.72 -1.08,-1.432 -1.605,-2.145 -2.317,0.922 -4.597,1.965 -7.042,2.498 1.395,-2.302 3.277,-4.297 4.282,-6.833 -4.193,1.005 -6.443,5.438 -10.59,6.757 0,-2.025 0.278,-4.26 -1.515,-5.677 -0.923,3.263 -2.363,6.337 -3.292,9.592 -3.165,2.603 -7.478,3.877 -11.542,3.172 -2.475,-1.485 -5.378,-3.532 -8.378,-2.13 -3.008,1.853 -4.282,5.49 -4.89,8.797 -0.637,4.087 -0.518,8.325 0.45,12.353 0.66,2.22 2.018,4.815 4.545,5.22 1.965,0.165 3.63,-1.163 4.86,-2.543 3.188,-3.449 5.212,-7.777 6.623,-12.209 6.42,-1.627 10.83,-7.897 17.805,-7.785 -2.94,2.888 -7.05,4.493 -9.593,7.785 -2.265,5.565 -5.925,10.545 -7.44,16.402 -1.02,2.483 2.34,4.163 1.38,6.608 -2.182,9.682 -3.547,19.515 -4.762,29.354 -0.082,1.373 -0.217,3.218 1.125,4.065 4.808,2.018 10.253,0.285 15.075,2.273 -0.322,2.452 -0.165,5.167 -1.725,7.26 -0.465,-1.635 -0.788,-3.308 -1.028,-4.988 -3.39,-0.615 -6.877,-0.66 -10.305,-0.667 -0.218,0.225 -0.645,0.682 -0.863,0.907 -0.765,3.345 -0.42,6.833 -0.87,10.223 -0.953,6.825 -0.63,13.732 -1.035,20.603 -0.577,10.312 -1.012,20.64 -1.402,30.96 -5.948,0 -12.008,0.06 -17.79,-1.53 -1.508,-0.51 -3.712,-1.155 -3.675,-3.127 1.83,-3.442 5.498,-5.22 8.752,-7.035 3.99,-3.863 5.828,-9.338 7.298,-14.558 0.87,-3.72 2.34,-7.373 2.182,-11.25 -1.747,0.652 -2.962,2.078 -3.735,3.728 -1.905,3.615 -3.608,8.002 -7.657,9.69 -2.288,0.825 -3.848,-1.875 -3.848,-3.825 -0.135,-3.817 1.995,-8.355 6,-9.285 0.78,0.727 1.575,1.447 2.37,2.167 5.483,-8.122 9.255,-17.55 9.735,-27.405 -0.045,-2.438 0.12,-5.678 -2.377,-7.035 -1.74,0.607 -2.138,2.752 -3.593,3.773 -0.922,-0.96 -1.095,-2.288 -0.787,-3.541 1.155,-6.712 3.45,-13.155 5.685,-19.567 1.162,-3.48 2.91,-6.788 3.652,-10.395 -0.623,-1.012 -1.688,-1.762 -2.025,-2.925 1.282,-7.252 5.58,-13.447 7.958,-20.302 -2.61,1.59 -3.585,4.657 -5.077,7.155 -7.433,14.67 -11.768,30.712 -14.812,46.815 -0.555,3.57 -1.703,7.68 0.45,10.942 1.193,1.53 3.008,0.135 4.425,-0.232 -2.28,7.98 -8.82,13.658 -11.828,21.292 -2.175,5.362 -4.26,11.948 -1.058,17.325 0.96,1.83 2.235,3.922 1.373,6.045 -1.8,4.56 -7.462,6.097 -9.157,10.732 -0.93,2.093 0.165,4.425 1.762,5.843 2.265,2.025 5.01,3.397 7.538,5.047 -4.058,0.007 -8.108,0.045 -12.165,-0.03 1.335,1.68 2.955,3.788 2.04,6.075 -0.848,1.875 -3.33,1.507 -5.01,1.688 -15,0.007 -30.008,-0.015 -45.008,-0.045 -1.695,-0.105 -4.013,0.127 -4.943,-1.65 -1.02,-2.25 0.638,-4.365 1.95,-6.03 -4.252,0.083 -8.513,0.038 -12.773,0.06 -10.59,-27.75 -14.347,-58.02 -11.22,-87.54 3.262,-31.492 14.595,-62.317 33.69,-87.683 0.022,18.78 -0.045,37.561 0.03,56.34 -1.672,-0.158 -3.307,0.143 -4.867,0.72 1.778,0.622 4.035,0.899 4.98,2.79 1.125,1.59 -0.097,3.405 -0.037,5.115 2.265,4.117 8.302,5.52 12.045,2.602 1.95,-1.485 3.637,-4.334 2.205,-6.712 -1.125,1.065 -2.025,2.76 -3.765,2.873 -2.198,0.308 -4.357,-1.612 -4.267,-3.833 -0.06,-2.459 2.632,-4.433 4.95,-3.592 1.77,0.42 2.317,2.355 3.12,3.735 0.488,-0.757 0.968,-1.515 1.44,-2.28 -1.193,-0.817 -2.835,-1.462 -3.15,-3.061 -0.743,-2.37 1.365,-4.979 3.832,-4.8 2.318,0.03 4.177,2.445 3.555,4.695 -0.285,1.65 -1.987,2.34 -3.18,3.248 0.443,0.727 0.885,1.462 1.343,2.19 0.847,-1.305 1.373,-3.12 3.008,-3.66 2.347,-0.982 5.235,0.975 5.16,3.525 0.113,2.355 -2.31,4.297 -4.583,3.78 -1.552,-0.285 -2.385,-1.815 -3.488,-2.76 -1.62,3.068 1.125,6.502 3.952,7.635 4.208,1.732 9.165,-0.6 11.003,-4.65 -2.265,-1.477 -3.03,-4.125 -1.875,-6.584 1.432,0.337 3.127,0.337 4.2,1.515 1.14,1.117 1.245,2.835 1.845,4.245 0.435,-1.605 1.403,-3.435 0.338,-5.003 -0.758,-1.657 -2.708,-1.792 -4.245,-2.145 0,-20.925 0.06,-41.85 -0.037,-62.775 C 117.8,84.4 123.972,71.951 134.037,64.488 Z m 40.05,-5.858 c 0.495,0.998 3.06,3.045 0.757,3.383 -2.662,-1.47 -5.092,-3.63 -8.242,-3.953 -2.962,-0.413 -6.63,0.66 -7.912,3.6 -0.69,1.635 0.982,2.752 1.823,3.893 -1.012,1.785 -2.198,3.742 -1.74,5.887 0.705,4.223 6.998,6.353 9.78,2.843 2.062,-2.408 0.9,-5.828 1.837,-8.588 0.818,-1.8 5.07,-1.897 4.943,0.345 -1.388,1.845 -3.308,3.292 -4.26,5.452 -1.253,2.513 -1.17,5.385 -1.815,8.062 -0.96,2.791 -4.387,3.601 -5.632,6.195 -1.028,2.617 1.777,4.455 2.573,6.69 -0.863,2.558 -3.308,4.095 -4.95,6.12 5.025,0.795 10.14,0.135 15.15,-0.495 -0.368,-0.345 -1.087,-1.042 -1.448,-1.387 -3.157,0.127 -6.308,0.314 -9.465,0.262 2.318,-1.965 4.598,-4.98 3.27,-8.167 -0.39,-1.552 -2.272,-3.645 -0.39,-4.905 3.188,-1.74 7.042,-1.26 10.357,-0.135 -2.137,0.263 -4.455,0.008 -6.397,1.095 -0.022,0.442 -0.068,1.335 -0.09,1.785 2.16,-0.472 4.335,-0.922 6.555,-1.012 -0.682,0.397 -1.365,0.788 -2.047,1.178 -0.135,0.472 -0.398,1.417 -0.525,1.89 -0.915,-0.181 -1.582,-0.735 -1.995,-1.658 -0.352,0.083 -1.073,0.24 -1.433,0.322 1.208,3.66 1.733,7.883 4.725,10.627 1.74,1.613 4.275,1.021 6.427,1.275 -1.41,0.982 -3.052,1.462 -4.74,1.665 0.083,0.292 0.24,0.878 0.315,1.17 -1.012,0.18 -2.017,0.375 -3.022,0.57 0.742,5.062 6.652,6.63 11.01,6.112 3.248,-0.323 7.485,-2.07 7.65,-5.865 -1.08,-2.453 -2.67,-4.718 -3.052,-7.44 4.815,-0.503 9.795,-0.533 14.363,-2.303 -2.482,-1.74 -6.083,-1.68 -7.95,-4.275 -1.095,-2.355 0.068,-5.235 -1.222,-7.56 -0.922,-1.792 -2.955,-2.43 -4.613,-3.315 0.113,-3.87 -2.198,-6.945 -4.492,-9.788 4.012,0.217 4.68,5.408 8.46,6.03 2.677,0.556 5.94,0.773 8.055,-1.305 2.407,-2.175 2.663,-5.745 1.883,-8.7 -1.11,-3.547 -6.21,-4.163 -8.91,-2.175 -0.855,1.815 -0.84,4.447 -2.992,5.317 -2.318,1.125 -4.568,-0.667 -6.45,-1.837 2.047,-1.44 4.853,-3.135 4.365,-6.083 -0.015,-3.09 -3.847,-4.927 -6.458,-3.607 -1.89,0.667 -2.198,2.888 -3.097,4.417 -2.663,-0.967 -1.02,-5.04 -3.795,-5.775 -2.591,-1.226 -6.476,1.121 -5.164,4.143 z M 59.683,160.863 c 1.282,0.48 2.707,0.705 3.855,1.493 1.417,1.087 1.598,3.007 2.228,4.552 0.6,-1.845 1.448,-4.163 -0.225,-5.723 -1.546,-1.792 -3.968,-1.042 -5.858,-0.322 z m 76.387,0.075 c 1.29,0.51 2.738,0.75 3.87,1.605 1.312,1.035 1.425,2.842 1.965,4.305 0.803,-1.703 1.56,-3.923 0.008,-5.46 -1.463,-1.89 -3.975,-1.26 -5.843,-0.45 z m 89.73,-0.12 c -1.98,1.448 -1.328,4.05 -0.645,6 0.728,-1.62 0.968,-3.75 2.64,-4.763 1.103,-0.562 2.34,-0.81 3.518,-1.199 -1.755,-0.623 -3.916,-1.515 -5.513,-0.038 z m 76.057,0.278 c -1.695,1.567 -0.893,3.915 -0.27,5.767 0.495,-1.252 0.713,-2.64 1.463,-3.78 1.064,-1.507 3.052,-1.643 4.649,-2.235 -1.874,-0.69 -4.282,-1.53 -5.842,0.248 z m -233.73,2.737 c 1.65,0.683 3.863,0.862 4.815,2.618 0.532,1.103 0.788,2.317 1.163,3.487 0.75,-1.883 1.56,-4.312 -0.255,-5.873 -1.56,-1.672 -3.885,-0.862 -5.723,-0.232 z m 59.535,0.067 c 1.478,0.592 3.285,0.758 4.403,2.025 0.982,1.095 1.05,2.663 1.485,4.005 0.802,-1.702 1.62,-3.915 0.112,-5.505 -1.477,-2.025 -4.065,-1.23 -6,-0.525 z m 106.125,0.346 c -1.672,1.583 -0.885,3.893 0.023,5.632 0.397,-1.38 0.472,-2.97 1.515,-4.058 1.103,-1.214 2.85,-1.365 4.305,-1.935 -1.875,-0.719 -4.335,-1.469 -5.843,0.361 z m 59.43,0.105 c -1.492,1.612 -0.562,3.75 0.105,5.498 0.525,-1.598 0.66,-3.57 2.16,-4.62 1.14,-0.742 2.513,-0.953 3.772,-1.433 -1.949,-0.788 -4.574,-1.47 -6.037,0.555 z m -174.54,4.252 c 0.69,2.062 1.47,4.425 3.6,5.422 2.19,1.17 4.703,0.458 6.96,-0.09 -2.108,-0.098 -4.463,0.345 -6.323,-0.907 -1.867,-1.208 -2.46,-3.465 -3.232,-5.408 -0.255,0.248 -0.757,0.736 -1.005,0.983 z m 128.881,-0.99 c -0.675,1.875 -1.238,3.998 -2.963,5.205 -1.852,1.395 -4.305,0.93 -6.457,1.073 2.235,0.54 4.725,1.215 6.892,0.067 2.16,-0.99 2.948,-3.382 3.6,-5.475 -0.27,-0.217 -0.803,-0.652 -1.072,-0.87 z m -114.12,13.912 c -21.75,-0.015 -43.493,0 -65.235,-0.007 -0.008,14.317 0.008,28.627 -0.008,42.945 0,3.54 0.15,7.11 1.035,10.56 2.55,10.545 10.688,19.5 20.91,23.123 7.252,2.722 15.248,2.34 22.59,0.188 -8.64,4.403 -19.058,5.1 -28.117,1.53 0.008,5.46 0,10.913 0.008,16.373 11.197,0 22.395,0.007 33.592,0 0.015,-6.908 -0.03,-13.808 0.022,-20.715 7.305,-4.373 12.907,-11.55 15.12,-19.792 1.53,-5.377 1.2,-11.018 1.23,-16.545 -0.022,-13.725 0.052,-27.45 -0.053,-41.175 -0.195,-3.172 0.66,-6.24 1.845,-9.15 -3.225,3.403 -3.067,8.301 -2.939,12.665 z m 98.407,-12.742 c 0.908,2.453 1.868,4.958 1.8,7.62 0.052,14.565 0,29.137 0.022,43.703 5.362,0 10.732,0 16.095,0 0,-2.978 0,-5.963 0.008,-8.94 -1.673,0.36 -3.337,0.705 -4.995,1.087 0.015,0.653 0.045,1.95 0.06,2.603 -0.525,-0.69 -1.05,-1.388 -1.575,-2.07 -0.158,0.585 -0.473,1.748 -0.63,2.325 -0.12,-0.585 -0.367,-1.77 -0.495,-2.363 -0.413,0.255 -1.238,0.765 -1.65,1.02 0.248,-1.23 0.48,-2.46 0.69,-3.69 0.84,0.352 1.688,0.712 2.527,1.08 1.185,-0.713 2.377,-1.417 3.577,-2.108 -0.6,-0.405 -1.207,-0.78 -1.8,-1.177 1.777,-0.87 2.985,-2.438 4.26,-3.885 0.03,-0.584 0.083,-1.762 0.112,-2.347 -0.84,-0.398 -1.688,-0.795 -2.527,-1.178 -1.853,2.025 -4.462,3.39 -5.723,5.917 -0.495,-0.21 -0.99,-0.42 -1.485,-0.623 -0.502,0.533 -1.005,1.065 -1.508,1.598 0.068,-0.593 0.195,-1.778 0.255,-2.37 -0.458,0.27 -1.373,0.817 -1.83,1.095 0.292,-1.095 0.383,-2.228 0.39,-3.353 1.087,0.248 2.16,0.592 3.188,1.042 1.335,-1.47 2.7,-2.91 4.11,-4.312 -0.922,-0.165 -1.845,-0.337 -2.76,-0.51 1.103,-0.405 2.205,-0.818 3.315,-1.238 -2.977,-2.1 -5.212,-5.317 -8.835,-6.367 0.555,-0.12 1.673,-0.36 2.235,-0.48 -0.488,-0.42 -1.463,-1.26 -1.943,-1.68 l 1.943,0.33 c -0.24,-0.383 -0.728,-1.133 -0.975,-1.515 0.863,0.158 1.725,0.15 2.587,0 0.203,0.9 0.398,1.807 0.593,2.723 2.76,1.448 5.513,5.662 8.895,3.862 2.19,-1.035 -0.217,-2.76 -1.507,-3.083 1.005,-0.27 2.017,-0.532 3.03,-0.78 -1.11,-0.698 -2.205,-1.417 -3.278,-2.167 1.02,-0.615 2.055,-1.208 3.083,-1.815 1.718,0.3 3.472,0.436 5.205,0.143 -0.638,2.333 -1.418,4.83 -0.09,7.103 -0.675,-0.03 -2.032,-0.083 -2.707,-0.112 1.163,1.5 2.887,2.25 4.635,2.85 -1.583,0.42 -3.21,0.645 -4.83,0.855 2.678,1.762 5.483,3.6 8.873,2.978 -0.225,-4.05 -4.515,-6.436 -4.62,-10.462 0.532,-2.573 3.705,-2.115 5.67,-2.498 3.022,1.575 0.825,5.31 1.14,7.905 -2.325,-1.462 -3.863,-3.795 -3.562,-6.645 -0.93,0.368 -2.28,0.488 -2.167,1.822 0.877,3.593 4.567,5.918 4.62,9.833 1.095,0 2.205,0 3.315,0.008 0,-6.353 0,-12.698 0,-19.042 -10.575,-0.007 -21.143,0.008 -31.71,-0.007 0.082,-4.375 0.322,-9.34 -3.031,-12.685 z M 67.49,170.358 c 1.252,1.695 2.677,3.488 4.823,4.042 1.995,0.675 4.08,0.045 6.037,-0.465 -2.505,-0.06 -5.468,0.33 -7.387,-1.665 -1.088,-0.802 -1.861,-2.504 -3.473,-1.912 z m 231.12,-0.413 c -1.192,1.312 -2.333,2.835 -4.058,3.48 -1.755,0.63 -3.667,0.383 -5.497,0.51 1.972,0.473 4.058,1.05 6.068,0.405 1.957,-0.525 3.285,-2.146 4.575,-3.6 -0.271,-0.202 -0.818,-0.599 -1.088,-0.795 z m -30.743,11.521 c 0.06,6.337 0.015,12.675 0.03,19.012 3.188,0 6.382,0.008 9.577,-0.022 -0.532,-0.412 -1.597,-1.23 -2.13,-1.643 1.073,-0.3 2.145,-0.607 3.218,-0.93 -2.685,-2.167 -4.845,-5.31 -8.325,-6.225 0.345,-0.21 1.02,-0.645 1.357,-0.863 -0.21,-0.36 -0.622,-1.08 -0.825,-1.447 0.915,-0.548 1.845,-1.073 2.775,-1.605 0.39,1.343 0.278,3.09 1.718,3.848 1.897,1.305 4.02,3.802 6.48,2.25 -0.758,-0.541 -1.515,-1.065 -2.28,-1.583 1.815,-0.584 2.333,-2.317 2.588,-4.02 1.8,0.338 3.6,0.698 5.392,1.08 -0.165,1.74 -0.33,3.495 0.03,5.228 -0.518,0 -1.537,-0.007 -2.047,-0.015 0.255,3.623 4.162,4.537 6.592,6.427 1.02,0.945 3.51,0.36 3.233,-1.275 -0.42,-3.428 -4.02,-5.542 -4.403,-9.015 -0.232,-1.426 1.103,-2.565 2.438,-2.61 1.597,-0.285 3.953,-1.087 4.657,1.02 0.495,2.078 -0.382,4.283 -0.21,6.427 -2.43,-1.395 -3.998,-3.817 -3.623,-6.697 -1.17,0.3 -2.835,1.11 -2.002,2.603 1.042,3.18 4.62,5.393 4.2,9.03 -0.331,1.643 -2.257,1.763 -3.503,2.302 0.39,0.75 0.78,1.508 1.177,2.265 -0.263,0.42 -0.802,1.253 -1.065,1.672 0.795,0.983 1.912,1.47 3.157,1.703 -0.42,3.465 -3.292,5.565 -6.022,7.26 0.248,0.338 0.742,1.02 0.99,1.357 -0.21,0.397 -0.427,0.78 -0.66,1.163 -0.292,-0.405 -0.87,-1.223 -1.155,-1.627 l -1.012,1.252 c -0.12,-0.368 -0.367,-1.095 -0.488,-1.455 -0.337,0.435 -1.012,1.305 -1.35,1.74 0.127,-0.548 0.383,-1.643 0.51,-2.198 -0.57,0.285 -1.71,0.855 -2.272,1.14 0.787,-2.52 3.487,-2.347 5.52,-3.158 1.057,-0.862 0.742,-2.415 1.02,-3.607 -1.005,0.435 -2.01,0.855 -3.007,1.298 0.817,-2.431 0.502,-4.988 0.458,-7.5 -1.185,1.68 -2.61,3.165 -4.185,4.485 0.413,0.195 1.222,0.592 1.627,0.795 -0.585,0.495 -1.17,0.998 -1.755,1.5 0,3.127 -0.03,6.255 0,9.382 5.295,0 10.598,0 15.9,0 0,-12.922 0,-25.845 0,-38.775 -10.777,0.016 -21.547,-0.029 -32.325,0.031 z m -17.325,6.3 m 35.025,3.525 c 0.218,-0.255 0.645,-0.765 0.855,-1.02 -1.387,0.21 -2.685,-0.263 -3.953,-0.757 0.841,0.892 1.981,1.334 3.098,1.777 z m -3.465,1.732 c 1.095,0.135 2.198,0.285 3.293,0.443 -0.593,-0.473 -1.193,-0.938 -1.793,-1.403 -0.502,0.323 -1.005,0.638 -1.5,0.96 z m -24.967,8.775 c 2.19,2.67 4.312,5.392 6.502,8.062 0.623,1.058 1.89,1.095 2.955,1.372 0.045,-3.15 0.023,-6.292 0.023,-9.435 -3.157,-0.006 -6.323,-0.006 -9.48,0.001 z m 10.755,-0.007 c -0.03,0.863 -0.09,2.595 -0.12,3.465 2.985,0.982 6.195,0.323 9.277,0.45 -1.035,0.555 -2.122,0.998 -3.083,1.657 -0.225,1.2 -0.24,2.431 -0.315,3.645 0.458,0.008 1.373,0.023 1.83,0.03 -0.015,1.373 -0.022,2.737 -0.015,4.11 1.268,-0.15 2.798,0.188 3.765,-0.877 1.215,-1.62 0.698,-3.795 1.005,-5.663 1.575,1.095 0.705,3.218 0.45,4.763 -0.593,2.28 -3.3,2.497 -5.213,2.835 -0.008,1.328 -0.008,2.662 0,3.998 2.52,-0.008 5.048,-0.008 7.575,-0.008 0,-6.135 0,-12.27 0,-18.397 -5.054,-0.008 -10.108,-0.001 -15.156,-0.008 z m 16.44,0.33 c -0.375,1.223 0.052,1.62 1.275,1.192 0.367,-1.222 -0.06,-1.62 -1.275,-1.192 z m -16.582,3.779 c 0.067,1.703 0.105,3.42 0.135,5.123 1.29,0 2.587,0 3.878,-0.007 -0.068,-1.283 -0.09,-2.573 -0.278,-3.84 -1.186,-0.6 -2.498,-0.856 -3.735,-1.276 z m -16.628,1.801 c -0.008,4.17 0,8.34 0,12.51 2.52,0 5.04,0 7.567,0 -0.008,-1.057 -0.008,-2.115 0,-3.165 -2.527,-3.113 -5.04,-6.241 -7.567,-9.345 z m 8.797,4.537 c 0,1.515 -0.008,3.038 -0.008,4.561 1.523,0 3.045,0 4.567,0 0.12,1.725 -0.345,3.592 0.42,5.205 1.395,0.166 2.85,-0.172 4.208,0.308 1.177,2.018 0.3,4.56 0.607,6.78 2.685,-1.455 4.365,-4.065 4.725,-7.08 -1.433,-0.038 -2.873,0.165 -4.298,0 -0.892,-1.575 -0.36,-3.495 -0.517,-5.22 -1.71,0.008 -3.42,0.015 -5.123,0.022 -0.008,-1.53 -0.008,-3.052 -0.008,-4.582 -1.52,-0.001 -3.05,-0.001 -4.573,0.006 z m 9.75,0 c 0,1.515 -0.008,3.038 0,4.561 1.515,0 3.037,0 4.56,0 -0.008,-1.523 -0.008,-3.045 -0.008,-4.567 -1.521,-0.001 -3.036,-0.001 -4.552,0.006 z m -35.895,9.233 c -0.045,3.728 -0.008,7.47 0.458,11.175 5.985,0.038 11.978,-0.015 17.97,0.038 -1.875,-3.442 -2.505,-7.335 -2.392,-11.22 -5.348,0.007 -10.688,-0.001 -16.036,0.007 z M 251,221.411 c 0.015,3.652 0.337,7.478 2.377,10.627 2.708,4.672 7.875,7.462 13.185,7.845 -0.038,-3.022 0.188,-6.052 -0.098,-9.067 -0.33,-0.172 -0.99,-0.517 -1.32,-0.69 -0.54,1.328 -0.488,3.195 -1.897,3.998 -2.078,1.275 -5.175,1.283 -6.975,-0.48 -1.23,-2.257 -0.375,-4.98 -0.907,-7.41 -0.93,-0.585 -1.943,-0.967 -2.91,-1.462 2.168,-0.052 4.335,-0.067 6.51,-0.067 -0.127,-1.095 -0.24,-2.198 -0.345,-3.292 -2.543,-0.002 -5.085,-0.002 -7.62,-0.002 z m 24.502,0.052 c -0.09,0.923 -0.173,1.853 -0.255,2.783 1.972,2.423 3.907,4.86 5.887,7.275 1.613,-3.097 2.017,-6.6 1.95,-10.042 -2.526,-0.016 -5.054,-0.008 -7.582,-0.016 z m 8.918,0.053 c -0.045,2.362 -0.24,4.732 -0.593,7.072 2.677,-0.18 5.363,-0.18 8.04,-0.083 2.01,0.083 3.96,-1.125 4.56,-3.09 -2.647,0.375 -5.212,1.163 -7.882,1.38 0.097,-0.952 0.24,-1.897 0.435,-2.827 0.645,-0.12 1.935,-0.36 2.58,-0.473 -0.923,0.96 -1.875,1.89 -2.828,2.82 2.895,0.188 5.903,-2.573 8.557,-0.555 -1.08,1.643 -2.669,2.775 -4.462,3.518 0.712,1.26 1.462,2.647 3.15,2.632 -0.27,1.155 -0.705,2.258 -0.997,3.413 -0.615,-0.075 -1.215,-0.135 -1.83,-0.188 0.675,-0.578 1.305,-1.215 1.875,-1.898 -1.448,-0.517 -2.812,-1.215 -4.02,-2.16 -1.567,1.792 -3.225,3.653 -5.572,4.388 1.522,-1.763 3.262,-3.345 4.545,-5.31 -2.625,0.675 -5.137,1.77 -7.823,2.22 -3.037,5.033 -8.415,8.4 -14.295,8.805 0.038,6.338 -0.008,12.668 0.022,19.005 12.083,-0.42 23.715,-7.703 28.897,-18.698 3.15,-6.142 3.6,-13.185 3.442,-19.957 -5.263,-0.014 -10.529,0.015 -15.801,-0.014 z m -24.668,0.412 c 0.277,3.045 1.98,5.692 4.688,7.125 -0.188,-2.212 0.735,-4.815 -0.577,-6.758 -1.328,-0.427 -2.746,-0.284 -4.111,-0.367 z m -1.785,10.725 c 1.62,3.127 6.653,1.17 6.068,-2.258 -2.047,-1.433 -3.855,-3.143 -5.302,-5.175 -1.726,2.071 -1.261,5.003 -0.766,7.433 z m 10.05,-2.55 c -0.225,3.285 -0.157,6.585 -0.113,9.878 2.58,-0.375 5.07,-1.14 7.41,-2.273 -2.407,-2.528 -3.892,-6.292 -7.297,-7.605 z m -28.102,16.178 c 2.4,3.195 5.28,6 8.558,8.295 0,7.229 -0.022,14.453 -0.03,21.682 11.79,0.008 23.58,0 35.37,0.008 0.007,-5.482 0,-10.958 0.03,-16.433 -9.105,3.66 -19.597,2.91 -28.297,-1.5 3.638,0.893 7.305,1.717 11.062,1.853 0.015,-4.642 0.008,-9.285 0.008,-13.92 -8.904,0.007 -17.806,-0.023 -26.701,0.015 z M 73.647,284.103 c 17.88,0.188 35.775,0.143 53.655,0.022 -0.765,-3.998 -4.898,-6.78 -8.843,-6.607 -12.008,0.022 -24.008,0.022 -36.015,0 -3.899,-0.082 -8.054,2.58 -8.797,6.585 z m 166.08,0.098 c 17.88,0.007 35.775,0.15 53.655,-0.075 -0.892,-4.095 -5.137,-6.87 -9.202,-6.623 -12.255,0.052 -24.502,-0.022 -36.758,0.03 -3.51,0.383 -7.282,2.903 -7.695,6.668 z"
       stroke-miterlimit="10.43" /></g><path
     style="fill:#014189;stroke:#014189;stroke-width:0.09099071;stroke-miterlimit:10.43000031"
     inkscape:connector-curvature="0"
     id="path33"
     d="m 69.200736,54.6522 c 1.964352,-2.873289 4.685343,-5.427431 7.828306,-6.95526 -0.494726,0.931248 -1.010793,1.847946 -1.53559,2.756883 1.826605,2.685099 4.161516,4.955016 6.300476,7.391782 0.982661,1.018553 1.877047,2.219475 3.207956,2.808296 0.545169,-0.211471 1.629685,-0.632473 2.175823,-0.850734 0.138717,0.160058 0.414211,0.480175 0.552929,0.640233 -2.619136,1.994423 -4.590278,5.042321 -7.805995,6.119077 0.494726,-0.887596 1.010793,-1.767432 1.54238,-2.640477 -2.50952,-3.463079 -5.471083,-6.599252 -8.476298,-9.624838 -1.068996,-1.289197 -2.553173,0.209531 -3.789987,0.355038 z"
     stroke-miterlimit="10.43" /><g
     id="g35"
     transform="matrix(0.97005021,0,0,0.97005021,-11.66944,-11.818551)"><path
       style="fill:#014189;stroke:#014189;stroke-width:0.0938;stroke-miterlimit:10.43000031"
       inkscape:connector-curvature="0"
       id="path37"
       d="m 274.805,63.618 c 6.113,-1.537 12.683,3.87 12.623,10.095 -0.06,4.268 -3.54,8.01 -7.627,8.865 -6.3,1.268 -12.795,-4.785 -12.052,-11.145 0.374,-3.765 3.471,-6.892 7.056,-7.815 z m 3.547,2.625 c -3.787,1.351 -6.84,4.973 -7.402,8.97 -0.525,3.173 2.962,6.053 5.955,4.695 3.66,-1.598 6.638,-5.22 7.133,-9.233 0.45,-3.029 -2.821,-5.632 -5.686,-4.432 z"
       stroke-miterlimit="10.43" /></g><path
     style="fill:#014189;stroke:#014189;stroke-width:0.09099071;stroke-miterlimit:10.43000031"
     inkscape:connector-curvature="0"
     id="path39"
     d="m 59.896015,63.564051 c 1.782952,-1.781982 2.916941,-4.44574 5.391539,-5.383778 -0.415182,1.010792 -0.879836,2.008004 -1.33867,3.012006 3.047898,2.801505 6.351889,5.317815 9.64036,7.820544 1.404632,1.455076 2.990664,-0.356978 4.437979,-0.749848 -1.891598,3.071179 -4.292472,5.828061 -6.903847,8.301689 0.254153,-1.134958 0.596581,-2.247606 0.96714,-3.346673 -2.975144,-2.968353 -6.416882,-5.41288 -9.65394,-8.067907 2.182613,4.881292 4.750336,9.588946 6.838854,14.521651 -5.012249,-0.683885 -9.734454,-2.633686 -14.623507,-3.848189 2.851948,2.451317 5.39833,5.317815 8.599495,7.325819 1.178611,-0.291015 2.31357,-0.748878 3.47084,-1.098097 -1.622894,2.240816 -3.273919,4.525285 -5.449742,6.279135 -0.02134,-1.302777 1.026313,-2.917911 -0.18916,-3.936463 -2.859708,-2.968354 -5.682554,-6.067664 -9.021467,-8.49085 -1.120408,0.334667 -2.103069,0.990421 -3.157513,1.469626 1.040864,-2.1312 2.685099,-3.8705 4.205167,-5.659273 4.081972,1.047655 8.156183,2.10986 12.237184,3.157514 -1.813024,-3.768645 -3.66097,-7.5305 -5.450712,-11.306906 z"
     stroke-miterlimit="10.43" /><path
     style="fill:#014189;stroke:#014189;stroke-width:0.09099071;stroke-miterlimit:10.43000031"
     inkscape:connector-curvature="0"
     id="path41"
     d="m 161.68629,69.071997 c 3.00425,-3.310782 7.66825,-5.369228 12.12757,-4.226509 1.8625,0.457863 2.16127,2.502729 2.29902,4.103312 -1.33867,-1.004002 -2.53862,-2.597794 -4.37978,-2.51728 -3.56493,-0.233782 -6.87571,1.235844 -10.04681,2.640477 z"
     stroke-miterlimit="10.43" /><path
     style="fill:#014189;stroke:#014189;stroke-width:0.09099071;stroke-miterlimit:10.43000031"
     inkscape:connector-curvature="0"
     id="path43"
     d="m 163.28591,71.327363 c 1.83339,-1.295017 4.17606,-1.906148 6.38778,-1.396872 -0.66934,0.19692 -2.00801,0.57524 -2.67734,0.77119 -0.25512,0.720747 -0.51704,1.440524 -0.78574,2.161272 -0.9749,-0.517037 -1.94883,-1.026313 -2.9247,-1.53559 z"
     stroke-miterlimit="10.43" /><path
     style="fill:#014189;stroke:#014189;stroke-width:0.09099071;stroke-miterlimit:10.43000031"
     inkscape:connector-curvature="0"
     id="path45"
     d="m 270.24946,69.595824 c 2.40767,-1.309568 5.80575,0.370559 6.05312,3.142962 0.55293,3.266159 -3.36123,6.053114 -6.25004,4.372017 -3.03431,-1.395903 -2.81605,-6.219962 0.19692,-7.514979 z"
     stroke-miterlimit="10.43" /><path
     style="fill:#014189;stroke:#014189;stroke-width:0.09099071;stroke-miterlimit:10.43000031"
     inkscape:connector-curvature="0"
     id="path47"
     d="m 160.71818,77.736485 c 1.16406,-0.552929 2.40767,-0.916697 3.63769,-1.301807 0.14551,0.232812 0.44429,0.706196 0.58882,0.945799 -1.40366,0.182369 -2.81508,0.349218 -4.22651,0.356008 z"
     stroke-miterlimit="10.43" /><g
     id="g49"
     transform="matrix(0.97005021,0,0,0.97005021,-11.66944,-11.818551)"><path
       style="fill:#014189;stroke:#014189;stroke-width:0.0938;stroke-miterlimit:10.43000031"
       inkscape:connector-curvature="0"
       id="path51"
       d="m 304.708,90.476 c 2.482,2.693 4.252,5.948 6.27,8.993 1.178,1.875 2.25,4.763 0.226,6.472 -1.673,1.748 -4.192,0.63 -5.835,-0.517 0.277,1.395 0.893,2.842 0.472,4.282 -0.667,2.31 -3.517,3.698 -5.745,2.745 -2.16,-0.863 -3.578,-2.82 -4.89,-4.643 -1.725,-2.587 -3.54,-5.123 -5.01,-7.875 1.05,0.45 2.04,1.012 3.105,1.433 1.417,-0.27 2.542,-1.29 3.758,-2.018 2.587,-1.853 5.453,-3.337 7.837,-5.482 -0.031,-1.133 -0.091,-2.265 -0.188,-3.39 z m -2.228,10.147 c 1.208,1.515 2.962,3.825 5.152,2.535 2.663,-1.163 1.628,-4.343 0.113,-6.008 -1.778,1.133 -3.525,2.295 -5.265,3.473 z m -6.248,4.598 c -0.6,1.185 0.413,2.445 1.305,3.15 2.01,1.492 5.138,-0.045 5.625,-2.385 0.18,-1.763 -0.885,-3.285 -1.598,-4.8 -1.821,1.267 -3.914,2.28 -5.332,4.035 z"
       stroke-miterlimit="10.43" /></g><path
     style="fill:#014189;stroke:#014189;stroke-width:0.09099071;stroke-miterlimit:10.43000031"
     inkscape:connector-curvature="0"
     id="path53"
     d="m 161.08195,80.225634 c 1.71699,-0.415182 3.45532,-0.720747 5.21596,-0.887596 -1.22905,1.716989 -3.60082,2.821876 -5.21596,0.887596 z"
     stroke-miterlimit="10.43" /><path
     style="fill:#014189;stroke:#014189;stroke-width:0.09099071;stroke-miterlimit:10.43000031"
     inkscape:connector-curvature="0"
     id="path55"
     d="m 44.464456,83.666402 c 1.490967,0.756639 2.976114,1.53559 4.394327,2.429976 -1.259125,0.240572 -2.531831,0.218261 -3.789986,0.356008 -1.578272,0.939009 -2.269917,2.779194 -3.215716,4.271131 1.716989,1.099067 3.469869,2.153512 5.22372,3.208926 0.698436,-1.214502 1.432764,-2.407664 1.985693,-3.689101 -0.38511,-0.945798 -0.808052,-1.877047 -1.258155,-2.785984 2.1312,0.821633 4.459321,1.73154 5.754338,3.754095 -0.683886,-0.08052 -2.058447,-0.240573 -2.743302,-0.312357 -0.843944,1.236814 -1.665577,2.49497 -2.473628,3.768646 1.920699,0.9749 3.710442,2.764643 5.951258,2.771433 1.272706,-1.1563 2.174852,-2.690919 2.691889,-4.321574 0.05044,-1.643265 -1.207713,-3.018796 -1.316358,-4.669821 1.411423,1.062205 2.691889,2.269917 3.972355,3.47666 -2.066206,3.434947 -4.169275,6.853404 -6.205411,10.30969 -0.611131,1.05445 -1.338669,2.05845 -2.305809,2.82285 0.130957,-1.06997 0.334667,-2.12344 0.436522,-3.20117 -1.222263,-1.47641 -3.041107,-2.255363 -4.619379,-3.273916 -2.299019,-1.295017 -4.431189,-2.947012 -6.95526,-3.768645 -1.018552,0.421972 -1.956591,1.018553 -2.953803,1.490967 2.202984,-4.366196 4.968598,-8.418096 7.426705,-12.637814 z"
     stroke-miterlimit="10.43" /><g
     id="g57"
     transform="matrix(0.97005021,0,0,0.97005021,-11.66944,-11.818551)"><path
       style="fill:#014189;stroke:#014189;stroke-width:0.0938;stroke-miterlimit:10.43000031"
       inkscape:connector-curvature="0"
       id="path59"
       d="m 301.25,116.831 c 1.515,0.652 2.895,1.927 4.65,1.792 5.272,-0.157 10.53,-0.592 15.795,-0.818 0.21,0.308 0.623,0.916 0.833,1.223 -3.562,4.08 -7.245,8.047 -10.703,12.217 -1.2,1.192 -0.667,2.992 -0.81,4.485 -2.311,-2.536 -3.473,-5.888 -4.65,-9.053 0.772,0.555 1.538,1.117 2.303,1.688 1.005,-0.99 1.995,-1.988 2.978,-2.993 -0.817,-1.665 -1.635,-3.323 -2.453,-4.973 -1.357,0.203 -2.708,0.405 -4.05,0.63 0.015,1.042 0.03,2.085 0.038,3.127 -1.764,-2.165 -2.881,-4.76 -3.931,-7.325 z m 9.547,3.232 c 0.66,1.335 1.32,2.663 1.98,3.998 1.403,-1.522 2.805,-3.053 4.2,-4.59 -2.062,0.195 -4.117,0.39 -6.18,0.592 z"
       stroke-miterlimit="10.43" /></g><g
     id="g61"
     transform="matrix(0.97005021,0,0,0.97005021,-11.66944,-11.818551)"><path
       style="fill:#014189;stroke:#014189;stroke-width:0.0938;stroke-miterlimit:10.43000031"
       inkscape:connector-curvature="0"
       id="path63"
       d="m 44.052,123.858 c 1.56,-3.105 4.657,-5.962 8.377,-5.482 5.198,0.435 9.157,5.76 7.935,10.882 -1.05,4.485 -2.97,8.85 -5.483,12.713 -0.022,-0.78 -0.082,-2.34 -0.105,-3.12 -0.998,-1.35 -2.805,-1.74 -4.23,-2.498 -2.835,-1.125 -5.482,-2.82 -8.49,-3.45 -0.968,0.555 -1.838,1.245 -2.76,1.852 1.269,-3.757 2.986,-7.349 4.756,-10.897 z m -0.554,4.62 c 3.967,1.905 7.942,3.84 12.052,5.408 1.935,0.9 2.752,-1.703 3,-3.105 0.825,-4.98 -4.785,-8.153 -9.098,-8.175 -3.269,0 -4.994,3.194 -5.954,5.872 z"
       stroke-miterlimit="10.43" /></g><path
     style="fill:#014189;stroke:#014189;stroke-width:0.09099071;stroke-miterlimit:10.43000031"
     inkscape:connector-curvature="0"
     id="path65"
     d="m 76.0328,106.05322 c 2.11665,-0.87304 4.379777,-1.2727 6.620593,-1.7102 0.101855,4.70766 -0.19692,9.42889 0.130957,14.12878 0.727537,0.58882 1.484176,1.14951 2.255366,1.68013 -2.975144,0.10186 -5.965809,0.13096 -8.941923,-0.0436 0.843944,-0.50928 1.702439,-0.99624 2.568693,-1.48418 -0.101855,-3.91415 0.37056,-7.88651 -0.240572,-11.7638 -0.596581,-0.19595 -1.796533,-0.60337 -2.393114,-0.80708 z"
     stroke-miterlimit="10.43" /><path
     style="fill:#014189;stroke:#014189;stroke-width:0.09099071;stroke-miterlimit:10.43000031"
     inkscape:connector-curvature="0"
     id="path67"
     d="m 88.924767,104.59815 c 2.640477,-0.008 5.281924,-0.008 7.9224,0 -0.160058,0.96035 -0.327877,1.92749 -0.486965,2.8956 -2.13217,0 -4.25658,0 -6.38099,0 -0.174609,1.04765 -0.349218,2.0953 -0.523827,3.14975 2.423185,-0.61113 5.616591,-0.89439 7.217173,1.46283 1.847946,2.41543 0.283255,5.84941 -2.182613,7.12308 -2.33588,1.7102 -5.281923,1.29502 -7.755551,0.17461 0.444283,-0.87983 0.924458,-1.75288 1.440525,-2.59003 1.345459,0.80029 2.575483,1.95756 4.190616,2.17582 2.247607,-1.38232 1.752881,-5.53705 -0.735298,-6.41009 -1.230023,-0.28326 -2.480418,-0.0291 -3.718202,0.0223 0.357948,-2.66376 0.685825,-5.33431 1.012732,-8.00388 z"
     stroke-miterlimit="10.43" /><path
     style="fill:#014189;stroke:#014189;stroke-width:0.09099071;stroke-miterlimit:10.43000031"
     inkscape:connector-curvature="0"
     id="path69"
     d="m 234.83293,109.47944 c 0.18916,-1.61611 0.39287,-3.23803 0.60337,-4.85316 3.71044,0.008 7.4141,-0.0291 11.12454,0.0436 -2.40864,5.16552 -4.75034,10.37469 -6.99891,15.62072 -1.29502,0.0514 -2.58325,0.10864 -3.87051,0.15327 2.66279,-4.21293 5.31103,-8.42489 7.70414,-12.79691 -2.96156,0.0349 -6.35189,-0.65575 -8.56263,1.83243 z"
     stroke-miterlimit="10.43" /><path
     style="fill:#014189;stroke:#014189;stroke-width:0.09099071;stroke-miterlimit:10.43000031"
     inkscape:connector-curvature="0"
     id="path71"
     d="m 249.14311,104.59815 c 2.63369,-0.008 5.26737,-0.008 7.90106,0 -0.16006,0.96035 -0.32788,1.92749 -0.48794,2.8956 -2.12441,0 -4.24882,0 -6.37323,0 -0.1746,1.04765 -0.34921,2.08754 -0.52382,3.1352 1.81108,-0.30557 3.77543,-0.8294 5.52152,0.065 2.26992,0.95356 3.21572,3.98012 1.95756,6.08998 -1.87704,3.25937 -6.71468,4.9036 -9.87996,2.48818 -0.22505,-0.98267 0.71978,-1.65879 1.11265,-2.45908 1.51328,0.67612 3.51449,3.21571 5.10732,1.43373 0.92348,-1.7684 0.64023,-4.34388 -1.13496,-5.47787 -1.34546,-0.58203 -2.84419,-0.2105 -4.24882,-0.17461 0.40839,-2.656 0.71395,-5.33431 1.04862,-7.99612 z"
     stroke-miterlimit="10.43" /><path
     style="fill:#014189;stroke:#014189;stroke-width:0.09099071;stroke-miterlimit:10.43000031"
     inkscape:connector-curvature="0"
     id="path73"
     d="m 300.75463,115.62665 c 1.78198,-0.73433 3.64545,-1.27271 5.50019,-1.81885 0.13871,2.66958 1.30277,5.10053 2.20395,7.56639 1.03311,2.6851 1.75385,5.5516 3.53583,7.87972 -1.78198,0.7644 -3.55717,1.54238 -5.40512,2.12344 0.69068,-1.56372 2.9315,-2.71323 2.26313,-4.64169 -0.19692,-0.9167 -0.48017,-1.81108 -0.7353,-2.71323 -4.36522,1.77519 -9.00691,2.96835 -13.18298,5.15776 -0.1523,1.17182 -0.24736,2.35722 -0.29101,3.55038 -1.94301,-3.12162 -2.91015,-6.71469 -4.03056,-10.17097 1.26591,0.67612 2.26312,2.75688 3.95101,2.02158 4.08197,-1.30957 8.03978,-2.96059 12.07713,-4.40112 -0.65479,-1.17861 -1.04766,-2.56772 -2.02935,-3.51449 -1.29598,-0.35504 -2.6201,-0.52868 -3.85692,-1.03892 z"
     stroke-miterlimit="10.43" /><path
     style="fill:#014189;stroke:#014189;stroke-width:0.09099071;stroke-miterlimit:10.43000031"
     inkscape:connector-curvature="0"
     id="path75"
     d="m 129.69598,128.70874 c 0.42197,-2.9247 1.23002,-6.5556 4.41567,-7.60228 -0.66158,3.01104 -2.39312,6.39457 -0.45787,9.29696 1.62969,2.48818 4.9977,1.66655 7.46454,1.53559 -1.33867,3.33212 -2.94701,6.94071 -6.09677,8.94192 -1.61513,1.12041 -3.83363,0.16006 -4.47387,-1.60058 -1.45604,-3.30399 -1.20771,-7.07264 -0.8517,-10.57161 z"
     stroke-miterlimit="10.43" /><g
     id="g77"
     transform="matrix(0.97005021,0,0,0.97005021,-11.66944,-11.818551)"><path
       style="fill:#014189;stroke:#014189;stroke-width:0.0938;stroke-miterlimit:10.43000031"
       inkscape:connector-curvature="0"
       id="path79"
       d="m 50.135,146.763 c 1.905,0 2.902,-1.792 4.177,-2.896 -0.713,3.331 -1.238,6.916 -3.255,9.743 -0.09,-0.675 -0.255,-2.018 -0.338,-2.692 -1.417,0.052 -2.835,0.12 -4.252,0.194 -0.532,1.77 -1.072,3.541 -1.605,5.317 1.14,0.75 2.28,1.5 3.442,2.228 0.727,-0.735 1.47,-1.448 2.235,-2.153 -0.51,2.715 -1.327,5.362 -2.355,7.92 -0.638,-1.597 -0.803,-3.525 -2.28,-4.642 -3.892,-3.383 -7.89,-6.645 -11.827,-9.975 0.015,-0.383 0.038,-1.147 0.052,-1.538 5.333,-0.546 10.681,-0.921 16.006,-1.506 z m -11.55,4.995 c 1.635,1.283 3.278,2.55 4.92,3.825 0.428,-1.433 0.863,-2.85 1.29,-4.275 -2.07,0.143 -4.14,0.293 -6.21,0.45 z"
       stroke-miterlimit="10.43" /></g><path
     style="fill:#014189;stroke:#014189;stroke-width:0.09099071;stroke-miterlimit:10.43000031"
     inkscape:connector-curvature="0"
     id="path81"
     d="m 186.91633,136.96581 c 3.52904,-3.33212 10.86262,-3.26616 12.30315,2.08852 0.1164,2.10986 -1.94204,1.69565 -3.38354,1.52007 -0.62568,-1.33867 -0.84394,-3.20893 -2.43676,-3.76865 -2.10307,-0.85849 -4.32837,-0.0145 -6.48285,0.16006 z"
     stroke-miterlimit="10.43" /><g
     id="g83"
     transform="matrix(0.97005021,0,0,0.97005021,-11.66944,-11.818551)"><path
       style="fill:#014189;stroke:#014189;stroke-width:0.0938;stroke-miterlimit:10.43000031"
       inkscape:connector-curvature="0"
       id="path85"
       d="m 318.762,160 c -0.885,-2.618 -1.942,-5.302 -1.86,-8.107 1.065,0.938 1.8,2.49 3.337,2.737 5.19,1.125 10.53,1.448 15.72,2.573 0.337,0.27 1.012,0.817 1.35,1.095 -4.245,3.285 -8.625,6.39 -12.877,9.66 -1.56,1.05 -1.792,3.023 -2.498,4.62 -0.93,-3.172 -2.04,-6.345 -2.265,-9.667 0.51,0.45 1.53,1.342 2.04,1.785 1.177,-0.63 2.265,-1.425 3.368,-2.182 -0.473,-1.792 -0.93,-3.585 -1.402,-5.385 -1.335,-0.052 -2.67,-0.105 -4.005,-0.135 -0.278,1.004 -0.585,2.009 -0.908,3.006 z m 6.555,-2.857 c 0.368,1.44 0.743,2.888 1.11,4.335 1.695,-1.208 3.39,-2.423 5.078,-3.637 -2.063,-0.24 -4.125,-0.473 -6.188,-0.698 z"
       stroke-miterlimit="10.43" /></g><path
     style="fill:#014189;stroke:#014189;stroke-width:0.09099071;stroke-miterlimit:10.43000031"
     inkscape:connector-curvature="0"
     id="path87"
     d="m 187.68073,141.4261 c 1.01079,2.38633 1.39008,4.9977 2.53183,7.34134 0.96035,2.20396 2.65503,3.9937 3.60859,6.20541 0.69843,2.74331 -2.64824,3.61635 -3.5727,5.78441 -1.13496,0.56651 -2.27671,1.1272 -3.34667,1.8043 -2.59683,0.34242 -5.19462,0.66157 -7.76234,1.14951 0.42197,-1.12817 0.64702,-2.35723 1.2727,-3.39809 1.12041,-0.67613 2.39409,-1.09131 3.46987,-1.84795 1.49194,-1.13495 1.63745,-3.12841 2.13896,-4.78719 3.52226,-3.13618 1.5579,-8.20663 1.65976,-12.25174 z"
     stroke-miterlimit="10.43" /><path
     style="fill:#014189;stroke:#014189;stroke-width:0.09099071;stroke-miterlimit:10.43000031"
     inkscape:connector-curvature="0"
     id="path89"
     d="m 17.531012,161.38197 c -2.619136,-4.22747 -1.476417,-9.51716 0.40063,-13.79411 1.687888,0.13872 3.383536,0.26191 5.071423,0.43652 -0.130957,0.24737 -0.37832,0.73433 -0.509276,0.98169 -1.549171,0.47339 -3.419427,0.85171 -4.24203,2.43774 -1.74609,2.81509 -0.661574,6.89027 2.394084,8.29393 3.936464,2.19716 10.723905,1.73154 11.97527,-3.41264 1.018553,-3.28071 -2.334911,-5.13641 -3.579485,-7.67503 1.855706,0.58882 3.601796,1.45507 5.296474,2.41542 -0.0582,4.22651 -0.247363,9.05736 -3.514492,12.18577 -3.718203,3.75507 -10.688014,2.64145 -13.292598,-1.86929 z"
     stroke-miterlimit="10.43" /><path
     style="fill:#014189;stroke:#014189;stroke-width:0.09099071;stroke-miterlimit:10.43000031"
     inkscape:connector-curvature="0"
     id="path91"
     d="m 147.05503,148.79557 c 3.9287,-1.1204 8.26482,-0.53158 11.6115,1.84795 0.10961,1.84794 -0.17461,3.89281 0.98266,5.48563 1.37456,2.38633 4.16151,3.18759 6.66424,3.77641 0.50928,2.53183 1.82661,4.77265 3.95781,6.27137 -1.44829,0.20371 -2.97612,0.80806 -4.40209,0.1523 -1.9498,-0.61113 -3.01201,-2.7433 -5.07142,-3.09252 -1.46963,-0.39287 -2.99067,-0.90991 -3.98012,-2.13896 -2.34267,-2.58227 -2.28447,-6.30048 -2.29902,-9.5744 -2.12441,-1.16406 -4.46708,-1.75385 -6.86795,-1.9139 -0.15133,-0.20274 -0.44332,-0.61017 -0.59561,-0.81388 z"
     stroke-miterlimit="10.43" /><path
     style="fill:#014189;stroke:#014189;stroke-width:0.09099071;stroke-miterlimit:10.43000031"
     inkscape:connector-curvature="0"
     id="path93"
     d="m 314.07536,154.0484 c 1.54238,-0.85074 1.89936,-2.69868 2.7433,-4.11011 0.68389,3.26616 1.36778,6.56239 1.37457,9.91683 -0.62569,-0.79254 -1.22227,-1.60059 -1.8043,-2.41543 -3.30302,1.93525 -6.50418,4.03056 -9.749,6.05311 3.66679,0.72075 7.30448,1.61514 11.01492,2.10986 0.37832,-0.93124 0.68388,-1.89159 1.11265,-2.80053 0.74208,2.62689 1.1204,5.33236 1.38232,8.04559 -1.28823,-1.10585 -2.29902,-2.66957 -3.9937,-3.17885 -4.83861,-1.65879 -9.91682,-2.49594 -14.78357,-4.05966 -0.065,-0.30557 -0.18916,-0.92446 -0.25512,-1.23002 4.16249,-3.00522 8.69456,-5.4643 12.95793,-8.33079 z"
     stroke-miterlimit="10.43" /><path
     style="fill:#014189;stroke:#014189;stroke-width:0.09099071;stroke-miterlimit:10.43000031"
     inkscape:connector-curvature="0"
     id="path95"
     d="m 223.19912,169.01433 c -2.10986,-0.28325 -1.89936,-3.42719 -0.13872,-4.07421 0.11641,1.35322 0.16006,2.71323 0.13872,4.07421 z"
     stroke-miterlimit="10.43" /><path
     style="fill:#014189;stroke:#014189;stroke-width:0.09099071;stroke-miterlimit:10.43000031"
     inkscape:connector-curvature="0"
     id="path97"
     d="m 239.39411,165.79861 c 0.36377,0 1.09906,0 1.46283,0 0,1.04087 0,2.08076 0,3.12842 -0.36377,0 -1.09906,0 -1.46283,0 -0.007,-1.04766 -0.007,-2.08852 0,-3.12842 z"
     stroke-miterlimit="10.43" /><g
     id="g99"
     transform="matrix(0.97005021,0,0,0.97005021,-11.66944,-11.818551)"><path
       style="fill:#014189;stroke:#014189;stroke-width:0.0938;stroke-miterlimit:10.43000031"
       inkscape:connector-curvature="0"
       id="path101"
       d="m 185.022,187.69 c 7.778,-2.137 15.697,-4.492 23.857,-3.93 0.728,0.922 1.485,1.815 2.258,2.708 -0.998,0.832 -1.973,1.695 -2.918,2.58 -1.237,-1.65 -2.782,-3.413 -5.025,-3.413 -2.692,-0.48 -4.507,1.852 -5.805,3.833 -1.935,-0.263 -4.02,-0.803 -5.873,0.127 -2.407,1.103 -3.405,3.907 -3.548,6.39 -0.292,4.447 1.463,8.67 3.398,12.569 -1.755,5.123 -3.083,10.598 -2.107,16.021 0.847,5.67 4.087,10.507 6.577,15.54 3.315,7.38 5.175,15.292 7.808,22.913 -0.173,-8.018 -1.365,-16.095 -4.028,-23.678 -2.468,-5.843 -6.075,-11.445 -6.353,-17.97 -0.532,-7.155 3.938,-13.297 5.002,-20.182 0,-1.71 -1.53,-2.715 -2.677,-3.698 -1.492,1.605 -1.882,3.803 -2.498,5.828 -0.795,-2.775 -2.085,-5.655 -1.485,-8.603 0.458,-2.302 3.458,-2.175 5.055,-1.192 2.423,1.597 3.69,4.41 4.627,7.058 0.99,3.307 -1.252,6.397 -1.32,9.63 0.78,1.792 2.775,2.512 4.298,3.547 -1.275,3.412 -2.527,7.118 -1.68,10.785 0.848,3.735 6.188,5.438 9.015,2.857 0.218,-1.62 0.083,-3.27 0.375,-4.875 0.645,-2.73 2.318,-5.1 2.828,-7.867 0.008,-1.831 -0.57,-3.593 -0.825,-5.393 -0.427,-0.135 -1.275,-0.405 -1.703,-0.54 -0.292,0.99 -0.72,1.935 -1.5,2.647 -0.113,-1.027 -0.195,-2.055 -0.24,-3.083 -0.345,-0.42 -1.042,-1.267 -1.387,-1.688 1.8,0.533 3.593,1.11 5.393,1.658 0.502,-2.302 -0.435,-4.388 -1.522,-6.337 -0.345,-3.75 2.782,-6.975 6.172,-8.13 1.583,1.935 1.688,4.439 1.41,6.81 -0.817,-1.23 -1.207,-3.66 -3.157,-3.397 -1.507,-0.023 -2.468,1.792 -1.792,3.083 1.853,5.385 3.728,10.777 5.115,16.305 1.298,6.78 -1.965,13.163 -3.705,19.53 -2.228,8.483 -4.192,17.303 -3.233,26.115 1.778,-11.28 4.425,-22.455 8.805,-33.03 -0.397,13.013 -1.943,26.047 -5.16,38.67 -1.402,5.565 -4.485,10.567 -8.468,14.647 -11.61,-7.17 -19.92,-19.192 -22.815,-32.498 -1.68,-7.89 -1.973,-15.998 -2.197,-24.038 -0.232,-12.763 -0.764,-25.619 1.028,-38.309 z m 11.775,24.038 c -1.065,1.522 -1.635,3.353 -1.395,5.22 0.338,4.23 -0.465,8.887 1.92,12.675 2.002,3.263 5.76,4.68 9.075,6.218 -0.968,2.092 -2.085,4.245 -2.025,6.615 0.15,2.723 1.365,5.213 2.422,7.68 -0.112,-3.285 -0.72,-6.698 0.383,-9.885 1.672,-3.78 5.025,-6.375 7.837,-9.263 2.205,-2.152 2.64,-5.31 3.42,-8.137 0.615,-2.618 1.665,-5.393 0.652,-8.047 -0.323,-0.833 -1.058,-2.647 -2.092,-1.373 -1.733,4.312 -1.11,9.233 -3.075,13.478 -1.163,2.58 -3.495,4.312 -5.415,6.292 -2.94,-1.538 -6.63,-2.521 -8.317,-5.647 -2.137,-4.32 -0.698,-9.322 -2.018,-13.822 -0.336,-0.729 -0.344,-1.944 -1.372,-2.004 z m 13.095,26.115 c 2.348,3.667 1.665,8.13 1.177,12.21 2.16,-4.373 3.585,-9.811 0.698,-14.22 -0.63,0.667 -1.26,1.335 -1.875,2.01 z"
       stroke-miterlimit="10.43" /></g><path
     style="fill:#014189;stroke:#014189;stroke-width:0.09099071;stroke-miterlimit:10.43000031"
     inkscape:connector-curvature="0"
     id="path103"
     d="m 262.05642,167.67566 c 0.66933,0.7062 1.33867,1.41821 2.01479,2.1312 l 0.95356,-1.70923 1.1563,1.65782 c -1.26591,0.60434 -2.67734,0.60434 -4.04511,0.53159 -0.0204,-0.65479 -0.065,-1.95757 -0.0795,-2.61138 z"
     stroke-miterlimit="10.43" /><g
     id="g105"
     transform="matrix(0.97005021,0,0,0.97005021,-11.66944,-11.818551)"><path
       style="fill:#014189;stroke:#014189;stroke-width:0.0938;stroke-miterlimit:10.43000031"
       inkscape:connector-curvature="0"
       id="path107"
       d="m 40.61,189.281 c 1.778,-0.487 2.498,-2.34 3.66,-3.585 -0.39,3.292 0.33,6.975 -1.32,9.968 -0.21,-0.623 -0.623,-1.875 -0.825,-2.498 -1.38,0.36 -2.752,0.743 -4.125,1.125 -0.143,1.845 -0.278,3.69 -0.42,5.542 1.29,0.487 2.565,1.058 3.915,1.35 0.352,-0.623 1.057,-1.86 1.41,-2.482 0.593,2.55 0.008,5.167 -0.127,7.732 l -0.84,0 c -0.458,-1.388 -1.005,-2.888 -2.483,-3.488 -4.027,-2.242 -8.19,-4.229 -12.255,-6.39 -1.012,-0.412 -1.68,-1.26 -2.175,-2.189 5.16,-1.793 10.417,-3.301 15.585,-5.085 z m -10.065,7.342 c 1.83,0.922 3.69,1.792 5.542,2.67 0.113,-1.493 0.218,-2.978 0.33,-4.463 -1.965,0.593 -3.922,1.178 -5.872,1.793 z"
       stroke-miterlimit="10.43" /></g><path
     style="fill:#014189;stroke:#014189;stroke-width:0.09099071;stroke-miterlimit:10.43000031"
     inkscape:connector-curvature="0"
     id="path109"
     d="m 267.21515,171.10188 c -1.79751,0.066 -0.11641,-2.67734 0.98169,-1.91294 0.19692,0.86528 -0.12999,1.50552 -0.98169,1.91294 z"
     stroke-miterlimit="10.43" /><path
     style="fill:#014189;stroke:#014189;stroke-width:0.09099071;stroke-miterlimit:10.43000031"
     inkscape:connector-curvature="0"
     id="path111"
     d="m 197.85171,170.11922 c 1.05444,-0.26192 2.10986,-0.53062 3.15751,-0.81387 1.64423,1.38911 2.85874,3.17885 3.57948,5.2014 -1.74609,-0.64702 -3.56493,-1.09906 -5.44198,-1.01079 -0.42197,-1.13496 -0.85073,-2.26313 -1.29501,-3.37674 z"
     stroke-miterlimit="10.43" /><path
     style="fill:#014189;stroke:#014189;stroke-width:0.09099071;stroke-miterlimit:10.43000031"
     inkscape:connector-curvature="0"
     id="path113"
     d="m 224.63964,169.8282 c 0.44429,-0.0728 1.33867,-0.2105 1.78198,-0.27646 -0.0213,0.50151 -0.065,1.50552 -0.0805,2.01576 0.59658,0.24737 1.78974,0.74209 2.38632,0.98945 -1.81108,-0.18237 -3.97138,-0.48017 -4.08779,-2.72875 z"
     stroke-miterlimit="10.43" /><g
     id="g115"
     transform="matrix(0.97005021,0,0,0.97005021,-11.66944,-11.818551)"><path
       style="fill:#014189;stroke:#014189;stroke-width:0.0938;stroke-miterlimit:10.43000031"
       inkscape:connector-curvature="0"
       id="path117"
       d="m 89.105,187.788 c 1.83,-0.263 3.578,0.285 5.34,0.637 2.01,-0.314 3.96,-1.11 6.022,-1.035 1.703,0.915 3.285,2.04 5.01,2.925 -0.037,0.728 -0.082,1.455 -0.127,2.19 -1.312,0.263 -2.64,0.435 -3.922,0.84 -0.998,0.967 -1.215,2.453 -1.792,3.675 1.823,-0.352 3.645,-0.735 5.475,-1.042 0.008,0.833 0.015,1.665 0.015,2.498 -1.403,0.292 -3.87,0 -4.005,1.98 0.592,2.16 3.337,3.172 5.332,2.377 2.265,-0.802 3.473,-3.03 4.905,-4.792 0.3,1.613 0.555,3.232 0.742,4.868 2.798,-2.633 6.127,-4.71 8.7,-7.545 0.157,-2.595 0.78,-5.205 2.857,-6.944 -0.15,0.824 -0.45,2.467 -0.6,3.292 1.402,-0.69 2.812,-1.365 4.252,-1.979 -0.84,1.169 -1.695,2.332 -2.558,3.502 1.462,-0.135 2.933,-0.247 4.395,-0.314 -1.343,0.877 -2.685,1.762 -3.968,2.729 1.373,0.585 2.843,0.825 4.297,1.073 -1.372,1.275 -3.135,1.8 -4.972,1.882 -2.873,3.623 -6.278,6.735 -9.96,9.503 1.042,3.367 5.22,0.938 7.103,-0.473 -0.157,1.388 0.188,3.023 -0.788,4.185 -1.583,1.943 -4.312,1.98 -6.57,2.4 2.61,2.55 5.033,5.272 7.433,8.01 1.605,-3.038 5.453,-2.775 7.5,-0.36 -1.29,0.128 -2.587,0.24 -3.878,0.338 1.478,0.968 2.888,2.13 3.24,3.968 -1.05,-0.608 -2.085,-1.238 -3.12,-1.868 -0.217,1.628 -0.488,3.263 -0.945,4.845 -0.998,-1.32 -1.628,-3.877 -3.78,-3.188 -0.645,0.698 -1.2,1.478 -1.65,2.325 -0.45,-1.485 -0.712,-3.038 -1.32,-4.462 -4.478,-1.508 -8.595,-3.953 -11.85,-7.41 -2.88,1.68 -6.525,1.447 -9.225,3.383 2.79,0.652 5.835,0.712 8.333,2.28 1.898,1.08 3.18,2.888 4.65,4.455 1.14,1.357 3.112,1.192 4.672,1.635 -1.155,2.399 -3.66,3.232 -6.142,3.449 2.265,1.65 4.417,3.45 6.622,5.183 1.665,-0.87 3.285,-1.987 5.19,-2.25 1.44,-0.067 2.22,1.291 3.142,2.153 -1.2,0.038 -2.392,0.075 -3.585,0.12 0.9,1.612 1.657,3.315 2.205,5.085 -1.132,-0.562 -2.227,-1.208 -3.367,-1.748 -0.127,1.373 -0.315,2.76 -0.75,4.08 -0.675,-1.29 -1.335,-2.67 -2.715,-3.33 -0.705,0.982 -1.44,1.942 -2.25,2.857 -0.233,-1.62 0.667,-4.583 -1.702,-4.912 -5.002,-1.208 -10.853,-1.838 -14.1,-6.368 1.132,-0.48 2.25,-1.005 3.397,-1.455 -3.337,-2.46 -6.225,-5.468 -8.498,-8.94 1.155,3.18 1.35,6.532 1.08,9.885 -0.3,1.965 1.147,3.405 2.407,4.665 -3,0.323 -5.76,-0.915 -7.83,-3.045 0.488,2.737 0.51,5.88 2.512,8.055 1.868,2.055 5.115,0.907 7.215,2.527 1.29,0.983 1.455,2.723 1.965,4.155 -1.238,-0.802 -2.483,-1.598 -3.735,-2.37 0.225,0.938 0.667,2.82 0.885,3.757 -1.027,-0.78 -2.062,-1.56 -3.097,-2.325 0.045,0.803 0.135,2.407 0.18,3.21 -0.915,-1.439 -1.822,-2.887 -2.805,-4.275 -1.103,1.118 -1.657,2.58 -2.093,4.073 -2.25,-1.395 -0.998,-3.765 0.465,-5.213 -5.745,-3.255 -12.435,-8.032 -11.82,-15.51 1.417,0.255 3.225,1.335 4.327,-0.143 1.253,-2.527 -0.93,-4.95 -2.385,-6.825 1.29,-0.458 2.573,-0.953 3.855,-1.433 0.09,-0.533 0.262,-1.59 0.352,-2.115 -2.415,-0.301 -5.377,-0.765 -6.525,-3.248 -1.567,-3.607 0.592,-7.387 2.655,-10.297 2.235,-3.487 5.745,-6.698 5.693,-11.137 -0.165,-2.048 -2.445,-2.213 -3.998,-2.445 -0.022,2.07 -0.33,4.305 -2.062,5.678 -2.092,1.717 -4.41,3.375 -5.19,6.12 -0.405,-4.59 -1.59,-10.14 2.032,-13.8 1.193,-1.373 2.993,-0.63 4.373,-0.052 2.13,0.165 4.703,0.12 6.075,2.084 1.927,2.768 0.465,6.308 -1.065,8.911 -2.31,4.05 -6.307,7.395 -6.945,12.225 -0.472,2.4 2.153,3.555 4.103,3.713 2.272,0.412 3.653,-1.86 5.4,-2.88 2.37,-2.07 5.715,-2.73 7.807,-5.138 -3.188,-0.06 -6.735,0.398 -9.262,-1.995 2.43,-1.133 4.927,-2.333 6.54,-4.583 -1.912,0.315 -3.847,0.562 -5.79,0.405 1.32,-1.725 3.18,-3.15 3.847,-5.295 -0.022,-2.228 -0.802,-4.417 -0.435,-6.66 0.536,-1.321 -0.769,-2.079 -1.421,-2.986 z m 8.437,1.507 c 0.945,0.758 1.83,1.598 2.708,2.43 0.577,-0.87 1.162,-1.725 1.77,-2.572 -1.493,0.075 -2.985,0.142 -4.478,0.142 z"
       stroke-miterlimit="10.43" /></g><path
     style="fill:#014189;stroke:#014189;stroke-width:0.09099071;stroke-miterlimit:10.43000031"
     inkscape:connector-curvature="0"
     id="path119"
     d="m 96.331101,171.27649 c 2.284468,-0.69844 3.062448,2.52504 1.724749,3.88505 -1.841155,2.04486 -4.882263,1.55014 -7.33358,1.6811 1.833395,-0.49473 3.703652,-0.95356 5.383779,-1.87026 -0.09507,-1.19316 -1.572451,-3.17886 0.225052,-3.69589 z"
     stroke-miterlimit="10.43" /><g
     id="g121"
     transform="matrix(0.97005021,0,0,0.97005021,-11.66944,-11.818551)"><path
       style="fill:#014189;stroke:#014189;stroke-width:0.0938;stroke-miterlimit:10.43000031"
       inkscape:connector-curvature="0"
       id="path123"
       d="m 324.38,187.503 c 1.087,1.252 1.86,3.008 3.585,3.525 3.36,1.312 6.81,2.392 10.215,3.6 1.89,0.713 4.132,1.05 5.362,2.858 -4.958,2.625 -10.11,4.867 -15.053,7.507 -1.53,0.668 -1.672,2.505 -2.325,3.833 -1.229,-3.143 -0.84,-6.623 -1.095,-9.922 0.495,0.495 1.478,1.5 1.965,1.995 1.253,-0.39 2.445,-0.945 3.66,-1.47 -0.105,-1.86 -0.218,-3.712 -0.337,-5.565 -1.32,-0.308 -2.64,-0.6 -3.967,-0.862 -0.428,0.93 -0.825,1.897 -1.455,2.723 -0.465,-2.717 -0.6,-5.477 -0.555,-8.222 z m 7.83,11.16 c 1.853,-0.863 3.697,-1.725 5.528,-2.618 -1.928,-0.66 -3.878,-1.252 -5.82,-1.845 0.089,1.486 0.195,2.97 0.292,4.463 z"
       stroke-miterlimit="10.43" /></g><path
     style="fill:#014189;stroke:#014189;stroke-width:0.09099071;stroke-miterlimit:10.43000031"
     inkscape:connector-curvature="0"
     id="path125"
     d="m 182.80623,173.91793 c 1.09906,-0.73529 2.23305,-1.41918 3.39032,-2.05941 2.20493,2.77143 3.16528,6.94847 1.60738,10.20687 -1.41822,-2.86553 -2.94605,-5.68159 -4.9977,-8.14746 z"
     stroke-miterlimit="10.43" /><path
     style="fill:#014189;stroke:#014189;stroke-width:0.09099071;stroke-miterlimit:10.43000031"
     inkscape:connector-curvature="0"
     id="path127"
     d="m 192.29332,174.68136 c 0.2978,-1.33867 1.66557,-2.64726 3.09931,-2.02934 0.58203,1.38232 0.45883,2.93925 -0.57427,4.06645 -1.31733,1.55014 -1.58603,3.96459 -3.50673,4.9327 0.16685,-2.34267 0.3919,-4.69213 0.98169,-6.96981 z"
     stroke-miterlimit="10.43" /><path
     style="fill:#014189;stroke:#014189;stroke-width:0.09099071;stroke-miterlimit:10.43000031"
     inkscape:connector-curvature="0"
     id="path129"
     d="m 217.89488,177.75157 c 0.37153,-0.008 1.11362,-0.0145 1.49194,-0.0145 -0.007,1.04766 -0.007,2.09531 -0.007,3.14296 -0.37153,0 -1.11362,-0.007 -1.48418,-0.0145 -9.7e-4,-1.03989 -0.008,-2.08075 -9.7e-4,-3.11386 z"
     stroke-miterlimit="10.43" /><path
     style="fill:#014189;stroke:#014189;stroke-width:0.09099071;stroke-miterlimit:10.43000031"
     inkscape:connector-curvature="0"
     id="path131"
     d="m 205.05433,186.18422 c 0.10961,2.34267 0.13096,4.69213 0.066,7.04256 -1.06317,-2.29223 -1.47059,-4.77264 -0.066,-7.04256 z"
     stroke-miterlimit="10.43" /><path
     style="fill:#014189;stroke:#014189;stroke-width:0.09099071;stroke-miterlimit:10.43000031"
     inkscape:connector-curvature="0"
     id="path133"
     d="m 183.88298,191.20423 c 2.18262,-0.9458 4.41567,-1.74609 6.62836,-2.6269 -0.45108,0.61889 -0.90991,1.23003 -1.36777,1.84116 -0.21827,1.05444 -0.45884,2.1021 -0.72754,3.14296 -0.48018,-0.7644 -0.95356,-1.53559 -1.41143,-2.31357 -1.04086,0.13775 -2.11082,0.32012 -3.12162,-0.0437 z"
     stroke-miterlimit="10.43" /><path
     style="fill:#014189;stroke:#014189;stroke-width:0.09099071;stroke-miterlimit:10.43000031"
     inkscape:connector-curvature="0"
     id="path135"
     d="m 159.1176,188.62875 c 1.48418,0.13871 2.96835,0.28325 4.45932,0.42876 -0.007,11.88796 -0.21826,23.83413 1.28823,35.64934 1.2727,10.46878 5.31781,20.78527 12.36814,28.72319 2.14672,2.52504 4.85995,4.43798 7.25403,6.70111 0.38511,0.96811 -0.80805,1.13496 -1.41142,1.49872 -4.04511,1.60835 -8.44623,1.82564 -12.71736,2.39312 -3.08476,2.77919 -6.86116,4.664 -10.73069,6.09676 -2.40088,0.8876 -5.01225,0.42877 -7.38499,-0.31332 3.41263,-0.17461 8.8323,-0.66158 9.32703,-4.93174 -1.58603,-1.52783 -3.92095,-1.20092 -5.92216,-1.43373 -2.64048,-0.0728 -4.9036,-1.61514 -7.27538,-2.57549 -19.77447,5.25962 -39.56349,10.44745 -59.323416,15.75847 -0.451074,1.31636 -0.916698,2.62593 -1.374561,3.95004 -8.774105,0.80806 -17.533658,1.7752 -26.315523,2.45229 7.894269,-3.29623 15.787568,-6.5847 23.681836,-9.87996 1.186372,0.69844 2.371773,1.39687 3.550384,2.1021 19.4107,-4.98315 38.77097,-10.10501 58.20301,-14.98631 -1.25136,-0.68485 -2.49594,-1.37553 -3.70365,-2.11762 2.82964,-0.56748 5.54384,0.36377 8.09798,1.48418 3.33212,0.29102 6.6788,0.53838 10.02547,0.80029 1.51328,-14.23063 0.92446,-28.59223 0.64799,-42.87428 -0.35601,-4.01601 0.1232,-8.24348 -1.28046,-12.08488 -0.99721,7.15897 0.28325,14.41979 -0.59658,21.58555 -0.13096,1.12041 -0.55972,2.18262 -1.0108,3.21572 -0.69843,-2.47363 -0.87983,-5.0559 -0.78574,-7.61004 0.31818,-11.34765 0.61695,-22.69045 0.92931,-34.03227 z"
     stroke-miterlimit="10.43" /><path
     style="fill:#014189;stroke:#014189;stroke-width:0.09099071;stroke-miterlimit:10.43000031"
     inkscape:connector-curvature="0"
     id="path137"
     d="m 216.59987,193.40818 c 0.35697,-0.0369 1.05444,-0.12319 1.40463,-0.16685 -0.008,1.0981 0.0951,2.18941 0.0873,3.29526 -0.38511,-0.0369 -1.17182,-0.1164 -1.56469,-0.16005 0.0223,-0.98945 0.0514,-1.97891 0.0728,-2.96836 z"
     stroke-miterlimit="10.43" /><path
     style="fill:#014189;stroke:#014189;stroke-width:0.09099071;stroke-miterlimit:10.43000031"
     inkscape:connector-curvature="0"
     id="path139"
     d="m 18.447709,194.05618 c 2.70644,-1.69565 6.693347,0.58203 6.409122,3.81229 -0.03589,3.30302 -4.365226,5.23827 -6.889297,3.12842 -2.407664,-1.64521 -2.095308,-5.63115 0.480175,-6.94071 z"
     stroke-miterlimit="10.43" /><path
     style="fill:#014189;stroke:#014189;stroke-width:0.09099071;stroke-miterlimit:10.43000031"
     inkscape:connector-curvature="0"
     id="path141"
     d="m 311.6677,194.06297 c 2.88105,-1.44732 6.63514,1.30277 5.98036,4.49618 -0.42197,3.22251 -4.86771,4.66303 -7.13666,2.38632 -2.26313,-1.84794 -1.53559,-5.83485 1.1563,-6.8825 z"
     stroke-miterlimit="10.43" /><path
     style="fill:#014189;stroke:#014189;stroke-width:0.09099071;stroke-miterlimit:10.43000031"
     inkscape:connector-curvature="0"
     id="path143"
     d="m 188.95344,195.22703 c 1.16406,-0.16685 2.32812,-0.30557 3.50673,-0.42197 0.2396,0.21826 0.71977,0.66254 0.96035,0.88856 -1.52007,0.2755 -3.06245,0.23184 -4.46708,-0.46659 z"
     stroke-miterlimit="10.43" /><path
     style="fill:#014189;stroke:#014189;stroke-width:0.09099071;stroke-miterlimit:10.43000031"
     inkscape:connector-curvature="0"
     id="path145"
     d="m 227.45473,197.35144 c 0.36377,-0.0359 1.09907,-0.0941 1.46283,-0.13096 0.008,1.08452 0.0145,2.16127 0.0213,3.25258 -0.37153,-0.0213 -1.09907,-0.0582 -1.46963,-0.0805 -0.007,-1.01855 -0.007,-2.03031 -0.0145,-3.0411 z"
     stroke-miterlimit="10.43" /><path
     style="fill:#014189;stroke:#014189;stroke-width:0.09099071;stroke-miterlimit:10.43000031"
     inkscape:connector-curvature="0"
     id="path147"
     d="m 188.37141,204.51817 c 0.51703,-2.26313 -0.20372,-5.66025 2.29222,-6.88251 3.41943,0.27647 1.39688,4.58349 1.47642,6.7661 -1.25815,0.0281 -2.50952,0.065 -3.76864,0.11641 z"
     stroke-miterlimit="10.43" /><path
     style="fill:#014189;stroke:#014189;stroke-width:0.09099071;stroke-miterlimit:10.43000031"
     inkscape:connector-curvature="0"
     id="path149"
     d="m 29.455839,206.80264 c 1.476416,3.25257 1.330909,6.9766 1.716989,10.46878 -0.748879,-0.93901 -1.382322,-1.97211 -2.138961,-2.8956 -4.022798,0.18237 -8.017465,0.93804 -11.967509,1.70244 4.947256,1.86249 10.265071,2.69189 15.060029,4.9618 -4.153755,2.80054 -8.518981,5.25283 -12.75325,7.9224 3.812297,-0.53061 7.813755,-0.26288 11.472784,-1.55014 0.326907,-1.004 0.625682,-2.02158 0.887596,-3.04789 1.432764,2.42318 1.091306,5.41288 1.476416,8.09797 -1.105857,-0.81484 -1.74609,-2.67054 -3.368014,-2.45228 -4.088762,0.1164 -8.258038,0.0291 -12.266285,0.9099 -0.283255,0.85171 -0.486965,1.73154 -0.596581,2.63369 -0.210501,0.0369 -0.632473,0.10186 -0.843944,0.13872 -0.291015,-2.14672 -0.575239,-4.29247 -0.850734,-6.43143 3.47763,-2.30581 7.057116,-4.47388 10.447441,-6.91161 -3.935494,-1.23682 -7.901059,-2.36498 -11.852073,-3.55718 -0.342428,-2.52504 -0.77119,-5.05008 -0.75664,-7.61004 0.742089,0.9749 1.382322,2.01479 2.138961,2.97514 4.153755,-0.3269 8.286169,-1.09906 12.375901,-1.87704 1.751911,-0.0873 1.184431,-2.38633 1.817874,-3.47763 z"
     stroke-miterlimit="10.43" /><path
     style="fill:#014189;stroke:#014189;stroke-width:0.09099071;stroke-miterlimit:10.43000031"
     inkscape:connector-curvature="0"
     id="path151"
     d="m 303.35922,209.55952 c 0.0145,-0.98169 0.33466,-1.86929 0.9458,-2.6269 0.24736,1.01177 0.53061,2.02256 0.84394,3.02656 4.14017,1.06996 8.48988,1.25136 12.74646,1.57148 1.36001,0.2396 1.43373,-1.63744 2.07397,-2.43774 0.19595,0.0951 0.58882,0.28326 0.78574,0.38511 -0.54517,3.25937 -0.26192,6.72245 -1.49873,9.83631 -0.66157,-1.1854 -0.33467,-3.44076 -2.1312,-3.55038 -4.06645,-0.50249 -8.16976,-1.23681 -12.27308,-1.04086 -1.1204,1.36777 -1.04765,3.31078 -0.84394,4.97635 0.80805,1.51328 2.87426,1.9566 3.37578,3.71724 -1.81206,-0.44332 -3.58725,-1.02632 -5.34692,-1.63745 0.50734,-4.06354 0.88565,-8.14551 1.32218,-12.21972 z"
     stroke-miterlimit="10.43" /><path
     style="fill:#014189;stroke:#014189;stroke-width:0.09099071;stroke-miterlimit:10.43000031"
     inkscape:connector-curvature="0"
     id="path153"
     d="m 264.66197,218.872 c 0.8876,-0.0873 1.76841,0.0291 2.65503,0.10186 -0.88759,1.22905 -2.39408,1.53462 -3.72499,2.0371 2.82964,2.32133 7.47133,-1.53559 9.51619,2.22627 -1.66654,1.65199 -3.88505,2.35043 -6.17631,2.53862 0.45884,0.98266 0.98945,1.97211 1.85571,2.67734 -1.67334,1.39008 -2.88881,3.45532 -5.10053,4.07421 0.89439,-1.03311 1.8334,-2.02935 2.69189,-3.09252 -0.79253,-0.80029 -1.58603,-1.60059 -2.36498,-2.40767 -2.33491,2.073 -2.37856,6.65649 -6.17631,6.78841 1.8334,-1.59379 3.24482,-3.56493 4.25561,-5.76985 -2.46587,0.78574 -5.30326,1.07675 -7.20262,3.02655 -1.49097,1.39008 -3.08476,3.52905 -5.36147,2.40088 2.51728,-0.85171 4.53984,-2.64145 5.58749,-5.09277 -1.47642,-1.80429 -3.55717,-3.10707 -4.56894,-5.27513 1.62193,1.1854 3.21572,3.25937 5.50019,2.48139 1.80429,-0.33467 1.22226,-2.79375 1.69565,-4.07421 0.33466,0.40063 0.99624,1.2145 1.33091,1.62192 0.56068,-0.0582 1.68788,-0.16685 2.24857,-0.21826 -0.80029,1.25913 -1.59379,2.53183 -2.21947,3.8996 1.7102,-0.50151 3.25937,-1.43373 4.97635,-1.89936 2.59683,-0.37832 5.73979,0.61114 7.78466,-1.54917 l -0.17461,-1.0331 c -2.9247,-0.64702 -6.23451,1.18637 -8.73045,-1.0981 0.5374,-0.80708 1.01758,-1.66557 1.70243,-2.36401 z"
     stroke-miterlimit="10.43" /><path
     style="fill:#014189;stroke:#014189;stroke-width:0.09099071;stroke-miterlimit:10.43000031"
     inkscape:connector-curvature="0"
     id="path155"
     d="m 298.89214,238.97435 c 0.55292,-3.42719 0.92348,-6.96981 2.36498,-10.16418 0.61889,1.19995 0.18237,3.44852 2.00024,3.59403 3.88505,0.93901 7.79921,1.87705 11.7638,2.40088 0.89439,-0.71978 1.652,-1.58604 2.52504,-2.32812 -0.54517,3.31757 -0.79253,6.8534 -2.43676,9.85862 -0.45884,-1.13496 -0.0223,-3.19341 -1.68789,-3.43398 -3.55718,-0.96811 -7.18807,-1.68013 -10.818,-2.32812 -1.81982,-0.63345 -2.55511,1.47641 -3.71141,2.40087 z"
     stroke-miterlimit="10.43" /><path
     style="fill:#014189;stroke:#014189;stroke-width:0.09099071;stroke-miterlimit:10.43000031"
     inkscape:connector-curvature="0"
     id="path157"
     d="m 20.413031,242.90985 c 4.211958,0.0873 8.104769,-2.67734 12.36814,-1.87705 3.295261,0.64023 4.997699,4.10331 5.39833,7.15218 0.378319,2.21171 -0.261914,4.7872 -2.30581,5.98036 -3.324362,2.008 -7.377232,2.18261 -10.854862,3.82685 -0.78574,0.92445 -0.712987,2.31357 -1.149509,3.43397 -1.244575,-3.23705 -2.197164,-6.59828 -2.859708,-10.00315 1.149509,0.7644 1.93525,2.72778 3.572695,2.16806 3.397116,-0.87305 7.063905,-1.52007 9.938164,-3.63769 2.793745,-2.21948 0.996242,-7.32679 -2.575483,-7.32679 -3.681341,0.0728 -7.355891,1.21547 -10.643391,2.81606 -0.429732,1.17861 -0.647994,2.42318 -1.011763,3.62313 -1.033103,-2.65502 -1.811083,-5.39833 -2.364982,-8.19207 0.836183,0.66836 1.614164,1.41821 2.488179,2.03614 z"
     stroke-miterlimit="10.43" /><g
     id="g159"
     transform="matrix(0.97005021,0,0,0.97005021,-11.66944,-11.818551)"><path
       style="fill:#014189;stroke:#014189;stroke-width:0.0938;stroke-miterlimit:10.43000031"
       inkscape:connector-curvature="0"
       id="path161"
       d="m 315.748,273.213 c 0.877,-2.445 1.417,-5.077 2.925,-7.237 0.465,1.163 -0.39,3.232 1.133,3.765 3.6,1.515 7.357,2.663 11.085,3.825 1.695,0.848 2.692,-1.192 3.922,-1.935 -0.893,3.735 -2.167,7.365 -3.54,10.95 -0.757,2.055 -2.64,4.335 -5.1,3.562 -2.175,-0.42 -2.595,-2.843 -2.88,-4.665 -0.938,1.02 -1.748,2.28 -3.067,2.827 -2.25,0.878 -5.07,-0.577 -5.655,-2.917 -0.714,-2.767 0.359,-5.55 1.177,-8.175 z m 3.044,6.795 c 2.992,1.2 4.68,-2.04 5.595,-4.29 -2.1,-0.72 -4.177,-1.635 -6.412,-1.815 -2.812,1.035 -2.003,5.595 0.817,6.105 z m 6.63,-3.967 c -0.225,1.035 -0.473,2.062 -0.57,3.12 -0.097,2.183 2.783,3.623 4.545,2.438 1.14,-0.78 1.417,-2.257 2.04,-3.405 -1.972,-0.803 -3.997,-1.486 -6.015,-2.153 z"
       stroke-miterlimit="10.43" /></g><path
     style="fill:#014189;stroke:#014189;stroke-width:0.09099071;stroke-miterlimit:10.43000031"
     inkscape:connector-curvature="0"
     id="path221"
     d="m 41.518413,260.53081 c 1.826605,2.99745 3.201166,6.30823 3.965566,9.73542 -0.837154,-0.7353 -1.637445,-1.51425 -2.51049,-2.20492 -4.408879,1.29501 -8.701351,3.12841 -12.782352,5.25282 0.0873,0.73433 0.254153,2.19716 0.342428,2.93149 -2.626896,-2.33588 -3.106101,-6.24227 -4.43022,-9.38523 0.974901,0.66933 1.877048,1.44731 2.902391,2.04389 4.132414,-1.40463 8.279378,-2.96835 12.135328,-5.02777 0.173639,-1.11168 0.297805,-2.22529 0.377349,-3.3457 z"
     stroke-miterlimit="10.43" /><path
     style="fill:#014189;stroke:#014189;stroke-width:0.09099071;stroke-miterlimit:10.43000031"
     inkscape:connector-curvature="0"
     id="path223"
     d="m 288.55431,269.87239 c 0.36377,1.55014 -0.26967,3.77641 1.62969,4.41567 3.54262,1.81884 7.05032,3.75409 10.76755,5.19462 0.85074,-0.69844 1.72475,-1.36777 2.66279,-1.93525 -1.74609,4.56893 -4.31381,8.7741 -6.32182,13.23439 -1.62192,-0.58203 -3.25257,-1.2145 -4.59803,-2.31357 1.49872,-0.42197 3.74633,0.39287 4.64169,-1.28046 0.78574,-1.12041 1.36098,-2.37081 1.98569,-3.58628 -1.7975,-1.01079 -3.65224,-1.93525 -5.49243,-2.85195 -0.583,1.22227 -1.22226,2.42319 -1.61513,3.725 0.3046,1.01079 0.74209,1.97987 1.10586,2.9829 -2.02935,-0.90991 -4.04511,-1.8557 -5.92119,-3.04887 0.98945,-0.21826 1.98569,-0.37832 2.9897,-0.48696 0.74208,-1.25816 1.43373,-2.54638 2.11762,-3.8414 -1.94981,-0.98945 -3.93647,-1.91391 -6.00947,-2.6269 -1.02631,1.50552 -2.10985,3.05566 -2.48138,4.88227 0.13095,1.62192 1.37456,2.8956 1.91294,4.40887 -1.64424,-0.74984 -3.04887,-1.89935 -4.43022,-3.02655 2.37759,-4.6058 4.50976,-9.3348 7.05614,-13.84553 z"
     stroke-miterlimit="10.43" /><g
     id="g225"
     transform="matrix(0.97005021,0,0,0.97005021,-11.66944,-11.818551)"><path
       style="fill:#014189;stroke:#014189;stroke-width:0.0938;stroke-miterlimit:10.43000031"
       inkscape:connector-curvature="0"
       id="path227"
       d="m 150.23,297.356 c 22.552,0 45.105,0 67.665,0 0,3.547 0,7.095 0,10.642 24.585,0 49.177,-0.007 73.762,0 -14.115,22.515 -33.967,41.835 -58.117,53.28 -8.887,4.245 -18.315,7.372 -27.99,9.232 -1.988,0.285 -3.562,1.597 -5.28,2.535 -9.84,5.572 -22.56,5.558 -32.415,0.015 -1.763,-0.975 -3.39,-2.318 -5.43,-2.632 -20.505,-3.93 -39.653,-13.763 -55.515,-27.24 -11.887,-10.013 -21.96,-22.065 -30.255,-35.19 24.525,-0.007 49.05,0 73.568,0 -0.001,-3.547 -0.001,-7.095 0.007,-10.642 z m 1.23,1.245 c 0.015,15.053 -0.03,30.112 0.022,45.165 0.022,10.388 5.438,20.528 13.987,26.4 8.385,5.917 19.643,7.447 29.303,3.998 10.462,-3.562 18.712,-12.84 21.045,-23.647 0.93,-3.945 0.795,-8.018 0.803,-12.038 -0.008,-13.29 0,-26.58 -0.008,-39.877 -21.712,-10e-4 -43.432,-10e-4 -65.152,-10e-4 z"
       stroke-miterlimit="10.43" /></g><g
     id="g229"
     transform="matrix(0.97005021,0,0,0.97005021,-11.66944,-11.818551)"><path
       style="fill:#014189;stroke:#014189;stroke-width:0.0938;stroke-miterlimit:10.43000031"
       inkscape:connector-curvature="0"
       id="path231"
       d="m 49.212,305.058 c 1.65,-5.43 9.27,-7.598 13.613,-3.982 4.155,3.322 6.113,8.505 8.61,13.042 -1.5,-0.555 -3.015,-2.392 -4.643,-1.087 -3.638,2.01 -7.455,3.787 -10.755,6.337 0.098,0.788 0.292,2.355 0.398,3.135 -2.153,-1.987 -3.188,-4.792 -4.665,-7.252 -1.718,-3.068 -3.473,-6.585 -2.558,-10.193 z m 3.338,1.965 c -2.003,2.588 -0.473,5.85 0.967,8.28 3.968,-1.83 7.785,-3.998 11.512,-6.263 2.168,-1.11 0.33,-3.555 -0.862,-4.665 -3.584,-3.149 -9.067,-0.652 -11.617,2.648 z"
       stroke-miterlimit="10.43" /></g><g
     id="g233"
     transform="matrix(0.97005021,0,0,0.97005021,-11.66944,-11.818551)"><path
       style="fill:#014189;stroke:#014189;stroke-width:0.0938;stroke-miterlimit:10.43000031"
       inkscape:connector-curvature="0"
       id="path235"
       d="m 166.775,307.128 c 0.817,-0.607 1.635,-1.208 2.452,-1.808 4.83,6.21 9.653,12.413 14.483,18.615 4.837,-6.217 9.667,-12.428 14.505,-18.645 0.84,0.592 1.56,1.335 2.408,1.942 -1.44,1.792 -2.858,3.608 -4.26,5.43 0.915,0.712 1.83,1.417 2.737,2.13 1.417,-1.831 2.843,-3.661 4.268,-5.483 0.907,0.705 1.808,1.41 2.722,2.123 -0.712,0.915 -1.425,1.837 -2.13,2.752 0.915,0.712 1.83,1.417 2.745,2.13 0.698,-0.907 1.387,-1.823 2.093,-2.73 0.922,0.675 1.845,1.343 2.775,2.025 -1.38,1.882 -2.812,3.735 -4.26,5.572 -1.823,-1.425 -3.645,-2.85 -5.475,-4.268 -0.712,0.908 -1.425,1.822 -2.13,2.745 1.822,1.417 3.652,2.835 5.482,4.26 -0.713,0.908 -1.425,1.822 -2.137,2.745 -3.667,-2.842 -7.32,-5.692 -10.988,-8.527 -2.137,2.752 -4.268,5.505 -6.397,8.257 3.645,4.717 7.335,9.39 10.95,14.13 1.275,-1.417 2.528,-3.067 4.448,-3.615 2.962,-0.968 6.637,0.457 7.808,3.442 1.425,3.57 0.06,7.5 -1.905,10.583 0.99,0.473 3.068,0.608 2.745,2.19 -0.472,2.062 -3.18,0.9 -4.688,1.147 -0.472,1.388 0.045,3.547 -1.657,4.17 -2.122,0.226 -1.59,-2.182 -1.77,-3.51 -3.397,1.035 -7.387,1.462 -10.485,-0.623 -2.798,-1.792 -3.42,-5.902 -1.605,-8.595 1.02,-1.688 2.88,-2.536 4.553,-3.413 -3.525,-4.47 -6.99,-8.985 -10.493,-13.462 -3.48,4.492 -6.998,8.962 -10.447,13.485 1.59,0.848 3.345,1.643 4.387,3.195 1.897,2.603 1.433,6.69 -1.23,8.61 -3.127,2.295 -7.282,1.86 -10.792,0.818 -0.203,1.177 0.51,3.135 -1.177,3.442 -2.213,0.248 -1.74,-2.783 -2.273,-4.148 -1.238,0.023 -2.49,0.166 -3.72,0.03 -1.073,-0.315 -1.327,-1.927 -0.345,-2.542 0.81,-0.293 1.635,-0.525 2.475,-0.72 -1.882,-3 -3.292,-6.712 -2.1,-10.238 0.99,-3.27 4.943,-4.935 8.07,-3.825 1.867,0.57 3.105,2.175 4.35,3.577 3.615,-4.74 7.305,-9.413 10.95,-14.13 -2.137,-2.752 -4.275,-5.505 -6.412,-8.257 -3.66,2.835 -7.32,5.685 -10.988,8.527 -0.713,-0.923 -1.425,-1.837 -2.13,-2.745 1.822,-1.425 3.652,-2.842 5.482,-4.26 -0.713,-0.915 -1.417,-1.837 -2.123,-2.745 -1.83,1.417 -3.66,2.842 -5.49,4.268 -1.417,-1.837 -2.843,-3.675 -4.26,-5.513 0.922,-0.697 1.845,-1.402 2.775,-2.092 0.705,0.915 1.41,1.837 2.123,2.76 0.915,-0.75 1.845,-1.485 2.76,-2.235 -0.728,-0.885 -1.448,-1.77 -2.167,-2.655 0.915,-0.72 1.838,-1.425 2.76,-2.138 1.417,1.83 2.835,3.652 4.252,5.483 0.915,-0.713 1.838,-1.426 2.753,-2.13 -1.435,-1.833 -2.867,-3.678 -4.277,-5.531 z m -5.558,35.1 c -0.75,3.45 1.635,6.383 2.88,9.39 3.48,0.518 7.673,2.34 10.778,-0.194 2.19,-2.416 -0.188,-5.91 -2.955,-6.413 -3.045,-0.458 -3.502,-4.23 -6.27,-5.107 -1.785,-0.668 -4.17,0.299 -4.433,2.324 z m 36.353,1.822 c -1.725,0.99 -4.027,1.23 -5.182,3.015 -1.117,1.59 -0.802,4.238 1.17,4.995 3.15,1.515 6.622,0.007 9.825,-0.51 1.23,-3.007 3.593,-5.917 2.888,-9.36 -0.248,-2.055 -2.678,-3.03 -4.47,-2.355 -2.041,0.638 -2.843,2.798 -4.231,4.215 z"
       stroke-miterlimit="10.43" /></g><g
     id="g237"
     transform="matrix(0.97005021,0,0,0.97005021,-11.66944,-11.818551)"><path
       style="fill:#014189;stroke:#014189;stroke-width:0.0938;stroke-miterlimit:10.43000031"
       inkscape:connector-curvature="0"
       id="path239"
       d="m 292.415,320.621 c 1.403,-3.337 3.637,-6.315 6.143,-8.91 -0.09,1.485 -1.26,3.495 0.54,4.44 3.383,2.498 6.773,5.025 10.463,7.065 0.975,-0.555 1.972,-1.08 2.992,-1.575 -2.145,3.772 -4.643,7.388 -7.447,10.703 -1.508,1.875 -4.5,2.205 -6.27,0.524 -1.755,-1.297 -1.47,-3.637 -1.395,-5.542 -3.735,-0.225 -7.463,-0.015 -11.093,0.893 1.065,-1.515 2.07,-3.18 3.653,-4.23 3.202,-2.062 7.657,1.095 10.433,-1.882 -1.666,-1.245 -3.39,-2.416 -5.288,-3.278 -0.901,0.614 -1.801,1.229 -2.731,1.792 z m 7.132,5.872 c 0.128,2.085 2.213,3.623 4.208,3.615 1.785,-0.075 2.678,-1.8 3.683,-3 -2.04,-1.56 -4.14,-3.015 -6.262,-4.447 -0.601,1.237 -1.524,2.407 -1.629,3.832 z"
       stroke-miterlimit="10.43" /></g><path
     style="fill:#014189;stroke:#014189;stroke-width:0.09099071;stroke-miterlimit:10.43000031"
     inkscape:connector-curvature="0"
     id="path241"
     d="m 60.448943,297.11916 c 2.554143,2.13896 4.096522,5.17328 6.16952,7.73421 l -0.617922,0.51704 c -0.530618,-0.32109 -1.600583,-0.9749 -2.138961,-1.30278 -3.703652,1.8916 -6.911608,4.68534 -10.214629,7.19486 -1.462836,0.72075 -0.465624,2.12441 -0.20371,3.26713 -0.18237,0.13775 -0.545169,0.42197 -0.735298,0.55972 -1.884808,-2.71323 -4.0519,-5.23827 -5.660243,-8.13387 1.440524,0.37832 2.947012,2.12344 4.329334,0.72754 3.266159,-2.34267 6.730208,-4.5185 9.596706,-7.34813 -0.110585,-1.08452 -0.357948,-2.14672 -0.524797,-3.21572 z"
     stroke-miterlimit="10.43" /><path
     style="fill:#014189;stroke:#014189;stroke-width:0.09099071;stroke-miterlimit:10.43000031"
     inkscape:connector-curvature="0"
     id="path243"
     d="m 64.581357,315.03017 c 0.421972,-2.66958 3.354434,-4.5476 5.959019,-3.86274 3.542623,0.82163 5.914396,4.04511 6.932949,7.36947 -1.084517,1.46963 -2.197164,2.93246 -3.514492,4.21293 0.123196,-2.76464 1.899358,-6.24907 -0.560689,-8.46757 -1.484177,-1.54238 -4.182857,-0.62665 -4.539835,1.44052 -0.326907,2.80054 1.804293,5.28969 1.491937,8.11932 -0.174609,2.91792 -3.724993,4.61259 -6.293686,3.61635 -2.829636,-0.87983 -4.43798,-3.52904 -5.849403,-5.92894 1.091307,-1.25816 2.030315,-2.82285 3.710442,-3.36899 -0.39287,2.01479 -1.75288,4.45253 -0.08051,6.24906 1.244575,1.78975 4.43798,0.8876 4.474842,-1.32411 -0.267734,-2.75107 -2.137991,-5.22469 -1.73057,-8.0553 z"
     stroke-miterlimit="10.43" /><path
     style="fill:#014189;stroke:#014189;stroke-width:0.09099071;stroke-miterlimit:10.43000031"
     inkscape:connector-curvature="0"
     id="path245"
     d="m 253.68974,320.41492 c 2.33491,-2.8083 4.85995,-5.47109 7.61004,-7.87972 -0.16782,1.47739 -1.62968,3.36898 -0.0727,4.56894 2.94604,3.03334 6.10355,5.85716 9.14466,8.78865 0.72754,-0.95259 1.54238,-1.85571 2.12441,-2.90336 0.26191,-1.48418 -0.48017,-2.96059 -0.59658,-4.43022 1.42597,1.33188 2.76464,2.76464 4.06645,4.22651 -2.32715,1.14175 -3.92094,3.23027 -5.68934,5.04911 -2.00025,2.17485 -4.35747,4.10331 -5.7039,6.7952 -1.46963,-1.22226 -2.93149,-2.44452 -4.29247,-3.78319 1.29501,-0.18237 2.50273,0.34922 3.75409,0.56069 1.45508,-0.30557 2.37177,-1.67334 3.49994,-2.5396 -3.12162,-2.91015 -6.08997,-5.97259 -9.28338,-8.79544 -1.35225,-1.46284 -2.98969,0.33467 -4.56117,0.34243 z"
     stroke-miterlimit="10.43" /><path
     style="fill:#014189;stroke:#014189;stroke-width:0.09099071;stroke-miterlimit:10.43000031"
     inkscape:connector-curvature="0"
     id="path247"
     d="m 79.481329,326.79494 c 0.727537,-1.70244 2.364982,-2.66279 3.747304,-3.76865 3.87826,3.51352 8.381233,6.37323 11.844313,10.31649 -1.367771,-0.0291 -3.157514,-1.5938 -4.212928,-0.1523 -2.800535,3.15072 -5.623382,6.32279 -7.930161,9.86541 0.501516,0.92446 0.894386,1.8916 1.185401,2.91015 -4.009217,-2.79374 -7.573182,-6.15497 -11.393239,-9.18929 1.004002,-1.38232 1.891598,-2.93925 3.433977,-3.78998 -0.182369,1.28046 -0.611131,2.53183 -0.59658,3.8414 1.004001,1.42597 2.423185,2.46586 3.747303,3.57269 1.382322,-1.52783 2.706441,-3.10707 4.001458,-4.69989 -1.230024,-0.96811 -2.481389,-1.9207 -3.789987,-2.7792 -0.545168,0.33467 -1.644235,1.00498 -2.197163,1.33867 0.19595,-2.39408 2.407664,-3.82684 3.746334,-5.58749 0.07275,1.04087 -0.01455,2.10986 0.189159,3.15073 0.887596,1.02631 1.971142,1.8557 3.004246,2.73554 1.390082,-1.64424 2.720991,-3.34667 3.936464,-5.12866 -1.272706,-1.51327 -2.655998,-3.06341 -4.554386,-3.76864 -1.448285,0.10767 -2.772404,0.77701 -4.161515,1.13302 z"
     stroke-miterlimit="10.43" /><g
     id="g249"
     transform="matrix(0.97005021,0,0,0.97005021,-11.66944,-11.818551)"><path
       style="fill:#014189;stroke:#014189;stroke-width:0.0938;stroke-miterlimit:10.43000031"
       inkscape:connector-curvature="0"
       id="path251"
       d="m 263.442,352.008 c 1.178,-2.557 3.915,-4.042 6.337,-5.242 -2.317,3.21 -0.405,6.9 0.36,10.283 0.795,3.292 1.875,6.517 2.445,9.862 -0.24,0.202 -0.728,0.607 -0.968,0.81 -4.935,-2.513 -9.532,-5.663 -14.49,-8.145 -1.335,-0.728 -2.768,0.15 -4.117,0.337 1.635,-2.7 4.657,-4.057 6.93,-6.135 0.255,0.12 0.765,0.352 1.02,0.464 -0.337,0.436 -1.012,1.298 -1.35,1.733 1.193,0.855 2.422,1.665 3.667,2.467 1.455,-1.132 2.917,-2.265 4.38,-3.397 -0.487,-1.32 -0.982,-2.632 -1.492,-3.93 -0.907,0.301 -1.814,0.601 -2.722,0.893 z m 1.306,7.245 c 1.77,1.065 3.54,2.13 5.317,3.195 -0.585,-1.98 -1.185,-3.953 -1.778,-5.917 -1.185,0.899 -2.362,1.807 -3.539,2.722 z"
       stroke-miterlimit="10.43" /></g><g
     id="g253"
     transform="matrix(0.97005021,0,0,0.97005021,-11.66944,-11.818551)"><path
       style="fill:#014189;stroke:#014189;stroke-width:0.0938;stroke-miterlimit:10.43000031"
       inkscape:connector-curvature="0"
       id="path255"
       d="m 112.123,357.536 c 3.232,1.185 6.15,3.082 8.932,5.077 -0.682,0.053 -2.048,0.15 -2.73,0.203 -0.517,1.268 -0.637,2.647 -0.907,3.99 1.612,0.938 3.21,1.875 4.815,2.828 1.013,-0.959 2.025,-1.92 3.015,-2.902 -0.63,-0.795 -1.238,-1.598 -1.838,-2.408 2.798,0.712 5.22,2.362 7.448,4.14 -1.62,0.158 -3.472,-0.345 -4.867,0.735 -3.84,2.64 -7.485,5.55 -11.273,8.265 -0.832,0.698 -1.912,0.878 -2.955,1.02 0.645,-6.075 1.995,-12.06 2.317,-18.165 -0.683,-0.908 -1.335,-1.838 -1.957,-2.783 z m 5.032,10.95 c -0.33,2.04 -0.66,4.08 -0.982,6.127 1.613,-1.29 3.225,-2.572 4.823,-3.885 -1.284,-0.757 -2.566,-1.5 -3.841,-2.242 z"
       stroke-miterlimit="10.43" /></g><path
     style="fill:#014189;stroke:#014189;stroke-width:0.09099071;stroke-miterlimit:10.43000031"
     inkscape:connector-curvature="0"
     id="path257"
     d="m 218.42647,345.66047 c 2.70644,-2.50273 6.25682,-3.8346 9.52298,-5.43519 -0.62568,1.05445 -1.36777,2.0439 -1.91294,3.15073 1.73833,4.32836 4.27793,8.28616 6.41689,12.41858 1.0622,-0.77022 2.20492,-1.45508 3.14975,-2.37856 0.26191,-1.31636 0.18237,-2.67734 0.30557,-4.00146 1.25136,1.51328 2.02255,3.34667 2.80829,5.13544 -2.91791,0.49473 -5.36244,2.20493 -7.93695,3.52905 -2.30581,1.24457 -4.80175,2.28447 -6.62059,4.24882 -1.03311,-1.69565 -2.1021,-3.39033 -2.69189,-5.30327 1.10586,0.68389 2.14575,1.49097 3.30302,2.1021 1.46284,0.0213 2.71323,-0.90991 4.0228,-1.45507 -2.42998,-4.03735 -4.12466,-8.5413 -6.95526,-12.32449 -1.14175,0.0727 -2.27671,0.17461 -3.41167,0.31332 z"
     stroke-miterlimit="10.43" /><g
     id="g259"
     transform="matrix(0.97005021,0,0,0.97005021,-11.66944,-11.818551)"><path
       style="fill:#014189;stroke:#014189;stroke-width:0.0938;stroke-miterlimit:10.43000031"
       inkscape:connector-curvature="0"
       id="path261"
       d="m 132.395,368.831 c 2.587,0.698 5.805,1.732 6.517,4.695 0.915,2.453 0.3,5.91 3.098,7.215 0.667,-1.83 1.432,-3.645 1.74,-5.572 -0.743,-0.916 -1.583,-1.726 -2.355,-2.595 3.487,0.742 6.832,2.055 10.072,3.51 -1.08,0.36 -2.19,0.525 -3.33,0.502 -1.92,3.728 -3.15,7.771 -4.552,11.715 -0.938,1.695 1.072,2.843 1.77,4.155 -4.17,-1.38 -8.445,-2.655 -12.345,-4.71 -2.25,-1.118 -3.022,-4.238 -1.522,-6.263 0.96,-1.672 3.015,-1.814 4.695,-2.228 -0.721,-3.659 -1.733,-7.274 -3.788,-10.424 z m 3.75,18.629 c 0.892,0.562 1.897,0.9 2.88,1.305 0.93,-2.377 1.8,-4.77 2.64,-7.178 -1.448,-0.247 -2.94,-0.915 -4.402,-0.472 -2.303,1.013 -3.188,4.673 -1.118,6.345 z"
       stroke-miterlimit="10.43" /></g><path
     style="fill:#014189;stroke:#014189;stroke-width:0.09099071;stroke-miterlimit:10.43000031"
     inkscape:connector-curvature="0"
     id="path263"
     d="m 208.16819,349.56687 c 0.34146,0.0427 1.02631,0.12319 1.36777,0.16685 -0.81484,0.58203 -1.62968,1.15629 -2.45908,1.72377 1.12041,4.51074 2.39312,9.10878 4.52529,13.24119 0.58979,0.0213 1.7684,0.0582 2.36498,0.0805 0.0951,0.18916 0.29102,0.57427 0.38608,0.7644 -3.17206,1.06221 -6.29369,2.31357 -9.58895,2.97515 0.71299,-1.17861 2.8374,-2.02256 2.12441,-3.65903 -1.10585,-3.66679 -2.26312,-7.34037 -3.70268,-10.89173 -0.48793,-1.50551 -2.50273,-0.69843 -3.63769,-1.14951 2.61041,-1.65781 5.67286,-2.45131 8.61987,-3.2516 z"
     stroke-miterlimit="10.43" /><g
     id="g265"
     transform="matrix(0.97005021,0,0,0.97005021,-11.66944,-11.818551)"><path
       style="fill:#014189;stroke:#014189;stroke-width:0.0938;stroke-miterlimit:10.43000031"
       inkscape:connector-curvature="0"
       id="path267"
       d="m 162.245,378.243 c 3.465,0.301 6.862,1.036 10.29,1.583 -0.015,0.218 -0.045,0.637 -0.068,0.848 -0.952,0.352 -2.715,-0.038 -2.887,1.365 -0.967,4.185 -1.695,8.453 -2.107,12.728 0.728,0.915 1.613,1.68 2.415,2.542 -4.373,-0.712 -8.903,-0.998 -13.08,-2.542 -3.248,-1.2 -3.855,-5.835 -1.395,-8.092 2.542,-2.16 6.292,-2.025 9.21,-0.728 0.135,-1.792 0.855,-3.652 0.397,-5.407 -0.893,-0.812 -1.89,-1.495 -2.775,-2.297 z m -1.875,8.82 c -1.838,0.938 -2.423,3.375 -1.913,5.25 0.63,1.77 2.64,2.295 4.32,2.438 0.968,-2.422 1.058,-5.077 1.53,-7.62 -1.29,-0.15 -2.692,-0.706 -3.937,-0.068 z"
       stroke-miterlimit="10.43" /></g><path
     style="fill:#014189;stroke:#014189;stroke-width:0.09099071;stroke-miterlimit:10.43000031"
     inkscape:connector-curvature="0"
     id="path269"
     d="m 181.08924,357.22056 c 2.56772,-2.66279 6.67103,-2.88105 10.05457,-1.94301 0.66157,1.69565 1.29502,3.40488 1.70923,5.18783 -2.29223,-1.30278 -3.68134,-4.35844 -6.66425,-4.21972 -2.01479,-0.0213 -3.65903,2.21948 -2.50952,4.03832 1.76064,2.70644 5.71069,1.80429 8.03202,3.79775 2.35043,1.69565 1.90615,5.52249 -0.24736,7.19583 -2.27671,1.98569 -5.46333,1.84019 -8.28617,1.78198 -0.51704,-1.64423 -0.9749,-3.32533 -1.09131,-5.05008 1.68789,1.28823 2.97514,3.91512 5.46429,3.54359 2.19717,-0.0805 3.17886,-3.27391 1.29502,-4.47387 -2.36498,-1.26591 -5.35468,-1.01079 -7.47909,-2.7724 -2.08949,-1.71699 -2.16903,-5.19462 -0.27743,-7.08622 z"
     stroke-miterlimit="10.43" /><path
     style="fill:#014189;stroke:#014189;stroke-width:0.09099071;stroke-miterlimit:10.43000031"
     inkscape:connector-curvature="0"
     id="path271"
     d="m 165.25802,362.39384 c 3.05566,-1.57148 6.78065,1.77519 5.71844,4.99091 -0.57524,2.85195 -4.44574,4.25658 -6.63514,2.26216 -2.41542,-1.84019 -1.91391,-6.08901 0.9167,-7.25307 z"
     stroke-miterlimit="10.43" /><g
     id="g273"
     transform="matrix(0.97005021,0,0,0.97005021,-11.66944,-11.818551)"><path
       stroke-miterlimit="10.43"
       d="M 250.542,187.766"
       id="path275"
       inkscape:connector-curvature="0"
       style="fill:#1b2a98;stroke:#1b2a98;stroke-width:0.0938;stroke-miterlimit:10.43000031" /><path
       stroke-miterlimit="10.43"
       d="m 284.33,202.121 c 1.215,-0.428 1.643,-0.03 1.275,1.192 -1.223,0.428 -1.65,0.03 -1.275,-1.192 z"
       id="path277"
       inkscape:connector-curvature="0"
       style="fill:#1b2a98;stroke:#1b2a98;stroke-width:0.0938;stroke-miterlimit:10.43000031" /></g></svg>