<?xml version="1.0" encoding="UTF-8" standalone="no"?>
<!-- Generator: Adobe Illustrator 22.0.1, SVG Export Plug-In . SVG Version: 6.00 Build 0)  -->

<svg
   version="1.1"
   id="UiBmerke_grayscale"
   x="0px"
   y="0px"
   viewBox="0 0 300.00002 300.00002"
   xml:space="preserve"
   sodipodi:docname="UiB-emblem_gray-large.svg"
   width="300"
   height="300"
   inkscape:version="1.3.2 (091e20e, 2023-11-25)"
   xmlns:inkscape="http://www.inkscape.org/namespaces/inkscape"
   xmlns:sodipodi="http://sodipodi.sourceforge.net/DTD/sodipodi-0.dtd"
   xmlns="http://www.w3.org/2000/svg"
   xmlns:svg="http://www.w3.org/2000/svg"><defs
   id="defs32" /><sodipodi:namedview
   id="namedview32"
   pagecolor="#ffffff"
   bordercolor="#000000"
   borderopacity="0.25"
   inkscape:showpageshadow="2"
   inkscape:pageopacity="0.0"
   inkscape:pagecheckerboard="0"
   inkscape:deskcolor="#d1d1d1"
   inkscape:zoom="1.4648618"
   inkscape:cx="294.56704"
   inkscape:cy="82.942978"
   inkscape:window-width="1872"
   inkscape:window-height="930"
   inkscape:window-x="0"
   inkscape:window-y="25"
   inkscape:window-maximized="0"
   inkscape:current-layer="UiBmerke_grayscale" />
<style
   type="text/css"
   id="style1">
	.st0{fill:none;}
</style>
<g
   id="g32"
   transform="matrix(4.1895533,0,0,4.1895533,-58.742504,-57.901826)">
	<g
   id="g21">
		<g
   id="g11">
			<path
   d="M 20.5,42.1 C 19.9,42 18.7,41.8 18.3,41.9 18.2,42 18.1,42.1 18,42.4 v 0.2 c -0.1,0.1 -0.2,0 -0.2,-0.1 0.1,-0.4 0.2,-0.8 0.2,-1.2 0.1,-0.4 0.1,-0.7 0.2,-1.1 0.1,-0.1 0.2,0 0.3,0 v 0.3 c 0,0.3 0,0.5 0.2,0.6 0.3,0.2 1.5,0.4 2.1,0.5 l 1.2,0.2 c 0.9,0.2 1.8,0.5 2.3,1.2 0.4,0.5 0.5,1.3 0.4,2.1 -0.1,0.7 -0.4,1.4 -0.9,1.8 -0.5,0.5 -1.3,0.6 -2.6,0.4 l -2.4,-0.4 c -1.1,-0.2 -1.3,-0.2 -1.4,0.4 l -0.1,0.3 c -0.1,0.1 -0.2,0 -0.2,-0.1 0.1,-0.5 0.2,-0.9 0.3,-1.3 0.1,-0.4 0.1,-0.8 0.2,-1.3 0,-0.1 0.2,0 0.3,0 v 0.3 c -0.1,0.6 0.1,0.7 1.2,0.8 l 2.2,0.4 c 1.7,0.3 2.8,0 3.1,-1.6 0.3,-1.5 -0.8,-2.3 -2.4,-2.5 z"
   id="path1" />
			<path
   d="m 27.1,33.7 c 0.3,0.2 1.4,0.8 1.6,0.9 0,0 0.1,0.1 0,0.2 -0.2,0 -0.7,0.1 -2,0.4 L 23,36 c -0.4,0.1 -1.5,0.3 -1.8,0.4 v 0 c 0.1,0.1 0.3,0.2 0.6,0.4 l 2,1.1 c 0.4,0.2 1.6,0.9 2,0.9 0.1,0 0.3,-0.2 0.4,-0.4 l 0.2,-0.3 c 0.1,0 0.2,0.1 0.2,0.1 -0.2,0.4 -0.4,0.7 -0.6,1.1 -0.2,0.4 -0.3,0.6 -0.5,1 -0.1,0 -0.2,0 -0.2,-0.1 l 0.1,-0.3 c 0.1,-0.2 0.1,-0.4 0,-0.5 C 25.1,39.1 24,38.5 23.6,38.2 L 21,36.7 c -0.3,-0.1 -0.5,-0.2 -0.8,-0.2 -0.2,0.1 -0.4,0.2 -0.5,0.4 L 19.6,37 c -0.1,0 -0.2,-0.1 -0.2,-0.1 0.2,-0.4 0.5,-0.9 0.6,-1 0.1,-0.1 0.2,-0.3 0.2,-0.4 0.6,0.1 2.4,-0.3 2.9,-0.4 l 1.5,-0.3 c 1.1,-0.2 1.8,-0.4 2.5,-0.6 v 0 c 0,-0.1 -0.2,-0.1 -0.4,-0.3 l -2,-1.1 c -0.4,-0.2 -1.6,-0.9 -2,-0.9 -0.1,0 -0.2,0.1 -0.5,0.5 L 22,32.6 c -0.1,0 -0.2,-0.1 -0.2,-0.1 0.3,-0.4 0.4,-0.7 0.6,-1.1 0.2,-0.4 0.3,-0.6 0.5,-1 0.1,0 0.2,0 0.2,0.1 L 23,30.6 c 0,0.4 0,0.6 0.1,0.7 0.2,0.3 1.4,1 1.8,1.2 z"
   id="path2" />
			<path
   d="m 27,28.4 c -0.8,-0.8 -0.9,-0.9 -1.4,-0.5 l -0.2,0.2 c -0.1,0 -0.2,-0.1 -0.2,-0.2 0.4,-0.4 0.6,-0.6 0.9,-0.9 0.3,-0.3 0.5,-0.6 0.9,-1 0.1,0 0.2,0.1 0.2,0.2 L 27,26.4 c -0.4,0.5 -0.3,0.6 0.5,1.4 l 2.7,2.6 c 0.8,0.8 0.9,0.9 1.4,0.5 l 0.2,-0.2 c 0.1,0 0.2,0.1 0.2,0.2 -0.4,0.4 -0.6,0.6 -0.9,0.9 -0.3,0.3 -0.5,0.6 -0.9,1 -0.1,0 -0.2,-0.1 -0.2,-0.2 l 0.2,-0.2 c 0.4,-0.5 0.3,-0.6 -0.5,-1.4 z"
   id="path3" />
			<path
   d="M 30.7,24.3 C 30.2,23.9 29.9,23.8 29.5,24 l -0.2,0.1 c -0.1,0 -0.2,-0.1 -0.1,-0.2 0.3,-0.1 0.6,-0.3 0.9,-0.6 0.4,-0.2 0.7,-0.5 1.1,-0.7 0.1,0 0.2,0.1 0.2,0.2 l -0.1,0.1 C 31,23.2 31,23.3 31,23.4 c 0.1,0.1 0.5,0.5 1.2,1 1.1,0.8 2.1,1.5 3.2,2.3 -0.1,-0.8 -0.3,-1.9 -0.4,-2.5 -0.1,-0.8 -0.3,-2 -0.4,-2.5 0,-0.2 -0.1,-0.3 -0.1,-0.4 0,-0.1 -0.2,-0.1 -0.5,0.1 l -0.2,0.1 c -0.1,0 -0.2,-0.2 -0.1,-0.2 0.3,-0.1 0.6,-0.3 0.9,-0.6 0.3,-0.2 0.6,-0.4 0.8,-0.6 0.1,0 0.2,0.1 0.2,0.2 l -0.3,0.2 c -0.2,0.2 -0.3,0.3 -0.3,0.6 0,0.6 0.1,1.5 0.3,2.7 l 0.2,1.4 c 0.2,1 0.4,2.3 0.5,2.9 0,0 0,0.1 -0.1,0.1 0,0 -0.1,0 -0.1,0.1 C 35.5,28 35,27.7 34.6,27.4 Z"
   id="path4" />
			<path
   d="m 39.5,20.2 c -0.3,-1 -0.4,-1.2 -1,-1.1 h -0.2 c -0.1,0 -0.1,-0.2 -0.1,-0.3 0.4,-0.1 0.8,-0.2 1.2,-0.3 L 41.3,18 c 0.6,-0.2 1.2,-0.4 1.4,-0.4 0.1,0.2 0.4,0.9 0.5,1.3 0,0.1 -0.2,0.1 -0.2,0.1 -0.3,-0.4 -0.5,-0.8 -1,-0.7 -0.2,0 -0.6,0.1 -1,0.2 l -0.7,0.2 C 40,18.8 40,18.8 40.1,19.2 l 0.6,2 c 0.1,0.3 0.1,0.3 0.4,0.2 l 0.6,-0.2 c 0.4,-0.1 0.7,-0.2 0.8,-0.3 0.1,-0.1 0.2,-0.2 0.1,-0.4 v -0.4 c 0,-0.1 0.2,-0.1 0.3,-0.1 0.1,0.2 0.1,0.6 0.2,1 0.1,0.4 0.3,0.7 0.3,1 0,0.1 -0.2,0.1 -0.3,0.1 L 43,21.7 c -0.1,-0.2 -0.2,-0.3 -0.4,-0.3 -0.2,0 -0.4,0.1 -0.8,0.2 l -0.6,0.2 c -0.3,0.1 -0.3,0.1 -0.3,0.4 l 0.4,1.4 c 0.2,0.5 0.3,0.9 0.5,1 0.2,0.1 0.4,0.1 1.3,-0.1 0.8,-0.2 1.1,-0.3 1.2,-0.5 0.2,-0.2 0.3,-0.6 0.4,-1.2 0.1,-0.1 0.2,-0.1 0.3,0 0,0.4 0,1.2 -0.1,1.5 -0.9,0.2 -1.8,0.5 -2.7,0.7 l -0.9,0.3 c -0.4,0.1 -0.8,0.2 -1.4,0.4 -0.1,0 -0.1,-0.2 -0.1,-0.2 l 0.3,-0.1 C 40.7,25.2 40.7,25 40.4,24 Z"
   id="path5" />
			<path
   d="m 47.8,18.6 c 0,-1 0,-1.2 -0.5,-1.2 H 47 c -0.1,-0.1 -0.1,-0.2 0,-0.3 0.6,0 1.3,-0.1 2.3,-0.1 0.7,0 1.3,0.1 1.7,0.3 0.5,0.3 0.9,0.7 0.9,1.5 0,1 -0.8,1.5 -1.3,1.7 -0.1,0.1 0,0.2 0.1,0.3 0.8,1.4 1.4,2.2 2.1,2.8 0.2,0.2 0.4,0.3 0.7,0.3 0.1,0 0.1,0.1 0,0.1 -0.1,0 -0.3,0.1 -0.5,0 -0.9,0 -1.4,-0.3 -2.2,-1.3 -0.3,-0.4 -0.7,-1.1 -1,-1.6 -0.2,-0.2 -0.3,-0.3 -0.7,-0.3 -0.5,0 -0.5,0 -0.5,0.2 v 1.3 c 0,1.1 0,1.2 0.6,1.3 h 0.2 c 0.1,0.1 0,0.2 0,0.3 -0.5,0 -0.8,0 -1.2,0 -0.4,0 -0.8,0 -1.3,0 -0.1,0 -0.1,-0.2 0,-0.3 h 0.3 c 0.6,-0.1 0.6,-0.2 0.6,-1.3 z m 0.8,1.5 c 0,0.2 0,0.3 0,0.3 0,0 0.2,0.1 0.7,0.1 0.4,0 0.8,0 1.1,-0.3 C 50.7,20 51,19.7 51,19 c 0,-0.8 -0.5,-1.6 -1.7,-1.6 -0.7,0 -0.7,0 -0.7,0.3 z"
   id="path6" />
			<path
   d="m 57.1,25.2 c -0.8,-0.3 -1.3,-0.7 -1.4,-0.9 -0.1,-0.3 0,-1 0.2,-1.5 0.1,-0.1 0.2,0 0.3,0 0,0.6 0.1,1.7 1.2,2 0.8,0.3 1.4,-0.2 1.6,-0.8 0.1,-0.4 0.2,-1 -0.4,-1.7 l -0.8,-0.9 c -0.4,-0.5 -0.8,-1.2 -0.5,-2.1 0.3,-1 1.3,-1.5 2.6,-1.1 0.3,0.1 0.7,0.3 0.9,0.4 0.1,0.1 0.2,0.1 0.3,0.2 0,0.3 -0.1,0.9 -0.2,1.3 -0.1,0 -0.2,0 -0.3,0 0,-0.5 0,-1.3 -1,-1.6 -1,-0.3 -1.4,0.3 -1.5,0.7 -0.2,0.6 0.2,1.2 0.5,1.5 l 0.6,0.8 c 0.5,0.6 0.9,1.4 0.6,2.3 -0.3,1.4 -1.4,1.9 -2.7,1.4 z"
   id="path7" />
			<path
   d="m 65.4,23 c 0.6,-0.9 0.7,-1.1 0.2,-1.5 l -0.2,-0.2 c 0,-0.1 0.1,-0.2 0.2,-0.2 0.4,0.3 0.7,0.5 1.1,0.7 0.4,0.2 0.7,0.4 1.1,0.7 0,0.1 0,0.2 -0.1,0.2 l -0.2,-0.1 c -0.6,-0.3 -0.7,-0.1 -1.2,0.8 l -2,3.2 c -0.6,0.9 -0.6,1.1 -0.1,1.5 l 0.2,0.2 c 0,0.1 -0.1,0.2 -0.2,0.2 C 63.8,28.2 63.5,28 63.1,27.8 62.7,27.6 62.4,27.4 62,27.1 62,27 62,26.9 62.1,26.9 l 0.2,0.1 c 0.6,0.3 0.7,0.1 1.2,-0.8 z"
   id="path8" />
			<path
   d="m 69.9,31.4 c -0.8,0.7 -0.9,0.9 -0.5,1.4 l 0.2,0.3 c 0,0.1 -0.1,0.2 -0.2,0.2 -0.4,-0.5 -0.6,-0.7 -0.9,-1 -0.3,-0.3 -0.5,-0.6 -1,-1 0,-0.1 0.1,-0.2 0.2,-0.2 l 0.3,0.3 c 0.4,0.4 0.6,0.3 1.4,-0.4 l 3.4,-3.2 c 0.2,-0.2 0.2,-0.2 0,-0.5 l -0.4,-0.4 c -0.3,-0.3 -0.7,-0.7 -1.1,-0.8 -0.3,0 -0.6,0.1 -0.9,0.1 -0.1,0 -0.2,-0.2 -0.1,-0.3 0.5,-0.2 1.1,-0.5 1.4,-0.8 0,0 0.1,0.1 0.1,0.1 -0.2,0.3 0,0.5 0.4,0.9 l 2.9,3.1 c 0.4,0.4 0.5,0.5 0.8,0.4 0.1,0 0.1,0.1 0.1,0.2 -0.4,0.2 -1.1,0.7 -1.3,1 -0.1,0 -0.2,-0.1 -0.2,-0.2 0.2,-0.2 0.4,-0.5 0.4,-0.7 0,-0.3 -0.2,-0.6 -0.6,-1.1 l -0.5,-0.5 c -0.2,-0.2 -0.2,-0.2 -0.5,0 z"
   id="path9" />
			<path
   d="m 75.4,38.5 c 0.2,-0.2 0.2,-0.2 0.1,-0.5 l -0.7,-1.4 c -0.1,-0.2 -0.2,-0.3 -0.4,-0.3 l -1.2,0.1 c -0.5,0.1 -0.8,0.1 -0.9,0.2 -0.1,0.1 -0.1,0.1 -0.1,0.4 l 0.1,0.3 c 0,0.1 -0.2,0.2 -0.2,0.1 -0.1,-0.3 -0.2,-0.5 -0.4,-1 -0.1,-0.3 -0.3,-0.6 -0.5,-0.9 0,-0.1 0.2,-0.2 0.2,-0.1 l 0.2,0.3 c 0.1,0.2 0.3,0.4 0.7,0.3 0.5,0 1.3,-0.1 2.5,-0.2 l 3,-0.2 c 0.4,0 0.6,-0.1 0.7,-0.2 0.2,0.2 0.4,0.3 0.6,0.3 0,0.1 0,0.1 0,0.2 -0.4,0.3 -0.7,0.7 -1.1,1 l -3,3.2 c -0.7,0.7 -0.8,0.9 -0.6,1.3 l 0.1,0.3 c 0,0.1 -0.2,0.1 -0.2,0.1 -0.2,-0.4 -0.3,-0.7 -0.5,-1.2 -0.2,-0.5 -0.4,-0.8 -0.5,-1.1 0,-0.1 0.1,-0.2 0.2,-0.1 l 0.2,0.3 c 0.1,0.2 0.2,0.3 0.3,0.3 0.1,-0.1 0.3,-0.2 0.4,-0.4 z m 0,-2.3 c -0.3,0 -0.3,0 -0.1,0.3 l 0.6,1.2 c 0.1,0.3 0.2,0.3 0.4,0.1 l 1.3,-1.2 c 0.2,-0.2 0.4,-0.4 0.5,-0.5 v 0 c -0.1,0 -0.3,0 -0.7,0 z"
   id="path10" />
			<path
   d="m 74.8,45.6 c -0.1,-0.9 0.1,-1.5 0.1,-1.7 0.2,-0.2 0.9,-0.4 1.4,-0.5 0.1,0 0.1,0.2 0.1,0.2 -0.5,0.2 -1.5,0.8 -1.3,2 0.1,0.9 0.8,1.2 1.4,1.1 0.5,-0.1 1,-0.2 1.3,-1.1 l 0.5,-1.1 c 0.3,-0.6 0.8,-1.3 1.6,-1.4 1,-0.1 1.9,0.5 2.1,1.9 0,0.3 0,0.7 0,1 0,0.1 0,0.3 0,0.4 -0.2,0.1 -0.8,0.3 -1.2,0.4 -0.1,0 -0.1,-0.2 -0.1,-0.3 0.5,-0.2 1.1,-0.6 1,-1.6 -0.2,-1 -0.9,-1.1 -1.3,-1.1 -0.6,0.1 -1,0.7 -1.1,1.1 L 78.8,46 c -0.3,0.7 -0.8,1.4 -1.8,1.6 -1.1,0.1 -2,-0.6 -2.2,-2 z"
   id="path11" />
		</g>
		<g
   id="g20">
			<path
   d="m 23.6,57.3 c 0.7,-0.3 0.9,-0.4 0.8,-0.8 l -0.1,-0.3 c 0,-0.1 0.2,-0.1 0.2,-0.1 0.2,0.5 0.5,1.2 0.9,2.1 0.2,0.6 0.4,1.2 0.3,1.8 -0.1,0.5 -0.3,1 -1,1.2 -0.7,0.3 -1.2,0 -1.7,-0.5 -0.1,0 -0.1,0.1 -0.1,0.2 0.1,0.6 -0.1,1.5 -1.2,1.9 -1.1,0.4 -2.2,-0.1 -2.9,-1.9 -0.1,-0.3 -0.3,-0.8 -0.4,-1.2 -0.2,-0.4 -0.3,-0.8 -0.4,-1.1 0,-0.1 0.2,-0.1 0.2,-0.1 l 0.1,0.2 c 0.3,0.5 0.4,0.5 1.4,0.1 z m -3.3,2.1 c -0.4,0.1 -0.8,0.3 -1,0.6 -0.2,0.3 -0.1,0.6 0,0.9 0.3,0.9 1,1.4 1.9,1 0.8,-0.3 1.5,-1 1,-2.6 -0.2,-0.5 -0.3,-0.5 -0.5,-0.5 z m 2.3,-0.9 c -0.3,0.1 -0.3,0.1 -0.1,0.6 0.4,1 0.9,1.4 1.8,1.1 1,-0.4 1.1,-1.2 0.8,-2 -0.1,-0.2 -0.2,-0.4 -0.2,-0.4 -0.1,-0.1 -0.1,-0.1 -0.3,0 z"
   id="path12" />
			<path
   d="m 26.8,64.6 c 0.9,-0.7 1,-0.8 0.7,-1.3 l -0.1,-0.1 c 0,-0.1 0.2,-0.2 0.2,-0.1 0.3,0.4 0.5,0.7 0.7,1 l 1.2,1.6 c 0.4,0.5 0.8,1 0.9,1.1 -0.1,0.2 -0.7,0.7 -1,1 -0.1,0 -0.2,-0.1 -0.2,-0.2 0.3,-0.4 0.5,-0.7 0.3,-1.2 -0.1,-0.2 -0.3,-0.5 -0.6,-0.9 l -0.5,-0.6 c -0.2,-0.3 -0.2,-0.2 -0.5,0 L 26.3,66 c -0.2,0.2 -0.2,0.2 0,0.5 l 0.4,0.5 c 0.3,0.4 0.5,0.6 0.6,0.7 0.1,0.1 0.2,0.1 0.4,0 l 0.4,-0.2 c 0.1,0 0.2,0.1 0.2,0.2 -0.2,0.2 -0.6,0.4 -0.9,0.6 -0.3,0.2 -0.6,0.5 -0.8,0.6 -0.1,0 -0.2,-0.1 -0.2,-0.2 l 0.3,-0.3 c 0.1,-0.1 0.2,-0.3 0.1,-0.5 -0.1,-0.1 -0.2,-0.4 -0.4,-0.7 L 26,66.7 c -0.2,-0.3 -0.2,-0.3 -0.4,-0.1 l -1.2,0.9 c -0.4,0.3 -0.7,0.6 -0.8,0.8 0,0.2 0,0.4 0.6,1.2 0.5,0.6 0.7,0.9 0.9,1 0.2,0.1 0.7,0.1 1.3,0 0.1,0 0.1,0.2 0.1,0.3 C 26.2,71 25.4,71.2 25,71.3 24.5,70.5 23.9,69.8 23.3,69 l -0.6,-0.8 c -0.3,-0.4 -0.5,-0.6 -0.9,-1.1 0,-0.1 0.1,-0.2 0.2,-0.2 l 0.2,0.3 c 0.4,0.4 0.6,0.4 1.4,-0.3 z"
   id="path13" />
			<path
   d="m 31.9,70.4 c 0.6,-0.8 0.7,-1 0.4,-1.3 L 32,68.9 c 0,-0.1 0.1,-0.2 0.2,-0.2 0.5,0.3 1.1,0.7 1.9,1.3 0.5,0.4 1,0.8 1.2,1.3 0.3,0.5 0.3,1.1 -0.2,1.7 -0.6,0.8 -1.5,0.8 -2.1,0.6 -0.1,0 -0.1,0.1 -0.1,0.2 -0.1,1.6 -0.2,2.6 0.1,3.5 0,0.2 0.2,0.5 0.4,0.7 0,0 0,0.1 -0.1,0.1 -0.1,0 -0.2,-0.1 -0.4,-0.2 -0.7,-0.5 -1,-1.1 -1,-2.3 0,-0.5 0.1,-1.3 0.1,-1.9 0,-0.3 -0.1,-0.5 -0.4,-0.7 -0.4,-0.3 -0.4,-0.3 -0.5,-0.1 L 30.3,74 c -0.7,0.9 -0.7,1 -0.3,1.4 l 0.2,0.2 c 0,0.1 -0.1,0.2 -0.2,0.2 -0.4,-0.3 -0.7,-0.5 -1,-0.8 -0.4,-0.3 -0.7,-0.5 -1.1,-0.7 0,-0.1 0,-0.2 0.1,-0.2 l 0.2,0.1 c 0.5,0.3 0.6,0.2 1.3,-0.7 z m -0.2,1.7 c -0.1,0.2 -0.2,0.2 -0.2,0.3 0,0 0.1,0.2 0.6,0.5 0.3,0.2 0.7,0.4 1,0.4 0.4,0 0.8,-0.2 1.2,-0.7 0.5,-0.7 0.5,-1.6 -0.4,-2.3 -0.5,-0.4 -0.6,-0.4 -0.7,-0.1 z"
   id="path14" />
			<path
   d="m 42.5,80.4 c -0.1,0.4 -0.1,0.7 0,0.8 0,0 0,0.1 0,0.1 -0.1,0 -0.3,-0.1 -0.5,-0.1 -0.6,0 -1.3,-0.1 -1.9,-0.3 C 38.9,80.5 37.9,79.8 37.4,78.8 37,78 37,77.2 37.2,76.3 c 0.3,-0.8 0.8,-1.6 1.7,-2.1 0.9,-0.5 2,-0.6 3.5,-0.1 0.6,0.2 1.1,0.5 1.2,0.6 0.2,0.1 0.5,0.3 0.6,0.3 -0.1,0.3 -0.2,0.9 -0.3,1.5 -0.1,0.1 -0.2,0 -0.3,-0.1 0.1,-1.2 -0.6,-1.8 -1.6,-2.1 -1.9,-0.6 -3.2,0.5 -3.7,2 -0.6,1.9 -0.1,3.7 1.9,4.4 0.6,0.2 1,0.2 1.2,0.1 0.1,-0.1 0.2,-0.2 0.3,-0.5 l 0.1,-0.4 c 0.3,-0.8 0.3,-0.9 -0.3,-1.2 l -0.4,-0.2 c -0.1,-0.1 0,-0.2 0.1,-0.2 0.3,0.1 0.8,0.3 1.4,0.5 0.4,0.1 0.7,0.2 1.1,0.3 0.1,0.1 0,0.2 -0.1,0.3 h -0.2 c -0.4,-0.1 -0.5,0.2 -0.7,0.7 z"
   id="path15" />
			<path
   d="m 47.8,76.8 c 0,-1.1 0,-1.2 -0.6,-1.3 H 47 c -0.1,0 0,-0.2 0,-0.3 0.5,0 0.8,0 1.2,0 h 2 c 0.7,0 1.3,0 1.4,0 0.1,0.2 0.1,0.9 0.2,1.4 0,0.1 -0.2,0.1 -0.3,0 -0.2,-0.5 -0.2,-0.9 -0.8,-1 -0.2,-0.1 -0.6,-0.1 -1,-0.1 h -0.8 c -0.3,0 -0.3,0 -0.3,0.4 V 78 c 0,0.3 0,0.3 0.3,0.3 h 0.6 c 0.4,0 0.8,0 0.9,-0.1 0.1,0 0.2,-0.1 0.3,-0.4 l 0.1,-0.4 c 0.1,-0.1 0.2,-0.1 0.3,0 0,0.3 0,0.7 0,1.1 0,0.4 0,0.8 0,1 0,0.1 -0.2,0.1 -0.3,0 l -0.1,-0.4 c 0,-0.2 -0.1,-0.3 -0.3,-0.4 -0.1,0 -0.4,-0.1 -0.8,-0.1 H 49 c -0.3,0 -0.3,0 -0.3,0.3 v 1.5 c 0,0.6 0,0.9 0.2,1.1 0.1,0.1 0.3,0.2 1.3,0.2 0.8,0 1.1,0 1.3,-0.2 0.2,-0.1 0.5,-0.5 0.7,-1 0.1,-0.1 0.2,0 0.3,0.1 -0.1,0.4 -0.3,1.2 -0.5,1.5 -0.9,0 -1.9,0 -2.8,0 h -0.9 c -0.5,0 -0.8,0 -1.4,0 -0.1,0 -0.1,-0.2 0,-0.3 h 0.3 c 0.6,-0.1 0.7,-0.2 0.7,-1.3 z"
   id="path16" />
			<path
   d="M 62.2,75.1 C 62,74.6 61.6,73.4 61.6,73 c 0,-0.1 0.2,-0.2 0.5,-0.4 l 0.1,-0.1 c 0,-0.1 0,-0.2 -0.1,-0.2 -0.3,0.1 -0.6,0.2 -1,0.4 -0.4,0.1 -0.7,0.3 -1.2,0.4 -0.1,0.1 0,0.2 0.1,0.3 h 0.2 c 0.4,-0.1 0.6,-0.1 0.7,0 0.3,0.2 0.8,1.5 1,2 l 0.8,2.1 c 0.1,0.2 0.1,0.4 0.1,0.4 v 0 C 62.2,77.6 61.5,77.2 60.5,76.7 L 59,75.9 c -0.5,-0.2 -2.1,-1.1 -2.5,-1.5 -0.1,0.1 -0.3,0.1 -0.4,0.2 -0.2,0.1 -0.7,0.3 -1.1,0.4 -0.1,0.1 0,0.2 0.1,0.3 h 0.2 c 0.2,-0.1 0.5,-0.1 0.7,0 0.3,0.1 0.4,0.4 0.5,0.6 l 1.1,2.8 c 0.2,0.5 0.6,1.7 0.6,2.1 0,0.1 -0.1,0.2 -0.4,0.4 l -0.3,0.1 c 0,0.1 0,0.2 0.1,0.2 0.3,-0.1 0.6,-0.3 1,-0.4 0.4,-0.1 0.7,-0.3 1.2,-0.4 0.1,-0.1 0,-0.2 -0.1,-0.3 l -0.3,0.1 c -0.3,0.1 -0.5,0.1 -0.6,0 C 58.5,80.3 58,79 57.9,78.5 L 57.1,76.4 C 57,76.1 56.9,75.9 56.9,75.7 v 0 c 0.3,0.1 1.3,0.7 1.6,0.9 l 3.2,1.7 c 1.2,0.7 1.6,0.9 1.8,1 0.1,0 0.1,-0.1 0.1,-0.2 -0.1,-0.2 -0.6,-1.4 -0.7,-1.7 z"
   id="path17" />
			<path
   d="m 70.4,74.9 c -0.7,0.6 -1.3,0.7 -1.5,0.8 -0.2,-0.1 -0.8,-0.6 -1.2,-0.9 0,-0.1 0.1,-0.2 0.2,-0.2 0.5,0.3 1.5,0.8 2.4,0 0.7,-0.6 0.6,-1.3 0.2,-1.8 -0.3,-0.4 -0.7,-0.7 -1.6,-0.6 l -1.2,0.1 c -0.6,0.1 -1.5,0 -2,-0.7 -0.6,-0.8 -0.6,-1.9 0.5,-2.8 0.2,-0.2 0.6,-0.4 0.8,-0.5 0.1,-0.1 0.3,-0.1 0.3,-0.2 0.2,0.1 0.7,0.5 1,0.9 0,0.1 -0.1,0.2 -0.2,0.2 -0.4,-0.3 -1.1,-0.6 -1.9,0 -0.8,0.7 -0.5,1.3 -0.2,1.7 0.4,0.5 1.1,0.5 1.5,0.4 l 1,-0.1 c 0.8,-0.1 1.7,-0.1 2.3,0.7 0.8,0.9 0.7,2.1 -0.4,3 z"
   id="path18" />
			<path
   d="M 71.6,65.7 C 70.7,65.1 70.5,65 70.1,65.4 l -0.2,0.2 c -0.1,0 -0.2,-0.1 -0.2,-0.2 0.3,-0.4 0.5,-0.7 0.8,-1.1 0.2,-0.3 0.4,-0.6 0.7,-1.1 0.1,0 0.2,0.1 0.2,0.1 l -0.1,0.2 C 71,64 71.1,64.2 72,64.8 l 3,2.2 c 0.9,0.6 1,0.7 1.5,0.2 L 76.7,67 c 0.1,0 0.2,0.1 0.2,0.2 -0.3,0.4 -0.5,0.7 -0.8,1 -0.3,0.4 -0.5,0.7 -0.7,1.1 -0.1,0 -0.2,0 -0.2,-0.1 L 75.3,69 c 0.3,-0.5 0.2,-0.6 -0.7,-1.3 z"
   id="path19" />
			<path
   d="m 80.2,61.3 c -0.3,0.8 -0.8,1.2 -0.9,1.4 -0.3,0 -1,-0.1 -1.5,-0.3 -0.1,-0.1 0,-0.2 0.1,-0.2 0.6,0 1.7,0 2.1,-1.1 0.3,-0.8 -0.1,-1.4 -0.7,-1.7 -0.4,-0.2 -0.9,-0.3 -1.7,0.3 l -1,0.7 c -0.5,0.4 -1.3,0.7 -2.1,0.4 -0.9,-0.4 -1.4,-1.4 -0.9,-2.6 0.1,-0.3 0.3,-0.6 0.5,-0.9 0.1,-0.1 0.2,-0.2 0.2,-0.3 0.3,0 0.9,0.1 1.3,0.3 0,0.1 0,0.2 -0.1,0.3 -0.5,0 -1.3,0 -1.6,0.9 -0.4,1 0.2,1.4 0.7,1.6 0.6,0.2 1.2,-0.1 1.5,-0.4 l 0.8,-0.6 c 0.6,-0.5 1.4,-0.9 2.3,-0.5 1,0.3 1.5,1.4 1,2.7 z"
   id="path20" />
		</g>
	</g>
	<path
   d="M 49.6,14.2 C 30,14.2 14.2,30 14.2,49.6 14.2,69.2 30,85 49.6,85 69.2,85 85,69.2 85,49.6 85,30 69.2,14.2 49.6,14.2 Z m 0,69.8 C 30.6,84 15.2,68.6 15.2,49.6 15.2,30.6 30.6,15.2 49.6,15.2 68.6,15.2 84,30.6 84,49.6 84,68.6 68.6,84 49.6,84 Z"
   id="path21" />
	<g
   id="g24">
		<path
   d="m 58,66.8 c -0.7,0.5 -1.2,1.3 -1.5,2 0.7,0.5 2.2,1.2 4.7,1.6 1.1,-0.6 2,-1.2 3,-2 -0.9,-0.2 -1.8,-0.7 -2.4,-1 -1.1,-0.7 -2.5,-1.7 -3.8,-0.6 z"
   id="path22" />
		<path
   d="m 41.4,62.1 c -0.9,-0.2 -1.3,-0.2 -2.6,0.2 -2.2,0.7 -5.7,4.6 -5.7,4.6 1,1 2.2,1.9 3.4,2.7 1,-1.2 3.5,-4.1 5.9,-4.1 1.3,0 2,0.5 3,1.2 0.1,-0.1 0.2,-0.3 0.3,-0.4 -1.9,-1.1 -4.3,-4.2 -4.3,-4.2 z"
   id="path23" />
		<path
   d="m 48.9,65.5 c -1.1,0.1 -1.8,1 -2.3,1.9 2,1.4 3.8,3 6.4,3.7 2,0.6 2.8,0.8 4.9,0.9 0.9,-0.3 1.8,-0.7 2.7,-1.2 -1.3,-0.2 -3,-0.8 -4.4,-1.4 -2.4,-1.2 -5.1,-4.2 -7.3,-3.9 z"
   id="path24" />
	</g>
	<path
   d="m 42.8,66.7 c -3,0 -4.2,2.5 -5.1,3.6 3.5,2 7.6,3.2 11.9,3.2 2.3,0 4.5,-0.3 6.6,-0.9 -1.3,-0.1 -3,-0.4 -4.4,-1 -3.3,-1.4 -6.8,-4.9 -9,-4.9 z"
   id="path25" />
	<path
   d="m 64.1,64.6 c -2,-2.5 -3.5,-3 -4.3,-2.8 -0.8,0.2 -0.6,0.8 -1.5,1.8 -0.8,1 -2.7,2.1 -3.1,2.3 0.3,0.3 0.7,0.8 0.8,0.9 0.9,-0.9 2.2,-1.7 3.3,-1.7 2.1,0 2.7,1.7 5.5,2.7 0.6,-0.5 1.2,-1 1.7,-1.5 0.1,0.1 -1.3,-0.2 -2.4,-1.7 z"
   id="path26" />
	<g
   id="g31">
		<path
   d="M 59.4,44.1 C 59.3,44 59.4,43.8 59.3,43.7 59.2,43.3 59,42.9 59,42.4 c -0.1,-0.3 0.2,-0.4 0.4,-0.5 0.1,-0.3 0.1,-0.6 0,-0.8 -0.1,-0.4 -0.7,-0.5 -0.7,-1 0,-0.3 -0.2,-0.6 -0.2,-1 C 58.3,38.6 58.4,38 58.3,37.5 58.2,36.9 58.2,36.3 58.1,35.7 58,35 57.9,34.3 57.7,33.6 57.6,33 57.4,32.4 57.1,31.9 c 0,-0.4 -0.4,-0.7 -0.2,-1.1 0.3,-0.5 0.6,-1 0.8,-1.5 0.2,-0.3 0.1,-0.7 0.2,-1.1 0,-0.3 0.1,-0.6 0,-0.9 -0.1,0 -0.1,0 -0.1,0 -0.1,0.5 -0.7,0.7 -1.1,1 -0.6,0.2 -1.2,0.1 -1.9,0.2 -0.4,0 -0.7,0.4 -1.2,0.1 -0.2,-0.1 -0.4,-0.2 -0.7,-0.3 -0.5,0 -1,0 -1.4,0 -0.7,0 -1.2,-0.4 -1.9,-0.3 -0.9,0 -1.6,0.4 -2.5,0.3 -0.8,-0.2 -1.6,0.1 -2.2,0.4 -0.2,0 -0.5,-0.2 -0.8,-0.2 -0.7,-0.3 -1.6,0.2 -2.1,-0.3 -0.3,-0.3 -0.5,-0.6 -0.5,-1 -0.1,0.1 -0.2,0.2 -0.2,0.3 -0.2,0.3 -0.3,0.6 -0.3,0.9 -0.1,0.4 0,0.9 0.1,1.3 0.1,0.7 0.6,1.3 0.5,2 -0.1,0.3 -0.3,0.7 -0.4,1 -0.3,0.4 -0.2,0.8 -0.3,1.3 -0.3,0.8 -0.1,1.6 0,2.5 -0.3,1 -0.4,2 -0.5,3 -0.1,0.7 0,1.4 -0.3,2 -0.4,0.4 -0.7,0.7 -0.6,1.3 0,0.3 0.2,0.5 0.3,0.7 0.1,0.5 0.1,1.1 0,1.6 0,0.4 -0.4,0.6 -0.5,0.9 -0.1,0.4 0.2,0.6 0.4,0.8 0.1,0.2 0.1,0.6 0.2,0.8 0.1,0.7 0.2,1.3 0.3,2 0.2,1 0.3,2 0.5,2.9 0.2,1.2 0.5,2.3 0.8,3.4 0.4,0.8 0.5,1.7 0.8,2.5 0.2,0.7 0.6,1.3 0.6,2 0,0.1 0,0.2 0.1,0.2 0,0.5 -0.4,0.8 -0.3,1.3 0,0 1.5,2.6 3.2,3.7 0.7,-0.8 1.7,-1.5 3,-1.5 2.1,0 4,2.1 6,3.7 0.1,-0.2 0.3,-0.3 0.5,-0.5 -0.7,-0.9 -3.6,-4.3 -6,-4.7 0,0 0.2,-0.5 0,-0.7 -0.2,-0.3 -0.2,-0.5 -0.2,-0.8 0,-0.1 -0.1,-0.4 0,-0.5 0.4,0.1 0.5,0.5 0.7,0.8 0,0 0.1,0 0.1,0 0,0 0.1,0 0.1,-0.1 0,-0.4 0.5,-0.6 0.7,-0.8 0.1,0 0.1,0 0.2,0.1 0.1,0.4 0,0.9 0.3,1.2 0.1,0.1 0,0.2 -0.1,0.3 0,0.3 -0.2,0.2 -0.2,0.2 1.8,0.9 2.8,1.9 3.8,3.1 0.7,-0.5 3.2,-2.1 3.1,-3.7 0,-0.5 -0.3,-0.5 -0.4,-0.8 -0.2,-0.2 -0.4,-0.4 -0.5,-0.7 -0.3,-0.5 -0.5,-1.1 -0.4,-1.8 0.2,-0.5 0.2,-1 0.4,-1.5 0.3,-0.9 0.5,-1.8 0.7,-2.7 0.3,-1.2 0.7,-2.5 0.8,-3.8 0.2,-0.4 0.2,-0.9 0.3,-1.4 0.2,-0.4 0.1,-1 0.2,-1.5 0.1,-0.4 0,-0.8 0.2,-1.1 0.1,-0.2 0,-0.4 0.1,-0.6 0,-0.3 0.3,-0.2 0.3,-0.5 0.2,-0.1 0.3,-0.4 0.4,-0.5 0.1,-0.1 -0.3,-0.4 -0.6,-0.7 z m -1.1,-3.5 c 0.2,0.1 0.4,0.1 0.5,0.3 0.2,0.1 0.2,0.3 0.3,0.5 0,0.1 0,0.3 -0.1,0.3 -0.4,0 -0.7,-0.2 -0.9,-0.4 -0.1,-0.3 0.1,-0.5 0.2,-0.7 z m -2.1,4.9 c 0,0.6 0,1.3 -0.1,1.8 -0.1,0.1 0,0.2 0,0.3 -0.1,0.6 0,1.3 -0.1,1.9 h -0.1 c -0.2,-0.3 -0.7,-0.4 -0.7,-0.8 0.3,-1 0.2,-2.2 0.3,-3.3 0.1,-0.9 0.1,-1.9 0,-2.8 0,0 0,-0.1 0.1,-0.1 0.3,0.1 0.4,0.4 0.7,0.5 -0.1,0.9 -0.2,1.6 -0.1,2.5 z M 42.5,37.6 c -0.3,0 -0.3,-0.3 -0.4,-0.5 C 42,37 42,36.8 42,36.7 c 0.1,-0.1 0.1,-0.2 0.1,-0.3 -0.1,-0.1 -0.3,0 -0.3,-0.2 0,-0.2 -0.1,-0.5 0.2,-0.6 0.2,-0.1 0.5,0 0.8,-0.2 0,0 0,-0.1 -0.1,-0.1 -0.3,0 -0.5,0.1 -0.7,0.2 -0.1,0 -0.1,-0.1 -0.1,-0.2 0,-0.7 -0.1,-1.3 0.1,-1.8 0,-0.1 -0.1,-0.3 0,-0.4 0.3,-0.1 0.4,0.4 0.7,0.3 v 0 C 42.5,33.2 42.3,33 42.1,33 c -0.1,-0.2 0,-0.5 0,-0.7 0.1,-0.1 0.1,-0.2 0.2,-0.1 0.2,0.1 0.3,0.3 0.5,0.4 0.1,0 0.1,-0.1 0.1,-0.2 -0.2,-0.3 -0.8,-0.3 -0.5,-0.8 0,-0.2 0.1,-0.4 0.3,-0.4 0.2,0.1 0.3,0.3 0.5,0.4 h 0.1 C 43.1,31.4 43,31.2 43.1,31 c 0.1,-0.1 0.3,0.1 0.4,0.1 l 0.2,0.1 c 0.2,0.1 0.5,0.2 0.5,0.5 0.2,0.3 0.2,0.6 0.5,0.8 0.1,0.2 0.2,0.3 0.3,0.4 -0.1,0.1 -0.2,0.1 -0.2,0 -0.2,-0.1 -0.3,-0.4 -0.5,-0.6 -0.1,0 -0.1,0 -0.1,0.1 0.1,0.2 0.1,0.5 0.3,0.6 v 0.2 c -0.3,0 -0.7,-0.3 -0.9,-0.5 0,0 -0.1,-0.1 -0.2,0 -0.1,0.1 0,0.2 0,0.2 0.2,0.3 0.3,0.6 0.6,0.7 0.1,0 0.1,0.2 0,0.2 0,0.2 -0.2,0.1 -0.3,0.1 -0.2,-0.2 -0.4,-0.4 -0.6,-0.5 H 43 c 0,0.2 0.2,0.3 0.2,0.4 0.2,0.3 0.6,0.3 0.5,0.7 0,0.1 0,0.2 -0.1,0.2 -0.5,-0.1 -1.2,-0.3 -1.6,0.2 0,0.1 0,0.1 0.1,0.1 0.5,0 0.9,0 1.3,0.3 0.1,0.1 0.2,0.2 0.1,0.3 -0.1,0 -0.2,0 -0.3,0.1 -0.1,0.1 -0.3,0.2 -0.5,0.3 0,0 0,0.1 0,0.1 0.2,-0.1 0.5,-0.2 0.7,-0.3 0.1,0 0.2,0 0.2,0.1 0,0.1 -0.1,0.1 -0.2,0.2 0,-0.2 -0.4,-0.1 -0.4,0.2 h 0.1 c 0.3,0 0.5,-0.5 0.8,-0.4 0.1,0 0.1,0.1 0.1,0.2 -0.4,0.3 -1,0.5 -1.1,1.1 0,0 0,0.1 0,0.1 0.1,0 0.1,-0.1 0.2,-0.2 0.4,-0.3 0.7,-0.6 1.2,-0.7 0,0 0.1,0 0.1,0.1 0,0.2 -0.4,0.4 -0.4,0.6 -0.1,0.2 -0.1,0.4 -0.2,0.6 0,0 0.1,0.1 0.1,0 0.2,-0.3 0.4,-0.8 0.8,-1 0,0.1 0.1,0 0.2,0.1 0.2,0 0.5,0.1 0.6,0.3 0,0.5 -0.2,1.1 0,1.5 0.1,-0.1 0,-0.2 0.1,-0.3 0,-0.4 0.2,-0.6 0.3,-1 0,-0.1 0.2,-0.1 0.2,-0.1 0.2,0.1 0.2,0.3 0.4,0.4 0.1,-0.1 0,-0.4 0,-0.5 0.1,-0.1 0.2,-0.1 0.3,-0.1 0,0 0.1,0 0.2,0 0.1,-0.1 0,-0.2 0,-0.2 0.2,-0.2 0.3,-0.6 0.7,-0.5 l 0.1,0.1 c 0,0.2 0,0.5 -0.1,0.7 -0.1,0 -0.1,-0.2 -0.3,-0.1 -0.1,0.1 0,0.2 0,0.3 0.1,0.2 0.2,0.4 0.3,0.6 0,0.1 0.1,0.1 0,0.2 -0.3,0 -0.4,-0.3 -0.5,-0.4 -0.1,-0.1 -0.2,0 -0.2,0.1 -0.1,0.3 0.2,0.6 0.4,0.8 0.1,0 0.2,0.1 0.2,0.1 0,0.1 -0.1,0.2 0,0.3 l 0.1,0.2 c -0.1,0.1 -0.3,0 -0.5,-0.1 -0.3,-0.2 -0.6,-0.6 -0.7,-1 0,0 -0.1,-0.1 -0.1,0 -0.1,0.3 0,0.5 0.2,0.7 0.2,0.1 0.3,0.3 0.3,0.5 -0.1,0.1 -0.2,0.1 -0.3,0.1 -0.3,-0.2 -0.3,-0.6 -0.3,-0.9 0,0 -0.1,-0.1 -0.1,0 -0.1,0.2 -0.1,0.4 -0.1,0.5 0,0.1 0.1,0.4 -0.1,0.5 -0.2,0.1 -0.4,0 -0.6,0.1 -0.2,-0.1 -0.2,-0.4 -0.2,-0.6 0,-0.1 -0.1,0 -0.1,0 -0.2,0.1 -0.2,0.6 -0.5,0.5 -0.2,-0.1 -0.5,-0.2 -0.7,-0.5 -0.1,-0.3 0.2,-0.4 0.2,-0.7 0.1,-0.2 0.3,-0.4 0.4,-0.6 -0.1,-0.1 -0.3,0.1 -0.4,0.2 -0.2,0.3 -0.4,0.6 -0.5,0.9 0,0.1 -0.1,0.1 -0.2,0.1 -0.3,-0.3 -1,-0.5 -0.9,-1 0.1,-0.1 0.1,-0.2 0.2,-0.3 0,-0.3 -0.1,-0.1 -0.2,0 z m 7,1.1 c 0,0 0.1,0 0.1,0 0.1,-0.2 0.1,-0.6 0.1,-0.8 0,-0.7 0.1,-1.4 0.2,-2 0,-0.1 0,-0.3 0.2,-0.3 0.2,0 0.5,0.1 0.6,0.3 0.1,0.9 0,1.9 -0.3,2.7 -0.1,0.4 -0.4,0.7 -0.6,1.1 -0.1,0.1 -0.1,0.4 -0.4,0.4 -0.6,-0.8 -1,-1.8 -1,-2.9 0,-0.4 -0.2,-1 0.1,-1.3 0.3,-0.1 0.5,-0.4 0.8,-0.3 v 0.1 c 0.2,0.9 -0.1,2 0.2,3 z m 2.6,2.9 c -0.5,-0.2 -1,-0.7 -1,-1.3 0,-0.1 0.1,-0.1 0.1,0 l 0.5,0.5 c 0.4,0.2 0.8,0.5 1,0.9 0,0.1 0.1,0.3 -0.1,0.4 -0.2,0.2 -0.4,0.3 -0.7,0.3 -0.5,-0.1 -1,-0.5 -1.2,-0.9 -0.1,-0.3 -0.1,-0.7 0,-1 0.2,0 0.1,0.2 0.2,0.3 0.2,0.4 0.6,1 1.1,1.1 0.2,-0.2 0.1,-0.3 0.1,-0.3 z m -0.2,-4.7 c -0.1,0.1 -0.2,0.2 -0.3,0.3 -0.1,-0.2 0.1,-0.4 0.1,-0.5 0,0 0,-0.1 0,-0.1 -0.1,-0.1 -0.2,0 -0.2,-0.2 0,-0.1 0,-0.1 0,-0.2 h 0.2 c 0.2,0.2 0.5,0.5 0.8,0.7 0,0.2 0,0.4 -0.1,0.6 0,0.2 -0.2,0.4 -0.2,0.6 0,0.1 0.1,0.1 0.1,0 0.2,-0.3 0.3,-0.6 0.6,-0.9 0.3,-0.1 0.6,0 0.9,0 0.2,0.1 0.1,0.4 0.2,0.6 0,0.1 0,0.3 0.1,0.4 0.2,0 0.2,-0.3 0.2,-0.4 0.1,-0.3 0,-0.5 0,-0.8 0,-0.1 0,-0.1 0,-0.2 0.1,-0.1 0.2,-0.1 0.3,0 0.2,0.1 0.3,0.4 0.5,0.5 0.1,0 0,-0.1 0,-0.2 0,-0.2 -0.3,-0.4 -0.3,-0.6 0,-0.1 0.1,-0.1 0.2,-0.1 0.2,0.1 0.1,0.4 0.3,0.5 0.1,0 0,-0.1 0,-0.2 -0.1,-0.2 -0.2,-0.4 -0.2,-0.6 0.1,-0.1 0.2,0 0.2,0 0.3,0.1 0.5,0.2 0.8,0.4 0.3,0.2 0.3,0.6 0.4,0.9 -0.1,0.3 0.2,0.7 -0.1,0.9 -0.2,0.1 -0.4,0.3 -0.6,0.4 -0.1,-0.1 -0.1,-0.2 -0.2,-0.3 -0.2,-0.2 -0.3,-0.7 -0.6,-0.6 -0.1,0.1 0.1,0.3 0.1,0.5 0,0.3 0.3,0.6 0.1,0.9 -0.3,-0.1 -0.4,0.3 -0.7,0.2 -0.3,-0.1 -0.6,0.5 -0.9,0 0,-0.4 0,-0.8 -0.1,-1.3 0,-0.1 -0.1,-0.3 -0.2,-0.4 -0.1,0.1 0,0.3 -0.1,0.5 0,0.4 -0.1,0.8 -0.3,1.1 -0.1,0.1 -0.2,0.2 -0.3,0.1 0,0 -0.1,0 -0.1,-0.1 0,-0.2 0.1,-0.4 0.1,-0.6 0,-0.1 -0.1,0 -0.1,0 -0.2,0.3 -0.5,0.7 -0.9,0.6 -0.1,-0.1 -0.1,-0.1 -0.2,-0.1 0.1,-0.2 0.4,-0.4 0.4,-0.6 -0.2,0 -0.3,0.2 -0.5,0.3 -0.1,-0.7 0.6,-1.1 0.7,-1.8 0,-0.2 -0.1,-0.2 -0.1,-0.2 z m 0,-3.3 c 0.3,-0.4 0.8,-0.5 1.3,-0.6 0.5,0 1.1,0.1 1.4,0.5 0.4,0.5 0.5,1.2 0.3,1.8 -0.3,0.6 -0.9,1.1 -1.6,1.1 C 53,36.5 52.8,36.3 52.5,36.2 52.1,36 52,35.6 51.8,35.3 51.5,34.7 51.6,34.1 51.9,33.6 Z m 5.2,8 c 0,0 0.1,-0.1 0.2,-0.1 0.2,0 0.3,0 0.5,0.1 0.1,0.2 0.2,0.5 0.1,0.7 -0.3,0.1 -0.5,0 -0.7,-0.2 -0.2,-0.2 0,-0.4 -0.1,-0.5 z m 0.2,-0.4 C 57,41.1 56.7,40.8 56.5,40.5 56.4,40.2 56.2,40 56.2,39.7 c 0,-0.2 -0.1,-0.4 0,-0.6 v 0 c 0.2,0.5 0.6,0.9 1,1.3 0.1,0.1 0.3,0.1 0.4,0.3 0,0.2 -0.1,0.4 -0.3,0.5 z m -2.4,6.2 c -0.3,0.1 -0.5,-0.3 -0.8,-0.4 -0.3,-0.4 -0.6,-0.8 -0.6,-1.3 0,0 0.1,-0.1 0.1,-0.1 0.2,0.3 0.4,0.7 0.8,0.8 0.1,0 0.1,0 0.1,-0.1 -0.1,-0.3 -0.3,-0.6 -0.2,-0.9 0.2,0 0.3,0.3 0.6,0.3 0.1,0.1 0.1,0.4 0.1,0.5 -0.1,0.4 0,0.9 -0.1,1.2 z m -0.1,6.5 c 0,-0.8 0.2,-1.7 0.2,-2.5 0.1,-0.1 0.3,-0.2 0.5,-0.2 0,0.1 0,0.3 0,0.5 0,0.8 -0.1,1.6 -0.1,2.5 0,0.3 -0.1,0.7 -0.1,1 -0.1,0.2 -0.1,0.4 -0.1,0.7 0,0.7 -0.2,1.3 -0.3,1.9 -0.1,0.1 -0.1,0.4 -0.3,0.4 -0.2,-0.2 -0.1,-0.5 -0.1,-0.7 0.1,-0.2 0,-0.5 0.1,-0.7 0,-1 0.3,-1.9 0.2,-2.9 z m -0.2,5.8 c 0.2,0.4 0.2,0.8 0.3,1.1 0,0.2 0.1,0.4 -0.1,0.5 -0.5,-0.1 -0.9,0.1 -1.3,0.4 -0.1,0 -0.2,0 -0.3,-0.1 -0.1,-0.2 0,-0.4 0,-0.6 0.1,-0.2 0,-0.5 0.2,-0.7 0.1,-0.1 0.3,-0.1 0.3,-0.3 -0.2,-0.1 -0.5,0 -0.6,-0.2 -0.2,-0.3 -0.4,-0.6 -0.4,-1 0.3,-0.3 0.8,-0.4 1.2,-0.3 0.1,0.1 0.3,0.1 0.3,0.2 0.3,0.5 0.3,0.8 0.4,1 z m -0.7,2.4 c 0.1,-0.3 0.4,-0.3 0.6,-0.4 0.1,0 0.2,0 0.2,0.1 -0.1,0.6 -0.2,1.2 -0.6,1.7 0,0.1 -0.1,0.1 -0.2,0.1 -0.1,0 0,-0.1 0,-0.2 0.2,-0.4 0.2,-0.9 0,-1.3 z m -1,1 C 52.5,63 52,62.7 52,62.2 52,62.1 51.9,62 51.9,61.9 c 0.2,-0.2 0.5,-0.2 0.8,-0.2 l 0.1,0.1 c -0.1,0.4 -0.2,1 0.1,1.3 z m -0.6,-1.7 c -0.2,0 -0.4,0.2 -0.6,0.2 -0.1,-0.2 -0.1,-0.4 -0.2,-0.6 -0.1,-0.7 0,-1.4 0.6,-1.8 0.1,-0.1 0.2,0 0.3,0 0.2,0.2 0.3,0.5 0.4,0.7 0.1,0.2 0.2,0.3 0.3,0.6 0.1,0.3 0,0.6 0,0.9 -0.3,0.1 -0.6,-0.1 -0.8,0 z m -4.6,1 c 0.2,-0.1 0.4,-0.3 0.7,-0.1 0.2,0.2 0.2,0.4 0.2,0.6 -0.2,0.4 -0.6,0.8 -1,0.9 0,0 -0.1,0 -0.1,-0.1 0,-0.3 0.2,-0.5 0.1,-0.8 -0.1,-0.2 0,-0.3 0.1,-0.5 z M 48.5,62 c -0.2,0 -0.4,-0.1 -0.5,-0.2 -0.2,0 -0.2,0.2 -0.4,0.3 -0.1,0 -0.1,0.1 -0.2,0.1 -0.1,-0.2 -0.1,-0.4 -0.1,-0.6 -0.1,-0.2 0,-0.5 0.1,-0.7 0.2,-0.1 0.3,-0.3 0.5,-0.3 0.1,-0.1 0.1,-0.1 0.1,-0.2 -0.1,-0.1 -0.3,-0.1 -0.4,-0.1 -0.2,0.1 -0.3,0.2 -0.5,0.4 -0.2,-0.3 -0.2,-0.6 -0.2,-1 0,-0.3 0.1,-0.7 0.4,-0.8 0.2,0.1 0.6,0.1 0.7,0.4 0.4,0.5 0.8,1 0.9,1.7 0,0.4 0.1,0.8 -0.1,1.2 -0.2,0 -0.2,-0.1 -0.3,-0.2 z m -1.2,-3.8 c -0.6,-0.3 -0.7,-1 -0.6,-1.6 0,-0.1 0,-0.3 0.2,-0.3 0.1,0.1 0.1,0.2 0.2,0.3 0.3,0.6 1,1 1.5,1.5 0.4,0.2 0.6,0.7 0.6,1.2 0.1,0.1 0,0.3 0,0.4 0,0 -0.1,0 -0.1,-0.1 C 48.6,59 48,58.4 47.3,58.2 Z M 44.4,40.8 c 0.2,-0.1 0.3,-0.3 0.5,-0.4 0.2,-0.2 0.3,-0.4 0.5,-0.6 0.1,0 0.2,0 0.2,0.1 0,0.3 -0.1,0.5 -0.2,0.8 -0.3,0.6 -0.7,1.2 -1.4,1.3 -0.2,0 -0.4,-0.1 -0.5,-0.2 0,-0.3 -0.1,-0.5 -0.1,-0.7 0,-0.5 0.4,-0.9 0.7,-1.4 0.1,-0.1 0.3,-0.2 0.3,0 -0.1,0.3 -0.1,0.7 -0.1,1 0.1,0 0.1,0.1 0.1,0.1 z m 1.5,3.7 c 0.4,-0.3 0.7,-0.8 1,-1.1 0,0 0.1,0 0.1,0 0,0.7 -0.4,1.3 -0.9,1.9 -0.3,0.3 -0.8,0.5 -1.2,0.4 -0.3,-0.1 -0.4,-0.4 -0.5,-0.6 0,-0.3 0.1,-0.5 0.2,-0.7 0.4,-0.3 0.9,-0.6 1.1,-1 0,-0.1 0.1,-0.1 0.2,-0.1 0,0.5 -0.3,0.9 -0.5,1.3 0.3,0.1 0.4,0 0.5,-0.1 z M 47,41.8 c 0.4,-0.1 0.6,-0.4 0.8,-0.7 0,-0.2 0.2,-0.3 0.3,-0.5 0,0 0,0 0.1,0 0,0.7 -0.3,1.4 -0.9,1.9 -0.1,0.1 -0.3,0.1 -0.4,0.1 -0.2,-0.1 -0.5,-0.2 -0.5,-0.4 0,-0.5 0.1,-0.9 0.5,-1.1 0.1,-0.1 0.2,-0.3 0.4,-0.4 0,0.3 -0.1,0.6 -0.2,0.8 0,0.1 -0.2,0.2 -0.1,0.3 z m 1.9,6.9 c 0.1,0 0.1,0 0,0 0.2,-0.1 0.1,-0.3 0.2,-0.4 0.1,-0.1 0.2,0 0.2,0 0.3,0.2 0.1,0.6 0.2,0.9 0,0.3 -0.1,0.7 -0.2,1 0.1,0.1 0.2,0 0.2,0 0.3,-0.4 0.2,-0.8 0.3,-1.3 0,-0.1 0,-0.2 0.1,-0.3 0.1,0 0.1,0 0.1,0.1 0,0.3 0,0.6 0,0.9 h 0.1 c 0.3,-0.4 0.1,-0.9 0.3,-1.4 0.1,-0.2 0,-0.5 0.1,-0.8 0.2,0 0.2,0.2 0.2,0.4 0,0.2 0.1,0.3 0.2,0.4 0.1,1 0.4,2.4 -0.6,3 -0.3,0.2 -0.8,0.1 -1.1,0 -0.3,-0.1 -0.4,-0.5 -0.5,-0.7 -0.2,-0.6 -0.4,-1.2 -0.3,-1.9 0.1,-0.6 0.2,-1.3 0.5,-1.8 0.1,0 0,0.2 0,0.3 0,0.6 -0.1,1.1 0,1.6 z m 2.9,-2.1 c -0.1,-0.2 -0.1,-0.5 -0.2,-0.8 0,-0.2 0.2,0 0.2,0.1 0.2,0.6 1.1,0.7 1.1,1.4 0.1,0.2 0.1,0.4 0,0.6 -0.2,0.2 -0.5,0.3 -0.9,0.3 -0.5,-0.2 -0.8,-0.7 -1.2,-1.1 0,-0.3 -0.3,-0.5 -0.1,-0.8 0.1,0 0.2,0.1 0.2,0.1 0.3,0.3 0.6,0.6 0.9,0.8 0.1,0 0.1,0 0.2,-0.1 0.2,-0.2 -0.1,-0.3 -0.2,-0.5 z m -0.5,5.8 c -0.1,-0.2 -0.4,-0.4 -0.4,-0.6 0,-0.1 -0.1,-0.2 0.1,-0.3 0.5,0.2 0.9,0.5 1.2,0.9 0.1,0.3 0.1,0.7 0,0.9 0,0.1 -0.1,0.3 -0.2,0.3 -0.1,0.1 -0.3,0.1 -0.5,0.1 -0.5,-0.3 -0.8,-0.9 -0.9,-1.5 h 0.1 c 0.2,0.2 0.3,0.7 0.7,0.5 0,0 0,-0.2 -0.1,-0.3 z m 0.9,-1.1 c -0.3,-0.4 -0.6,-0.8 -0.6,-1.4 0,0 0.1,-0.1 0.1,0 0.1,0.1 0.1,0.2 0.1,0.3 0.1,0.2 0.2,0.5 0.5,0.5 0.1,0 0,-0.2 0,-0.2 0,-0.3 -0.2,-0.5 -0.1,-0.8 v 0 c 0.4,0.4 0.9,0.8 0.7,1.4 0,0.2 -0.2,0.3 -0.3,0.3 -0.1,0 -0.2,0 -0.4,-0.1 z m -5.1,-0.6 c 0.3,-0.3 0.5,-0.6 0.7,-0.9 0.1,0 0.1,0 0.1,0.1 0.1,0.8 -0.3,1.4 -0.9,1.8 -0.2,0.1 -0.4,0.1 -0.5,0.1 -0.1,-0.1 -0.2,-0.3 -0.3,-0.4 -0.1,-0.6 0.1,-1.1 0.5,-1.5 0.2,-0.2 0.2,-0.4 0.4,-0.5 0.2,0.1 0.1,0.5 0.1,0.7 0,0.3 -0.2,0.4 -0.2,0.7 -0.1,0.1 0,-0.1 0.1,-0.1 z m 0.5,1.2 c 0.1,-0.3 0.4,-0.4 0.6,-0.7 0.1,0 0.2,0 0.2,0.1 0,0.5 -0.3,0.9 -0.5,1.3 0.1,0.1 0.2,-0.1 0.4,-0.1 0.3,-0.2 0.3,-0.6 0.5,-0.9 0.1,0 0.2,0.1 0.2,0.1 0.3,0.7 -0.1,1.3 -0.4,1.8 -0.2,0.4 -0.6,0.2 -0.9,0.3 -0.2,0 -0.4,-0.1 -0.4,-0.3 -0.2,-0.6 0.2,-1.1 0.3,-1.6 z m 0.9,-5.8 c 0,0.3 -0.1,0.5 -0.2,0.8 L 48.2,47 c 0.1,0.1 0,0.2 0,0.3 -0.1,0.6 -0.6,1 -1.2,1.1 -0.2,0 -0.4,-0.1 -0.6,-0.2 -0.3,-0.2 -0.2,-0.6 -0.2,-1 0.2,-0.6 0.6,-1.2 1,-1.8 0,0 0.1,-0.1 0.1,0 0.1,0.6 0,1.1 -0.2,1.6 0,0.1 0,0.2 0.1,0.3 0.2,-0.1 0.2,-0.3 0.4,-0.4 v -0.1 c 0.2,-0.4 0.5,-0.8 0.6,-1.3 0,-0.1 0.1,-0.1 0.1,-0.1 0.3,0.3 0.2,0.5 0.2,0.7 z m -3,-3.1 c -0.2,0.2 -0.5,0.4 -0.8,0.4 -0.1,0 -0.2,-0.1 -0.2,-0.2 -0.1,-0.6 0.4,-0.9 0.5,-1.4 0.1,-0.1 0.2,-0.3 0.3,-0.3 0.1,0.3 -0.1,0.6 -0.1,1 0.1,0.1 0.2,-0.1 0.3,-0.2 0.2,-0.4 0.4,-0.9 0.5,-1.3 0,-0.1 0.1,0 0.1,0 0,0.8 -0.3,1.4 -0.6,2 z m -1.1,3.7 0.5,-0.5 c 0.1,0 0.1,0 0.1,0.1 0.1,0.3 -0.1,0.7 -0.2,0.9 0,0.1 -0.1,0.3 0,0.4 0.2,0 0.3,-0.2 0.4,-0.3 0.2,-0.3 0.4,-0.6 0.7,-0.8 0,0 0.1,0 0.1,0 0,0.5 -0.3,0.9 -0.5,1.3 -0.2,0.4 -0.6,0.7 -1.1,0.6 l -0.1,-0.1 c -0.1,-0.5 -0.2,-1.2 0.1,-1.6 z m 1.7,6 c 0.1,-0.1 0.1,-0.2 0.2,-0.2 0,0.2 -0.2,0.3 -0.2,0.5 -0.1,0.2 -0.2,0.4 -0.2,0.6 0.1,0.1 0.2,0 0.3,0 0.2,-0.2 0.4,-0.4 0.6,-0.6 0,0 0,0.1 0,0.1 0,0 0,0.1 0,0.1 -0.2,0.4 -0.4,1 -1,1.1 -0.2,0 -0.4,0 -0.5,-0.1 -0.1,-0.3 0,-0.7 0.2,-1 0.2,-0.1 0.3,-0.4 0.6,-0.5 z M 46,56.6 c 0,0.4 0.1,0.9 -0.1,1.2 -0.1,0.1 -0.2,0.2 -0.3,0.1 -0.2,-0.1 -0.2,-0.2 -0.2,-0.4 0,-0.4 -0.1,-0.8 0.1,-1.2 0.1,-0.3 0.1,-0.5 0.2,-0.8 0,-0.2 0.1,-0.4 0.1,-0.6 0.1,0.1 0,0.3 0.1,0.4 0.1,0.5 -0.1,0.9 0.1,1.3 z m -0.7,3 c 0.1,-0.2 0.2,-0.5 0.4,-0.7 0.1,-0.2 0.4,-0.1 0.6,-0.2 0.2,0.1 0.6,-0.1 0.5,0.2 -0.2,0.4 -0.4,0.9 -0.2,1.3 -0.1,0.2 -0.6,0 -0.5,0.3 0.2,0.3 0.5,0.1 0.6,0.4 0.1,0.3 0.1,0.7 0.2,1 0,0.1 -0.1,0 -0.1,0 -0.3,-0.2 -0.6,-0.4 -0.9,-0.2 -0.2,0.1 -0.3,0.3 -0.5,0.5 -0.1,0.1 -0.1,-0.1 -0.1,-0.1 -0.3,-0.8 -0.2,-1.8 0,-2.5 z M 47.8,57 c -0.2,-0.3 -0.3,-0.7 -0.5,-1 0,-0.4 -0.1,-0.7 0,-1.1 0,-0.1 0,-0.2 0.1,-0.3 v 0 c 0,0.8 0.5,1.3 0.9,1.9 0.3,0.3 1,0.4 0.9,1 0,0.3 0.2,0.5 0,0.8 -0.1,0 -0.1,0 -0.1,-0.1 -0.3,-0.5 -0.9,-0.8 -1.3,-1.2 z m 1.5,-1 c -0.4,-0.4 -0.7,-0.9 -0.5,-1.5 0,-0.4 0.2,-0.8 0.5,-1 0.1,-0.1 0,-0.3 0.2,-0.3 0.1,0.1 0,0.2 -0.1,0.2 0.1,0.4 0.3,1 -0.1,1.3 0,0.1 0,0.2 0.1,0.2 0.4,0.1 0.3,-0.4 0.5,-0.5 0,0.3 -0.2,0.6 -0.4,0.8 0,0.1 0.2,0.1 0.2,0.2 0.2,0 0.3,-0.3 0.4,-0.4 0.1,-0.5 0.1,-0.9 -0.2,-1.3 0,-0.1 -0.1,-0.3 0.1,-0.5 0.3,0 0.4,0.3 0.5,0.5 0.2,0.4 0.3,1 0.1,1.4 0.1,0.5 -0.4,0.6 -0.6,0.9 -0.2,0 -0.5,0.2 -0.7,0 z m 1,1 c 0,-0.2 0.2,-0.3 0.3,-0.5 0.2,-0.5 0.4,-0.9 0.7,-1.3 0.2,-0.2 0.1,-0.5 0.2,-0.8 0.1,0 0.1,0.2 0.2,0.3 0.1,0.5 0.1,1.1 -0.1,1.5 -0.3,0.6 -0.8,1.1 -1,1.6 -0.1,0.1 -0.1,0.3 -0.2,0.4 -0.3,-0.3 -0.3,-0.8 -0.1,-1.2 z m 0.3,1.9 c 0.1,-0.5 0.4,-0.9 0.6,-1.3 0.4,-0.5 0.6,-1 0.8,-1.5 0,-0.1 -0.1,-0.2 0,-0.3 0.2,0.3 0.3,0.7 0.2,1.1 0,1 -1.1,1.6 -1.2,2.5 -0.1,0.1 -0.2,0.3 -0.3,0.4 -0.1,-0.2 0,-0.6 -0.1,-0.9 z m 2.4,-2 c 0,-0.6 0.2,-1.1 0.2,-1.7 0,-0.1 0.1,-0.2 0.1,-0.1 0.1,0.6 0,1.2 0.2,1.7 0,0.4 0.1,0.9 -0.3,1.1 -0.1,0.1 -0.2,0 -0.2,-0.1 -0.2,-0.3 0,-0.6 0,-0.9 z m 0.8,-3.4 c -0.1,0.1 -0.2,0.2 -0.4,0.1 -0.6,-0.2 -0.8,-0.8 -0.9,-1.3 0.1,0 0.2,0.2 0.3,0.2 0.2,0.1 0.3,0.5 0.6,0.3 0,-0.3 -0.3,-0.4 -0.4,-0.7 0,-0.1 -0.1,-0.2 -0.1,-0.3 0.1,0 0.1,0.2 0.3,0.3 0.3,0.1 0.6,0.4 0.7,0.7 0.1,0.2 0.1,0.5 -0.1,0.7 z m -1.1,-8.7 c -0.4,-0.3 -0.5,-0.7 -0.6,-1.2 0,-0.1 -0.1,-0.3 0,-0.4 0.1,0 0.1,0.1 0.1,0.1 0.2,0.2 0.4,0.6 0.7,0.7 0.1,0.1 0.1,0.1 0.1,0.2 0.1,0 0.2,0 0.2,-0.1 0,-0.1 -0.1,-0.3 -0.2,-0.4 -0.1,-0.3 -0.4,-0.5 -0.3,-0.9 0.1,-0.1 0.2,0.1 0.4,0.2 0.4,0.1 1,0.4 1.1,0.9 0,0.3 0,0.7 -0.2,0.9 -0.5,0.2 -1,0.1 -1.3,0 z m 1.2,-3 c 0.1,0.1 0.2,0.2 0.3,0.2 0.2,0.2 0.4,0.5 0.3,0.8 -0.1,0.1 -0.1,0.3 -0.2,0.4 -0.3,0 -0.5,-0.3 -0.7,-0.5 -0.2,-0.2 -0.3,-0.4 -0.2,-0.7 0,-0.1 0.1,0 0.2,0 0.2,0.1 0.3,0.4 0.5,0.2 C 54,42.1 53.8,42 53.9,41.8 Z m 0.3,-0.2 c -0.3,-0.5 -0.6,-0.9 -0.6,-1.5 0,0 0.1,0 0.1,0 0.2,0.3 0.5,0.8 1,0.8 0.1,-0.1 -0.1,-0.3 -0.1,-0.4 0,-0.2 -0.1,-0.3 -0.1,-0.5 0.1,0 0.1,0.1 0.2,0.2 0.3,0.2 0.6,0.4 0.7,0.8 0,0.3 0,0.7 -0.3,1 -0.4,-0.1 -0.7,-0.2 -0.9,-0.4 z M 51,45.4 c -0.3,0.4 -0.9,0.8 -1.5,0.8 -0.3,-0.1 -0.6,-0.1 -0.8,-0.4 0,-0.2 -0.3,-0.3 -0.2,-0.6 -0.2,-0.5 -0.4,-1 -0.3,-1.6 -0.1,-0.6 0.1,-1.3 0.2,-1.9 0.1,-0.1 0.2,-0.4 0.3,-0.2 0,0.6 -0.2,1.1 0.1,1.6 0.1,0 0.1,0.1 0.2,0.1 0.2,-0.1 0,-0.4 0.1,-0.6 0.1,-0.1 0.1,0 0.2,0.1 0.1,0.6 0,1.3 0.3,1.8 0.1,0.1 0.2,0.2 0.3,0.1 0.1,-0.1 0,-0.1 0.1,-0.2 -0.3,-0.8 -0.3,-1.8 0,-2.6 0.1,0 0.1,0 0.1,0.1 0.1,0.5 -0.1,1.1 0.1,1.5 0.2,-0.1 0.2,-0.3 0.3,-0.5 0.1,-0.5 0,-1.1 0.1,-1.6 0.1,0 0,0.1 0.1,0.1 0.3,1.3 1.1,2.8 0.3,4 z M 48.6,34 c 0,-0.1 0.1,-0.3 -0.1,-0.3 -0.1,0 -0.3,0.1 -0.4,0.1 0,0 -0.1,-0.1 -0.1,-0.1 0,0 0,0 0,-0.1 0.2,-0.1 0.5,-0.3 0.7,-0.4 0.1,-0.1 0.2,-0.2 0.3,-0.1 0.1,0.4 -0.2,0.7 -0.4,0.9 0,0.1 0,0.1 0,0 z m -0.7,-0.8 c -0.2,0 -0.4,0.1 -0.6,-0.1 0.1,-0.2 0.3,-0.1 0.4,-0.2 0.3,-0.1 0.5,0.2 0.7,0.2 0,0 0,0 0,0.1 -0.1,0 -0.3,-0.1 -0.5,0 z m 0.6,-1.6 c -0.1,0 -0.1,-0.2 -0.2,-0.2 -0.1,-0.1 -0.1,-0.1 -0.2,-0.1 -0.1,0.1 -0.2,0.3 -0.3,0.5 v 0.1 c -0.2,0 -0.2,-0.2 -0.4,-0.3 -0.1,-0.3 0.2,-0.5 0.3,-0.7 0.2,0 0.5,0.1 0.6,0.3 0.1,0 0.3,0.1 0.2,0.4 z m -0.8,0.6 c -0.1,0.3 0.3,0.2 0.4,0.3 v 0.1 c 0,0.1 -0.2,0.1 -0.3,0.1 -0.3,-0.1 -0.6,0 -0.8,0.1 -0.1,0 -0.2,0 -0.3,-0.1 0,-0.2 0.3,-0.1 0.4,-0.1 0.1,-0.1 0.2,-0.1 0.3,-0.2 -0.3,-0.2 -0.7,0 -1,0 -0.2,0.1 -0.5,0.1 -0.7,0 0,0 0,-0.1 0.1,-0.1 0.3,0.1 0.5,-0.2 0.8,-0.2 0.2,-0.1 0.5,0 0.8,0 0.1,0 0.2,0.1 0.3,0.1 z m -0.8,-0.5 c -0.5,0 -0.9,0.3 -1.5,0.2 0,0 -0.1,0 -0.1,-0.1 0,-0.1 0.1,-0.1 0.1,-0.1 0.1,-0.2 0.4,-0.1 0.5,-0.2 0.1,0 0.3,0 0.4,-0.1 0.3,0 0.7,0 0.9,0.3 v 0.1 c -0.1,0 -0.2,-0.1 -0.3,-0.1 z m -1.3,1.4 c 0.6,-0.2 1.2,0 1.6,0.3 0.4,0.5 0.5,1.3 0.2,1.9 -0.2,0.4 -0.5,0.9 -1,0.9 -0.6,0.3 -1.2,0 -1.7,-0.4 -0.3,-0.4 -0.6,-0.9 -0.4,-1.4 0.1,-0.5 0.7,-1.1 1.3,-1.3 z m -1.9,9.7 c 0,0 0,0.1 0,0 0,1.2 0.1,2.3 0.2,3.6 0.1,1.1 0.1,2.2 0.2,3.2 0,0.2 -0.2,0.3 -0.3,0.5 -0.1,0.1 -0.2,0.3 -0.4,0.4 -0.2,-0.3 -0.1,-0.7 -0.2,-1.1 -0.1,-1.7 -0.3,-3.6 -0.3,-5.4 0.1,-0.2 0.2,-0.4 0.3,-0.7 0.2,-0.1 0.4,-0.3 0.5,-0.5 z m 0.5,7.1 v 0 c 0.3,-0.3 0.6,-0.6 0.8,-0.8 0,0 0.1,0 0.1,0 -0.1,0.5 -0.2,1 -0.6,1.5 0,0.1 0,0.1 0.1,0.1 0.2,-0.3 0.4,-0.5 0.7,-0.8 0.2,-0.2 0.3,-0.4 0.5,-0.6 0.1,0.2 0,0.4 0,0.5 -0.1,0.8 -0.4,1.5 -1.2,1.9 -0.3,0 -0.4,0.2 -0.7,0.1 -0.2,0 -0.4,-0.2 -0.5,-0.4 0,-0.5 0.4,-1 0.8,-1.5 z m -0.4,2.3 0.3,-0.1 c 0,0 0.1,0 0.1,0.1 0.1,0.9 0.1,1.8 0.2,2.7 0,0.7 0.1,1.2 0.2,1.9 0.1,0.4 0,0.9 0.2,1.3 0.2,0.4 -0.1,0.6 -0.2,0.9 -0.3,0 0,-0.4 -0.2,-0.6 -0.3,-1.2 -0.6,-2.3 -0.7,-3.6 -0.1,-0.6 -0.1,-1.2 -0.2,-1.8 -0.1,-0.3 0,-0.6 -0.1,-0.9 0.2,0 0.3,0.1 0.4,0.1 z m -0.2,8.6 c 0,-0.4 0.1,-0.8 0.3,-1.1 0,-0.2 0.2,-0.2 0.4,-0.3 0.2,0 0.4,-0.2 0.6,0 0,0.1 0.2,0.2 0.1,0.4 -0.1,0.2 -0.2,0.4 -0.5,0.6 -0.1,0 -0.3,-0.1 -0.3,0.1 0,0.3 0.4,0.1 0.5,0.3 0,0.2 0.1,0.5 0,0.7 -0.2,0 -0.5,0 -0.7,0.1 -0.1,0.1 -0.2,0.2 -0.3,0.1 -0.3,-0.2 -0.2,-0.6 -0.1,-0.9 z m 0.5,1 c 0.2,-0.1 0.4,-0.1 0.6,0 0,0.2 -0.1,0.5 -0.1,0.7 0,0.3 0.2,0.6 0.5,0.7 v 0 c -0.2,0.1 -0.4,-0.1 -0.6,-0.2 -0.3,-0.2 -0.3,-0.5 -0.4,-0.7 0,-0.1 -0.2,-0.4 0,-0.5 z m 2,0.2 c 0.2,0 0.4,0 0.6,0.2 0,0.2 -0.1,0.4 -0.1,0.7 0,0.3 0,0.6 0.2,0.8 v 0.1 c -0.2,0 -0.4,-0.2 -0.5,-0.3 -0.3,-0.3 -0.6,-0.6 -0.6,-1 0,-0.3 0.2,-0.4 0.4,-0.5 z m 9.4,-0.2 c -0.1,0 0,-0.1 0,-0.2 0.2,-0.3 0.5,-0.1 0.8,-0.2 v 0 c 0.1,0.3 -0.3,0.5 -0.4,0.8 -0.1,0.1 -0.1,0.2 -0.1,0.2 -0.2,0.2 -0.3,0.4 -0.5,0.6 h -0.1 c 0.1,-0.3 0.5,-0.7 0.3,-1.2 z m 0.9,-0.7 c -0.1,0.1 -0.1,0.1 -0.2,0.1 -0.3,-0.1 -0.5,0.1 -0.8,0.1 -0.1,-0.2 -0.2,-0.5 -0.2,-0.7 0.2,-0.2 0.4,-0.3 0.5,-0.5 0,-0.1 0,-0.1 -0.1,-0.1 -0.2,0 -0.4,0.4 -0.6,0.1 -0.1,-0.2 -0.2,-0.5 -0.3,-0.8 0.2,-0.1 0.4,0 0.5,0.1 l 0.3,0.1 c 0.5,0.1 0.5,0.7 0.8,1 0.1,0.1 0.4,0.4 0.1,0.6 z M 55.3,51 c -0.6,0.1 -1.2,-0.2 -1.6,-0.6 -0.2,-0.3 -0.4,-0.6 -0.4,-1 0,-0.1 0.1,-0.1 0.2,-0.1 0.3,0.3 0.7,0.6 1.1,0.7 l 0.1,-0.1 c 0.1,0 0.1,0.2 0.2,0.1 0,0 0.1,-0.1 0,-0.1 -0.5,-0.4 -0.8,-0.9 -0.9,-1.4 0,-0.1 0.1,-0.1 0.2,-0.1 0.5,0.3 1,0.7 1.5,1.1 0.2,0.3 0.4,0.6 0.3,0.9 -0.3,0.3 -0.5,0.5 -0.7,0.6 z m 0.3,-9.8 c 0,-0.1 0.1,0 0.1,0 0.2,0.2 0.3,0.4 0.5,0.6 0.4,0.3 0.7,0.7 1.2,0.8 0.1,0.2 0.4,0.2 0.5,0.3 0,0.2 -0.1,0.4 -0.3,0.4 -0.6,0 -0.9,-0.4 -1.3,-0.8 -0.3,-0.3 -0.5,-0.8 -0.7,-1.3 z m 2.3,-0.9 c -0.1,0 -0.3,0 -0.4,-0.1 -0.4,-0.2 -0.2,-0.6 -0.3,-1 0,-0.3 -0.1,-0.6 0.1,-0.8 0.1,0 0.1,0.1 0.1,0.1 0.2,0.6 0.5,1.1 0.5,1.8 z m -0.4,-3.9 c 0,0.1 -0.1,0 -0.2,0 -0.1,-0.2 -0.4,-0.3 -0.5,-0.6 0,-0.1 -0.2,-0.1 -0.2,0 0,0 -0.1,0.1 0,0.1 0.3,0.4 0.4,0.8 0.7,1.2 0,0.2 -0.2,0.4 -0.3,0.6 0,0 -0.1,0 -0.1,0 -0.2,-0.1 -0.2,-0.3 -0.3,-0.5 0,-0.1 -0.1,-0.3 -0.1,-0.4 0.1,-0.4 -0.3,-0.6 -0.4,-0.9 -0.2,-0.2 -0.5,-0.2 -0.6,-0.4 0,-0.1 0,-0.2 0.1,-0.2 0.3,-0.3 0.6,0.1 0.9,-0.1 0.1,0.1 0.3,0 0.4,0 0.2,0.1 0.4,0.3 0.6,0.3 0.2,0.1 0.2,0.3 0.2,0.5 -0.1,0.2 -0.2,0.3 -0.2,0.4 z M 57,32.7 c 0,0.1 -0.1,0.3 0,0.4 0.1,0.1 0.3,0.1 0.3,0.3 0,0.1 0,0.2 -0.1,0.2 -0.3,0 -0.6,0.1 -0.8,0.4 0,0.1 0,0.1 0.1,0.1 0.2,0 0.2,-0.3 0.5,-0.3 0.2,0 0.3,-0.1 0.5,0 0,0.2 0.2,0.3 0.2,0.4 -0.1,0.3 0.1,0.7 -0.1,1 -0.4,0 -0.7,-0.4 -1.1,-0.1 -0.2,0 -0.5,-0.2 -0.7,-0.1 -0.2,-0.1 -0.3,-0.4 -0.2,-0.6 0.1,-0.2 0.3,-0.1 0.4,-0.3 0.1,0 0.3,0.1 0.3,0 0,-0.2 -0.3,-0.1 -0.4,-0.1 -0.1,0 -0.2,0.1 -0.4,0.1 -0.1,-0.1 -0.1,-0.2 -0.1,-0.4 0.2,-0.4 0.7,-0.5 1,-0.6 0,0 0.1,-0.1 0,-0.1 -0.4,-0.3 -0.9,0.1 -1.2,0.3 -0.1,0 -0.1,0 -0.1,-0.1 0.1,-0.3 0.2,-0.6 0.5,-0.7 0,0 0.1,-0.1 0.1,-0.1 -0.1,-0.1 -0.2,0 -0.3,0 -0.1,0.1 -0.3,0.3 -0.5,0.4 0,-0.2 0.3,-0.4 0.4,-0.7 0,0 0,-0.1 -0.1,-0.1 -0.3,0.2 -0.5,0.5 -0.9,0.7 -0.1,0 -0.2,0 -0.3,0 -0.1,0 0,-0.1 0,-0.2 0.2,-0.3 0.5,-0.6 0.6,-0.9 0.2,-0.6 0.9,-0.5 1.3,-0.9 0.2,0.1 0.4,-0.1 0.5,0.1 -0.2,0.2 -0.3,0.2 -0.4,0.3 -0.2,0.2 -0.6,0.3 -0.7,0.6 0.2,0.1 0.2,-0.1 0.4,-0.2 0.1,-0.1 0.2,-0.2 0.3,-0.1 0.2,0.2 0.3,-0.3 0.4,0.1 -0.1,0.2 -0.3,0.2 -0.4,0.3 -0.1,0.1 -0.3,0.3 -0.3,0.5 0,0.1 0.1,0 0.2,0 0.2,-0.2 0.4,-0.4 0.7,-0.4 0.3,0.2 0.4,0.5 0.4,0.8 z m -3.5,-2.9 c 0.2,-0.3 0.6,-0.2 0.8,-0.4 0.7,-0.2 1.4,0.1 2,-0.4 L 57,28.5 c 0.3,0 0.4,-0.3 0.6,-0.4 0.1,0 0.2,0 0.2,0.1 -0.1,0.3 -0.2,0.6 -0.3,1 -0.1,0.5 -0.6,0.6 -1,0.9 -0.2,0.2 -0.5,0.2 -0.8,0.2 -0.6,0 -1.1,0.3 -1.4,0.8 0.1,0.2 -0.1,0.3 -0.2,0.3 -0.1,0.1 -0.3,0.1 -0.4,0.2 0.1,0.1 0.2,0 0.2,0.2 -0.3,0.3 -0.8,0 -1.1,0.3 0,0 -0.1,0.1 -0.1,0.1 0.1,0.1 0.3,0 0.3,0.1 -0.2,0.2 -0.6,0.1 -0.8,0.3 0,0.1 0,0.1 0.1,0.1 0.1,0 0.2,-0.1 0.3,0 0,0.1 -0.1,0.1 -0.2,0.2 -0.3,0.1 -0.6,0 -0.8,0.2 0.1,0.1 0.3,0.1 0.4,0.2 -0.3,0.2 -0.7,0.2 -0.9,0.4 -0.2,0.1 0.1,0.7 -0.3,0.5 -0.2,-0.2 -0.3,-0.4 -0.4,-0.7 0.1,-0.1 0,-0.4 0.1,-0.3 0.2,0.1 0.2,0.3 0.3,0.4 0.1,0 0.2,-0.1 0.3,-0.2 -0.2,-0.3 0.3,-0.3 0.4,-0.5 0,-0.3 0.3,-0.2 0.4,-0.3 0.3,-0.1 0.5,-0.1 0.8,-0.2 0,0 -0.1,0 -0.1,-0.1 0,0 -0.1,0 -0.1,0 0,0 0,0 0,-0.1 0.3,-0.4 0.8,-0.3 1.2,-0.4 0,-0.1 -0.2,-0.1 -0.1,-0.2 0.3,-0.2 0.8,-0.1 0.9,-0.5 0,-0.1 0.1,-0.2 0,-0.2 -0.2,0.1 -0.3,0.3 -0.5,0.4 -0.2,0.2 -0.4,0.3 -0.6,0.4 0,-0.1 0.1,-0.2 0.2,-0.3 0.3,-0.3 0.5,-0.7 0.7,-1.2 0,-0.1 -0.1,0 -0.2,0 -0.3,0.3 -0.7,0.5 -1,0.8 -0.1,0 -0.2,0.1 -0.2,0 -0.1,-0.2 0.2,-0.2 0.2,-0.4 0,-0.4 0.2,-0.6 0.4,-0.8 z m -3.3,1.8 c -0.1,-0.1 -0.1,-0.3 -0.1,-0.5 0,0 -0.1,0 -0.1,0 -0.1,0.1 -0.2,0.3 -0.2,0.4 0,0 -0.1,0 -0.1,0 -0.1,-0.3 0,-0.6 0.1,-0.8 0.1,-0.1 0.2,-0.2 0.3,-0.2 0.1,0.1 0.2,0.2 0.3,0.3 0,0.3 0,0.6 -0.2,0.8 z m 1,-0.4 c -0.1,-0.1 -0.2,0.1 -0.3,0.1 -0.1,0.1 -0.2,0.3 -0.3,0.4 -0.1,0 -0.1,0 -0.1,-0.1 0,-0.3 0.1,-0.5 0.2,-0.8 0.1,-0.2 0.4,-0.2 0.5,-0.4 0.1,-0.1 0.4,-0.2 0.4,0.1 0,0.2 0.1,0.4 0.2,0.6 0,0.2 -0.2,0.4 -0.2,0.6 0,0 -0.1,0.1 -0.2,0.1 0,-0.2 -0.1,-0.4 -0.2,-0.6 z m 0.3,-2.3 c 0,-0.3 0.3,-0.2 0.5,-0.3 0.3,0 0.7,0 0.9,0.3 0.1,0.1 0.1,0.2 0.1,0.4 -0.2,0.1 -0.1,0.4 -0.3,0.5 -0.3,-0.1 -0.2,-0.4 -0.4,-0.6 -0.3,-0.2 -0.5,0.1 -0.8,0.2 -0.2,-0.2 0,-0.4 0,-0.5 z m 0.3,0.6 c 0.1,0 0.1,0 0.2,0.1 0,0.4 0.5,0.7 0.1,1 -0.3,0 -0.2,-0.3 -0.3,-0.5 -0.2,-0.2 -0.4,0.2 -0.6,0.1 -0.1,0 -0.2,-0.1 -0.1,-0.2 0,-0.3 0.4,-0.4 0.7,-0.5 z m -2.1,-0.6 c 0.2,-0.4 0.6,-0.4 1,-0.4 0.2,0.2 0.2,0.4 0.4,0.5 0,0.1 0,0.3 -0.1,0.4 -0.1,0 -0.2,-0.2 -0.3,-0.2 C 50.5,29 50.3,29 50.1,29 c -0.1,0 -0.2,0.2 -0.3,0.1 -0.1,0 -0.1,-0.1 -0.1,-0.2 z m 0.4,0.5 c 0.2,-0.1 0.3,0.2 0.4,0.4 0,0.1 0.3,0.2 0.2,0.4 -0.1,0.1 -0.1,0.2 -0.2,0.2 -0.2,-0.1 -0.3,-0.4 -0.5,-0.3 -0.1,0.1 -0.2,0.2 -0.3,0.2 -0.1,-0.1 -0.1,-0.3 -0.1,-0.4 0.2,-0.3 0.3,-0.4 0.5,-0.5 z m -0.5,3.9 c 0.2,-0.1 0.4,0.1 0.5,-0.1 v 0 c 0,0.2 0.2,0.5 0.1,0.7 0,0.1 0.1,0.2 0.1,0.4 -0.1,0 -0.1,-0.2 -0.2,-0.3 0,-0.1 -0.1,-0.2 -0.2,-0.2 -0.2,0 -0.1,0.5 -0.3,0.2 -0.1,-0.2 0.1,-0.4 -0.1,-0.5 -0.1,0.2 -0.2,0.3 -0.3,0.5 -0.1,0 -0.2,-0.1 -0.2,-0.2 0.3,-0.1 -0.1,-0.5 0.3,-0.6 0.1,0 0.2,0 0.3,0.1 z m -0.2,-2 c -0.1,0 -0.1,-0.1 -0.1,-0.2 C 49.3,31 49.2,30.9 49.1,31 49,31.1 49,31.2 49,31.4 v 0 c -0.2,-0.2 -0.3,-0.4 -0.2,-0.7 0,-0.2 0.2,-0.3 0.3,-0.4 0.1,0 0.2,0.1 0.3,0.2 0.1,0.3 0.1,0.6 0,0.8 z m -0.7,-1.2 c 0,0.1 -0.1,0.2 -0.2,0.3 -0.1,0 -0.2,-0.1 -0.2,-0.1 -0.1,-0.1 0,-0.2 0,-0.3 0.1,-0.2 0.2,-0.5 0.4,-0.6 0.2,0 0.4,0.3 0.6,0.3 0.1,0.1 0.1,0.2 0.1,0.3 -0.3,0.1 -0.6,-0.2 -0.7,0.1 z m 0,-1.7 c 0.1,0 0.3,0 0.4,0.1 0.1,0.1 0.1,0.3 0.3,0.5 0,0.1 0,0.2 -0.1,0.2 -0.4,0.1 -0.4,-0.4 -0.8,-0.3 -0.1,0.1 -0.3,0.3 -0.4,0.5 -0.1,0 -0.1,0.1 -0.2,0.1 -0.1,-0.1 -0.2,-0.2 -0.2,-0.3 0.2,-0.4 0.5,-0.8 1,-0.8 z M 47.9,30 c 0,0.1 0.1,0.3 0,0.4 -0.2,0 -0.5,0 -0.6,0.3 -0.1,0.1 -0.1,0.3 -0.3,0.4 -0.1,-0.1 -0.2,-0.2 -0.3,-0.4 0.1,-0.2 0.2,-0.5 0.3,-0.7 0,0 0.1,-0.1 0.1,-0.1 0.4,0 0.6,0.2 0.8,0.1 z m -1.3,-1.2 c 0.2,0 0.4,0 0.6,0.2 0.1,0.1 0.2,0.3 0.3,0.3 0.1,0 0.1,0.1 0.1,0.2 -0.1,0.1 -0.2,0 -0.3,0 -0.2,0 -0.5,-0.3 -0.7,0.1 -0.1,0.1 -0.1,0.3 -0.2,0.3 -0.1,-0.1 -0.2,-0.3 -0.2,-0.5 0.1,-0.2 0.2,-0.5 0.4,-0.6 z m -5.1,0.1 c 0,-0.3 0,-0.5 0,-0.8 0,0 0.1,-0.1 0.1,-0.1 0.3,-0.1 0.2,0.3 0.4,0.4 0.1,0.3 0.4,0.6 0.7,0.6 0.6,0 1.2,-0.1 1.8,0.1 0.4,0.1 0.8,0.4 1.1,0.8 0.1,0 0.1,-0.1 0.2,-0.1 0.1,0.1 0.4,0.2 0.3,0.4 0.3,0 0.4,0.4 0.7,0.6 -0.2,0.2 0.5,0.5 -0.1,0.5 -0.4,-0.2 -0.8,0.1 -1.2,0.1 -0.1,0 -0.2,0 -0.3,-0.1 v -0.1 c 0.2,-0.2 0.5,-0.3 0.8,-0.3 0.1,0 0,-0.2 0.2,-0.1 0.1,0.1 0.1,0.2 0.2,0.2 0,0 0,-0.1 0,-0.1 -0.2,0 -0.2,-0.3 -0.4,-0.3 -0.2,0 -0.3,0 -0.4,-0.2 -0.1,-0.3 -0.4,-0.4 -0.6,-0.5 -0.1,-0.1 -0.2,-0.1 -0.3,-0.1 -0.1,0.1 -0.1,0.1 -0.1,0.2 0.2,0.3 0.4,0.6 0.7,0.8 v 0 c -0.3,0 -0.5,-0.4 -0.7,-0.3 0,0 -0.1,0.1 0,0.2 0.1,0.2 0.4,0.4 0.2,0.6 -0.2,0 -0.3,-0.2 -0.4,-0.3 0,-0.3 -0.3,-0.3 -0.5,-0.4 -0.2,-0.1 -0.4,0 -0.7,0 C 43,30.5 42.8,30.7 42.6,30.5 42,30.2 41.5,29.6 41.5,28.9 Z M 41.3,40 c 0.1,-0.4 0,-0.8 0.3,-1.1 0.2,0 0.1,0.3 0.1,0.4 0.1,0.3 0.1,0.7 0.2,1 -0.1,0.2 -0.3,0.3 -0.5,0.3 C 41.2,40.5 41.3,40.2 41.3,40 Z M 43,39.5 c 0.1,-0.1 0.2,-0.1 0.2,0 0,0.3 -0.1,0.6 -0.2,0.9 -0.3,0.4 -0.4,0.9 -0.7,1.3 -0.2,0.1 -0.4,0.4 -0.7,0.4 -0.1,-0.2 -0.3,-0.4 -0.3,-0.7 0.6,-0.6 1.3,-1.2 1.7,-1.9 z m -1.2,3.7 c -0.1,0.1 -0.2,0.2 -0.4,0.1 0,-0.2 -0.1,-0.6 0.1,-0.7 0.1,-0.1 0.3,-0.3 0.4,-0.1 0.1,0.3 0.1,0.6 -0.1,0.7 z m 0.4,-0.1 c 0.3,-0.4 0.7,-0.7 0.9,-1.2 0,0 0.1,-0.1 0.1,-0.1 -0.1,0.8 -0.4,1.6 -0.9,2.2 -0.2,0.3 -0.6,0.4 -0.9,0.5 -0.1,0 -0.2,-0.1 -0.2,-0.2 0,-0.1 -0.1,-0.2 -0.1,-0.3 0.4,-0.2 0.8,-0.5 1.1,-0.9 z m -2.1,-0.4 c 0,-0.3 0.1,-0.5 0.4,-0.7 0.1,-0.1 0.3,-0.2 0.5,-0.2 l 0.2,0.3 c 0,0.4 -0.4,0.5 -0.7,0.8 -0.1,0 -0.1,0.1 -0.2,0.1 -0.2,-0.1 -0.2,-0.2 -0.2,-0.3 z m 0.2,3.9 c -0.1,0 -0.2,-0.1 -0.3,-0.1 -0.1,-0.1 -0.2,-0.3 -0.2,-0.5 0.1,-0.2 0.4,-0.3 0.5,-0.5 0.3,-0.2 0.5,-0.5 0.8,-0.8 0.1,0 0.3,-0.1 0.4,0 -0.2,0.7 -0.6,1.3 -1.2,1.9 z m 1.8,9.4 c -0.4,-1.3 -0.8,-2.6 -1,-4 -0.2,-1.2 -0.3,-2.4 -0.5,-3.6 0.1,-0.5 0,-1.1 0,-1.6 0.1,-0.2 0.3,-0.3 0.5,-0.4 0,0 0.1,0 0.1,0.1 0,0.9 0.2,1.7 0.2,2.6 0.1,0.7 0.2,1.4 0.2,2 0,0.7 0.1,1.4 0.1,2.1 0.1,0.8 0.2,1.5 0.3,2.2 0,0.2 0.1,0.4 0.1,0.6 z m 0.3,-1 C 42.3,54.4 42.3,53.7 42.2,53.1 42,51.9 42,50.6 41.9,49.4 41.8,49.1 41.8,48.7 41.8,48.3 41.7,47.5 41.7,46.7 41.6,46 c -0.1,-0.5 0.1,-0.9 0.2,-1.2 0.1,-0.1 0.3,-0.3 0.4,-0.2 0.1,0.8 0,1.6 0.1,2.4 0.1,0.3 0.1,0.7 0.1,1 0.1,1.3 0.1,2.5 0.3,3.7 0.2,1.7 0.4,3.4 0.6,5.2 0.1,0.6 0.2,1.2 0.3,1.9 0,0 -0.1,0.1 -0.1,0 -0.6,-1.2 -0.9,-2.5 -1.1,-3.8 z m 14.1,0.4 c -0.2,0.9 -0.3,1.8 -0.6,2.7 0,0.3 -0.1,0.6 -0.2,0.8 0,0 -0.1,0 -0.1,0 0,-0.7 0.3,-1.2 0.3,-1.8 0.1,-0.5 0.1,-1 0.2,-1.5 0.1,-0.7 0.1,-1.3 0.1,-2 0.1,-0.2 0.1,-0.5 0.1,-0.7 -0.1,-0.5 0.1,-1 0.1,-1.5 0.1,-0.5 0.2,-1.1 0.2,-1.6 0.1,-1 0.2,-1.9 0.2,-2.9 0.1,-0.3 0,-0.7 0.1,-0.9 0,-0.3 0,-0.5 0,-0.8 0.1,-0.2 -0.2,-0.7 0.2,-0.8 0.1,0.1 0.3,0.2 0.4,0.3 0,0.3 -0.1,0.6 -0.1,0.9 0,0.5 -0.1,1 -0.1,1.6 0,0.8 0,1.5 -0.1,2.2 -0.1,0.9 -0.2,1.8 -0.3,2.6 0,1.1 -0.2,2.2 -0.4,3.4 z m 2.2,-9.5 c -0.1,0.6 0,1.1 -0.1,1.7 0,0.5 -0.2,1 -0.2,1.5 0,0.8 -0.3,1.5 -0.3,2.3 -0.1,0.8 -0.3,1.5 -0.5,2.3 -0.2,0.9 -0.5,1.8 -0.8,2.6 0,0 -0.1,0 -0.1,0 0.1,-0.8 0.3,-1.7 0.4,-2.5 0.2,-1 0.4,-2.1 0.6,-3.1 0.1,-0.8 0.1,-1.6 0.2,-2.4 0.1,-1 0.2,-2 0.3,-2.9 0.1,-0.1 0.3,0.1 0.4,0.1 0.1,0.1 0.1,0.2 0.1,0.4 z m 0.6,-0.5 c -0.5,-0.4 -1,-0.7 -1.3,-1.2 -0.1,-0.1 -0.2,-0.3 -0.2,-0.5 0.1,-0.1 0.1,-0.2 0.2,-0.1 0.2,0 0.3,0.3 0.6,0.3 0.1,0.1 0.1,0.2 0.1,0.3 0.2,0.2 0.5,0.5 0.7,0.7 0.1,0.1 0.2,0.2 0.1,0.4 0,0 -0.1,0.2 -0.2,0.1 z"
   id="path27" />
		<path
   d="m 42.1,29.1 c 0.2,0.2 0.5,0.2 0.8,0.2 0.3,0.1 0.6,0 0.8,0.2 0.1,0.1 0.3,0.2 0.3,0.5 v 0 c -0.6,-0.3 -1.3,0 -1.8,-0.5 -0.2,0 -0.3,-0.2 -0.3,-0.4 0,-0.1 0,-0.1 0,-0.2 0.1,0 0.1,0.2 0.2,0.2 z"
   id="path28" />
		<path
   d="m 57.4,29 c 0,0.1 -0.1,0.3 -0.3,0.4 -0.5,0.3 -1.2,0.5 -1.9,0.4 0,0 0,-0.1 0,-0.1 0.4,-0.1 0.9,-0.2 1.3,-0.4 C 56.7,29.2 57,29 57.4,29 Z"
   id="path29" />
		<path
   d="m 45.2,33.9 c -0.1,0 -0.8,1.1 -0.1,1.7 0.9,0.8 2,-0.6 1.8,-0.9 -0.1,-0.1 -0.4,0.8 -1.2,0.6 -0.9,-0.2 -0.4,-1.4 -0.5,-1.4 z"
   id="path30" />
		<path
   d="m 52.5,35.4 c 0,0.3 1.1,0.8 1.7,0.1 0.7,-1.1 -0.3,-1.7 -0.6,-1.4 -0.1,0.1 0.6,0.4 0.3,1.1 -0.5,0.7 -1.4,0 -1.4,0.2 z"
   id="path31" />
	</g>
</g>
<rect
   class="st0"
   width="99.199997"
   height="99.199997"
   id="rect32"
   x="0"
   y="0" />
</svg>
