<svg id="Layer_2" data-name="Layer 2" xmlns="http://www.w3.org/2000/svg" xmlns:xlink="http://www.w3.org/1999/xlink" viewBox="0 0 890.58 403.18"><defs><style>.cls-1{fill:#00b493;}.cls-2{fill:url(#linear-gradient);}.cls-3{fill:#231f20;}</style><linearGradient id="linear-gradient" y1="136.45" x2="210.29" y2="136.45" gradientUnits="userSpaceOnUse"><stop offset="0.13" stop-color="#66cef6"/><stop offset="0.22" stop-color="#59cbea"/><stop offset="0.57" stop-color="#29bebb"/><stop offset="0.84" stop-color="#0bb79e"/><stop offset="1" stop-color="#00b493"/></linearGradient></defs><title>SDL_engelsk</title><circle class="cls-1" cx="223.3" cy="195.86" r="16.65"/><path class="cls-2" d="M165,138.3A71.67,71.67,0,1,0,102.34,9.86c-7,4.15-14.63,3.23-20.8-1.61A23.1,23.1,0,0,0,67.25,3,22.12,22.12,0,0,0,45.13,25.12,22.37,22.37,0,0,0,53.85,42.7c10.21,8.05,13.1,19.91,8.7,30.42A28,28,0,0,1,42.28,89.65C18.07,94.3,0,116.07,0,141.71a52.92,52.92,0,0,0,33.77,49.51c13.5,5.16,15.69,5.94,16.29,22.47a61.76,61.76,0,1,0,108.2-43.18c-1-1.12-6.76-6.11-6.69-14.31C151.64,148.69,155.33,142.66,165,138.3Z"/><path class="cls-3" d="M340.6,313.16H106V78.56H340.6ZM124,295.14H322.58V96.58H124Z"/><path class="cls-3" d="M426.65,170.15v12.49a26.44,26.44,0,0,0-14.09-3.88,15.38,15.38,0,0,0-11.48,4.77q-4.64,4.77-4.64,12.79,0,7.85,4.64,12.45a16.29,16.29,0,0,0,12,4.6,22.72,22.72,0,0,0,13.59-4.05v12.74q-5.15,3.21-14.85,3.21-12.49,0-20.89-8.06t-8.4-20.89q0-13,8.14-21.18t21.23-8.19Q421.5,166.95,426.65,170.15Z"/><path class="cls-3" d="M452.27,214.21h22.28v10.38H439.19V167.71h35v10.38H452.27V191h19.58v10.3H452.27Z"/><path class="cls-3" d="M486.52,224.59V167.71h14.26L514,191.25q2.79,5,4.85,9.33a64.53,64.53,0,0,1,2.66,6.12l.68,1.86a136.57,136.57,0,0,1-.84-17.3V167.71h13v56.89H520.11L506.52,201q-2.7-4.56-4.77-9t-2.83-6.54l-.67-2.11A108.49,108.49,0,0,1,499.51,201v23.55Z"/><path class="cls-3" d="M584.37,167.71v10.47H570.53v46.42H557.45V178.17H543.52V167.71Z"/><path class="cls-3" d="M623.09,224.59l-12.32-19.75h-4v19.75h-13V167.71h19.67q9.54,0,15.32,5.06a16.68,16.68,0,0,1,5.78,13.17q0,12.15-10.38,16.8l14.43,21.86ZM606.8,178.26v16H613q8.44,0,8.44-8.27a7.46,7.46,0,0,0-2.19-5.7,8.39,8.39,0,0,0-6-2.07Z"/><path class="cls-3" d="M660.13,214.21h22.28v10.38H647V167.71h35v10.38H660.13V191h19.58v10.3H660.13Z"/><path class="cls-3" d="M843,267.09H821.34v14.69h18.82v10.38H821.34v21.44H808.26V256.71H843Z"/><path class="cls-3" d="M868.3,303.21h22.28v10.38H855.22V256.71h35v10.38H868.3V280h19.58v10.3H868.3Z"/><path class="cls-3" d="M384.62,402.59V345.71h14.26l13.25,23.55q2.79,5,4.85,9.33a64.53,64.53,0,0,1,2.66,6.12l.68,1.86a136.56,136.56,0,0,1-.84-17.3V345.71h13v56.89H418.21L404.62,379q-2.7-4.56-4.77-9T397,363.51l-.67-2.11A108.49,108.49,0,0,1,397.61,379v23.55Z"/><path class="cls-3" d="M446.15,374q0-13.08,7.55-21.14t20.13-8.06q12.66,0,20.17,8T501.52,374q0,13.08-7.55,21.14t-20.13,8.06q-12.66,0-20.17-8T446.15,374Zm17.64-12.7q-3.71,4.68-3.71,12.7t3.71,12.7a13.11,13.11,0,0,0,20.09,0q3.71-4.68,3.71-12.7t-3.71-12.7a13.11,13.11,0,0,0-20.09,0Z"/><path class="cls-3" d="M543.92,402.59l-12.32-19.75h-4v19.75h-13V345.71h19.67q9.54,0,15.32,5.06a16.68,16.68,0,0,1,5.78,13.17q0,12.15-10.38,16.8l14.43,21.86Zm-16.29-46.34v16h6.16q8.44,0,8.44-8.27a7.46,7.46,0,0,0-2.19-5.7,8.39,8.39,0,0,0-6-2.07Z"/><path class="cls-3" d="M600.46,346.55h9.62l5.57,20.09q1.77,6.33,3.17,11.77t1.9,7.72l.51,2.28q1.1-7.51,4.73-21.86l5.23-20.85h13.25l-15.19,56.89H614.72l-5-18q-1.77-6.5-2.91-11t-1.39-5.74l-.17-1.27q-.25,3.46-4.56,18l-5.23,18H581l-15.28-56.89h13.67l5.23,20.93q1.69,6.75,2.79,12.2t1.35,7.55l.34,2q1.43-6.58,5.74-21.77Z"/><path class="cls-3" d="M688.4,402.59l-3.46-11.65H665l-3.46,11.65H648l19-56.89h16.37l19,56.89Zm-20.26-22.11h13.67l-.59-2q-2.45-8.27-4-14.09t-1.9-7.51l-.34-1.69q-.68,4.64-6.25,23.29Z"/><path class="cls-3" d="M753.47,345.71l-19.67,36v20.93h-13V381.74l-19.41-36h15.19l3.46,8.27q2.7,6.41,4.47,11t2.28,5.91l.42,1.35q.84-3.8,7.43-18.23l3.71-8.27Z"/><path class="cls-3" d="M383,256.42h19.58q12.83,0,21,7.89a26.15,26.15,0,0,1,8.19,19.62q0,13.67-8.06,21.52t-21.31,7.85H383Zm13.33,46.25h5.91q7.85,0,12.11-4.89t4.26-13.84q0-7.6-4.3-12.2t-12.15-4.6h-5.82Z"/><path class="cls-3" d="M442.47,313.31V256.42h13v56.89Z"/><path class="cls-3" d="M517.74,279.38v28.7q-8.1,5.91-20.42,5.91-13.67,0-22.2-7.85t-8.52-21.35q0-13.33,8.9-21.35t22.58-8A36.42,36.42,0,0,1,514.7,259v13a33.07,33.07,0,0,0-16.63-4.64q-8,0-12.74,4.77t-4.73,12.7q0,8,4.64,12.74t12.66,4.73a24.14,24.14,0,0,0,7.17-1.1V290.44h-9.2V279.38Z"/><path class="cls-3" d="M533.23,313.31V256.42h13v56.89Z"/><path class="cls-3" d="M596.92,256.42v10.47H583.08v46.42H570V266.89H556.07V256.42Z"/><path class="cls-3" d="M637.42,313.31,634,301.66H614l-3.46,11.65H597l19-56.89h16.37l19,56.89Zm-20.26-22.11h13.67l-.59-2q-2.45-8.27-4-14.09t-1.9-7.51l-.34-1.69q-.68,4.64-6.25,23.29Z"/><path class="cls-3" d="M674.88,301.91h21v11.39h-34V256.42h13Z"/><path class="cls-3" d="M744.38,301.91h21v11.39h-34V256.42h13Z"/><path class="cls-3" d="M778.65,313.31V256.42h13v56.89Z"/><path class="cls-3" d="M754.27,178.09H732.66v14.69h18.82v10.38H732.66v21.44H719.58V167.71h34.69Z"/><path class="cls-3" d="M761.44,196q0-13.08,7.55-21.14t20.13-8.06q12.66,0,20.17,8T816.8,196q0,13.08-7.55,21.14t-20.13,8.06q-12.66,0-20.17-8T761.44,196Zm17.64-12.7q-3.71,4.68-3.71,12.7t3.71,12.7a13.11,13.11,0,0,0,20.09,0q3.71-4.68,3.71-12.7t-3.71-12.7a13.11,13.11,0,0,0-20.09,0Z"/><path class="cls-3" d="M855.93,224.59l-12.32-19.75h-4v19.75h-13V167.71h19.67q9.54,0,15.32,5.06a16.68,16.68,0,0,1,5.78,13.17q0,12.15-10.38,16.8l14.43,21.86Zm-16.29-46.34v16h6.16q8.44,0,8.44-8.27a7.46,7.46,0,0,0-2.19-5.7,8.39,8.39,0,0,0-6-2.07Z"/></svg>