<?xml version="1.0" encoding="UTF-8" standalone="no"?>
<svg
   height="66.812347"
   width="170.50146"
   id="svg1155"
   version="1.1"
   viewBox="0 0 170.50146 66.81235"
   xmlns="http://www.w3.org/2000/svg"
   xmlns:svg="http://www.w3.org/2000/svg"
   xmlns:rdf="http://www.w3.org/1999/02/22-rdf-syntax-ns#"
   xmlns:cc="http://creativecommons.org/ns#"
   xmlns:dc="http://purl.org/dc/elements/1.1/">
  <metadata
     id="metadata1159">
    <rdf:RDF>
      <cc:Work
         rdf:about="">
        <dc:format>image/svg+xml</dc:format>
        <dc:type
           rdf:resource="http://purl.org/dc/dcmitype/StillImage" />
      </cc:Work>
    </rdf:RDF>
  </metadata>
  <defs
     id="defs835">
    <style
       id="style833">
      .a {
        fill: #2d2d2d;
      }

      .b {
        isolation: isolate;
      }

      .c {
        fill: #f2b035;
      }

      .d {
        fill: #486273;
      }

      .e {
        fill: #f2f2f2;
      }

      .f {
        fill: #efefef;
      }
    </style>
  </defs>
  <g
     id="g67233"
     transform="translate(-8.46228,-93.90393)">
    <g
       id="g63177"
       transform="translate(-881.93155,171.71846)">
      <g
         id="g63150"
         transform="translate(889.97383,-271.89453)"
         style="font-variation-settings:'wdth' 112, 'wght' 619">
        <path
           id="path63120"
           transform="translate(-4.72)"
           d="m 80,248.35 1.1,-18.09 A 7.09,7.09 0 0 1 79.49,230.44 7.44,7.44 0 0 1 77,230 l -1.1,18.09 a 7.09,7.09 0 0 1 1.61,-0.18 7.44,7.44 0 0 1 2.49,0.44 z"
           class="d"
           style="font-variation-settings:'wdth' 112, 'wght' 619" />
        <path
           id="path63122"
           transform="translate(-4.72)"
           d="m 82.74,254.31 c 0,-0.1 0,-0.19 -0.07,-0.29 -0.07,-0.1 -0.12,-0.42 -0.19,-0.63 -0.07,-0.21 -0.07,-0.2 -0.11,-0.29 a 5.38,5.38 0 0 0 -0.39,-0.71 c -0.09,-0.14 -0.19,-0.27 -0.29,-0.4 l -0.22,-0.26 -0.41,-0.41 -0.1,-0.09 a 5.76,5.76 0 0 0 -1.14,-0.75 5.23,5.23 0 0 0 -2.33,-0.56 5.31,5.31 0 0 0 -1.74,0.31 v 0 a 5.64,5.64 0 0 0 -0.9,0.41 v 0 a 5.88,5.88 0 0 0 -0.81,0.57 5.33,5.33 0 1 0 8.79,4 6,6 0 0 0 -0.09,-0.9 z"
           class="d"
           style="font-variation-settings:'wdth' 112, 'wght' 619" />
        <path
           id="path63124"
           transform="translate(-4.72)"
           d="m 75.9,227.06 a 5,5 0 0 0 1.21,0.82 5.09,5.09 0 0 0 4.07,0.25 v 0 a 5.36,5.36 0 0 0 0.73,-0.32 h 0.06 a 5.31,5.31 0 0 0 1.67,-1.42 2.09,2.09 0 0 0 0.14,-0.17 c 0.1,-0.13 0.17,-0.27 0.26,-0.4 l 0.23,-0.43 c 0.06,-0.13 0.11,-0.25 0.16,-0.38 0.05,-0.13 0.13,-0.39 0.18,-0.58 0.05,-0.19 0.06,-0.22 0.08,-0.33 a 5.15,5.15 0 0 0 0.1,-1 5.36,5.36 0 0 0 -5.35,-5.35 5,5 0 0 0 -1,0.1 l -0.31,0.07 a 5.76,5.76 0 0 0 -0.59,0.18 3.24,3.24 0 0 0 -0.33,0.13 5.63,5.63 0 0 0 -0.73,0.39 v 0 A 5.37,5.37 0 0 0 74.22,222 v 0 c 0,0.05 0,0.09 0,0.13 a 5.36,5.36 0 0 0 -0.1,1 5.26,5.26 0 0 0 1.78,3.93 z"
           class="d"
           style="font-variation-settings:'wdth' 112, 'wght' 619" />
        <path
           id="path63126"
           transform="translate(-4.72)"
           d="m 74.8,217.41 -22.23,-15.6 a 7.48,7.48 0 0 1 -2.34,3.34 l 22.25,15.61 a 7.45,7.45 0 0 1 2.32,-3.35 z"
           class="d"
           style="font-variation-settings:'wdth' 112, 'wght' 619" />
        <path
           id="path63128"
           transform="translate(-4.72)"
           d="m 17.42,251.42 a 5.42,5.42 0 0 0 -0.9,-0.6 v 0 a 6,6 0 0 0 -1,-0.42 v 0 a 5.35,5.35 0 0 0 -1.5,-0.24 5.25,5.25 0 0 0 -2.55,0.68 5.52,5.52 0 0 0 -1.52,1.24 l -0.15,0.19 a 4.25,4.25 0 0 0 -0.31,0.43 6.45,6.45 0 0 0 -0.31,0.58 c -0.06,0.11 -0.1,0.23 -0.15,0.34 a 5.53,5.53 0 0 0 -0.2,0.66 l -0.06,0.28 a 4.94,4.94 0 0 0 -0.1,0.95 5.35,5.35 0 1 0 8.76,-4.09 z"
           class="d"
           style="font-variation-settings:'wdth' 112, 'wght' 619" />
        <path
           id="path63130"
           transform="translate(-4.72)"
           d="m 17.51,220.9 23.41,-15.83 a 7.38,7.38 0 0 1 -2.28,-3.38 l -23.41,15.83 a 7.33,7.33 0 0 1 2.28,3.38 z"
           class="d"
           style="font-variation-settings:'wdth' 112, 'wght' 619" />
        <path
           id="path63132"
           transform="translate(-4.72)"
           d="m 10.52,230.5 a 7.69,7.69 0 0 1 -1.27,-0.11 l 2,18.32 a 7.37,7.37 0 0 1 2.78,-0.55 7.59,7.59 0 0 1 1.27,0.12 l -2,-18.33 a 7.19,7.19 0 0 1 -2.78,0.55 z"
           class="d"
           style="font-variation-settings:'wdth' 112, 'wght' 619" />
        <path
           id="path63134"
           transform="translate(-4.72)"
           d="m 15.76,222.09 v 0 a 5.3,5.3 0 0 0 -2.29,-3.37 v 0 a 4.71,4.71 0 0 0 -0.76,-0.42 l -0.3,-0.12 a 5,5 0 0 0 -0.63,-0.19 l -0.3,-0.07 a 5,5 0 0 0 -1,-0.1 5.35,5.35 0 0 0 -5.34,5.35 5.45,5.45 0 0 0 0.1,1 c 0,0.11 0.06,0.22 0.08,0.33 a 5.58,5.58 0 0 0 0.18,0.58 l 0.18,0.4 0.22,0.41 a 4.17,4.17 0 0 0 0.29,0.44 1.81,1.81 0 0 0 0.18,0.21 5.26,5.26 0 0 0 2.63,1.72 v 0 a 5.35,5.35 0 0 0 1.5,0.24 5.49,5.49 0 0 0 3.68,-1.5 v 0 a 5.28,5.28 0 0 0 1.67,-3.72 v 0 c 0,0 0,-0.11 0,-0.16 a 5.39,5.39 0 0 0 -0.09,-1.03 z"
           class="d"
           style="font-variation-settings:'wdth' 112, 'wght' 619" />
        <path
           id="path63136"
           transform="translate(-4.72)"
           d="m 45.63,229.25 a 9.64,9.64 0 0 1 2,0.22 v -23 a 7.05,7.05 0 0 1 -4.07,0 v 23 a 9.81,9.81 0 0 1 2.07,-0.22 z"
           class="d"
           style="font-variation-settings:'wdth' 112, 'wght' 619" />
        <path
           id="path63138"
           transform="translate(-4.72)"
           d="m 52.84,241.64 c 0,-0.07 0,-0.13 0.07,-0.19 0.1,-0.3 0.19,-0.61 0.26,-0.92 v 0 A 7.69,7.69 0 0 0 52.6,235.7 v -0.06 a 8.52,8.52 0 0 0 -0.46,-0.84 v 0 a 7.7,7.7 0 0 0 -5.34,-3.44 h -0.14 a 7,7 0 0 0 -2,0 h -0.13 a 7.69,7.69 0 0 0 -5.37,3.47 L 39,235 c -0.15,0.25 -0.28,0.5 -0.41,0.76 v 0.07 a 7.61,7.61 0 0 0 -0.58,2 v 0 a 7.72,7.72 0 0 0 -0.1,1.18 7.45,7.45 0 0 0 0.18,1.65 v 0 a 7.11,7.11 0 0 0 0.27,0.93 c 0,0.05 0,0.09 0.05,0.13 a 7.7,7.7 0 0 0 14,0.83 c 0.21,-0.37 0.33,-0.64 0.43,-0.91 z"
           class="c"
           style="font-variation-settings:'wdth' 112, 'wght' 619" />
        <path
           id="path63140"
           transform="translate(-4.72)"
           d="M 55.08,236.79 74,228 a 7.36,7.36 0 0 1 -1.76,-3.68 l -18.89,8.78 a 9.64,9.64 0 0 1 1.73,3.69 z"
           class="d"
           style="font-variation-settings:'wdth' 112, 'wght' 619" />
        <path
           id="path63142"
           transform="translate(-4.72)"
           d="m 37.82,233.21 -20,-9 a 7.29,7.29 0 0 1 -1.67,3.72 l 20,9 a 9.64,9.64 0 0 1 1.67,-3.72 z"
           class="d"
           style="font-variation-settings:'wdth' 112, 'wght' 619" />
        <path
           id="path63144"
           transform="translate(-4.72)"
           d="m 36.28,241.55 -17,8.88 a 7.39,7.39 0 0 1 1.9,3.61 l 17,-8.88 a 9.62,9.62 0 0 1 -1.9,-3.61 z"
           class="d"
           style="font-variation-settings:'wdth' 112, 'wght' 619" />
        <path
           id="path63146"
           transform="translate(-4.72)"
           d="m 53.14,245.09 17.14,8.77 a 7.36,7.36 0 0 1 1.86,-3.62 L 55,241.46 a 9.62,9.62 0 0 1 -1.86,3.63 z"
           class="d"
           style="font-variation-settings:'wdth' 112, 'wght' 619" />
        <path
           id="path63148"
           transform="translate(-4.72)"
           d="m 45.63,194.08 a 5.36,5.36 0 0 0 -5.35,5.35 5.49,5.49 0 0 0 0.11,1.08 5.33,5.33 0 0 0 2.29,3.37 5,5 0 0 0 0.91,0.49 5.26,5.26 0 0 0 4.07,0 5.06,5.06 0 0 0 0.83,-0.44 5.41,5.41 0 0 0 2.35,-3.33 5.67,5.67 0 0 0 0.13,-1.17 5.35,5.35 0 0 0 -5.34,-5.35 z"
           class="d"
           style="font-variation-settings:'wdth' 112, 'wght' 619" />
      </g>
      <g
         aria-label="Data Hub"
         id="text63156"
         style="font-size:16px;line-height:1;font-family:'Encode Sans SC';-inkscape-font-specification:'Encode Sans SC, @wght=619,wdth=112.0';font-variation-settings:'wdth' 112, 'wght' 619;fill:#486273;stroke-width:0.751902">
        <path
           d="m 983.24664,-45.703545 q -1.10933,0 -2.34,-0.052 -1.21333,-0.03467 -2.496,-0.138667 -1.26534,-0.08667 -2.53067,-0.242667 v -24.838689 q 1.23067,-0.260001 2.66934,-0.450667 1.43866,-0.208001 2.92933,-0.312001 1.508,-0.104 2.89467,-0.104 7.24534,0 10.95468,3.20667 3.72667,3.189336 3.72667,9.880009 0,4.576004 -1.75067,7.45334 -1.75067,2.877336 -5.26934,4.246671 -3.50134,1.352001 -8.78801,1.352001 z m 1.33467,-4.246671 q 3.068,0 5.07867,-0.901334 2.01067,-0.918667 2.98134,-2.860003 0.988,-1.941335 0.988,-5.078671 0,-3.085336 -1.00533,-5.026671 -0.98801,-1.958669 -2.99867,-2.860003 -1.99334,-0.918667 -4.99201,-0.918667 -0.79733,0 -1.716,0.08667 -0.90133,0.06933 -1.75067,0.208001 v 17.177349 q 0.79734,0.08667 1.612,0.138666 0.81467,0.03467 1.80267,0.03467 z"
           style="font-size:34.6667px;-inkscape-font-specification:'Encode Sans SC, @wght=644,wdth=112.0';font-variation-settings:'wdth' 112, 'wght' 644"
           id="path280" />
        <path
           d="m 1000.6725,-45.928879 7.5227,-20.626685 h 7.6093 l 7.5401,20.626685 h -5.1654 l -6.4653,-18.63335 h 0.5373 l -6.4653,18.63335 z m 5.6334,-5.338671 1.1786,-3.761337 h 9.0307 l 1.144,3.761337 z"
           style="font-size:34.6667px;-inkscape-font-specification:'Encode Sans SC, @wght=644,wdth=112.0';font-variation-settings:'wdth' 112, 'wght' 644"
           id="path282" />
        <path
           d="m 1028.1579,-45.928879 v -16.622682 h -7.28 v -4.004003 h 19.8121 v 4.004003 h -7.28 v 16.622682 z"
           style="font-size:34.6667px;-inkscape-font-specification:'Encode Sans SC, @wght=644,wdth=112.0';font-variation-settings:'wdth' 112, 'wght' 644"
           id="path284" />
        <path
           d="m 1038.2233,-45.928879 7.5227,-20.626685 h 7.6093 l 7.54,20.626685 h -5.1653 l -6.4653,-18.63335 h 0.5373 l -6.4653,18.63335 z m 5.6334,-5.338671 1.1786,-3.761337 h 9.0307 l 1.144,3.761337 z"
           style="font-size:34.6667px;-inkscape-font-specification:'Encode Sans SC, @wght=644,wdth=112.0';font-variation-settings:'wdth' 112, 'wght' 644"
           id="path286" />
        <path
           d="m 975.87997,-11.26218 v -25.653357 h 5.28667 v 10.226676 h 12.01201 v -10.226676 h 5.30401 v 25.653357 h -5.30401 v -10.833344 h -12.01201 v 10.833344 z"
           style="font-size:34.6667px;-inkscape-font-specification:'Encode Sans SC, @wght=644,wdth=112.0';font-variation-settings:'wdth' 112, 'wght' 644"
           id="path288" />
        <path
           d="m 1013.5453,-11.00218 q -3.4493,0 -5.6333,-1.040001 -2.184,-1.057334 -3.224,-3.085336 -1.04,-2.045335 -1.04,-5.061338 v -11.700011 h 5.252 v 12.081345 q 0,2.461335 1.144,3.605336 1.1613,1.144001 3.5013,1.144001 2.3574,0 3.5014,-1.144001 1.144,-1.144001 1.144,-3.605336 v -12.081345 h 5.148 v 11.700011 q 0,3.016003 -1.0227,5.061338 -1.0227,2.028002 -3.1893,3.085336 -2.1667,1.040001 -5.5814,1.040001 z"
           style="font-size:34.6667px;-inkscape-font-specification:'Encode Sans SC, @wght=644,wdth=112.0';font-variation-settings:'wdth' 112, 'wght' 644"
           id="path290" />
        <path
           d="m 1035.2986,-11.019513 q -1.0573,0 -2.2533,-0.052 -1.1787,-0.03467 -2.3574,-0.138667 -1.1613,-0.104 -2.1666,-0.225334 v -19.916018 q 1.0746,-0.242667 2.3573,-0.416 1.3,-0.173334 2.6174,-0.277334 1.3346,-0.104 2.548,-0.104 5.1653,0 7.4533,1.473335 2.3053,1.473334 2.3053,4.35067 0,1.126668 -0.4853,2.080002 -0.468,0.936001 -1.3693,1.577335 -0.884,0.641334 -2.1147,0.866667 l 0.017,-0.190667 q 1.3347,0.190667 2.3574,0.797335 1.0226,0.589333 1.5946,1.612001 0.5894,1.005334 0.5894,2.478669 0,1.906668 -1.0747,3.276003 -1.0573,1.352001 -3.484,2.080002 -2.4267,0.728001 -6.5347,0.728001 z m 1.1094,-3.397337 q 1.9933,0 3.12,-0.329334 1.1266,-0.329333 1.5946,-0.970667 0.468,-0.641334 0.468,-1.594668 0,-1.421335 -0.9533,-2.080002 -0.9533,-0.676001 -3.1893,-0.676001 h -4.4894 v -3.484003 h 4.056 q 2.184,0 3.016,-0.676001 0.8494,-0.676 0.8494,-1.889335 0,-1.386668 -0.9707,-1.993335 -0.9533,-0.624 -3.2933,-0.624 -0.78,0 -1.5774,0.06933 -0.7973,0.052 -1.5253,0.173334 v 13.918679 q 0.7627,0.08667 1.456,0.121333 0.6933,0.03467 1.4387,0.03467 z"
           style="font-size:34.6667px;-inkscape-font-specification:'Encode Sans SC, @wght=644,wdth=112.0';font-variation-settings:'wdth' 112, 'wght' 644"
           id="path292" />
      </g>
    </g>
  </g>
</svg>
