<?xml version="1.0" encoding="iso-8859-1"?>
<!-- Generator: Adobe Illustrator 19.1.0, SVG Export Plug-In . SVG Version: 6.00 Build 0)  -->
<svg version="1.1" id="Layer_1" xmlns="http://www.w3.org/2000/svg" xmlns:xlink="http://www.w3.org/1999/xlink" x="0px" y="0px"
	 viewBox="0 0 130 127.568" style="enable-background:new 0 0 130 127.568;" xml:space="preserve">
<g>
	<g>
		<path style="fill:#2C3E50;" d="M65.792,84.102c-20.086,0-36.428-16.341-36.428-36.427s16.342-36.428,36.428-36.428
			s36.427,16.342,36.427,36.428S85.878,84.102,65.792,84.102z M65.792,13.804c-18.677,0-33.871,15.194-33.871,33.871
			c0,18.676,15.194,33.87,33.871,33.87c18.676,0,33.87-15.194,33.87-33.87C99.662,28.998,84.468,13.804,65.792,13.804z"/>
	</g>
	<g>
		<g>
			<path style="fill:#ECF0F1;" d="M65.023,67.523c-10.09,0-18.298-8.208-18.298-18.297c0-10.09,8.208-18.298,18.298-18.298
				c10.089,0,18.297,8.208,18.297,18.298C83.32,59.315,75.112,67.523,65.023,67.523z M65.023,32.206
				c-9.385,0-17.021,7.636-17.021,17.021s7.636,17.02,17.021,17.02s17.02-7.635,17.02-17.02S74.408,32.206,65.023,32.206z"/>
		</g>
		<g>
			
				<rect x="64.384" y="15.266" transform="matrix(0.7071 0.7071 -0.7071 0.7071 53.8532 -31.56)" style="fill:#ECF0F1;" width="1.279" height="67.92"/>
		</g>
		<g>
			
				<rect x="30.313" y="48.587" transform="matrix(0.7071 0.7071 -0.7071 0.7071 53.8534 -31.5604)" style="fill:#ECF0F1;" width="69.421" height="1.279"/>
		</g>
		<g>
			<rect x="30.872" y="48.588" style="fill:#ECF0F1;" width="68.302" height="1.277"/>
		</g>
		<g>
			<rect x="64.385" y="15.006" style="fill:#ECF0F1;" width="1.277" height="68.441"/>
		</g>
	</g>
	<g>
		<circle style="fill:#3B97D2;" cx="29.878" cy="47.642" r="4.891"/>
		<path style="fill:#FFFFFF;" d="M29.878,53.811c-3.401,0-6.169-2.768-6.169-6.169s2.768-6.169,6.169-6.169s6.169,2.768,6.169,6.169
			S33.279,53.811,29.878,53.811z M29.878,44.029c-1.992,0-3.612,1.62-3.612,3.612s1.62,3.612,3.612,3.612s3.612-1.62,3.612-3.612
			S31.87,44.029,29.878,44.029z"/>
	</g>
	<g>
		<circle style="fill:#3B97D2;" cx="100.122" cy="48.038" r="4.891"/>
		<path style="fill:#FFFFFF;" d="M100.122,54.207c-3.401,0-6.169-2.768-6.169-6.169s2.768-6.169,6.169-6.169
			s6.169,2.768,6.169,6.169S103.523,54.207,100.122,54.207z M100.122,44.426c-1.992,0-3.612,1.62-3.612,3.612
			s1.62,3.612,3.612,3.612s3.612-1.62,3.612-3.612S102.114,44.426,100.122,44.426z"/>
	</g>
	<g>
		<circle style="fill:#3B97D2;" cx="89.747" cy="22.954" r="4.891"/>
		<path style="fill:#FFFFFF;" d="M89.747,29.123c-3.402,0-6.17-2.768-6.17-6.169s2.768-6.169,6.17-6.169
			c3.401,0,6.169,2.768,6.169,6.169S93.148,29.123,89.747,29.123z M89.747,19.342c-1.992,0-3.613,1.62-3.613,3.612
			s1.621,3.612,3.613,3.612s3.612-1.62,3.612-3.612S91.739,19.342,89.747,19.342z"/>
	</g>
	<g>
		<circle style="fill:#3B97D2;" cx="40.372" cy="72.391" r="4.891"/>
		<path style="fill:#FFFFFF;" d="M40.372,78.56c-3.401,0-6.169-2.768-6.169-6.169s2.768-6.169,6.169-6.169s6.169,2.768,6.169,6.169
			S43.773,78.56,40.372,78.56z M40.372,68.778c-1.992,0-3.612,1.62-3.612,3.612s1.62,3.612,3.612,3.612s3.612-1.62,3.612-3.612
			S42.364,68.778,40.372,68.778z"/>
	</g>
	<g>
		<circle style="fill:#3B97D2;" cx="89.747" cy="72.391" r="4.891"/>
		<path style="fill:#FFFFFF;" d="M89.747,78.56c-3.402,0-6.17-2.768-6.17-6.169s2.768-6.169,6.17-6.169
			c3.401,0,6.169,2.768,6.169,6.169S93.148,78.56,89.747,78.56z M89.747,68.778c-1.992,0-3.613,1.62-3.613,3.612
			s1.621,3.612,3.613,3.612s3.612-1.62,3.612-3.612S91.739,68.778,89.747,68.778z"/>
	</g>
	<g>
		<circle style="fill:#3B97D2;" cx="40.372" cy="22.954" r="4.891"/>
		<path style="fill:#FFFFFF;" d="M40.372,29.123c-3.401,0-6.169-2.768-6.169-6.169s2.768-6.169,6.169-6.169s6.169,2.768,6.169,6.169
			S43.773,29.123,40.372,29.123z M40.372,19.342c-1.992,0-3.612,1.62-3.612,3.612s1.62,3.612,3.612,3.612s3.612-1.62,3.612-3.612
			S42.364,19.342,40.372,19.342z"/>
	</g>
	<g>
		<circle style="fill:#3B97D2;" cx="65.023" cy="12.46" r="4.891"/>
		<path style="fill:#FFFFFF;" d="M65.023,18.629c-3.401,0-6.169-2.768-6.169-6.169s2.768-6.169,6.169-6.169s6.169,2.768,6.169,6.169
			S68.425,18.629,65.023,18.629z M65.023,8.848c-1.992,0-3.612,1.62-3.612,3.612s1.62,3.612,3.612,3.612s3.612-1.62,3.612-3.612
			S67.016,8.848,65.023,8.848z"/>
	</g>
	<g>
		<circle style="fill:#3B97D2;" cx="65.023" cy="82.823" r="4.891"/>
		<path style="fill:#FFFFFF;" d="M65.023,88.992c-3.401,0-6.169-2.768-6.169-6.169s2.768-6.169,6.169-6.169s6.169,2.768,6.169,6.169
			S68.425,88.992,65.023,88.992z M65.023,79.211c-1.992,0-3.612,1.62-3.612,3.612s1.62,3.612,3.612,3.612s3.612-1.62,3.612-3.612
			S67.016,79.211,65.023,79.211z"/>
	</g>
</g>
<g>
	<path style="fill:#3B97D2;" d="M12.303,98.868v3.921h7.6v3.388h-7.6v6.245H7.994V95.48h12.562v3.389H12.303z"/>
	<path style="fill:#3B97D2;" d="M25.641,109.3l-1.235,3.122h-4.429l7.31-16.943h4.429l7.14,16.943h-4.599l-1.21-3.122H25.641z
		 M29.368,99.764l-2.468,6.269h4.889L29.368,99.764z"/>
	<path style="fill:#3B97D2;" d="M40.431,112.422V95.48h4.309v16.943H40.431z"/>
	<path style="fill:#3B97D2;" d="M55.826,107.654h-0.121h-3.267v4.768h-4.309V95.48h7.576c4.478,0,7.044,2.13,7.044,5.906
		c0,2.59-1.089,4.454-3.074,5.446l3.558,5.591h-4.889L55.826,107.654z M55.704,104.266c1.864,0,2.953-0.944,2.953-2.736
		c0-1.767-1.089-2.662-2.953-2.662h-3.267v5.397H55.704z"/>
	<path style="fill:#2C3E50;" d="M72.939,95.48c5.325,0,9.004,3.437,9.004,8.471c0,5.011-3.727,8.471-9.173,8.471h-7.116V95.48
		H72.939z M69.963,108.986h3.074c2.638,0,4.526-2.034,4.526-5.011c0-3.001-1.984-5.058-4.719-5.058h-2.88V108.986z"/>
	<path style="fill:#2C3E50;" d="M101.116,103.927c0,4.938-3.921,8.69-9.174,8.69c-5.227,0-9.149-3.728-9.149-8.69
		c0-4.938,3.921-8.593,9.149-8.593C97.195,95.334,101.116,99.013,101.116,103.927z M87.199,103.951c0,2.856,2.202,5.058,4.792,5.058
		c2.614,0,4.696-2.202,4.696-5.058s-2.082-5.011-4.696-5.011S87.199,101.095,87.199,103.951z"/>
	<path style="fill:#2C3E50;" d="M118.206,112.422l-0.024-11.013l-4.066,9.319h-2.808l-4.066-9.319v11.013h-3.849V95.455h4.72
		l4.599,10.093l4.599-10.093h4.695v16.967H118.206z"/>
</g>
<g>
	<path style="fill:#2C3E50;" d="M51.969,56.313v-5.812h-6.197v5.812h-3.804V41.355h3.804v6.155h6.197v-6.155h3.803v14.958H51.969z"
		/>
	<path style="fill:#2C3E50;" d="M72.223,50.031c0,3.953-2.628,6.453-6.817,6.453c-4.209,0-6.901-2.5-6.901-6.453v-8.676h3.803v8.676
		c0,2.029,1.304,3.27,3.12,3.27c1.795,0,3.013-1.24,3.013-3.27v-8.676h3.782V50.031z"/>
	<path style="fill:#2C3E50;" d="M82.028,41.355c3.354,0,5.492,1.453,5.492,3.74c0,1.58-0.983,2.841-2.564,3.291
		c1.881,0.362,3.076,1.838,3.076,3.782c0,2.542-2.222,4.144-5.748,4.144h-7.329V41.355H82.028z M78.737,47.34h3.077
		c1.111,0,1.816-0.599,1.816-1.561c0-0.962-0.706-1.517-1.816-1.517h-3.077V47.34z M78.737,53.386h3.077
		c1.41,0,2.287-0.62,2.287-1.688c0-1.005-0.876-1.624-2.287-1.624h-3.077V53.386z"/>
</g>
</svg>
