<svg id="Nachbau" xmlns="http://www.w3.org/2000/svg" viewBox="0 0 515.47 195.14"><defs><style>.cls-1{fill:#aec2dc;}.cls-2{fill:#83c2e9;}.cls-3{fill:#00578c;}.cls-4{fill:#1d1d1c;}.cls-5{fill:#008acd;}.cls-6{fill:#2daade;}.cls-7{fill:#c7e1f5;}.cls-8{fill:#85a7ca;}.cls-9{fill:#5b8eb8;}</style></defs><title>nfdi4health</title><path class="cls-1" d="M905.82,438.6c-22.35,0-42.73-13.13-52.28-34.94-20.75-47.37-32.67-112.59-33.17-115.34l11.12-2c.12.66,12.19,66.68,32.4,112.82,9.24,21.11,31.05,32.15,53,26.84l4.23-1c12.17-3,21-5.16,42.35-5.16v11.3c-20,0-27.83,1.92-39.65,4.83L919.56,437A58.69,58.69,0,0,1,905.82,438.6Z" transform="translate(-743.64 -286.31)"/><path class="cls-2" d="M950,370.51c-16.39,0-38-1.87-67.56-18.32-32.28-13.94-58.75-16.74-80-19l-6.32-.68,1.25-11.23,6.26.67c22.1,2.35,49.59,5.27,83.58,20l.51.25c31.64,17.65,52.53,17.26,69.34,16.95,2.22,0,4.37-.09,6.46-.09v11.31c-2,0-4.1,0-6.25.07S952.53,370.51,950,370.51Z" transform="translate(-743.64 -286.31)"/><path class="cls-3" d="M801.15,473l-5-10.12c3.12-1.55,6.28-3,9.63-4.6,15.09-7.07,32.19-15.09,49-32.32,13-13.26,21.83-28.86,30.4-44,15.49-27.26,30.12-53,64.94-53h13.38v11.3H950.11c-28.24,0-40.1,20.87-55.11,47.28-8.52,15-18.17,32-32.15,46.27-18.27,18.69-36.36,27.17-52.32,34.65C807.25,470.07,804.15,471.52,801.15,473Z" transform="translate(-743.64 -286.31)"/><path class="cls-4" d="M1009.59,360.24v25.31H998.73V361.84c0-3.19-1.75-4.94-4.34-4.94h-1.82c-3.5,0-5.63,2.58-5.63,6.23v22.42H976.08V348.46h9.5l.53,4.64c1.82-3.35,5.47-5.4,10.26-5.4H998C1005.41,347.7,1009.59,352.72,1009.59,360.24Z" transform="translate(-743.64 -286.31)"/><path class="cls-4" d="M1029.43,345.42v3h6.76v8.21h-6.76v28.88h-10.87V356.67h-4.64v-8.21h4.64v-4c0-9.42,4.71-12.84,12.39-12.84H1037v8.51h-2.59C1030.34,340.1,1029.43,342,1029.43,345.42Z" transform="translate(-743.64 -286.31)"/><path class="cls-4" d="M1073.81,332.35v53.2h-9.5l-.53-4.86a10.78,10.78,0,0,1-9.88,5.62H1052c-7.68,0-12.84-5.55-12.84-13.83V362.22c0-8.74,5.24-14.52,13.14-14.52h1.6a10.73,10.73,0,0,1,9,4.33V332.35ZM1063,369.59v-5.17c0-5-2.28-7.6-5.78-7.6h-1.75c-3.42,0-5.17,2.66-5.17,6.61V371c0,4,2,6.16,5.17,6.16h1.75C1061,377.19,1063,374.15,1063,369.59Z" transform="translate(-743.64 -286.31)"/><path class="cls-4" d="M1082.55,333.18h10.87v9.12h-10.87Zm0,15.28h10.87v37.09h-10.87Z" transform="translate(-743.64 -286.31)"/><path class="cls-4" d="M1153.69,377h-5.63v8.59H1137.8V377h-22v-8.21l14.36-34.88h11.33L1128,367.69h9.8V356.75h10.26v10.94h5.63Z" transform="translate(-743.64 -286.31)"/><path class="cls-4" d="M1009.59,420.74v25.31H998.73V422.34c0-3.19-1.75-4.94-4.34-4.94h-1.82c-3.5,0-5.63,2.81-5.63,7v21.66H976.08v-53.2h10.86v20.06c1.83-3,5.1-4.71,9.43-4.71H998C1005.41,408.2,1009.59,413.22,1009.59,420.74Z" transform="translate(-743.64 -286.31)"/><path class="cls-4" d="M1026.62,432.75c0,4,1.59,6.23,5.24,6.23h3.27c2.81,0,4.25-1.52,4.25-3.72h10.19c0,6.84-5.7,11.55-14.21,11.55h-4c-9.27,0-15.42-5.55-15.42-13.91v-9.73c0-9,6.23-15,15.58-15h3c9.27,0,15.12,5.78,15.12,14.67V431h-23.1Zm0-9.5v.68h12.92v-.68c0-4.87-2.21-6.92-5.63-6.92h-1.59C1028.44,416.33,1026.62,418.92,1026.62,423.25Z" transform="translate(-743.64 -286.31)"/><path class="cls-4" d="M1088.25,420.82v25.23h-9.12l-.53-4.33a10.68,10.68,0,0,1-9.5,5.09h-2.43c-7.45,0-12.39-4.1-12.39-11,0-7.6,5.77-11.63,14.52-11.63h9v-3.34c0-2.74-1.82-4.11-4.56-4.11h-2.35c-3,0-4.56,1.67-4.56,4.11H1056c0-7.6,5.63-12.62,13.61-12.62h5.54C1083,408.2,1088.25,413.22,1088.25,420.82Zm-10.49,12.23V430.7h-9a3.83,3.83,0,0,0-4,4.18c0,2.66,1.9,4.1,4.71,4.1h2.2C1075.48,439,1077.76,436.55,1077.76,433.05Z" transform="translate(-743.64 -286.31)"/><path class="cls-4" d="M1096.31,434.35v-41.5h10.86V432.6c0,3.27,1,5,4,5h1.44v9.2h-5.47C1099.88,446.81,1096.31,442.4,1096.31,434.35Z" transform="translate(-743.64 -286.31)"/><path class="cls-4" d="M1137.58,437.23v9.58h-6.39c-9.8,0-13.38-4.1-13.38-11.48V417.17h-4.48V409h4.48v-11.7h10.87V409h7.76v8.21h-7.76v15.2c0,3.65,2.21,4.86,5.7,4.86Z" transform="translate(-743.64 -286.31)"/><path class="cls-4" d="M1176.33,420.74v25.31h-10.86V422.34c0-3.19-1.75-4.94-4.34-4.94h-1.82c-3.5,0-5.62,2.81-5.62,7v21.66h-10.87v-53.2h10.87v20.06c1.82-3,5.09-4.71,9.42-4.71h1.67C1172.16,408.2,1176.33,413.22,1176.33,420.74Z" transform="translate(-743.64 -286.31)"/><rect class="cls-5" x="445.47" y="42.62" width="70" height="11.33"/><rect class="cls-6" x="445.47" y="57.73" width="70" height="11.33"/><rect class="cls-2" x="445.47" y="72.85" width="70" height="11.33"/><rect class="cls-7" x="445.47" y="87.96" width="70" height="11.33"/><rect class="cls-1" x="445.47" y="103.07" width="70" height="11.33"/><rect class="cls-8" x="445.47" y="118.18" width="70" height="11.33"/><rect class="cls-9" x="445.47" y="133.29" width="70" height="11.33"/><rect class="cls-3" x="445.47" y="148.4" width="70" height="11.33"/><path class="cls-7" d="M804.58,435.22l-9.51-6.11c34.84-54.21,70.23-49.73,115-44.06,15.73,2,33.56,4.24,53.37,4.24v11.3c-20.52,0-38.73-2.3-54.79-4.33C864.65,390.69,835.56,387,804.58,435.22Z" transform="translate(-743.64 -286.31)"/><path class="cls-9" d="M870.15,419.69c-22.23,0-47.93-11.31-126.51-70.75l6.81-9c95.69,72.38,109.45,70.5,132.26,67.39,28.93-3.94,41.31-3.58,58.45-3.08,6.31.18,13.46.39,22.33.39v11.3c-9,0-16.27-.21-22.66-.4-16.6-.48-28.59-.83-56.59,3A103.36,103.36,0,0,1,870.15,419.69Z" transform="translate(-743.64 -286.31)"/><path class="cls-6" d="M900.47,456h-.2c-14.33,0-33.11-5.57-55.82-16.48a416.87,416.87,0,0,1-54.63-32.17l6.45-9.28c49.45,34.34,86.16,46.6,104,46.63h.18c12.56,0,20.69-2.29,29.29-4.72,9.23-2.61,18.78-5.3,33.73-5.3V446c-13.39,0-21.78,2.37-30.66,4.87S914.6,456,900.47,456Z" transform="translate(-743.64 -286.31)"/><path class="cls-5" d="M827,481.45,816,479C833,401.47,850.75,351,886.66,338.7c16.46-5.62,25-3.26,35.7-.28,9,2.49,20.15,5.6,41.13,5.6v11.3c-22.52,0-35-3.48-44.15-6-10.23-2.84-15.87-4.41-29,.08C859.52,359.9,842.74,409.78,827,481.45Z" transform="translate(-743.64 -286.31)"/><path class="cls-8" d="M963.49,385.69c-29.79,0-43.31-2.86-57.62-5.89-5.28-1.12-10.73-2.27-17.16-3.3-24.91-4-45.32-3.58-63.34-3.22-5.1.1-9.92.2-14.7.2v-11.3c4.66,0,9.43-.1,14.47-.2,18.49-.37,39.44-.79,65.36,3.36,6.71,1.08,12.3,2.26,17.71,3.4,13.72,2.91,26.68,5.65,55.28,5.65Z" transform="translate(-743.64 -286.31)"/></svg>