<?xml version="1.0" standalone="no"?>
<!DOCTYPE svg PUBLIC "-//W3C//DTD SVG 20010904//EN"
 "http://www.w3.org/TR/2001/REC-SVG-20010904/DTD/svg10.dtd">
<svg version="1.0" xmlns="http://www.w3.org/2000/svg"
 width="744.000000pt" height="744.000000pt" viewBox="0 0 744.000000 744.000000"
 preserveAspectRatio="xMidYMid meet">
<metadata>
Created by potrace 1.11, written by Peter Selinger 2001-2013
</metadata>
<g transform="translate(0.000000,744.000000) scale(0.100000,-0.100000)"
fill="#000000" stroke="none">
<path d="M3293 6776 c-38 -12 -93 -54 -93 -71 0 -7 -5 -15 -12 -17 -9 -3 -12
-59 -12 -211 l0 -206 -111 -45 c-60 -25 -222 -91 -360 -147 -137 -55 -263
-107 -280 -114 -16 -7 -82 -34 -145 -59 -63 -26 -124 -51 -135 -56 -57 -26
-270 -110 -278 -110 -5 0 -23 15 -40 34 -51 54 -75 56 -504 56 -380 -1 -390
-1 -433 -23 -48 -24 -94 -81 -86 -109 2 -10 1 -18 -2 -18 -8 0 -6 -312 2 -385
6 -61 29 -93 86 -122 40 -21 59 -23 184 -23 l140 0 78 -37 c43 -20 81 -34 84
-31 6 6 12 32 13 56 1 9 44 12 182 12 l181 0 28 -27 c29 -29 101 -92 182 -159
26 -21 47 -43 47 -47 1 -4 -8 -18 -20 -30 -32 -34 -72 -87 -68 -90 2 -2 37
-23 78 -46 l74 -44 41 46 41 46 41 -37 c22 -20 67 -59 99 -87 32 -27 93 -80
134 -116 42 -36 89 -76 105 -90 16 -13 45 -38 64 -55 l36 -32 62 52 62 51 -43
40 c-23 22 -66 60 -95 85 -29 25 -71 61 -93 80 -22 19 -49 43 -61 53 -68 58
-134 116 -165 143 l-35 31 26 24 c226 208 521 373 833 467 39 12 81 23 95 26
14 2 46 9 73 15 80 19 156 29 260 37 l77 6 0 -485 0 -486 58 -3 c31 -2 91 -2
132 0 l75 3 -1 486 -1 485 61 -7 c94 -11 119 -14 146 -20 14 -2 41 -7 60 -10
33 -6 183 -42 205 -49 6 -2 12 -4 15 -4 5 0 78 -27 115 -42 11 -4 38 -15 60
-23 47 -18 170 -77 240 -115 65 -36 209 -132 213 -143 2 -5 8 -9 14 -9 10 0
96 -71 157 -128 l35 -34 -31 -26 c-17 -15 -55 -48 -84 -73 -30 -26 -74 -64
-98 -85 -70 -62 -83 -73 -136 -117 -27 -23 -56 -49 -65 -57 -8 -8 -27 -24 -41
-36 -21 -16 -24 -23 -15 -35 16 -21 102 -89 112 -89 5 0 31 19 56 43 26 23 68
60 94 82 26 22 56 48 68 58 12 11 41 35 65 55 24 21 65 56 91 80 26 23 59 51
73 62 l25 20 33 -42 c18 -24 41 -51 51 -61 10 -10 18 -21 18 -25 1 -4 9 -18
20 -30 l20 -24 76 38 c41 21 78 42 81 47 5 8 -92 141 -134 184 -13 12 -23 25
-23 29 0 7 20 26 91 87 123 106 154 133 168 147 13 12 40 14 138 12 l123 -3
14 -52 c8 -29 18 -65 22 -82 4 -16 8 -34 10 -40 1 -5 4 -21 7 -35 3 -14 8 -33
11 -42 3 -10 8 -25 11 -33 9 -31 191 51 201 91 6 23 -3 111 -12 126 -3 5 -8
22 -10 38 l-5 28 170 3 169 4 39 31 c64 52 67 63 66 304 -1 121 -6 227 -12
242 -11 28 -67 78 -98 87 -37 10 -808 10 -846 0 -20 -5 -53 -26 -73 -46 l-36
-36 -57 22 c-31 12 -69 28 -86 36 -16 8 -77 33 -135 56 -58 23 -118 47 -135
54 -16 8 -91 38 -165 68 -74 30 -209 85 -300 122 -91 37 -226 92 -300 122 -74
29 -148 60 -165 68 l-30 14 1 168 c1 92 -2 184 -7 203 -10 41 -50 83 -94 101
-36 14 -808 19 -852 5z m972 -671 c17 -7 55 -23 85 -35 30 -12 73 -30 95 -39
22 -10 293 -120 602 -246 l562 -229 3 -151 c3 -132 1 -152 -14 -167 -10 -10
-22 -18 -27 -18 -5 0 -11 -4 -13 -8 -2 -7 -100 -93 -190 -170 -16 -13 -23 -9
-75 38 -80 73 -200 163 -307 230 -127 80 -363 194 -446 215 -8 2 -32 11 -52
19 -21 9 -38 13 -38 10 0 -4 -6 -2 -12 4 -7 5 -26 12 -43 15 -16 3 -55 12 -85
20 -30 9 -71 18 -91 21 -20 3 -42 7 -50 10 -15 5 -73 13 -149 22 -25 2 -58 6
-75 9 -16 2 -35 4 -42 4 -8 1 -11 59 -10 224 l2 222 105 2 c60 0 122 7 145 15
40 14 46 13 120 -17z m-777 2 l142 0 0 -224 0 -223 -22 -1 c-13 0 -39 -2 -58
-4 -19 -2 -59 -5 -87 -7 -29 -1 -53 -7 -53 -11 0 -5 -4 -6 -9 -3 -5 3 -33 1
-62 -4 -30 -6 -65 -13 -79 -15 -116 -22 -315 -80 -405 -120 -16 -7 -61 -27
-100 -43 -38 -17 -103 -49 -144 -71 -41 -23 -78 -41 -82 -41 -5 0 -9 -4 -9
-10 0 -5 -4 -10 -10 -10 -8 0 -71 -38 -95 -58 -6 -5 -24 -17 -40 -27 -26 -17
-111 -81 -125 -95 -45 -45 -122 -100 -132 -94 -14 9 -119 98 -152 129 -12 11
-39 35 -61 53 l-40 32 5 147 5 148 175 72 c151 62 220 90 240 98 3 1 18 7 33
13 15 7 96 39 180 73 84 34 175 72 204 85 28 13 59 24 67 24 8 0 18 5 21 10 3
6 15 10 26 10 10 0 19 4 19 8 0 5 6 9 13 9 11 1 220 85 292 118 17 7 42 17 58
20 15 4 27 11 27 15 0 5 26 6 58 3 31 -3 121 -6 200 -6z"/>
<path d="M209 5224 c-15 -4 -16 -106 -15 -1128 1 -900 4 -1126 14 -1138 7 -9
54 -40 105 -69 316 -184 353 -198 430 -165 43 18 151 132 277 294 72 92 108
131 119 127 9 -2 84 -24 166 -49 83 -25 164 -50 180 -56 52 -20 105 -22 130
-6 13 8 43 46 68 83 71 106 68 105 157 77 41 -13 84 -28 95 -33 11 -5 52 -24
90 -42 73 -33 235 -133 247 -153 4 -6 3 -13 -1 -16 -13 -8 -68 -122 -75 -155
-20 -93 -2 -186 47 -238 57 -62 133 -70 256 -26 65 22 77 23 79 7 3 -49 44
-151 74 -189 33 -40 109 -67 208 -74 25 -2 50 -4 56 -4 6 -1 24 -29 39 -63 69
-158 85 -180 145 -195 33 -9 70 -5 132 12 22 6 29 3 34 -11 30 -90 65 -136
123 -161 79 -34 165 -11 305 81 87 56 99 59 156 39 44 -16 170 -5 170 15 0 4
14 21 30 39 17 18 30 37 30 42 0 6 5 11 10 11 6 0 10 8 10 17 0 14 3 14 23 -5
52 -49 179 -53 266 -8 50 26 52 37 35 148 l-6 36 41 -9 c68 -15 114 -22 146
-22 176 2 231 80 151 215 -20 33 -36 61 -36 64 0 2 26 4 58 4 138 0 246 47
285 124 15 28 21 62 23 125 1 47 3 87 3 88 1 2 25 -7 54 -18 111 -45 199 -58
261 -38 47 15 113 63 205 148 l64 59 28 -54 c31 -59 48 -80 94 -111 51 -35
183 -24 279 23 56 27 66 13 215 -283 72 -141 131 -247 144 -256 34 -22 84 -12
184 37 51 25 94 46 97 46 2 0 55 24 117 54 63 29 164 75 224 101 61 27 124 61
140 77 l30 28 2 1255 3 1254 -82 -39 c-45 -22 -87 -45 -92 -50 -6 -6 -13 -10
-17 -10 -3 0 -58 -24 -120 -54 -63 -29 -148 -68 -189 -86 -41 -17 -93 -40
-115 -50 -90 -42 -311 -132 -322 -133 -7 0 -13 -4 -13 -9 0 -4 -6 -8 -14 -8
-7 0 -62 -21 -122 -46 -60 -25 -113 -47 -119 -48 -5 -1 -32 -12 -59 -24 -27
-12 -51 -22 -53 -22 -2 0 -29 -11 -59 -25 -30 -14 -59 -25 -64 -25 -6 0 -18
-5 -28 -10 -19 -11 -108 -49 -120 -51 -4 0 -18 -7 -32 -14 -45 -23 -295 -115
-317 -117 -7 -1 -13 -5 -13 -10 0 -4 -6 -8 -14 -8 -19 0 -99 -46 -120 -69 -20
-22 -24 -57 -12 -129 5 -33 4 -58 -1 -63 -9 -9 -88 -21 -143 -22 -41 0 -127
12 -154 23 -14 5 -26 8 -26 5 0 -5 -192 59 -225 75 -32 15 -308 121 -327 125
-9 2 -25 8 -35 13 -24 12 -168 50 -218 57 -76 10 -205 6 -270 -9 -88 -21 -194
-68 -250 -110 -73 -56 -80 -57 -174 -24 -105 36 -135 40 -427 53 -60 3 -161 7
-224 11 -63 3 -163 7 -221 8 -58 2 -114 8 -125 14 -10 6 -29 37 -41 69 -13 32
-35 72 -50 89 -46 51 -152 113 -263 154 -94 35 -161 69 -225 116 -57 41 -234
138 -255 139 -5 0 -61 21 -95 35 -11 5 -92 32 -180 61 -88 28 -216 71 -285 95
-69 25 -132 46 -140 48 -25 7 -134 46 -150 55 -15 8 -120 40 -130 40 -3 0 -18
5 -35 12 -30 12 -226 22 -256 13z m1766 -690 c188 -87 247 -174 220 -323 -6
-37 -63 -190 -76 -207 -5 -6 -6 -14 -2 -17 3 -4 1 -7 -5 -7 -7 0 -12 -5 -12
-11 0 -18 -120 -251 -200 -389 -66 -114 -248 -389 -274 -415 -6 -7 -22 -28
-36 -48 -14 -20 -30 -37 -36 -37 -10 0 -366 120 -372 125 -3 3 135 207 157
232 6 7 11 14 11 17 0 3 29 50 65 105 36 54 65 102 65 106 0 3 12 22 26 41 15
19 23 34 20 34 -4 0 1 12 12 28 31 45 107 201 146 302 21 52 41 104 46 115 30
66 104 390 93 408 -5 9 67 -19 152 -59z m3603 -196 c11 -35 48 -142 82 -238
34 -96 64 -184 67 -195 2 -11 9 -29 14 -40 5 -11 40 -105 78 -210 38 -104 73
-201 79 -215 5 -14 17 -43 25 -65 9 -22 51 -127 93 -234 l77 -193 -24 -18
c-13 -10 -27 -17 -30 -14 -4 2 -9 0 -11 -6 -2 -6 -23 -14 -48 -18 -35 -7 -53
-5 -81 9 -57 28 -88 83 -138 249 -101 329 -215 572 -362 771 -34 46 -65 86
-68 89 -3 3 -23 38 -45 79 -49 93 -52 140 -10 176 36 32 140 82 187 92 10 1
35 12 55 23 20 10 38 19 39 20 0 0 10 -28 21 -62z"/>
<path d="M1170 2913 c-8 -10 -33 -40 -55 -68 -22 -27 -48 -59 -58 -69 -16 -19
-16 -21 6 -45 13 -14 39 -43 58 -65 19 -21 50 -56 69 -77 19 -21 58 -63 85
-95 28 -31 86 -94 130 -139 l80 -83 143 0 c153 -1 149 -2 107 44 -13 14 -135
151 -155 174 -22 25 -140 157 -170 190 -14 15 -54 60 -90 100 -144 163 -133
153 -150 133z"/>
<path d="M5965 2658 c-21 -24 -70 -79 -109 -123 -39 -44 -87 -98 -108 -120
-72 -79 -84 -92 -138 -154 -30 -35 -78 -88 -107 -119 -28 -31 -50 -59 -48 -62
5 -8 233 -5 271 4 34 8 140 115 297 300 10 12 30 34 44 50 37 39 34 74 -16
179 -23 48 -43 87 -45 87 -1 0 -20 -19 -41 -42z"/>
<path d="M199 1695 c-1 0 -3 -219 -3 -487 -2 -333 1 -488 9 -490 5 -2 46 -3
90 -3 l80 1 0 199 1 200 244 1 245 0 3 72 c3 63 1 72 -15 73 -10 0 -120 1
-245 1 -160 1 -228 4 -229 12 -3 29 -5 252 -2 261 2 7 99 10 273 10 l270 0 0
72 0 73 -52 1 c-37 0 -648 4 -669 4z"/>
<path d="M1430 1692 l-55 -3 -89 -182 c-49 -100 -90 -184 -91 -187 -1 -3 -28
-59 -60 -125 -32 -66 -58 -122 -56 -124 1 -2 -1 -7 -6 -10 -15 -11 -170 -336
-162 -341 4 -3 43 -4 86 -4 106 3 103 2 104 17 0 6 21 55 47 107 l47 95 273 1
273 0 36 -75 c19 -42 42 -91 50 -108 8 -18 18 -33 22 -34 44 -7 174 -2 178 7
2 6 -20 60 -50 120 -131 265 -162 329 -160 336 1 3 -4 12 -12 18 -8 7 -15 16
-15 21 0 5 -50 112 -112 238 l-111 229 -41 4 c-23 1 -66 2 -96 0z m81 -269
c23 -49 55 -117 71 -153 16 -36 43 -91 58 -122 16 -32 26 -59 22 -59 -28 -6
-392 -3 -392 2 0 11 192 419 197 419 1 0 21 -39 44 -87z"/>
<path d="M2189 1690 c-6 -21 -4 -957 2 -965 6 -8 101 -12 165 -6 7 1 10 153
10 486 l0 485 -55 1 c-31 0 -71 1 -89 2 -17 1 -33 0 -33 -3z"/>
<path d="M2654 1691 c-2 -2 -4 -222 -4 -488 0 -379 3 -483 13 -484 50 -5 154
-3 162 2 6 5 10 65 9 148 l-1 141 157 0 157 0 14 -27 c8 -16 16 -30 20 -33 3
-3 36 -51 73 -107 37 -57 73 -108 80 -115 8 -9 42 -13 107 -11 52 0 95 2 97 2
3 1 -29 49 -50 76 -21 26 -65 85 -83 110 -11 15 -37 49 -57 76 -44 56 -46 65
-15 75 38 11 113 72 140 112 53 80 67 203 35 298 -20 60 -25 68 -77 119 -28
28 -85 64 -111 70 -3 1 -12 5 -20 8 -8 4 -26 9 -40 11 -14 3 -25 5 -25 6 0 9
-572 20 -581 11z m551 -160 c100 -27 145 -82 145 -175 0 -75 -32 -135 -87
-162 -40 -19 -47 -21 -103 -30 -52 -8 -310 -8 -318 0 -10 11 -11 359 -1 372
11 14 310 10 364 -5z"/>
<path d="M5319 1696 c-2 -2 -26 -7 -54 -11 -134 -17 -241 -66 -326 -148 -84
-81 -102 -109 -134 -206 -52 -158 12 -363 147 -473 51 -42 128 -91 128 -82 0
4 6 2 13 -3 11 -9 76 -34 102 -39 218 -43 413 0 562 124 37 31 123 140 123
155 0 3 5 18 12 34 13 32 14 37 22 78 11 60 9 121 -7 195 -6 30 -60 140 -68
140 -5 0 -9 5 -9 12 0 20 -112 117 -170 146 -49 25 -75 34 -170 62 -14 3 -54
8 -90 9 -35 2 -67 4 -71 7 -3 2 -8 2 -10 0z m177 -176 c264 -92 323 -416 105
-574 -88 -64 -143 -80 -261 -79 -219 3 -390 179 -366 377 25 218 290 358 522
276z"/>
<path d="M3734 1207 l1 -482 270 1 c223 1 281 4 335 18 183 49 306 158 361
317 22 65 29 171 15 237 -38 184 -183 324 -385 371 -61 14 -129 17 -337 19
l-262 2 2 -483z m491 329 c165 -18 291 -132 314 -285 14 -99 -25 -217 -93
-278 -91 -83 -165 -103 -376 -103 l-156 0 0 332 1 332 23 6 c28 6 217 4 287
-4z"/>
<path d="M6122 1676 c-5 -6 -8 -222 -8 -481 l1 -470 82 -1 c52 -1 83 3 86 10
1 6 3 165 2 353 0 188 3 339 6 337 4 -2 48 -79 98 -172 49 -92 101 -187 115
-212 14 -25 38 -70 54 -100 67 -124 59 -117 124 -116 l59 2 64 118 c36 64 65
119 65 121 0 2 15 30 34 62 18 32 50 90 71 128 58 107 97 175 100 175 1 0 2
-155 2 -344 0 -189 3 -348 6 -353 7 -11 136 -11 153 -1 7 5 10 157 10 480 l-1
473 -105 2 -106 1 -51 -91 c-28 -51 -67 -121 -86 -157 -130 -241 -215 -391
-220 -383 -7 12 -32 57 -157 283 -29 52 -66 120 -83 150 -78 144 -91 166 -101
182 -8 14 -26 17 -108 16 -60 0 -101 -5 -106 -12z"/>
</g>
</svg>
