<?xml version="1.0" encoding="UTF-8" standalone="no"?>
<!-- Created with Inkscape (http://www.inkscape.org/) -->

<svg
   width="900"
   height="202"
   viewBox="0 0 900 202"
   version="1.1"
   id="svg1"
   xml:space="preserve"
   sodipodi:docname="banner-plain.svg"
   inkscape:version="1.3.2 (091e20e, 2023-11-25)"
   xmlns:inkscape="http://www.inkscape.org/namespaces/inkscape"
   xmlns:sodipodi="http://sodipodi.sourceforge.net/DTD/sodipodi-0.dtd"
   xmlns="http://www.w3.org/2000/svg"
   xmlns:svg="http://www.w3.org/2000/svg"><sodipodi:namedview
     id="namedview1"
     pagecolor="#ffffff"
     bordercolor="#000000"
     borderopacity="0.25"
     inkscape:showpageshadow="2"
     inkscape:pageopacity="0.0"
     inkscape:pagecheckerboard="0"
     inkscape:deskcolor="#d1d1d1"
     inkscape:zoom="0.81454783"
     inkscape:cx="351.72888"
     inkscape:cy="101.89702"
     inkscape:window-width="1840"
     inkscape:window-height="835"
     inkscape:window-x="0"
     inkscape:window-y="25"
     inkscape:window-maximized="0"
     inkscape:current-layer="layer1" /><defs
     id="defs1" /><g
     id="layer1"
     transform="translate(98.5,2)"
     inkscape:label="layer1"><rect
       style="fill:#f0f5fd;fill-opacity:1;stroke:none;stroke-width:4.39957;stroke-linejoin:round;stroke-dasharray:35.1966, 4.39957"
       id="rect1"
       width="901.88336"
       height="202"
       x="-99.441673"
       y="-2" /><path
       d="m -75.103461,114.41947 a 27.117618,27.117618 0 1 1 54.235235,0 27.117618,27.117618 0 1 1 -54.235235,0 z m -20.338213,75.06073 c 0,-20.86787 16.906139,-37.774 37.773994,-37.774 h 19.363672 c 20.867853,0 37.77399529,16.90613 37.77399529,37.774 0,3.47443 -2.81768759,6.29213 -6.29213299,6.29213 H -89.149539 c -3.474445,0 -6.292135,-2.8177 -6.292135,-6.29213 z M 33.64242,195.77233 H 4.4486147 c 1.1440279,-1.99145 1.8219683,-4.30069 1.8219683,-6.77941 v -1.69485 c 0,-12.85968 -5.74131223,-24.40586 -14.7875798,-32.1598 0.5084516,-0.0212 0.9957218,-0.0423 1.5041808,-0.0423 H 5.9951659 c 18.8552151,0 34.1512481,15.29604 34.1512481,34.17244 0,3.60155 -2.923614,6.50399 -6.503994,6.50399 z M -3.9197149,141.53709 c -6.5675461,0 -12.4995291,-2.66939 -16.8002101,-6.97007 4.173568,-5.63539 6.631104,-12.60546 6.631104,-20.14755 0,-5.67775 -1.39825,-11.03771 -3.876974,-15.740932 3.94053,-2.881241 8.792038,-4.597278 14.0460801,-4.597278 13.1139127,0 23.7279149,10.61401 23.7279149,23.72791 0,13.11391 -10.6140022,23.72792 -23.7279149,23.72792 z"
       id="path1"
       style="fill:#ffffff;fill-opacity:1;stroke-width:0.211857"
       inkscape:label="user-group" /><path
       d="m 40.269167,4.272325 c -11.384866,0 -20.621642,9.236774 -20.621642,20.621638 v 68.738794 c 0,11.384863 9.236776,20.621643 20.621642,20.621643 h 61.864913 6.87389 c 3.8021,0 6.87387,-3.07177 6.87387,-6.87389 0,-3.80211 -3.07177,-6.87387 -6.87387,-6.87387 V 86.758877 c 3.8021,0 6.87387,-3.071762 6.87387,-6.873879 V 11.146205 c 0,-3.8021177 -3.07177,-6.87388 -6.87387,-6.87388 h -6.87389 z m 0,82.486552 H 95.260195 V 100.50664 H 40.269167 c -3.802112,0 -6.873885,-3.071767 -6.873885,-6.873883 0,-3.802117 3.071773,-6.87388 6.873885,-6.87388 z m 6.873872,-51.554094 c 0,-1.890319 1.546624,-3.43694 3.436936,-3.43694 h 41.24328 c 1.89032,0 3.43694,1.546621 3.43694,3.43694 0,1.890318 -1.54662,3.436938 -3.43694,3.436938 h -41.24328 c -1.890312,0 -3.436936,-1.54662 -3.436936,-3.436938 z m 3.436936,10.310818 h 41.24328 c 1.89032,0 3.43694,1.546621 3.43694,3.43694 0,1.890318 -1.54662,3.43694 -3.43694,3.43694 h -41.24328 c -1.890312,0 -3.436936,-1.546622 -3.436936,-3.43694 0,-1.890319 1.546624,-3.43694 3.436936,-3.43694 z"
       id="path1-5"
       style="fill:#ffffff;stroke-width:0.21481"
       inkscape:label="book" /><path
       d="m 154.37658,167.87039 c -1.9949,3.25698 -3.05342,6.98213 -3.05342,10.80907 -2.03562,0.71247 -4.23406,1.1196 -6.51395,1.1196 -10.78872,0 -19.54184,-8.75313 -19.54184,-19.54186 v -58.62553 c -3.60302,0 -6.51395,-2.910924 -6.51395,-6.513947 0,-3.603029 2.91093,-6.513948 6.51395,-6.513948 h 13.02789 13.0279 13.0279 c 3.60302,0 6.51394,2.910919 6.51394,6.513948 0,3.603023 -2.91092,6.513947 -6.51394,6.513947 v 50.05563 l -9.97448,16.20344 z m -16.08132,-66.23872 v 19.54185 h 13.0279 v -19.54185 z m 52.11159,-13.027895 h 26.05579 6.51394 c 3.60304,0 6.51396,2.910919 6.51396,6.513948 0,3.603023 -2.91092,6.513947 -6.51396,6.513947 v 30.71735 l 23.95913,38.94118 c 1.36386,2.21881 2.09667,4.78369 2.09667,7.40961 0,7.79639 -6.33074,14.12713 -14.12713,14.12713 h -62.941 c -7.79639,0 -14.12714,-6.33074 -14.12714,-14.12713 0,-2.60557 0.73283,-5.17042 2.09668,-7.40961 l 23.95911,-38.94118 v -30.71735 c -3.60303,0 -6.51395,-2.910924 -6.51395,-6.513947 0,-3.603029 2.91092,-6.513948 6.51395,-6.513948 z m 6.51395,13.027895 v 32.56974 c 0,1.20101 -0.3257,2.38166 -0.95674,3.41982 l -9.93378,16.12203 h 34.80893 l -9.93378,-16.12203 c -0.63104,-1.01779 -0.95673,-2.19845 -0.95673,-3.41982 v -32.56974 z"
       id="path1-55"
       style="fill:#ffffff;stroke-width:0.20356"
       inkscape:label="flask" /><path
       d="m 550.26471,124.52818 c 0,10.56601 -3.42991,20.32631 -9.20783,28.24505 l 29.14279,29.16581 c 2.87745,2.87746 2.87745,7.55043 0,10.42787 -2.87745,2.87744 -7.55041,2.87744 -10.42786,0 L 530.629,163.2011 c -7.91874,5.80094 -17.67904,9.20782 -28.24504,9.20782 -26.4495,0 -47.88074,-21.43123 -47.88074,-47.88074 0,-26.449493 21.43124,-47.880735 47.88074,-47.880735 26.44951,0 47.88075,21.431242 47.88075,47.880735 z m -71.82111,1.84158 v 14.73252 c 0,3.06162 2.46308,5.52472 5.52469,5.52472 3.06162,0 5.5247,-2.4631 5.5247,-5.52472 v -14.73252 c 0,-3.06161 -2.46308,-5.5247 -5.5247,-5.5247 -3.06161,0 -5.52469,2.46309 -5.52469,5.5247 z m 18.41566,-22.09881 v 36.83133 c 0,3.06162 2.46311,5.52472 5.5247,5.52472 3.06162,0 5.5247,-2.4631 5.5247,-5.52472 v -36.83133 c 0,-3.0616 -2.46308,-5.524698 -5.5247,-5.524698 -3.06159,0 -5.5247,2.463098 -5.5247,5.524698 z m 18.41568,14.73253 v 22.0988 c 0,3.06162 2.46309,5.52472 5.5247,5.52472 3.06159,0 5.5247,-2.4631 5.5247,-5.52472 v -22.0988 c 0,-3.06159 -2.46311,-5.52471 -5.5247,-5.52471 -3.06161,0 -5.5247,2.46312 -5.5247,5.52471 z"
       id="path1-8"
       style="fill:#ffffff;stroke-width:0.230195"
       inkscape:label="glass" /><path
       d="m 756.7422,148.23489 c 20.85362,0 37.74412,-16.89048 37.74412,-37.74412 0,-3.60928 -0.51898,-7.10061 -1.4626,-10.42681 -0.73128,-2.54773 -3.86874,-3.113889 -5.73237,-1.250273 l -18.11718,18.117173 c -0.7077,0.7077 -1.67489,1.10874 -2.66566,1.10874 h -13.54072 c -2.07592,0 -3.77441,-1.69848 -3.77441,-3.77442 v -13.5407 c 0,-0.990784 0.40103,-1.957974 1.10873,-2.665676 l 18.11718,-18.117176 c 1.86363,-1.863615 1.27386,-5.001091 -1.25028,-5.732385 -3.32618,-0.943604 -6.81752,-1.462588 -10.42681,-1.462588 -20.85362,0 -37.74411,16.890497 -37.74411,37.744115 0,4.5057 0.80205,8.84627 2.24105,12.8566 l -42.83957,42.83957 c -2.99594,2.99593 -4.69442,7.07701 -4.69442,11.32323 0,8.84627 7.17137,16.01766 16.01765,16.01766 4.24622,0 8.3273,-1.69849 11.32324,-4.69442 l 42.83957,-42.83957 c 4.01031,1.46257 8.3509,2.24105 12.85659,2.24105 z m -64.165,20.75926 a 5.6616176,5.6616176 0 1 1 0,11.32323 5.6616176,5.6616176 0 1 1 0,-11.32323 z"
       id="path1-84"
       style="fill:#ffffff;stroke-width:0.2359"
       inkscape:label="wrench" /><path
       d="m 573.83026,23.712491 c 0,-12.199066 9.89735,-22.096411 22.09641,-22.096411 h 66.28921 7.36545 c 4.07403,0 7.36548,3.2914369 7.36548,7.3654701 V 82.636224 c 0,4.074027 -3.29145,7.36547 -7.36548,7.36547 v 14.730936 c 4.07403,0 7.36548,3.29143 7.36548,7.36548 0,4.07401 -3.29145,7.36546 -7.36548,7.36546 h -7.36545 -66.28921 c -12.19906,0 -22.09641,-9.89734 -22.09641,-22.096406 z m 14.73093,73.654673 c 0,4.074016 3.29145,7.365466 7.36548,7.365466 H 654.8504 V 90.001694 h -58.92373 c -4.07403,0 -7.36548,3.291431 -7.36548,7.36547 z M 630.77454,66.93857 c -0.85165,0.851639 -1.42708,0.966725 -1.70328,0.966725 -0.27619,0 -0.85162,-0.115021 -1.70326,-0.966725 -0.87466,-0.851629 -1.84136,-2.301706 -2.71602,-4.35023 -1.42705,-3.337474 -2.48584,-7.894863 -2.80807,-13.096714 h 14.50076 c -0.34525,5.201851 -1.38103,9.75924 -2.80808,13.096714 -0.87465,2.048524 -1.84137,3.498601 -2.71604,4.35023 z m 9.82827,-2.278685 c 1.68026,-4.212124 2.76206,-9.460026 3.08431,-15.168259 h 7.15831 c -1.0818,6.421757 -4.92566,11.899829 -10.24262,15.168259 z m 0,-37.701998 c 5.33997,3.268432 9.18383,8.746494 10.24262,15.168269 h -7.15831 c -0.32225,-5.685221 -1.40405,-10.933122 -3.08431,-15.168269 z m 17.93033,18.851 a 29.461873,29.461873 0 1 0 -58.92374,0 29.461873,29.461873 0 1 0 58.92374,0 z m -51.25907,3.682739 h 7.15832 c 0.32224,5.685212 1.40406,10.933104 3.0843,15.168259 -5.33995,-3.26843 -9.18383,-8.746502 -10.24262,-15.168259 z m 7.15832,-7.36547 h -7.15832 c 1.08182,-6.421775 4.92567,-11.899837 10.24262,-15.168269 -1.68024,4.212134 -2.76206,9.460028 -3.0843,15.168269 z m 12.91259,-17.446957 c 0.85163,-0.851626 1.42707,-0.966708 1.70327,-0.966708 0.27622,0 0.85163,0.11502 1.70326,0.966708 0.87467,0.851629 1.84137,2.301709 2.71602,4.350225 1.42706,3.337483 2.48583,7.894863 2.80807,13.096732 h -14.50076 c 0.34527,-5.201869 1.38104,-9.759249 2.80809,-13.096732 0.87466,-2.048516 1.84137,-3.498596 2.71602,-4.350225 z"
       id="path1-87"
       style="fill:#ffffff;fill-opacity:1;stroke-width:0.230171"
       inkscape:label="atlas" /><g
       id="g1"
       transform="matrix(1.6,0,0,1.6,248,-3.999999)"
       inkscape:label="logo"><g
         id="g88"
         transform="matrix(1.0053485,0,0,0.97468774,-0.34764913,18.742736)">
	<g
   id="g70">
		<path
   style="fill:#2c3e50"
   d="m 94.766,65.926 c -11.01,0 -19.968,-8.958 -19.968,-19.968 0,-11.01 8.958,-19.968 19.968,-19.968 11.01,0 19.968,8.958 19.968,19.968 0,11.01 -8.957,19.968 -19.968,19.968 z m 0,-34.853 c -8.208,0 -14.886,6.677 -14.886,14.886 0,8.209 6.677,14.886 14.886,14.886 8.209,0 14.886,-6.677 14.886,-14.886 0,-8.209 -6.677,-14.886 -14.886,-14.886 z"
   id="path68" />
	</g>
	<path
   style="fill:#2c3e50"
   d="m 102.178,27.745 c 0,0 -18.665,-7.835 -30.777,-7.987 -5.166,-0.065 -5.91,4.901 -5.91,4.901 0,0 0.324,11.765 0.018,16.156 -0.658,9.44 17.246,21.058 17.246,21.058 0,0 -6.535,-18.698 -2.905,-24.929 4.078,-7.002 22.328,-9.199 22.328,-9.199 z"
   id="path72" />
	<path
   style="fill:#46c8f5"
   d="m 94.867,50.972 c 3.662,0 7.075,-0.591 9.954,-1.607 -1.101,4.532 -5.174,7.901 -10.044,7.901 -4.896,0 -8.988,-3.404 -10.063,-7.972 2.919,1.059 6.405,1.678 10.153,1.678 z"
   id="path74" />
	<path
   style="fill:#2c3e50"
   d="m 68.757,42.68 h -6.532 c -0.55,0 -1,-0.45 -1,-1 V 25.659 c 0,-0.55 0.45,-1 1,-1 h 6.532 c 0.55,0 1,0.45 1,1 V 41.68 c 0,0.55 -0.45,1 -1,1 z"
   id="path76" />
	<g
   id="g80">
		<path
   style="fill:#2c3e50"
   d="m 35.234,65.926 c -11.01,0 -19.968,-8.958 -19.968,-19.968 0,-11.01 8.957,-19.968 19.968,-19.968 11.011,0 19.968,8.958 19.968,19.968 0,11.01 -8.958,19.968 -19.968,19.968 z m 0,-34.853 c -8.208,0 -14.886,6.677 -14.886,14.886 0,8.209 6.677,14.886 14.886,14.886 8.209,0 14.886,-6.677 14.886,-14.886 0,-8.209 -6.678,-14.886 -14.886,-14.886 z"
   id="path78" />
	</g>
	<path
   style="fill:#2c3e50"
   d="m 27.823,27.745 c 0,0 18.665,-7.835 30.777,-7.987 5.166,-0.065 5.91,4.901 5.91,4.901 0,0 -0.324,11.765 -0.018,16.156 0.658,9.44 -17.246,21.058 -17.246,21.058 0,0 6.535,-18.698 2.905,-24.929 -4.078,-7.002 -22.328,-9.199 -22.328,-9.199 z"
   id="path82" />
	<path
   style="fill:#46c8f5"
   d="m 35.134,50.972 c -3.662,0 -7.075,-0.591 -9.954,-1.607 1.101,4.532 5.174,7.901 10.044,7.901 4.896,0 8.988,-3.404 10.063,-7.972 -2.92,1.059 -6.406,1.678 -10.153,1.678 z"
   id="path84" />
	<circle
   style="fill:#46c8f5"
   cx="65.037003"
   cy="29.561001"
   r="2.723"
   id="circle86" />
</g><g
         id="g98"
         transform="matrix(1.0234053,0,0,0.97295194,-1.5218544,11.89531)">
	<path
   style="fill:#2c3e50"
   d="m 37.664,83.084 -2.412,5.002 c -2.662,-1.547 -6.01,-2.627 -8.061,-2.627 -1.656,0 -2.771,0.611 -2.771,1.834 0,4.355 13.316,1.872 13.316,10.977 0,5.039 -4.463,7.701 -10.076,7.701 -4.211,0 -8.53,-1.582 -11.516,-4.031 l 2.482,-4.93 c 2.592,2.268 6.479,3.779 9.106,3.779 2.015,0 3.275,-0.755 3.275,-2.195 0,-4.463 -13.316,-1.799 -13.316,-10.725 0,-4.642 3.994,-7.593 10.041,-7.593 3.633,0.001 7.34,1.116 9.932,2.808 z"
   id="path90" />
	<path
   style="fill:#2c3e50"
   d="m 47.646,85.603 v 5.002 h 12.019 v 5.039 H 47.646 v 5.074 h 13.711 v 5.039 H 41.239 V 80.564 h 19.723 v 5.039 z"
   id="path92" />
	<path
   style="fill:#2c3e50"
   d="m 71.916,85.603 v 5.002 h 12.019 v 5.039 H 71.916 v 5.074 h 13.711 v 5.039 H 65.508 V 80.564 h 19.723 v 5.039 z"
   id="path94" />
	<path
   style="fill:#2c3e50"
   d="m 99.531,95.859 -3.346,3.707 v 6.19 H 89.778 V 80.564 h 6.407 V 91.47 l 9.645,-10.905 h 7.414 l -9.358,10.436 9.971,14.756 h -7.666 z"
   id="path96" />
</g><g
         id="g363"
         transform="matrix(1.048088,0,0,1.0235475,-2.8176725,-56.925797)"><g
           id="g306"
           transform="matrix(0.95221915,0,0,0.95221915,-25.976866,53.455157)"><path
             id="path290"
             d="m 47.728069,19.991372 v 4.441678 h 6.991399 v 2.30807 H 47.728069 V 33.05 H 45.133554 V 17.659727 H 55.46682 l -0.02122,2.330467 h -7.717533 z"
             style="fill:#3b97d3;stroke-width:1.17879" /><path
             id="path292"
             d="M 59.34268,29.576108 57.870372,33.05 H 55.166229 L 61.958413,17.659727 H 64.61894 L 71.34747,33.05 h -2.770155 l -1.473487,-3.473892 z m 3.869965,-9.146226 -2.902179,6.836978 h 5.804358 z"
             style="fill:#3b97d3;stroke-width:1.17879" /><path
             id="path294"
             d="M 73.40092,33.05 V 17.659727 h 2.594516 V 33.05 Z"
             style="fill:#3b97d3;stroke-width:1.17879" /><path
             id="path296"
             d="m 86.992361,28.389067 c -0.220434,0.02122 -0.462085,0.02122 -0.703737,0.02122 H 82.637913 V 33.05 H 80.043398 V 17.659727 h 6.244047 c 3.934799,0 6.199253,1.913175 6.199253,5.255043 0,2.462491 -1.143426,4.198847 -3.187446,4.989815 L 92.750747,33.05 h -2.945795 z m -0.703737,-2.308069 c 2.374081,0 3.736762,-1.011401 3.736762,-3.100216 0,-2.021624 -1.362681,-2.98941 -3.736762,-2.98941 h -3.650711 v 6.089626 z"
             style="fill:#3b97d3;stroke-width:1.17879" /><g
             transform="matrix(1.1787893,0,0,1.1787893,-18.911247,1.1637499)"
             style="fill:#2c3e50"
             id="g304"><path
               id="path298"
               d="m 102.277,14.05 c 3.873,0 6.675,2.71 6.675,6.454 0,3.725 -2.821,6.454 -6.731,6.454 H 96.984 V 14.05 Z m -3.116,10.954 h 3.171 c 2.508,0 4.426,-1.863 4.426,-4.482 0,-2.636 -1.973,-4.518 -4.518,-4.518 h -3.079 z"
               style="fill:#2c3e50" /><path
               id="path300"
               d="m 123.368,20.504 c 0,3.688 -2.986,6.546 -6.841,6.546 -3.854,0 -6.841,-2.858 -6.841,-6.546 0,-3.707 2.987,-6.51 6.841,-6.51 3.855,0 6.841,2.822 6.841,6.51 z m -11.469,0 c 0,2.563 2.121,4.592 4.648,4.592 2.527,0 4.592,-2.028 4.592,-4.592 0,-2.564 -2.065,-4.555 -4.592,-4.555 -2.546,10e-4 -4.648,1.992 -4.648,4.555 z"
               style="fill:#2c3e50" /><path
               id="path302"
               d="m 137.323,26.958 -0.018,-9.644 -4.076,8.298 h -1.42 l -4.075,-8.298 v 9.644 h -2.047 V 14.05 h 2.581 l 4.261,8.574 4.241,-8.574 h 2.563 v 12.908 z"
               style="fill:#2c3e50" /></g></g></g></g></g></svg>
