<?xml version="1.0" encoding="UTF-8" standalone="no"?>
<svg xmlns:dc="http://purl.org/dc/elements/1.1/" xmlns:cc="http://creativecommons.org/ns#"
   xmlns:svg="http://www.w3.org/2000/svg" xmlns="http://www.w3.org/2000/svg" height="74.467003" width="82.946999"
   xml:space="preserve" viewBox="0 0 82.946999 74.467003" y="0px" x="0px" id="Layer_1" version="1.1">
   <g transform="translate(-12.666,-18.661)" id="g4">
      <path id="path2"
         d="m 54.804,65.249 c -12.163,0 -22.059,-9.896 -22.059,-22.059 0,-12.163 9.896,-22.06 22.059,-22.06 12.164,0 22.06,9.896 22.06,22.06 0,12.164 -9.896,22.059 -22.06,22.059 z m 0,-42.119 c -11.061,0 -20.059,8.999 -20.059,20.06 0,11.061 8.998,20.059 20.059,20.059 11.061,0 20.06,-8.999 20.06,-20.059 0,-11.062 -8.999,-20.06 -20.06,-20.06 z"
         style="fill:#3b97d3" />
   </g>
   <g transform="translate(-12.666,-18.661)" id="g26">
      <g id="g8">
         <path id="path6"
            d="m 54.344,55.199 c -6.109,0 -11.08,-4.971 -11.08,-11.08 0,-6.109 4.971,-11.08 11.08,-11.08 6.109,0 11.08,4.971 11.08,11.08 0,6.109 -4.97,11.08 -11.08,11.08 z m 0,-21.16 c -5.559,0 -10.08,4.522 -10.08,10.08 0,5.558 4.521,10.08 10.08,10.08 5.559,0 10.08,-4.522 10.08,-10.08 0,-5.558 -4.521,-10.08 -10.08,-10.08 z"
            style="fill:#ecf0f1" />
      </g>
      <g id="g12">

         <rect id="rect10" height="40.694" width="1" style="fill:#ecf0f1"
            transform="matrix(0.7071,0.7071,-0.7071,0.7071,47.1142,-25.505)" y="23.771999" x="53.844002" />
      </g>
      <g id="g16">

         <rect id="rect14" height="1" width="41.591999" style="fill:#ecf0f1"
            transform="matrix(0.7071,0.7071,-0.7071,0.7071,47.114,-25.5051)" y="43.618999" x="33.548" />
      </g>
      <g id="g20">
         <rect id="rect18" height="1" width="40.923" style="fill:#ecf0f1" y="43.618999" x="33.882" />
      </g>
      <g id="g24">
         <rect id="rect22" height="41.007" width="1" style="fill:#ecf0f1" y="23.615999" x="53.844002" />
      </g>
   </g>
   <g transform="translate(-12.666,-18.661)" id="g34">
      <path id="path28"
         d="m 46.074,48.87 v -3.795 h -4.046 v 3.795 h -2.483 v -9.767 h 2.483 v 4.018 h 4.046 v -4.018 h 2.484 v 9.767 z"
         style="fill:#2c3e50" />
      <path id="path30"
         d="m 59.3,44.767 c 0,2.581 -1.716,4.214 -4.451,4.214 -2.749,0 -4.507,-1.633 -4.507,-4.214 v -5.665 h 2.484 v 5.665 c 0,1.326 0.851,2.135 2.037,2.135 1.172,0 1.967,-0.809 1.967,-2.135 v -5.665 h 2.47 z"
         style="fill:#2c3e50" />
      <path id="path32"
         d="m 65.704,39.103 c 2.19,0 3.585,0.95 3.585,2.442 0,1.032 -0.641,1.855 -1.674,2.149 1.228,0.237 2.009,1.2 2.009,2.469 0,1.661 -1.451,2.707 -3.753,2.707 h -4.785 v -9.767 z m -2.149,3.907 h 2.009 c 0.726,0 1.186,-0.391 1.186,-1.019 0,-0.628 -0.46,-0.99 -1.186,-0.99 h -2.009 z m 0,3.948 h 2.009 c 0.921,0 1.493,-0.405 1.493,-1.102 0,-0.656 -0.572,-1.061 -1.493,-1.061 h -2.009 z"
         style="fill:#2c3e50" />
   </g>
   <g transform="translate(-12.666,-18.661)" id="g40">
      <circle id="circle36" r="2.9300001" cy="43.169998" cx="33.286999" style="fill:#2c3e50" />
      <path id="path38"
         d="m 33.287,46.6 c -1.892,0 -3.43,-1.539 -3.43,-3.43 0,-1.891 1.538,-3.43 3.43,-3.43 1.892,0 3.431,1.539 3.431,3.43 0,1.891 -1.54,3.43 -3.431,3.43 z m 0,-5.861 c -1.34,0 -2.43,1.09 -2.43,2.43 0,1.34 1.09,2.43 2.43,2.43 1.34,0 2.431,-1.09 2.431,-2.43 0,-1.34 -1.091,-2.43 -2.431,-2.43 z"
         style="fill:#ffffff" />
   </g>
   <g transform="translate(-12.666,-18.661)" id="g46">
      <circle id="circle42" r="2.9300001" cy="43.407001" cx="75.374001" style="fill:#2c3e50" />
      <path id="path44"
         d="m 75.374,46.837 c -1.892,0 -3.431,-1.539 -3.431,-3.43 0,-1.891 1.539,-3.43 3.431,-3.43 1.892,0 3.43,1.539 3.43,3.43 0,1.891 -1.539,3.43 -3.43,3.43 z m 0,-5.86 c -1.34,0 -2.431,1.09 -2.431,2.43 0,1.34 1.091,2.43 2.431,2.43 1.34,0 2.43,-1.09 2.43,-2.43 0,-1.34 -1.09,-2.43 -2.43,-2.43 z"
         style="fill:#ffffff" />
   </g>
   <g transform="translate(-12.666,-18.661)" id="g52">
      <circle id="circle48" r="2.9300001" cy="28.378" cx="69.156998" style="fill:#2c3e50" />
      <path id="path50"
         d="m 69.157,31.809 c -1.892,0 -3.43,-1.539 -3.43,-3.43 0,-1.891 1.538,-3.43 3.43,-3.43 1.892,0 3.431,1.539 3.431,3.43 0,1.891 -1.54,3.43 -3.431,3.43 z m 0,-5.861 c -1.34,0 -2.43,1.09 -2.43,2.43 0,1.34 1.09,2.43 2.43,2.43 1.34,0 2.431,-1.09 2.431,-2.43 0,-1.34 -1.091,-2.43 -2.431,-2.43 z"
         style="fill:#ffffff" />
   </g>
   <g transform="translate(-12.666,-18.661)" id="g58">
      <circle id="circle54" r="2.9300001" cy="57.998001" cx="39.574001" style="fill:#2c3e50" />
      <path id="path56"
         d="m 39.575,61.428 c -1.892,0 -3.431,-1.539 -3.431,-3.431 0,-1.892 1.539,-3.43 3.431,-3.43 1.892,0 3.43,1.539 3.43,3.43 0,1.891 -1.539,3.431 -3.43,3.431 z m 0,-5.861 c -1.34,0 -2.431,1.09 -2.431,2.43 0,1.34 1.091,2.431 2.431,2.431 1.34,0 2.43,-1.09 2.43,-2.431 0,-1.339 -1.09,-2.43 -2.43,-2.43 z"
         style="fill:#ffffff" />
   </g>
   <g transform="translate(-12.666,-18.661)" id="g64">
      <circle id="circle60" r="2.9300001" cy="57.998001" cx="69.156998" style="fill:#2c3e50" />
      <path id="path62"
         d="m 69.157,61.428 c -1.892,0 -3.43,-1.539 -3.43,-3.431 0,-1.892 1.538,-3.43 3.43,-3.43 1.892,0 3.431,1.539 3.431,3.43 0,1.891 -1.54,3.431 -3.431,3.431 z m 0,-5.861 c -1.34,0 -2.43,1.09 -2.43,2.43 0,1.34 1.09,2.431 2.43,2.431 1.34,0 2.431,-1.09 2.431,-2.431 0,-1.339 -1.091,-2.43 -2.431,-2.43 z"
         style="fill:#ffffff" />
   </g>
   <g transform="translate(-12.666,-18.661)" id="g70">
      <circle id="circle66" r="2.9300001" cy="28.378" cx="39.574001" style="fill:#2c3e50" />
      <path id="path68"
         d="m 39.575,31.809 c -1.892,0 -3.431,-1.539 -3.431,-3.43 0,-1.891 1.539,-3.43 3.431,-3.43 1.892,0 3.43,1.539 3.43,3.43 0,1.891 -1.539,3.43 -3.43,3.43 z m 0,-5.861 c -1.34,0 -2.431,1.09 -2.431,2.43 0,1.34 1.091,2.43 2.431,2.43 1.34,0 2.43,-1.09 2.43,-2.43 0,-1.34 -1.09,-2.43 -2.43,-2.43 z"
         style="fill:#ffffff" />
   </g>
   <g transform="translate(-12.666,-18.661)" id="g76">
      <circle id="circle72" r="2.9300001" cy="22.091" cx="54.344002" style="fill:#2c3e50" />
      <path id="path74"
         d="m 54.344,25.521 c -1.892,0 -3.431,-1.539 -3.431,-3.43 0,-1.891 1.539,-3.43 3.431,-3.43 1.892,0 3.43,1.539 3.43,3.43 0,1.891 -1.538,3.43 -3.43,3.43 z m 0,-5.86 c -1.34,0 -2.431,1.09 -2.431,2.43 0,1.34 1.091,2.43 2.431,2.43 1.34,0 2.43,-1.09 2.43,-2.43 0,-1.34 -1.09,-2.43 -2.43,-2.43 z"
         style="fill:#ffffff" />
   </g>
   <g transform="translate(-12.666,-18.661)" id="g82">
      <circle id="circle78" r="2.9300001" cy="64.248001" cx="54.344002" style="fill:#2c3e50" />
      <path id="path80"
         d="m 54.344,67.679 c -1.892,0 -3.431,-1.539 -3.431,-3.43 0,-1.891 1.539,-3.43 3.431,-3.43 1.892,0 3.43,1.539 3.43,3.43 0,1.891 -1.538,3.43 -3.43,3.43 z m 0,-5.861 c -1.34,0 -2.431,1.09 -2.431,2.43 0,1.34 1.091,2.43 2.431,2.43 1.34,0 2.43,-1.09 2.43,-2.43 0,-1.34 -1.09,-2.43 -2.43,-2.43 z"
         style="fill:#ffffff" />
   </g>
   <g transform="translate(-12.666,-18.661)" id="g98">
      <path id="path84"
         d="m 15.806,83.162 v 2.857 h 5.539 v 2.47 h -5.539 v 4.551 h -3.14 V 80.692 h 9.154 v 2.469 h -6.014 z"
         style="fill:#3b97d3" />
      <path id="path86"
         d="M 25.529,90.764 24.63,93.04 h -3.228 l 5.327,-12.347 h 3.228 L 35.16,93.04 h -3.351 l -0.883,-2.275 h -5.397 z m 2.717,-6.95 -1.799,4.568 h 3.562 z"
         style="fill:#3b97d3" />
      <path id="path88" d="M 36.311,93.04 V 80.692 h 3.141 V 93.04 Z" style="fill:#3b97d3" />
      <path id="path90"
         d="m 47.532,89.564 h -0.088 -2.381 v 3.475 H 41.922 V 80.692 h 5.521 c 3.264,0 5.133,1.552 5.133,4.304 0,1.887 -0.794,3.246 -2.24,3.969 l 2.593,4.075 h -3.562 z m -0.088,-2.469 c 1.358,0 2.152,-0.688 2.152,-1.993 0,-1.288 -0.794,-1.94 -2.152,-1.94 h -2.381 v 3.934 h 2.381 z"
         style="fill:#3b97d3" />
      <path id="path92"
         d="m 60.149,80.692 c 3.704,0 6.385,2.593 6.385,6.173 0,3.563 -2.698,6.174 -6.438,6.174 h -5.01 V 80.692 Z M 57.168,91.17 h 3.034 c 2.398,0 4.233,-1.782 4.233,-4.287 0,-2.522 -1.888,-4.321 -4.321,-4.321 h -2.946 z"
         style="fill:#2c3e50" />
      <path id="path94"
         d="m 80.333,86.866 c 0,3.528 -2.858,6.262 -6.545,6.262 -3.687,0 -6.544,-2.734 -6.544,-6.262 0,-3.545 2.857,-6.227 6.544,-6.227 3.687,0 6.545,2.699 6.545,6.227 z m -10.972,0 c 0,2.452 2.028,4.392 4.444,4.392 2.417,0 4.393,-1.94 4.393,-4.392 0,-2.452 -1.976,-4.357 -4.393,-4.357 -2.433,0 -4.444,1.905 -4.444,4.357 z"
         style="fill:#2c3e50" />
      <path id="path96"
         d="m 93.689,93.04 -0.018,-9.225 -3.898,7.938 H 88.415 L 84.518,83.815 V 93.04 H 82.56 V 80.692 h 2.469 l 4.075,8.202 4.057,-8.202 h 2.452 V 93.04 Z"
         style="fill:#2c3e50" />
   </g>
</svg>