<?xml version="1.0" encoding="iso-8859-1"?>
<!-- Generator: Adobe Illustrator 19.1.0, SVG Export Plug-In . SVG Version: 6.00 Build 0)  -->
<svg version="1.1" id="Layer_1" xmlns="http://www.w3.org/2000/svg" xmlns:xlink="http://www.w3.org/1999/xlink" x="0px" y="0px"
	 viewBox="0 0 110 110" style="enable-background:new 0 0 110 110;" xml:space="preserve">
<g>
	<path style="fill:#3B97D3;" d="M54.804,65.249c-12.163,0-22.059-9.896-22.059-22.059s9.896-22.06,22.059-22.06
		c12.164,0,22.06,9.896,22.06,22.06S66.968,65.249,54.804,65.249z M54.804,23.13c-11.061,0-20.059,8.999-20.059,20.06
		c0,11.061,8.998,20.059,20.059,20.059s20.06-8.999,20.06-20.059C74.864,32.128,65.865,23.13,54.804,23.13z"/>
</g>
<g>
	<g>
		<path style="fill:#ECF0F1;" d="M54.344,55.199c-6.109,0-11.08-4.971-11.08-11.08s4.971-11.08,11.08-11.08s11.08,4.971,11.08,11.08
			S60.454,55.199,54.344,55.199z M54.344,34.039c-5.559,0-10.08,4.522-10.08,10.08s4.521,10.08,10.08,10.08s10.08-4.522,10.08-10.08
			S59.903,34.039,54.344,34.039z"/>
	</g>
	<g>
		
			<rect x="53.844" y="23.772" transform="matrix(0.7071 0.7071 -0.7071 0.7071 47.1142 -25.505)" style="fill:#ECF0F1;" width="1" height="40.694"/>
	</g>
	<g>
		
			<rect x="33.548" y="43.619" transform="matrix(0.7071 0.7071 -0.7071 0.7071 47.114 -25.5051)" style="fill:#ECF0F1;" width="41.592" height="1"/>
	</g>
	<g>
		<rect x="33.882" y="43.619" style="fill:#ECF0F1;" width="40.923" height="1"/>
	</g>
	<g>
		<rect x="53.844" y="23.616" style="fill:#ECF0F1;" width="1" height="41.007"/>
	</g>
</g>
<g>
	<path style="fill:#2C3E50;" d="M46.074,48.87v-3.795h-4.046v3.795h-2.483v-9.767h2.483v4.018h4.046v-4.018h2.484v9.767H46.074z"/>
	<path style="fill:#2C3E50;" d="M59.3,44.767c0,2.581-1.716,4.214-4.451,4.214c-2.749,0-4.507-1.633-4.507-4.214v-5.665h2.484v5.665
		c0,1.326,0.851,2.135,2.037,2.135c1.172,0,1.967-0.809,1.967-2.135v-5.665h2.47V44.767z"/>
	<path style="fill:#2C3E50;" d="M65.704,39.103c2.19,0,3.585,0.95,3.585,2.442c0,1.032-0.641,1.855-1.674,2.149
		c1.228,0.237,2.009,1.2,2.009,2.469c0,1.661-1.451,2.707-3.753,2.707h-4.785v-9.767H65.704z M63.555,43.01h2.009
		c0.726,0,1.186-0.391,1.186-1.019s-0.46-0.99-1.186-0.99h-2.009V43.01z M63.555,46.958h2.009c0.921,0,1.493-0.405,1.493-1.102
		c0-0.656-0.572-1.061-1.493-1.061h-2.009V46.958z"/>
</g>
<g>
	<circle style="fill:#2C3E50;" cx="33.287" cy="43.17" r="2.93"/>
	<path style="fill:#FFFFFF;" d="M33.287,46.6c-1.892,0-3.43-1.539-3.43-3.43s1.538-3.43,3.43-3.43s3.431,1.539,3.431,3.43
		S35.178,46.6,33.287,46.6z M33.287,40.739c-1.34,0-2.43,1.09-2.43,2.43s1.09,2.43,2.43,2.43s2.431-1.09,2.431-2.43
		S34.627,40.739,33.287,40.739z"/>
</g>
<g>
	<circle style="fill:#2C3E50;" cx="75.374" cy="43.407" r="2.93"/>
	<path style="fill:#FFFFFF;" d="M75.374,46.837c-1.892,0-3.431-1.539-3.431-3.43s1.539-3.43,3.431-3.43s3.43,1.539,3.43,3.43
		S77.265,46.837,75.374,46.837z M75.374,40.977c-1.34,0-2.431,1.09-2.431,2.43s1.091,2.43,2.431,2.43s2.43-1.09,2.43-2.43
		S76.714,40.977,75.374,40.977z"/>
</g>
<g>
	<circle style="fill:#2C3E50;" cx="69.157" cy="28.378" r="2.93"/>
	<path style="fill:#FFFFFF;" d="M69.157,31.809c-1.892,0-3.43-1.539-3.43-3.43s1.538-3.43,3.43-3.43s3.431,1.539,3.431,3.43
		S71.048,31.809,69.157,31.809z M69.157,25.948c-1.34,0-2.43,1.09-2.43,2.43s1.09,2.43,2.43,2.43s2.431-1.09,2.431-2.43
		S70.497,25.948,69.157,25.948z"/>
</g>
<g>
	<circle style="fill:#2C3E50;" cx="39.574" cy="57.998" r="2.93"/>
	<path style="fill:#FFFFFF;" d="M39.575,61.428c-1.892,0-3.431-1.539-3.431-3.431s1.539-3.43,3.431-3.43s3.43,1.539,3.43,3.43
		S41.466,61.428,39.575,61.428z M39.575,55.567c-1.34,0-2.431,1.09-2.431,2.43c0,1.34,1.091,2.431,2.431,2.431s2.43-1.09,2.43-2.431
		C42.005,56.658,40.915,55.567,39.575,55.567z"/>
</g>
<g>
	<circle style="fill:#2C3E50;" cx="69.157" cy="57.998" r="2.93"/>
	<path style="fill:#FFFFFF;" d="M69.157,61.428c-1.892,0-3.43-1.539-3.43-3.431s1.538-3.43,3.43-3.43s3.431,1.539,3.431,3.43
		S71.048,61.428,69.157,61.428z M69.157,55.567c-1.34,0-2.43,1.09-2.43,2.43c0,1.34,1.09,2.431,2.43,2.431s2.431-1.09,2.431-2.431
		C71.588,56.658,70.497,55.567,69.157,55.567z"/>
</g>
<g>
	<circle style="fill:#2C3E50;" cx="39.574" cy="28.378" r="2.93"/>
	<path style="fill:#FFFFFF;" d="M39.575,31.809c-1.892,0-3.431-1.539-3.431-3.43s1.539-3.43,3.431-3.43s3.43,1.539,3.43,3.43
		S41.466,31.809,39.575,31.809z M39.575,25.948c-1.34,0-2.431,1.09-2.431,2.43s1.091,2.43,2.431,2.43s2.43-1.09,2.43-2.43
		S40.915,25.948,39.575,25.948z"/>
</g>
<g>
	<circle style="fill:#2C3E50;" cx="54.344" cy="22.091" r="2.93"/>
	<path style="fill:#FFFFFF;" d="M54.344,25.521c-1.892,0-3.431-1.539-3.431-3.43s1.539-3.43,3.431-3.43s3.43,1.539,3.43,3.43
		S56.236,25.521,54.344,25.521z M54.344,19.661c-1.34,0-2.431,1.09-2.431,2.43s1.091,2.43,2.431,2.43s2.43-1.09,2.43-2.43
		S55.684,19.661,54.344,19.661z"/>
</g>
<g>
	<circle style="fill:#2C3E50;" cx="54.344" cy="64.248" r="2.93"/>
	<path style="fill:#FFFFFF;" d="M54.344,67.679c-1.892,0-3.431-1.539-3.431-3.43s1.539-3.43,3.431-3.43s3.43,1.539,3.43,3.43
		S56.236,67.679,54.344,67.679z M54.344,61.818c-1.34,0-2.431,1.09-2.431,2.43s1.091,2.43,2.431,2.43s2.43-1.09,2.43-2.43
		S55.684,61.818,54.344,61.818z"/>
</g>
<g>
	<path style="fill:#3B97D3;" d="M15.806,83.162v2.857h5.539v2.47h-5.539v4.551h-3.14V80.692h9.154v2.469H15.806z"/>
	<path style="fill:#3B97D3;" d="M25.529,90.764L24.63,93.04h-3.228l5.327-12.347h3.228L35.16,93.04h-3.351l-0.883-2.275H25.529z
		 M28.246,83.814l-1.799,4.568h3.562L28.246,83.814z"/>
	<path style="fill:#3B97D3;" d="M36.311,93.04V80.692h3.141V93.04H36.311z"/>
	<path style="fill:#3B97D3;" d="M47.532,89.564h-0.088h-2.381v3.475h-3.141V80.692h5.521c3.264,0,5.133,1.552,5.133,4.304
		c0,1.887-0.794,3.246-2.24,3.969l2.593,4.075h-3.562L47.532,89.564z M47.444,87.095c1.358,0,2.152-0.688,2.152-1.993
		c0-1.288-0.794-1.94-2.152-1.94h-2.381v3.934H47.444z"/>
	<path style="fill:#2C3E50;" d="M60.149,80.692c3.704,0,6.385,2.593,6.385,6.173c0,3.563-2.698,6.174-6.438,6.174h-5.01V80.692
		H60.149z M57.168,91.17h3.034c2.398,0,4.233-1.782,4.233-4.287c0-2.522-1.888-4.321-4.321-4.321h-2.946V91.17z"/>
	<path style="fill:#2C3E50;" d="M80.333,86.866c0,3.528-2.858,6.262-6.545,6.262s-6.544-2.734-6.544-6.262
		c0-3.545,2.857-6.227,6.544-6.227S80.333,83.338,80.333,86.866z M69.361,86.866c0,2.452,2.028,4.392,4.444,4.392
		c2.417,0,4.393-1.94,4.393-4.392c0-2.452-1.976-4.357-4.393-4.357C71.372,82.509,69.361,84.414,69.361,86.866z"/>
	<path style="fill:#2C3E50;" d="M93.689,93.04l-0.018-9.225l-3.898,7.938h-1.358l-3.897-7.938v9.225h-1.958V80.692h2.469
		l4.075,8.202l4.057-8.202h2.452V93.04H93.689z"/>
</g>
</svg>
