<?xml version="1.0" standalone="no"?>
<!DOCTYPE svg PUBLIC "-//W3C//DTD SVG 20010904//EN"
 "http://www.w3.org/TR/2001/REC-SVG-20010904/DTD/svg10.dtd">
<svg version="1.0" xmlns="http://www.w3.org/2000/svg"
 width="700.000000pt" height="700.000000pt" viewBox="0 0 700.000000 700.000000"
 preserveAspectRatio="xMidYMid meet">
<metadata>
Created by potrace 1.14, written by Peter Selinger 2001-2017
</metadata>
<g transform="translate(0.000000,700.000000) scale(0.100000,-0.100000)"
fill="#000000" stroke="none">
<path d="M3123 6977 c-49 -10 -99 -49 -123 -97 -18 -36 -20 -59 -20 -263 l0
-223 -97 -47 c-54 -25 -156 -74 -228 -108 -71 -34 -161 -76 -200 -94 -38 -18
-108 -51 -155 -73 -47 -22 -123 -58 -170 -80 -47 -22 -146 -69 -220 -104 -74
-35 -155 -74 -180 -85 -40 -19 -46 -20 -55 -6 -63 97 -48 94 -520 94 -434 0
-432 1 -482 -53 -39 -42 -43 -70 -43 -332 0 -264 5 -301 44 -345 37 -42 76
-51 217 -51 l132 0 93 -50 92 -50 7 50 7 49 171 3 170 3 134 -133 134 -133
-47 -62 c-26 -34 -51 -67 -56 -73 -7 -10 74 -72 138 -107 6 -4 28 18 49 48 20
30 41 55 46 55 5 0 115 -106 245 -237 l236 -236 60 60 60 61 -241 241 c-132
132 -241 245 -241 249 0 10 119 124 203 195 97 83 276 196 412 262 112 55 297
125 368 139 170 35 256 48 332 50 l29 1 1 -550 c1 -302 3 -554 3 -560 2 -8 81
-10 229 -6 l22 1 0 551 c0 302 3 554 5 558 3 4 29 5 58 0 29 -4 71 -10 93 -13
69 -10 97 -16 210 -48 344 -96 626 -267 891 -538 l64 -65 -237 -237 -238 -238
60 -60 60 -60 231 231 232 232 68 -104 c37 -57 68 -105 70 -107 1 -2 23 11 50
27 27 17 64 38 82 48 17 9 32 21 32 25 0 12 -64 112 -116 181 -24 31 -44 61
-44 65 0 4 62 69 138 145 l138 138 119 -3 119 -3 22 -90 c13 -49 26 -119 30
-155 4 -36 8 -74 9 -85 3 -24 11 -23 95 16 39 18 74 42 86 60 20 29 21 32 7
112 -8 45 -15 96 -16 112 l-2 30 170 5 c178 5 191 8 237 57 51 53 55 77 53
348 -1 268 -4 283 -57 332 -45 42 -65 44 -480 44 -392 1 -398 1 -437 -21 -21
-13 -47 -38 -57 -56 -21 -39 -19 -39 -134 17 -44 21 -82 39 -84 39 -2 0 -75
34 -162 76 -88 42 -224 107 -304 144 -340 159 -596 281 -664 315 l-40 20 -1
215 c0 194 -2 219 -19 245 -24 39 -75 84 -103 91 -34 9 -748 10 -790 1z m1176
-886 c174 -82 366 -173 426 -201 211 -100 441 -208 558 -263 l117 -56 0 -173
0 -173 -132 -132 -133 -132 -75 75 c-284 285 -626 485 -1000 582 -63 17 -135
34 -160 37 -25 4 -53 9 -62 10 -9 2 -48 7 -85 10 -37 4 -69 8 -70 9 -3 3 -5
182 -4 384 l1 132 113 0 c93 0 118 3 147 19 19 11 37 20 39 20 2 1 146 -66
320 -148z m-1041 112 c143 -4 162 -6 163 -21 5 -84 3 -471 -3 -483 -4 -10 -21
-16 -48 -17 -23 -1 -53 -4 -68 -6 -15 -3 -52 -8 -82 -11 -30 -4 -91 -15 -135
-25 -394 -88 -752 -284 -1057 -578 l-86 -83 -129 128 -128 128 1 169 c1 154 3
170 20 180 10 6 75 37 144 69 211 99 261 123 370 175 58 27 139 66 180 85 41
19 127 59 190 89 63 31 135 65 160 76 25 11 101 48 170 81 93 45 131 59 150
55 14 -4 98 -9 188 -11z"/>
<path d="M19 5182 c-1 -22 -1 -2517 0 -2557 1 -24 9 -35 44 -57 23 -14 115
-76 205 -137 90 -61 172 -112 183 -112 10 -1 25 -2 32 -3 34 -6 130 53 185
114 49 52 112 140 187 255 43 66 79 121 80 122 1 3 345 -115 398 -136 54 -21
92 -14 126 24 17 20 31 41 31 47 0 6 19 36 43 67 39 52 122 201 302 546 136
259 254 582 255 693 0 20 4 31 10 27 27 -17 -1 -158 -65 -330 -41 -110 -63
-159 -137 -315 -28 -58 -57 -118 -64 -135 -8 -16 -34 -66 -57 -110 -24 -44
-60 -113 -81 -152 -21 -40 -41 -73 -46 -73 -11 0 -39 -73 -36 -95 2 -11 29
-27 87 -49 46 -17 118 -50 160 -72 83 -45 219 -141 219 -154 0 -4 -15 -41 -34
-82 -105 -225 -52 -425 114 -432 26 -2 164 30 187 43 20 10 23 9 29 -16 47
-217 99 -274 264 -289 87 -8 85 -7 119 -101 51 -144 109 -213 177 -213 17 0
53 7 79 15 27 8 50 13 50 12 1 -1 8 -24 15 -50 17 -62 60 -127 101 -151 45
-26 114 -24 180 6 62 29 219 144 219 161 0 9 2 9 8 0 11 -17 136 -42 181 -37
43 6 64 23 109 94 19 30 36 57 38 59 2 2 15 -6 31 -16 38 -27 88 -43 132 -43
41 0 129 38 151 64 16 20 17 68 2 138 -5 27 -6 48 -2 48 4 0 26 -6 48 -14 55
-20 215 -19 257 1 76 36 84 128 20 231 -19 32 -35 62 -35 68 0 5 21 9 48 9 59
-1 151 19 201 45 80 40 121 126 121 252 0 37 2 68 5 68 2 0 28 -10 57 -21 169
-68 261 -50 365 68 78 89 129 143 135 143 3 0 8 -12 11 -27 11 -52 76 -142
123 -169 39 -23 53 -26 103 -21 33 3 89 19 130 37 59 26 75 29 87 19 27 -22
78 -128 200 -417 69 -165 97 -211 133 -213 46 -3 65 6 610 288 47 23 93 51
104 60 49 45 47 -13 47 1510 l0 1425 -57 -33 c-73 -40 -132 -73 -208 -116 -68
-37 -577 -291 -700 -348 -189 -88 -227 -106 -357 -168 -316 -151 -348 -169
-348 -191 0 -15 -3 -17 -9 -8 -17 27 -355 -127 -394 -181 -14 -17 -21 -42 -21
-69 1 -45 11 -119 19 -126 2 -3 0 -13 -5 -23 -10 -18 -67 -32 -140 -34 -99 -3
-231 40 -522 168 -395 174 -439 187 -608 182 -150 -5 -232 -36 -376 -143 l-80
-59 -75 27 c-41 15 -101 31 -134 34 -33 4 -73 9 -90 11 -28 4 -118 10 -275 20
-36 2 -137 6 -225 10 -273 11 -286 14 -301 91 -23 120 -139 222 -352 310 -57
24 -119 55 -138 71 -160 130 -273 194 -534 301 -445 184 -746 302 -804 315
-37 8 -107 15 -156 15 -77 0 -90 -2 -91 -16z m1856 -833 c109 -80 135 -129
131 -249 -4 -105 -29 -183 -150 -465 -80 -185 -208 -444 -288 -584 -82 -142
-198 -321 -208 -321 -12 0 -353 139 -362 148 -4 4 14 41 39 82 25 41 54 89 63
105 271 467 408 786 484 1127 26 116 30 137 42 223 3 28 9 53 11 58 6 10 176
-78 238 -124z m3465 -112 c0 -18 83 -312 169 -602 78 -260 256 -798 319 -961
l38 -101 -63 -33 c-74 -37 -120 -40 -161 -12 -37 27 -82 115 -111 217 -43 151
-164 516 -172 521 -5 3 -9 12 -9 19 0 33 -128 287 -221 440 -110 182 -143 279
-113 336 24 47 97 92 216 134 26 9 58 25 70 35 27 23 38 25 38 7z m-2727
-1717 c3 -11 1 -18 -4 -14 -5 3 -9 12 -9 20 0 20 7 17 13 -6z"/>
<path d="M983 2525 c-10 -15 -27 -38 -39 -53 -11 -15 -33 -48 -48 -74 l-28
-47 29 -38 c15 -21 30 -40 34 -43 3 -3 74 -96 158 -207 154 -204 195 -252 215
-254 31 -3 276 -4 276 -1 0 12 -552 726 -570 737 -5 3 -17 -6 -27 -20z"/>
<path d="M5719 2213 c-36 -43 -96 -118 -134 -168 -39 -49 -75 -97 -82 -105
-32 -40 -260 -337 -265 -345 -5 -8 184 -13 266 -6 10 0 36 20 58 44 57 59 297
372 307 400 11 30 6 56 -28 140 -16 40 -32 82 -36 95 -3 12 -10 22 -14 22 -4
0 -37 -35 -72 -77z"/>
<path d="M0 555 c0 -421 3 -535 13 -536 15 -1 135 -1 159 0 15 1 17 21 16 209
0 114 1 213 1 220 1 9 57 12 245 12 l244 0 4 55 c6 107 28 99 -250 98 l-242 0
0 26 c-1 14 -2 83 -3 153 l-2 128 265 2 265 3 0 83 1 82 -358 0 -358 0 0 -535z"/>
<path d="M938 558 c-130 -293 -234 -535 -232 -537 5 -5 174 -4 179 1 2 2 26
55 53 118 l49 115 273 0 273 0 51 -119 52 -119 87 -1 c49 -1 94 1 101 4 11 5
-26 95 -168 410 -24 54 -137 309 -179 404 -12 27 -43 95 -68 150 l-45 101 -95
3 -94 3 -237 -533z m516 -131 l5 -22 -199 3 c-110 1 -200 4 -200 6 0 5 190
448 197 459 5 8 185 -400 197 -446z"/>
<path d="M1979 1088 c-1 -2 -2 -241 -3 -531 -1 -331 2 -531 9 -535 15 -9 166
-8 173 2 4 7 7 969 3 1049 -1 15 -12 17 -91 17 -49 0 -91 -1 -91 -2z"/>
<path d="M2439 1088 c-1 -2 -2 -243 -3 -535 l-1 -533 32 -1 c42 -1 95 -1 131
0 l27 1 -1 160 -1 160 152 0 152 0 27 -40 c14 -22 26 -42 26 -44 0 -4 128
-225 136 -234 2 -4 94 -5 167 -3 l38 1 -76 111 c-41 61 -75 114 -75 119 0 5
-3 10 -7 12 -11 4 -73 97 -72 106 0 4 28 25 62 47 100 65 148 162 149 299 1
154 -61 264 -182 326 -81 42 -151 50 -422 50 -142 0 -259 -1 -259 -2z m553
-184 c62 -19 121 -76 134 -130 24 -98 -18 -214 -91 -248 -55 -26 -77 -29 -250
-30 l-160 -1 -1 213 -1 213 160 -2 c107 0 176 -6 209 -15z"/>
<path d="M3527 1072 c-16 -3 -17 -45 -17 -528 0 -412 3 -524 13 -525 39 -3
467 0 492 4 80 12 115 22 180 52 198 91 308 275 299 498 -11 260 -193 458
-453 493 -51 7 -484 12 -514 6z m482 -162 c190 -36 305 -188 296 -394 -3 -66
-9 -90 -39 -152 -41 -81 -89 -128 -171 -165 -46 -21 -65 -23 -233 -24 l-183 0
0 295 c0 162 0 330 1 373 l0 77 139 0 c76 0 162 -4 190 -10z"/>
<path d="M5117 1074 c-1 -1 -31 -4 -67 -7 -238 -21 -427 -186 -473 -414 -68
-336 174 -636 524 -649 172 -7 321 49 432 161 167 169 202 435 84 644 -86 152
-257 254 -440 264 -32 2 -59 2 -60 1z m136 -187 c80 -36 121 -71 166 -138 97
-145 82 -331 -37 -456 -204 -213 -540 -134 -632 150 -39 122 3 282 98 374 42
40 115 79 169 92 69 16 175 6 236 -22z"/>
<path d="M5862 545 l3 -529 45 1 c25 1 62 2 83 2 l37 1 0 398 0 397 171 -341
170 -340 57 0 57 1 172 340 172 340 0 -397 c1 -346 3 -398 16 -399 75 -5 135
-2 136 6 0 6 2 243 2 528 1 338 -1 517 -8 518 -5 1 -52 2 -103 3 l-93 1 -89
-175 c-49 -96 -129 -252 -177 -347 -48 -95 -91 -169 -95 -165 -7 7 -30 52
-233 447 -65 127 -119 232 -121 234 -2 2 -49 4 -104 5 l-100 1 2 -530z"/>
</g>
</svg>
