<?xml version="1.0" encoding="utf-8"?>
<!-- Generator: Adobe Illustrator 24.1.2, SVG Export Plug-In . SVG Version: 6.00 Build 0)  -->
<svg version="1.1" id="Layer_1" xmlns="http://www.w3.org/2000/svg" xmlns:xlink="http://www.w3.org/1999/xlink" x="0px" y="0px"
	 viewBox="0 0 41.1 33.4" style="enable-background:new 0 0 41.1 33.4;" xml:space="preserve">
<style type="text/css">
	.st0{fill:#090378;}
	.st1{fill:#2363cc;}
</style>
<g>
	<rect x="11.3" y="8.8" transform="matrix(0.7071 -0.7071 0.7071 0.7071 -5.737 12.1274)" class="st0" width="1" height="8.3"/>
	<rect x="25.7" y="12.5" transform="matrix(0.7071 -0.7071 0.7071 0.7071 -0.4493 24.8942)" class="st0" width="8.3" height="1"/>
	<rect x="20.1" y="4.3" class="st0" width="1.5" height="11.1"/>
	<rect x="6.5" y="5.4" transform="matrix(0.9042 -0.427 0.427 0.9042 -1.2288 6.4313)" class="st0" width="14.4" height="1.1"/>
	<rect x="27.7" y="-1.1" transform="matrix(0.4269 -0.9043 0.9043 0.4269 10.6354 29.076)" class="st0" width="1.1" height="14.4"/>
	<path class="st1" d="M12.3,16.6c0.1,0.3,0.3,0.4,0.6,0.4c1.6,0.1,3.1,0.1,4.7,0.3c0.4,0,0.9,0.3,1.3,0.4c0,0.4-0.3,0.5-0.5,0.7
		c-0.7,0.7-1.2,1.4-1.6,2.2c-0.2,0.4-0.3,0.9-0.2,1.3c0,0.6,0.3,0.8,0.9,0.7c0.5-0.1,0.8-0.3,1.2-0.6c0.6-0.4,1.1-0.8,1.7-1.1
		c0.8-0.5,1.6-0.4,2.2,0.3c1.6,1.9,3.7,3.2,5.6,4.7c0.2,0.2,0.4,0.3,0.5,0.6c0,0.1,0,0.3,0,0.4c0.1,1.2-0.4,1.8-1.7,1.9
		c-0.2,0-0.3,0-0.5,0c0.1,0.3,0.3,0.5,0.4,0.7c0.3,0.7,0,1.2-0.7,1.2c-0.2,0-0.5,0-0.7,0c-0.2,0-0.4-0.1-0.7-0.2
		c0,0.5,0.4,1-0.2,1.3c-0.5,0.3-1.1,0.3-1.6-0.2c-0.6,1.1-0.6,1.1-1.9,0.8c-0.1-0.2,0.1-0.4,0.2-0.6c0.1-0.2,0.2-0.5,0.2-0.8
		c-0.1-0.9-0.5-1.2-1.5-1.1c-0.2-0.2-0.1-0.4-0.1-0.5c0.1-0.9-0.3-1.3-1.2-1c-0.3,0.1-0.6,0.4-0.9,0.2s0-0.6,0-0.9
		c-0.1-0.8-0.6-1.2-1.4-0.9c-0.2,0.1-0.4,0.2-0.5,0.3c-0.2,0.1-0.3,0.3-0.5,0.2c-0.2-0.1-0.1-0.4-0.1-0.5c0.1-0.4,0-0.8-0.1-1.2
		c-0.2-0.6-0.5-0.8-1.1-0.5c-0.4,0.2-0.8,0.4-1.1,0.7c-0.2,0.1-0.3,0.3-0.5,0.3c-0.9-0.8-1.9-1.4-3-1.7c-0.1-0.3,0.1-0.6,0.3-0.8
		c0.8-1.5,1.6-3,2.2-4.6c0.2-0.6,0.4-1.1,0.4-1.7C12.1,16.8,12.1,16.7,12.3,16.6z"/>
	<path class="st0" d="M34.7,26c0,0.1,0,0.2-0.1,0.4c-1.5,0.8-2.1,0.5-2.6-0.9c-0.2,0.3-0.5,0.5-0.7,0.8c-0.7,0.8-1.2,0.9-2.2,0.5
		c-0.2-0.1-0.4-0.2-0.5-0.2c-1.3-1-2.5-1.9-3.8-2.9c-0.7-0.6-1.3-1.2-1.9-1.8c-0.2-0.2-0.4-0.4-0.6-0.6c-0.6-0.5-1.2-0.6-1.9-0.2
		c-0.8,0.5-1.6,1.1-2.5,1.6c-0.2,0.1-0.5,0.2-0.8,0.2c-0.5,0.1-0.9-0.2-0.9-0.7c0-0.5,0-1.1,0.3-1.6c0.4-0.7,0.9-1.4,1.4-2.1
		c0.2-0.3,0.5-0.6,0.8-0.8c0.1-0.1,0.3-0.2,0.4-0.3c1.3-1.1,2.7-1.2,4.2-0.6c1,0.4,2,0.9,3,1.3c0.8,0.3,1.6,0.6,2.6,0.3
		c0,0,0-0.1,0-0.2c-0.2-1-0.2-1.2,0.7-1.6c0.5-0.3,1.1-0.5,1.6-0.7c0,0.1,0.1,0.1,0.1,0.2c-0.3,0.4-0.8,0.4-1.2,0.6
		c-0.8,0.5-0.9,0.7-0.5,1.6c0.1,0.2,0.2,0.4,0.3,0.6c1.3,1.9,2,4,2.6,6.2c0,0.1,0.1,0.2,0.1,0.3c0.3,0.9,0.8,1.3,1.6,0.7
		C34.4,26,34.5,26,34.7,26z"/>
	<path class="st0" d="M12.3,25.8c0.5-0.4,1-0.8,1.5-1.1c0.7-0.4,1.2-0.2,1.4,0.7c0.1,0.5,0.1,1.1,0.1,1.6c1.9-1.2,2.7-0.6,2.5,1.5
		c0.6-0.3,1.3-0.8,1.9-0.3c0.5,0.4,0.3,1,0.2,1.4c0.4,0.1,0.9,0,1.1,0.2c0.4,0.3,0.6,0.9,0.5,1.5c-0.1,0.4-0.3,0.7-0.5,1.1
		c-0.4,0.3-0.8,0.7-1.3,0.9c-0.9,0.4-1.5-0.1-1.7-1.2c-0.5,0.2-1,0.4-1.4-0.2c-0.3-0.4-0.4-0.9-0.6-1.4c-1.6-0.1-1.7-0.3-2.1-1.9
		c-0.2,0.1-0.4,0.2-0.6,0.2c-0.8,0.3-1.5,0-1.6-0.9C11.6,27.2,11.9,26.5,12.3,25.8z"/>
	<path class="st0" d="M5.9,26.1c1.2,1.5,2.3,2.9,3.4,4.4c-0.6,0-1.1,0-1.6,0c-0.1,0-0.2-0.1-0.3-0.2c-0.8-1-1.5-2-2.3-3
		C5.3,26.9,5.6,26.5,5.9,26.1z"/>
	<path class="st0" d="M30.7,31.8c1.1-1.4,2.1-2.8,3.3-4.2c0.2,0.6,0.4,0.9,0.5,1.3c0,0.1,0,0.3-0.1,0.4c-0.6,0.8-1.2,1.6-1.8,2.3
		c-0.1,0.1-0.3,0.2-0.4,0.2C31.7,31.8,31.3,31.8,30.7,31.8z"/>
	<path class="st0" d="M33.8,11c0.5,0,1,0,1.4,0c0,0.1,0,0.2,0,0.4c0.3,1.3,0.3,1.3-1,1.8C34.2,12.4,34,11.7,33.8,11z"/>
	<path class="st0" d="M5.8,11c0.5,0,0.9,0,1.4,0c0,0.2-0.1,0.3-0.1,0.7C6.6,11.4,6.2,11.2,5.8,11z"/>
	<path class="st0" d="M12.3,16.6c-0.1-0.8-0.7-1.2-1.4-1.6c-0.5-0.3-1.2-0.4-1.6-0.8c-1-0.9-2.1-1.3-3.3-1.8c-1.2-0.5-2.5-1-3.7-1.5
		c-0.7-0.3-1.4-0.4-2.2-0.3c0,5,0,9.9,0,14.9c0,0.1,0,0.4,0.1,0.4c0.7,0.5,1.5,1,2.2,1.5c0.4,0.2,0.8,0.1,1.1-0.2
		C3.8,27,4,26.8,4.2,26.5c0.5-0.6,0.9-1.3,1.3-1.9c0.8,0.3,1.5,0.5,2.3,0.8c0.4,0.2,0.7,0.1,0.9-0.3c0.1-0.3,0.4-0.6,0.6-0.9
		c0.6-1.2,1.3-2.4,1.9-3.6C11.7,19.3,12.4,18,12.3,16.6z M11.3,18.8c-0.9,2.2-1.9,4.3-3.3,6.3c-0.7-0.3-1.5-0.6-2.2-0.9
		c1.8-2.9,3.4-5.9,3.8-9.4c0,0,0,0,0,0c0,0,0,0,0,0c0,0,0,0,0,0C12.1,15.9,12.2,16.6,11.3,18.8z"/>
	<path class="st1" d="M22.7,4.7h-4.2c-0.5,0-1-0.4-1-1V1.1c0-0.5,0.5-1,1-1h4.2c0.5,0,1,0.5,1,1v2.6C23.7,4.2,23.3,4.7,22.7,4.7z"/>
	<path class="st1" d="M36.9,11.1h-4.2c-0.5,0-1-0.4-1-1V7.5c0-0.6,0.4-1,1-1h4.2c0.5,0,1,0.4,1,1v2.6C37.9,10.6,37.4,11.1,36.9,11.1
		z"/>
	<path class="st1" d="M8.9,11.1H4.7c-0.6,0-1-0.4-1-1V7.5c0-0.6,0.4-1,1-1h4.2c0.6,0,1,0.4,1,1v2.6C9.9,10.6,9.4,11.1,8.9,11.1z"/>
	<path class="st1" d="M31.3,15.8c3.2-1.6,6.6-3,9.8-4.9c0,0.3,0,0.5,0,0.7c0,5.3,0,10.6,0,15.8c0,0.4-0.1,0.7-0.5,0.9
		c-1.2,0.6-2.3,1.2-3.5,1.8c-0.4,0.2-0.7,0.1-0.9-0.3c-0.4-1-0.8-2-1.3-3c-0.1-0.2-0.2-0.3-0.4-0.5c-0.1-0.1,0-0.3-0.1-0.4
		c-1.2-3.2-2.2-6.5-3.1-9.8C31.3,16.1,31.3,16,31.3,15.8z"/>
	<path class="st0" d="M30.8,14.8c-2.2-3.8-6-6-10.1-6c-3.8,0-7.4,2-9.7,5.3l-0.9-0.6c2.5-3.6,6.4-5.8,10.6-5.8
		c4.5,0,8.6,2.4,11.1,6.5L30.8,14.8z"/>
</g>
</svg>
