<?xml version="1.0" encoding="UTF-8" standalone="no"?>
<svg
   xmlns:dc="http://purl.org/dc/elements/1.1/"
   xmlns:cc="http://creativecommons.org/ns#"
   xmlns:rdf="http://www.w3.org/1999/02/22-rdf-syntax-ns#"
   xmlns:svg="http://www.w3.org/2000/svg"
   xmlns="http://www.w3.org/2000/svg"
   xmlns:sodipodi="http://sodipodi.sourceforge.net/DTD/sodipodi-0.dtd"
   xmlns:inkscape="http://www.inkscape.org/namespaces/inkscape"
   width="101.99999cm"
   height="102.99999cm"
   viewBox="0 0 1019.9998 1030.0001"
   version="1.1"
   id="svg8"
   inkscape:version="1.0.1 (c497b03c, 2020-09-10)"
   sodipodi:docname="drawing.svg">
  <defs
     id="defs2" />
  <sodipodi:namedview
     id="base"
     pagecolor="#ffffff"
     bordercolor="#666666"
     borderopacity="1.0"
     inkscape:pageopacity="0.0"
     inkscape:pageshadow="2"
     inkscape:zoom="0.040442573"
     inkscape:cx="6542.8079"
     inkscape:cy="5612.2797"
     inkscape:document-units="cm"
     inkscape:current-layer="layer1"
     inkscape:document-rotation="0"
     showgrid="false"
     lock-margins="true"
     units="cm"
     fit-margin-top="1"
     fit-margin-left="1"
     fit-margin-right="1"
     fit-margin-bottom="1"
     inkscape:window-width="1440"
     inkscape:window-height="810"
     inkscape:window-x="-1"
     inkscape:window-y="23"
     inkscape:window-maximized="0"
     width="102cm" />
  <metadata
     id="metadata5">
    <rdf:RDF>
      <cc:Work
         rdf:about="">
        <dc:format>image/svg+xml</dc:format>
        <dc:type
           rdf:resource="http://purl.org/dc/dcmitype/StillImage" />
        <dc:title></dc:title>
      </cc:Work>
    </rdf:RDF>
  </metadata>
  <g
     inkscape:label="Layer 1"
     inkscape:groupmode="layer"
     id="layer1"
     transform="translate(934.30374,1563.8667)">
    <g
       id="g123"
       transform="matrix(5.9734398,0,0,3.9172947,-1194.3749,-1553.8667)">
      <g
         id="g66">
        <path
           d="m 62.288,89.305 c 1.367,0 2.741,-0.465 3.867,-1.415 2.532,-2.138 2.853,-5.924 0.715,-8.455 C 60.642,72.058 57.213,62.67 57.213,53 c 0,-22.608 18.393,-41 41,-41 22.607,0 41,18.392 41,41 0,6.308 -1.392,12.354 -4.137,17.974 -1.455,2.978 -0.221,6.57 2.757,8.024 2.977,1.459 6.57,0.22 8.024,-2.757 3.554,-7.274 5.355,-15.093 5.355,-23.241 0,-29.225 -23.775,-53 -53,-53 -29.225,0 -53,23.775 -53,53 0,12.5 4.435,24.637 12.487,34.175 1.188,1.406 2.883,2.13 4.589,2.13 z"
           id="path62" />
        <path
           d="m 211.134,141.765 c -3.866,-22.86 -20.326,-25.967 -27.416,-26.223 -2.007,-0.073 -3.836,-1.129 -4.912,-2.824 -5.367,-8.456 -12.645,-10.681 -18.813,-10.681 -2.824,-0.001 -5.414,0.465 -7.485,1.013 -0.608,0.16 -1.227,0.239 -1.839,0.239 -2.178,0 -4.277,-0.994 -5.588,-2.811 -5.28,-7.315 -12.171,-9.293 -18.078,-9.293 -1.58,0 -3.09,0.142 -4.479,0.36 -0.371,0.059 -0.739,0.087 -1.1,0.087 -3.78,0 -6.969,-3.07 -6.974,-6.987 L 114.4,42.358 c -0.014,-10.927 -8.209,-16.387 -16.404,-16.387 -8.211,0 -16.422,5.479 -16.408,16.427 0.022,18.357 0.089,73.493 0.108,90.106 0.004,2.808 -1.675,5.345 -4.265,6.428 -32.541,13.602 7.643,74.619 14.84,85.076 0.702,1.02 1.118,2.203 1.211,3.438 l 1.759,23.661 c 0.274,3.65 3.316,6.724 6.977,6.724 0.003,0 0.006,0 0.009,0 l 78.623,-0.349 c 3.509,-0.005 6.471,-2.732 6.928,-6.211 l 3.202,-24.453 c 0.136,-1.031 0.51,-2.053 1.074,-2.927 21.012,-32.478 22.663,-60.937 19.08,-82.126 z"
           id="path64" />
      </g>
      <g
         id="g68" />
      <g
         id="g70" />
      <g
         id="g72" />
      <g
         id="g74" />
      <g
         id="g76" />
      <g
         id="g78" />
      <g
         id="g80" />
      <g
         id="g82" />
      <g
         id="g84" />
      <g
         id="g86" />
      <g
         id="g88" />
      <g
         id="g90" />
      <g
         id="g92" />
      <g
         id="g94" />
      <g
         id="g96" />
    </g>
  </g>
</svg>
