<?xml version="1.0" encoding="UTF-8" standalone="no"?>
<!-- Created with Inkscape (http://www.inkscape.org/) -->

<svg
   xmlns:dc="http://purl.org/dc/elements/1.1/"
   xmlns:cc="http://creativecommons.org/ns#"
   xmlns:rdf="http://www.w3.org/1999/02/22-rdf-syntax-ns#"
   xmlns:svg="http://www.w3.org/2000/svg"
   xmlns="http://www.w3.org/2000/svg"
   xmlns:sodipodi="http://sodipodi.sourceforge.net/DTD/sodipodi-0.dtd"
   xmlns:inkscape="http://www.inkscape.org/namespaces/inkscape"
   width="744.09448"
   height="650"
   id="svg4313"
   version="1.1"
   inkscape:version="0.48.4 r9939"
   sodipodi:docname="fairdom-logo-square5.svg"
   inkscape:export-filename="/home/quyen/Downloads/fairdom-logo-square6.png"
   inkscape:export-xdpi="90"
   inkscape:export-ydpi="90">
  <defs
     id="defs4315" />
  <sodipodi:namedview
     id="base"
     pagecolor="#000000"
     bordercolor="#666666"
     borderopacity="1.0"
     inkscape:pageopacity="0"
     inkscape:pageshadow="2"
     inkscape:zoom="0.35"
     inkscape:cx="375"
     inkscape:cy="520"
     inkscape:document-units="px"
     inkscape:current-layer="layer1"
     showgrid="false"
     inkscape:window-width="1855"
     inkscape:window-height="1056"
     inkscape:window-x="65"
     inkscape:window-y="24"
     inkscape:window-maximized="1"
     showguides="true"
     inkscape:guide-bbox="true"
     showborder="false"
     inkscape:showpageshadow="false" />
  <metadata
     id="metadata4318">
    <rdf:RDF>
      <cc:Work
         rdf:about="">
        <dc:format>image/svg+xml</dc:format>
        <dc:type
           rdf:resource="http://purl.org/dc/dcmitype/StillImage" />
        <dc:title></dc:title>
      </cc:Work>
    </rdf:RDF>
  </metadata>
  <g
     inkscape:label="Layer 1"
     inkscape:groupmode="layer"
     id="layer1"
     transform="translate(0,-402.36218)">
    <g
       id="g3722"
       transform="matrix(10.25244,0,0,10.734811,-414.73078,494.48739)">
      <g
         transform="matrix(1.6760215,0,0,1.3824027,36.88934,-11.386012)"
         id="g3115">
        <g
           id="g3117">
          <rect
             id="rect3119"
             height="1.021"
             width="8.2880001"
             style="fill:#ffffff"
             transform="matrix(0.7071,0.7071,-0.7071,0.7071,15.7992,-5.7907)"
             y="15.665"
             x="10.745" />
        </g>
        <g
           id="g3121">
          <rect
             id="rect3123"
             height="8.2880001"
             width="1.021"
             style="fill:#ffffff"
             transform="matrix(0.7071,0.7071,-0.7071,0.7071,21.0873,-18.5574)"
             y="12.032"
             x="32.433998" />
        </g>
        <g
           id="g3125">
          <rect
             id="rect3127"
             height="11.074"
             width="1.5319999"
             style="fill:#ffffff"
             y="7.4710002"
             x="23.247" />
        </g>
        <g
           id="g3129">
          <rect
             id="rect3131"
             height="14.432"
             width="1.123"
             style="fill:#ffffff"
             transform="matrix(0.427,0.9042,-0.9042,0.427,17.9189,-9.9931)"
             y="1.927"
             x="16.283001" />
        </g>
        <g
           id="g3133">
          <rect
             id="rect3135"
             height="1.123"
             width="14.432"
             style="fill:#ffffff"
             transform="matrix(0.9043,0.4269,-0.4269,0.9043,6.9874,-12.5013)"
             y="8.7720003"
             x="24.16" />
        </g>
        <path
           inkscape:connector-curvature="0"
           id="path3137"
           d="m 15.404,19.757 c 0.071,0.3 0.26,0.353 0.558,0.364 1.553,0.059 3.107,0.124 4.656,0.252 0.435,0.036 0.852,0.291 1.277,0.445 0.046,0.365 -0.259,0.519 -0.459,0.718 -0.656,0.655 -1.198,1.385 -1.585,2.231 -0.197,0.43 -0.268,0.875 -0.23,1.34 0.048,0.583 0.349,0.824 0.923,0.715 0.459,-0.088 0.845,-0.348 1.236,-0.587 0.579,-0.353 1.101,-0.794 1.695,-1.123 0.827,-0.458 1.572,-0.449 2.17,0.275 1.59,1.922 3.741,3.158 5.6,4.747 0.192,0.164 0.448,0.282 0.468,0.586 0.006,0.139 0.008,0.278 0.018,0.417 0.087,1.238 -0.435,1.827 -1.669,1.877 -0.154,0.006 -0.309,10e-4 -0.521,10e-4 0.142,0.253 0.27,0.45 0.367,0.661 0.304,0.661 0.034,1.153 -0.69,1.235 -0.234,0.027 -0.478,0 -0.713,-0.035 -0.212,-0.031 -0.418,-0.107 -0.67,-0.174 -0.015,0.457 0.386,1.01 -0.213,1.292 -0.544,0.257 -1.118,0.298 -1.609,-0.175 -0.576,1.064 -0.647,1.093 -1.895,0.772 -0.06,-0.237 0.085,-0.423 0.16,-0.625 0.091,-0.244 0.18,-0.488 0.164,-0.755 -0.054,-0.909 -0.468,-1.228 -1.47,-1.125 -0.197,-0.151 -0.11,-0.357 -0.095,-0.548 0.073,-0.942 -0.317,-1.266 -1.212,-1.032 -0.299,0.078 -0.593,0.435 -0.882,0.217 -0.289,-0.218 -0.026,-0.602 -0.046,-0.913 -0.052,-0.804 -0.607,-1.179 -1.36,-0.901 -0.188,0.07 -0.362,0.167 -0.534,0.27 -0.166,0.1 -0.331,0.282 -0.541,0.165 -0.22,-0.123 -0.132,-0.353 -0.104,-0.544 0.061,-0.405 0.002,-0.798 -0.095,-1.188 -0.151,-0.605 -0.487,-0.784 -1.068,-0.538 -0.405,0.172 -0.778,0.408 -1.122,0.686 -0.152,0.123 -0.282,0.294 -0.514,0.261 -0.893,-0.788 -1.902,-1.37 -3.045,-1.715 -0.113,-0.343 0.149,-0.56 0.287,-0.809 0.821,-1.483 1.578,-2.997 2.188,-4.581 0.214,-0.557 0.43,-1.117 0.407,-1.734 -0.004,-0.156 0.014,-0.322 0.168,-0.425 z"
           style="fill:#3b97d3" />
        <path
           inkscape:connector-curvature="0"
           id="path3139"
           d="m 34.441,19.026 c 3.227,-1.632 6.595,-2.984 9.757,-4.939 0,0.267 0,0.46 0,0.652 0,5.276 -0.005,10.553 0.01,15.829 0.001,0.435 -0.121,0.684 -0.515,0.883 -1.174,0.593 -2.332,1.218 -3.488,1.847 -0.41,0.223 -0.681,0.126 -0.858,-0.284 -0.428,-0.986 -0.845,-1.977 -1.283,-2.959 -0.078,-0.175 -0.234,-0.316 -0.354,-0.472 -0.082,-0.125 -0.036,-0.281 -0.105,-0.41 -1.158,-3.226 -2.162,-6.5 -3.131,-9.786 -0.035,-0.118 -0.039,-0.239 -0.033,-0.361 z"
           style="fill:#3b97d3" />
        <path
           inkscape:connector-curvature="0"
           id="path3141"
           d="m 37.777,29.217 c -0.023,0.122 -0.045,0.244 -0.068,0.366 -1.534,0.782 -2.083,0.459 -2.571,-0.87 -0.246,0.271 -0.476,0.529 -0.712,0.782 -0.718,0.77 -1.219,0.875 -2.177,0.46 C 32.07,29.878 31.893,29.799 31.715,29.72 30.462,28.743 29.192,27.787 27.963,26.78 27.29,26.228 26.685,25.592 26.054,24.989 25.852,24.796 25.675,24.577 25.467,24.392 24.889,23.88 24.265,23.81 23.6,24.215 c -0.833,0.507 -1.639,1.058 -2.475,1.56 -0.229,0.137 -0.518,0.212 -0.787,0.238 -0.539,0.051 -0.862,-0.194 -0.861,-0.738 0.001,-0.524 0.025,-1.108 0.252,-1.559 0.371,-0.737 0.901,-1.397 1.393,-2.068 0.222,-0.303 0.513,-0.555 0.772,-0.83 0.132,-0.089 0.273,-0.166 0.394,-0.269 1.271,-1.08 2.701,-1.17 4.191,-0.606 1.016,0.385 1.985,0.89 2.992,1.302 0.811,0.332 1.649,0.579 2.553,0.273 0.012,-0.05 0.046,-0.109 0.036,-0.158 -0.213,-1.044 -0.188,-1.154 0.744,-1.648 0.52,-0.276 1.089,-0.461 1.636,-0.686 0.044,0.064 0.088,0.128 0.132,0.192 -0.306,0.369 -0.787,0.422 -1.176,0.641 -0.842,0.474 -0.928,0.69 -0.508,1.57 0.103,0.216 0.189,0.445 0.327,0.638 1.332,1.871 2.012,4.011 2.573,6.201 0.025,0.097 0.053,0.192 0.085,0.287 0.298,0.899 0.782,1.308 1.564,0.702 0.095,-0.072 0.219,-0.101 0.34,-0.04 z"
           style="fill:#ffffff" />
        <path
           inkscape:connector-curvature="0"
           id="path3143"
           d="m 15.402,29.021 c 0.498,-0.359 0.969,-0.763 1.499,-1.065 0.746,-0.425 1.245,-0.17 1.362,0.671 0.076,0.541 0.073,1.094 0.104,1.618 1.855,-1.227 2.738,-0.633 2.458,1.478 0.631,-0.315 1.278,-0.768 1.943,-0.274 0.502,0.373 0.297,0.975 0.209,1.398 0.392,0.055 0.864,-0.015 1.121,0.188 0.427,0.338 0.597,0.911 0.484,1.465 -0.077,0.379 -0.302,0.728 -0.461,1.09 -0.434,0.306 -0.831,0.702 -1.31,0.9 -0.89,0.368 -1.467,-0.061 -1.718,-1.209 -0.49,0.227 -1.025,0.365 -1.356,-0.185 -0.25,-0.415 -0.373,-0.905 -0.562,-1.384 -1.567,-0.146 -1.713,-0.276 -2.085,-1.938 -0.2,0.084 -0.39,0.17 -0.586,0.245 -0.849,0.327 -1.468,-0.023 -1.614,-0.908 -0.127,-0.769 0.097,-1.452 0.512,-2.09 z"
           style="fill:#ffffff" />
        <path
           inkscape:connector-curvature="0"
           id="path3145"
           d="m 9.025,29.25 c 1.159,1.5 2.253,2.915 3.425,4.431 -0.598,0 -1.102,0.014 -1.603,-0.011 C 10.735,33.664 10.605,33.542 10.526,33.44 9.751,32.453 8.985,31.459 8.189,30.432 8.447,30.068 8.704,29.704 9.025,29.25 z"
           style="fill:#ffffff" />
        <path
           inkscape:connector-curvature="0"
           id="path3147"
           d="m 33.817,35.004 c 1.11,-1.435 2.146,-2.772 3.272,-4.227 0.228,0.566 0.395,0.94 0.524,1.328 0.035,0.104 -0.01,0.273 -0.08,0.366 -0.586,0.779 -1.18,1.553 -1.79,2.312 -0.093,0.115 -0.283,0.202 -0.433,0.211 -0.456,0.027 -0.914,0.01 -1.493,0.01 z"
           style="fill:#ffffff" />
        <path
           inkscape:connector-curvature="0"
           id="path3149"
           d="m 36.965,14.138 c 0.483,0.004 0.966,0.008 1.449,0.012 0.016,0.117 0.021,0.237 0.049,0.352 0.309,1.282 0.31,1.282 -1.029,1.817 -0.158,-0.736 -0.314,-1.459 -0.469,-2.181 z"
           style="fill:#ffffff" />
        <path
           inkscape:connector-curvature="0"
           id="path3151"
           d="M 8.885,14.138 C 9.343,14.14 9.8,14.143 10.258,14.145 10.23,14.317 10.202,14.49 10.152,14.804 9.688,14.56 9.286,14.349 8.885,14.138 z"
           style="fill:#ffffff" />
        <path
           inkscape:connector-curvature="0"
           id="path3153"
           d="m 15.404,19.757 c -0.119,-0.832 -0.739,-1.238 -1.39,-1.6 C 13.493,17.868 12.853,17.723 12.436,17.332 11.468,16.427 10.292,15.999 9.094,15.558 7.849,15.1 6.621,14.595 5.4,14.078 4.703,13.783 4.009,13.651 3.249,13.82 c 0,4.988 -10e-4,9.945 0.005,14.902 0,0.144 0.036,0.353 0.132,0.42 0.733,0.511 1.472,1.018 2.238,1.477 0.399,0.239 0.812,0.144 1.132,-0.215 0.199,-0.223 0.404,-0.443 0.576,-0.686 0.458,-0.649 0.899,-1.31 1.332,-1.946 0.787,0.273 1.537,0.52 2.276,0.796 0.415,0.155 0.671,0.07 0.859,-0.348 0.145,-0.323 0.368,-0.611 0.557,-0.914 0.63,-1.196 1.31,-2.369 1.877,-3.594 0.581,-1.253 1.272,-2.493 1.171,-3.955 z m -0.936,2.253 c -0.854,2.185 -1.919,4.265 -3.278,6.267 -0.721,-0.285 -1.452,-0.573 -2.224,-0.878 1.821,-2.928 3.417,-5.875 3.793,-9.383 -0.004,-0.002 -0.006,-0.003 -0.01,-0.005 -0.015,-0.007 -0.039,0.006 0.011,-0.003 0,0.003 -10e-4,0.005 -10e-4,0.008 2.442,1.088 2.569,1.796 1.709,3.994 z"
           style="fill:#ffffff" />
        <path
           inkscape:connector-curvature="0"
           id="path3155"
           d="m 25.843,7.847 h -4.232 c -0.55,0 -1,-0.45 -1,-1 V 4.284 c 0,-0.55 0.45,-1 1,-1 h 4.232 c 0.55,0 1,0.45 1,1 v 2.563 c 0,0.55 -0.45,1 -1,1 z"
           style="fill:#3b97d3" />
        <path
           inkscape:connector-curvature="0"
           id="path3157"
           d="m 40.017,14.285 h -4.232 c -0.55,0 -1,-0.45 -1,-1 v -2.563 c 0,-0.55 0.45,-1 1,-1 h 4.232 c 0.55,0 1,0.45 1,1 v 2.563 c 0,0.55 -0.45,1 -1,1 z"
           style="fill:#3b97d3" />
        <path
           inkscape:connector-curvature="0"
           id="path3159"
           d="M 12.011,14.285 H 7.78 c -0.55,0 -1,-0.45 -1,-1 v -2.563 c 0,-0.55 0.45,-1 1,-1 h 4.232 c 0.55,0 1,0.45 1,1 v 2.563 c -0.001,0.55 -0.451,1 -1.001,1 z"
           style="fill:#3b97d3" />
        <g
           id="g3161">
          <path
             inkscape:connector-curvature="0"
             id="path3163"
             d="m 33.955,17.956 c -2.211,-3.753 -5.981,-5.993 -10.086,-5.993 -3.805,0 -7.418,1.99 -9.664,5.324 l -0.931,-0.628 c 2.455,-3.644 6.416,-5.82 10.596,-5.82 4.506,0 8.639,2.447 11.054,6.546 l -0.969,0.571 z"
             style="fill:#ffffff" />
        </g>
      </g>
      <g
         transform="matrix(0.80931835,0,0,0.69610431,-1.6274804,30.844494)"
         id="g3165">
        <path
           inkscape:connector-curvature="0"
           id="path3167"
           d="m 56.532,15.972 v 3.768 h 5.931 v 1.958 H 56.532 V 27.05 H 54.331 V 13.994 h 8.766 l -0.018,1.977 h -6.547 z"
           style="fill:#3b97d3" />
        <path
           inkscape:connector-curvature="0"
           id="path3169"
           d="m 66.385,24.103 -1.249,2.947 h -2.294 l 5.762,-13.056 h 2.257 l 5.708,13.056 h -2.35 l -1.25,-2.947 h -6.584 z m 3.283,-7.759 -2.462,5.8 h 4.924 l -2.462,-5.8 z"
           style="fill:#3b97d3" />
        <path
           inkscape:connector-curvature="0"
           id="path3171"
           d="M 78.311,27.05 V 13.994 h 2.201 V 27.05 h -2.201 z"
           style="fill:#3b97d3" />
        <path
           inkscape:connector-curvature="0"
           id="path3173"
           d="m 89.841,23.096 c -0.187,0.018 -0.392,0.018 -0.597,0.018 H 86.147 V 27.05 H 83.946 V 13.994 h 5.297 c 3.338,0 5.259,1.623 5.259,4.458 0,2.089 -0.97,3.562 -2.704,4.233 l 2.928,4.365 h -2.499 l -2.386,-3.954 z m -0.597,-1.958 c 2.014,0 3.17,-0.858 3.17,-2.63 0,-1.715 -1.156,-2.536 -3.17,-2.536 h -3.097 v 5.166 h 3.097 z"
           style="fill:#3b97d3" />
        <g
           id="g3175">
          <path
             inkscape:connector-curvature="0"
             id="path3177"
             d="m 102.277,14.05 c 3.873,0 6.675,2.71 6.675,6.454 0,3.725 -2.821,6.454 -6.731,6.454 H 96.984 V 14.05 h 5.293 z m -3.116,10.954 h 3.171 c 2.508,0 4.426,-1.863 4.426,-4.482 0,-2.636 -1.973,-4.518 -4.518,-4.518 h -3.079 v 9 z"
             style="fill:#ffffff" />
          <path
             inkscape:connector-curvature="0"
             id="path3179"
             d="m 123.368,20.504 c 0,3.688 -2.986,6.546 -6.841,6.546 -3.854,0 -6.841,-2.858 -6.841,-6.546 0,-3.707 2.987,-6.51 6.841,-6.51 3.855,0 6.841,2.822 6.841,6.51 z m -11.469,0 c 0,2.563 2.121,4.592 4.648,4.592 2.527,0 4.592,-2.028 4.592,-4.592 0,-2.564 -2.065,-4.555 -4.592,-4.555 -2.546,10e-4 -4.648,1.992 -4.648,4.555 z"
             style="fill:#ffffff" />
          <path
             inkscape:connector-curvature="0"
             id="path3181"
             d="m 137.323,26.958 -0.018,-9.644 -4.076,8.298 h -1.42 l -4.075,-8.298 v 9.644 h -2.047 V 14.05 h 2.581 l 4.261,8.574 4.241,-8.574 h 2.563 v 12.908 h -2.01 z"
             style="fill:#ffffff" />
        </g>
      </g>
    </g>
  </g>
</svg>
