<?xml version="1.0" encoding="UTF-8" standalone="no"?>
<svg
   id="Layer_2"
   data-name="Layer 2"
   viewBox="0 0 911.80071 909.37154"
   version="1.1"
   sodipodi:docname="DLN_RCN.svg"
   width="911.80072"
   height="909.37152"
   inkscape:version="1.1 (c4e8f9ed74, 2021-05-24)"
   xmlns:inkscape="http://www.inkscape.org/namespaces/inkscape"
   xmlns:sodipodi="http://sodipodi.sourceforge.net/DTD/sodipodi-0.dtd"
   xmlns="http://www.w3.org/2000/svg"
   xmlns:svg="http://www.w3.org/2000/svg"
   xmlns:rdf="http://www.w3.org/1999/02/22-rdf-syntax-ns#"
   xmlns:cc="http://creativecommons.org/ns#"
   xmlns:dc="http://purl.org/dc/elements/1.1/">
  <sodipodi:namedview
     id="namedview78"
     pagecolor="#ffffff"
     bordercolor="#666666"
     borderopacity="1.0"
     inkscape:pageshadow="2"
     inkscape:pageopacity="0.0"
     inkscape:pagecheckerboard="0"
     showgrid="false"
     fit-margin-top="0"
     fit-margin-left="0"
     fit-margin-right="0"
     fit-margin-bottom="0"
     inkscape:zoom="0.35033348"
     inkscape:cx="949.09569"
     inkscape:cy="-239.77154"
     inkscape:window-width="1720"
     inkscape:window-height="1415"
     inkscape:window-x="3640"
     inkscape:window-y="0"
     inkscape:window-maximized="1"
     inkscape:current-layer="Layer_2" />
  <defs
     id="defs15">
    <style
       id="style2">.cls-1{fill:#00b493;}.cls-2{fill:url(#linear-gradient);}.cls-3{fill:#231f20;}</style>
    <linearGradient
       id="linear-gradient"
       y1="136.45"
       x2="210.28999"
       y2="136.45"
       gradientUnits="userSpaceOnUse">
      <stop
         offset="0.13"
         stop-color="#66cef6"
         id="stop4" />
      <stop
         offset="0.22"
         stop-color="#59cbea"
         id="stop6" />
      <stop
         offset="0.57"
         stop-color="#29bebb"
         id="stop8" />
      <stop
         offset="0.84"
         stop-color="#0bb79e"
         id="stop10" />
      <stop
         offset="1"
         stop-color="#00b493"
         id="stop12" />
    </linearGradient>
  </defs>
  <title
     id="title17">SDL_engelsk</title>
  <g
     id="g109"
     transform="translate(2.9362739e-4,0.02380952)">
    <circle
       class="cls-1"
       cx="223.3"
       cy="195.86"
       r="16.65"
       id="circle19" />
    <path
       class="cls-2"
       d="M 165,138.3 A 71.67,71.67 0 1 0 102.34,9.86 c -7,4.15 -14.63,3.23 -20.8,-1.61 A 23.1,23.1 0 0 0 67.25,3 22.12,22.12 0 0 0 45.13,25.12 22.37,22.37 0 0 0 53.85,42.7 c 10.21,8.05 13.1,19.91 8.7,30.42 A 28,28 0 0 1 42.28,89.65 C 18.07,94.3 0,116.07 0,141.71 a 52.92,52.92 0 0 0 33.77,49.51 c 13.5,5.16 15.69,5.94 16.29,22.47 a 61.76,61.76 0 1 0 108.2,-43.18 c -1,-1.12 -6.76,-6.11 -6.69,-14.31 0.07,-7.51 3.76,-13.54 13.43,-17.9 z"
       id="path21"
       style="fill:url(#linear-gradient)" />
    <path
       class="cls-3"
       d="M 340.6,313.16 H 106 V 78.56 H 340.6 Z M 124,295.14 H 322.58 V 96.58 H 124 Z"
       id="path23" />
    <path
       class="cls-3"
       d="m 426.65,170.15 v 12.49 a 26.44,26.44 0 0 0 -14.09,-3.88 15.38,15.38 0 0 0 -11.48,4.77 q -4.64,4.77 -4.64,12.79 0,7.85 4.64,12.45 a 16.29,16.29 0 0 0 12,4.6 22.72,22.72 0 0 0 13.59,-4.05 v 12.74 q -5.15,3.21 -14.85,3.21 -12.49,0 -20.89,-8.06 -8.4,-8.06 -8.4,-20.89 0,-13 8.14,-21.18 8.14,-8.18 21.23,-8.19 9.6,0 14.75,3.2 z"
       id="path25" />
    <path
       class="cls-3"
       d="m 452.27,214.21 h 22.28 v 10.38 h -35.36 v -56.88 h 35 v 10.38 H 452.27 V 191 h 19.58 v 10.3 h -19.58 z"
       id="path27" />
    <path
       class="cls-3"
       d="m 486.52,224.59 v -56.88 h 14.26 L 514,191.25 q 2.79,5 4.85,9.33 a 64.53,64.53 0 0 1 2.66,6.12 l 0.68,1.86 a 136.57,136.57 0 0 1 -0.84,-17.3 v -23.55 h 13 V 224.6 H 520.11 L 506.52,201 q -2.7,-4.56 -4.77,-9 -2.07,-4.44 -2.83,-6.54 l -0.67,-2.11 a 108.49,108.49 0 0 1 1.26,17.65 v 23.55 z"
       id="path29" />
    <path
       class="cls-3"
       d="m 584.37,167.71 v 10.47 h -13.84 v 46.42 h -13.08 v -46.43 h -13.93 v -10.46 z"
       id="path31" />
    <path
       class="cls-3"
       d="m 623.09,224.59 -12.32,-19.75 h -4 v 19.75 h -13 v -56.88 h 19.67 q 9.54,0 15.32,5.06 a 16.68,16.68 0 0 1 5.78,13.17 q 0,12.15 -10.38,16.8 l 14.43,21.86 z M 606.8,178.26 v 16 h 6.2 q 8.44,0 8.44,-8.27 a 7.46,7.46 0 0 0 -2.19,-5.7 8.39,8.39 0 0 0 -6,-2.07 z"
       id="path33" />
    <path
       class="cls-3"
       d="m 660.13,214.21 h 22.28 v 10.38 H 647 v -56.88 h 35 v 10.38 H 660.13 V 191 h 19.58 v 10.3 h -19.58 z"
       id="path35" />
    <path
       class="cls-3"
       d="m 843,267.09 h -21.66 v 14.69 h 18.82 v 10.38 H 821.34 V 313.6 H 808.26 V 256.71 H 843 Z"
       id="path37" />
    <path
       class="cls-3"
       d="m 868.3,303.21 h 22.28 v 10.38 h -35.36 v -56.88 h 35 v 10.38 H 868.3 V 280 h 19.58 v 10.3 H 868.3 Z"
       id="path39" />
    <path
       class="cls-3"
       d="m 384.62,402.59 v -56.88 h 14.26 l 13.25,23.55 q 2.79,5 4.85,9.33 a 64.53,64.53 0 0 1 2.66,6.12 l 0.68,1.86 a 136.56,136.56 0 0 1 -0.84,-17.3 v -23.56 h 13 V 402.6 H 418.21 L 404.62,379 q -2.7,-4.56 -4.77,-9 -2.07,-4.44 -2.85,-6.49 l -0.67,-2.11 a 108.49,108.49 0 0 1 1.28,17.6 v 23.55 z"
       id="path41" />
    <path
       class="cls-3"
       d="m 446.15,374 q 0,-13.08 7.55,-21.14 7.55,-8.06 20.13,-8.06 12.66,0 20.17,8 7.51,8 7.52,21.2 0,13.08 -7.55,21.14 -7.55,8.06 -20.13,8.06 -12.66,0 -20.17,-8 -7.51,-8 -7.52,-21.2 z m 17.64,-12.7 q -3.71,4.68 -3.71,12.7 0,8.02 3.71,12.7 a 13.11,13.11 0 0 0 20.09,0 q 3.71,-4.68 3.71,-12.7 0,-8.02 -3.71,-12.7 a 13.11,13.11 0 0 0 -20.09,0 z"
       id="path43" />
    <path
       class="cls-3"
       d="M 543.92,402.59 531.6,382.84 h -4 v 19.75 h -13 v -56.88 h 19.67 q 9.54,0 15.32,5.06 a 16.68,16.68 0 0 1 5.78,13.17 q 0,12.15 -10.38,16.8 l 14.43,21.86 z m -16.29,-46.34 v 16 h 6.16 q 8.44,0 8.44,-8.27 a 7.46,7.46 0 0 0 -2.19,-5.7 8.39,8.39 0 0 0 -6,-2.07 z"
       id="path45" />
    <path
       class="cls-3"
       d="m 600.46,346.55 h 9.62 l 5.57,20.09 q 1.77,6.33 3.17,11.77 1.4,5.44 1.9,7.72 l 0.51,2.28 q 1.1,-7.51 4.73,-21.86 l 5.23,-20.85 h 13.25 l -15.19,56.89 h -14.53 l -5,-18 q -1.77,-6.5 -2.91,-11 -1.14,-4.5 -1.39,-5.74 l -0.17,-1.27 q -0.25,3.46 -4.56,18 l -5.23,18 H 581 l -15.28,-56.89 h 13.67 l 5.23,20.93 q 1.69,6.75 2.79,12.2 1.1,5.45 1.35,7.55 l 0.34,2 q 1.43,-6.58 5.74,-21.77 z"
       id="path47" />
    <path
       class="cls-3"
       d="m 688.4,402.59 -3.46,-11.65 H 665 l -3.46,11.65 H 648 l 19,-56.89 h 16.37 l 19,56.89 z m -20.26,-22.11 h 13.67 l -0.59,-2 q -2.45,-8.27 -4,-14.09 -1.55,-5.82 -1.9,-7.51 l -0.34,-1.69 q -0.68,4.64 -6.25,23.29 z"
       id="path49" />
    <path
       class="cls-3"
       d="m 753.47,345.71 -19.67,36 v 20.93 h -13 v -20.9 l -19.41,-36 h 15.19 l 3.46,8.27 q 2.7,6.41 4.47,11 1.77,4.59 2.28,5.91 l 0.42,1.35 q 0.84,-3.8 7.43,-18.23 l 3.71,-8.27 z"
       id="path51" />
    <path
       class="cls-3"
       d="m 383,256.42 h 19.58 q 12.83,0 21,7.89 a 26.15,26.15 0 0 1 8.19,19.62 q 0,13.67 -8.06,21.52 -8.06,7.85 -21.31,7.85 H 383 Z m 13.33,46.25 h 5.91 q 7.85,0 12.11,-4.89 4.26,-4.89 4.26,-13.84 0,-7.6 -4.3,-12.2 -4.3,-4.6 -12.15,-4.6 h -5.82 z"
       id="path53" />
    <path
       class="cls-3"
       d="m 442.47,313.31 v -56.89 h 13 v 56.89 z"
       id="path55" />
    <path
       class="cls-3"
       d="m 517.74,279.38 v 28.7 q -8.1,5.91 -20.42,5.91 -13.67,0 -22.2,-7.85 -8.53,-7.85 -8.52,-21.35 0,-13.33 8.9,-21.35 8.9,-8.02 22.58,-8 A 36.42,36.42 0 0 1 514.7,259 v 13 a 33.07,33.07 0 0 0 -16.63,-4.64 q -8,0 -12.74,4.77 -4.74,4.77 -4.73,12.7 0,8 4.64,12.74 4.64,4.74 12.66,4.73 a 24.14,24.14 0 0 0 7.17,-1.1 v -10.76 h -9.2 v -11.06 z"
       id="path57" />
    <path
       class="cls-3"
       d="m 533.23,313.31 v -56.89 h 13 v 56.89 z"
       id="path59" />
    <path
       class="cls-3"
       d="m 596.92,256.42 v 10.47 h -13.84 v 46.42 H 570 v -46.42 h -13.93 v -10.47 z"
       id="path61" />
    <path
       class="cls-3"
       d="M 637.42,313.31 634,301.66 h -20 l -3.46,11.65 H 597 l 19,-56.89 h 16.37 l 19,56.89 z M 617.16,291.2 h 13.67 l -0.59,-2 q -2.45,-8.27 -4,-14.09 -1.55,-5.82 -1.9,-7.51 L 624,265.91 q -0.68,4.64 -6.25,23.29 z"
       id="path63" />
    <path
       class="cls-3"
       d="m 674.88,301.91 h 21 v 11.39 h -34 v -56.88 h 13 z"
       id="path65" />
    <path
       class="cls-3"
       d="m 744.38,301.91 h 21 v 11.39 h -34 v -56.88 h 13 z"
       id="path67" />
    <path
       class="cls-3"
       d="m 778.65,313.31 v -56.89 h 13 v 56.89 z"
       id="path69" />
    <path
       class="cls-3"
       d="m 754.27,178.09 h -21.61 v 14.69 h 18.82 v 10.38 h -18.82 v 21.44 h -13.08 v -56.89 h 34.69 z"
       id="path71" />
    <path
       class="cls-3"
       d="m 761.44,196 q 0,-13.08 7.55,-21.14 7.55,-8.06 20.13,-8.06 12.66,0 20.17,8 7.51,8 7.51,21.2 0,13.08 -7.55,21.14 -7.55,8.06 -20.13,8.06 -12.66,0 -20.17,-8 -7.51,-8 -7.51,-21.2 z m 17.64,-12.7 q -3.71,4.68 -3.71,12.7 0,8.02 3.71,12.7 a 13.11,13.11 0 0 0 20.09,0 q 3.71,-4.68 3.71,-12.7 0,-8.02 -3.71,-12.7 a 13.11,13.11 0 0 0 -20.09,0 z"
       id="path73" />
    <path
       class="cls-3"
       d="m 855.93,224.59 -12.32,-19.75 h -4 v 19.75 h -13 v -56.88 h 19.67 q 9.54,0 15.32,5.06 a 16.68,16.68 0 0 1 5.78,13.17 q 0,12.15 -10.38,16.8 l 14.43,21.86 z m -16.29,-46.34 v 16 h 6.16 q 8.44,0 8.44,-8.27 a 7.46,7.46 0 0 0 -2.19,-5.7 8.39,8.39 0 0 0 -6,-2.07 z"
       id="path75" />
  </g>
  <metadata
     id="metadata344">
    <rdf:RDF>
      <cc:Work
         rdf:about="">
        <dc:title>SDL_engelsk</dc:title>
      </cc:Work>
    </rdf:RDF>
  </metadata>
  <g
     id="g10"
     transform="matrix(0.12652531,0,0,-0.12652531,5.8642835,909.3715)">
    <path
       d="M 3580.07,0 V 3580.06 H 0 V 0 h 3580.07"
       style="fill:#e5ebef;fill-opacity:1;fill-rule:nonzero;stroke:none"
       id="path12" />
    <path
       d="M 7160.12,0 V 3580.06 H 3580.07 V 0 h 3580.05"
       style="fill:#28448e;fill-opacity:1;fill-rule:nonzero;stroke:none"
       id="path14" />
    <path
       d="m 4263.33,2366.57 h -44.41 l -38.11,138.2 c -3.98,13.59 -6.3,27.85 -8.62,42.09 h -0.33 c -1.66,-13.91 -4.31,-27.51 -7.96,-41.42 l -37.78,-138.87 h -42.42 l -58,223.71 h 38.45 l 34.46,-135.89 c 3.98,-14.91 6.63,-29.16 8.62,-44.07 h 0.34 c 2.31,14.58 4.97,28.83 8.94,42.42 l 38.12,137.54 h 39.43 l 39.11,-137.87 c 3.31,-11.93 6.63,-26.84 8.95,-41.09 h 0.33 c 2.32,13.91 4.64,26.84 7.96,39.1 l 34.79,139.86 h 36.13 l -58,-223.71"
       style="fill:#ffffff;fill-opacity:1;fill-rule:nonzero;stroke:none"
       id="path16" />
    <path
       d="m 4349.8,2366.57 v 164.72 h 35.46 v -164.72 z m 17.9,193.88 c -12.6,0 -22.87,9.62 -22.87,22.21 0,12.26 10.27,22.2 22.87,22.2 12.26,0 22.54,-9.94 22.54,-22.2 0,-12.26 -10.28,-22.21 -22.54,-22.21"
       style="fill:#ffffff;fill-opacity:1;fill-rule:nonzero;stroke:none"
       id="path18" />
    <path
       d="m 4486.33,2363.59 c -35.13,0 -45.74,13.59 -45.74,50.37 v 89.82 h -31.48 v 27.51 h 31.48 v 52.36 l 35.46,9.61 v -61.97 h 43.09 v -27.51 h -43.09 v -78.88 c 0,-24.52 4.97,-31.15 21.54,-31.15 7.3,0 14.25,0.99 20.22,2.31 l 2.99,-28.49 c -9.94,-2.33 -23.54,-3.98 -34.47,-3.98"
       style="fill:#ffffff;fill-opacity:1;fill-rule:nonzero;stroke:none"
       id="path20" />
    <path
       d="m 4657,2366.57 v 105.72 c 0,20.55 -5.64,32.82 -24.53,32.82 -24.86,0 -43.09,-26.19 -43.09,-59.33 v -79.21 h -35.46 v 241.93 h 35.46 v -74.89 c 0,-10.28 -0.65,-23.87 -2.98,-33.14 l 0.67,-0.33 c 9.61,20.87 29.16,34.46 56,34.46 37.45,0 49.06,-23.86 49.06,-52.7 V 2366.57 H 4657"
       style="fill:#ffffff;fill-opacity:1;fill-rule:nonzero;stroke:none"
       id="path22" />
    <path
       d="m 4906.18,2578.68 c -7.3,2.32 -15.25,3.31 -22.54,3.31 -21.21,0 -30.82,-11.59 -30.82,-37.45 v -13.25 h 42.75 v -27.51 h -42.75 v -137.21 h -35.13 v 137.21 h -31.49 v 27.51 h 31.49 v 12.6 c 0,45.06 21.54,66.94 64.29,66.94 9.29,0 18.23,-1 26.85,-2.98 l -2.65,-29.17"
       style="fill:#ffffff;fill-opacity:1;fill-rule:nonzero;stroke:none"
       id="path24" />
    <path
       d="m 5027.13,2366.57 c 0,8.95 0.66,23.2 2.32,32.48 h -0.33 c -9.61,-21.21 -29.49,-35.79 -57.34,-35.79 -37.45,0 -49.05,23.86 -49.05,52.7 v 115.33 h 35.13 v -105.72 c 0,-20.55 5.63,-32.82 24.53,-32.82 24.85,0 43.09,26.18 43.09,59.33 v 79.21 h 35.45 v -164.72 h -33.8"
       style="fill:#ffffff;fill-opacity:1;fill-rule:nonzero;stroke:none"
       id="path26" />
    <path
       d="m 5212.37,2366.57 v 105.72 c 0,20.55 -5.63,32.82 -24.53,32.82 -24.85,0 -43.09,-26.19 -43.09,-59.33 v -79.21 h -35.46 v 164.72 h 33.81 c 0,-8.95 -0.66,-23.21 -2.32,-32.48 h 0.33 c 9.61,21.21 29.5,35.79 57.33,35.79 37.46,0 49.06,-23.86 49.06,-52.7 v -115.33 h -35.13"
       style="fill:#ffffff;fill-opacity:1;fill-rule:nonzero;stroke:none"
       id="path28" />
    <path
       d="m 5393.64,2502.78 c -8.96,1.99 -17.57,2.99 -26.18,2.99 -28.18,0 -47.39,-17.24 -47.39,-61.65 0,-33.13 10.27,-51.7 32.8,-51.7 26.18,0 40.77,31.15 40.77,59.33 z m 1.65,-136.21 c 0,8.61 0.66,21.54 2.32,30.82 h -0.66 c -8.95,-20.21 -28.17,-34.13 -53.69,-34.13 -40.43,0 -60.65,29.82 -60.65,77.55 0,56.67 32.81,93.12 86.17,93.12 7.96,0 15.9,-0.65 24.86,-1.31 v 75.88 h 35.13 v -241.93 h -33.48"
       style="fill:#ffffff;fill-opacity:1;fill-rule:nonzero;stroke:none"
       id="path30" />
    <path
       d="m 5477.13,2366.57 v 164.72 h 35.45 v -164.72 z m 17.9,193.88 c -12.6,0 -22.87,9.62 -22.87,22.21 0,12.26 10.27,22.2 22.87,22.2 12.25,0 22.54,-9.94 22.54,-22.2 0,-12.26 -10.29,-22.21 -22.54,-22.21"
       style="fill:#ffffff;fill-opacity:1;fill-rule:nonzero;stroke:none"
       id="path32" />
    <path
       d="m 5664.03,2366.57 v 105.72 c 0,20.55 -5.63,32.82 -24.53,32.82 -24.85,0 -43.09,-26.19 -43.09,-59.33 v -79.21 h -35.46 v 164.72 h 33.81 c 0,-8.95 -0.66,-23.21 -2.32,-32.48 h 0.33 c 9.61,21.21 29.5,35.79 57.33,35.79 37.46,0 49.06,-23.86 49.06,-52.7 v -115.33 h -35.13"
       style="fill:#ffffff;fill-opacity:1;fill-rule:nonzero;stroke:none"
       id="path34" />
    <path
       d="m 5808.5,2508.42 c -22.2,0 -35.13,-14.25 -35.13,-33.15 0,-20.54 12.26,-32.8 34.47,-32.8 21.54,0 34.79,12.26 34.79,32.8 0,20.23 -12.25,33.15 -34.13,33.15 z m 18.23,-142.18 -30.16,1 c -2.99,0 -6.3,0 -8.95,0 -11.27,-7.96 -18.56,-17.91 -18.56,-29.17 0,-17.56 16.57,-28.17 40.43,-28.17 30.83,0 47.72,13.92 47.72,31.82 0,14.25 -9.27,23.52 -30.48,24.52 z m -22.88,-83.85 c -43.07,0 -69.92,17.24 -69.92,49.39 0,18.22 12.59,34.46 26.85,42.42 -9.95,4.3 -16.24,13.58 -16.24,24.85 0,11.94 7.62,23.19 18.88,28.51 -15.24,8.61 -24.52,23.52 -24.52,45.07 0,33.14 24.52,61.97 71.25,61.97 9.62,0 16.24,-1.32 24.87,-3.31 h 56 v -27.84 h -25.18 c 6.96,-5.97 10.93,-15.25 10.93,-26.19 0,-34.46 -23.2,-59.65 -69.93,-59.65 -5.96,0 -10.27,0.66 -15.57,1.99 -6.3,-2.98 -9.61,-7.96 -9.61,-12.27 0,-8.61 7.61,-10.93 27.17,-11.92 l 27.84,-1 c 35.8,-1.33 55.68,-17.23 55.68,-47.72 0,-35.47 -35.47,-64.3 -88.5,-64.3"
       style="fill:#ffffff;fill-opacity:1;fill-rule:nonzero;stroke:none"
       id="path36" />
    <path
       d="m 6089.84,2578.68 c -7.29,2.32 -15.24,3.31 -22.54,3.31 -21.21,0 -30.82,-11.59 -30.82,-37.45 v -13.25 h 42.76 v -27.51 h -42.76 v -137.21 h -35.13 v 137.21 h -31.48 v 27.51 h 31.48 v 12.6 c 0,45.06 21.55,66.94 64.29,66.94 9.29,0 18.23,-1 26.85,-2.98 l -2.65,-29.17"
       style="fill:#ffffff;fill-opacity:1;fill-rule:nonzero;stroke:none"
       id="path38" />
    <path
       d="m 6190.57,2499.47 c -32.81,6.3 -48.72,-16.57 -48.72,-65.96 v -66.94 h -35.46 v 164.72 h 33.81 c 0,-9.28 -0.99,-23.87 -3.32,-36.46 h 0.67 c 7.29,22.21 23.86,42.76 54.68,39.44 l -1.66,-34.8"
       style="fill:#ffffff;fill-opacity:1;fill-rule:nonzero;stroke:none"
       id="path40" />
    <path
       d="m 6282.05,2504.77 c -21.55,0 -42.42,-16.57 -42.42,-54.35 0,-37.12 14.58,-56.67 42.09,-56.67 22.87,0 42.09,17.89 42.09,56 0,35.14 -13.59,55.02 -41.76,55.02 z m -3.64,-141.51 c -45.75,0 -75.57,25.52 -75.57,83.52 0,49.7 32.15,87.82 82.19,87.82 44.08,0 75.23,-24.52 75.23,-82.52 0,-50.71 -33.14,-88.82 -81.85,-88.82"
       style="fill:#ffffff;fill-opacity:1;fill-rule:nonzero;stroke:none"
       id="path42" />
    <path
       d="m 6597.87,2366.57 v 105.06 c 0,20.21 -4.97,33.48 -23.87,33.48 -21.21,0 -42.42,-23.54 -42.42,-59.99 v -78.55 h -34.8 v 105.06 c 0,18.9 -3.97,33.48 -23.86,33.48 -22.53,0 -42.09,-25.19 -42.09,-59.99 v -78.55 h -35.46 v 164.72 h 33.81 c 0,-8.95 -0.67,-22.54 -2.33,-32.48 l 0.67,-0.33 c 9.61,21.87 30.15,36.12 55.68,36.12 32.47,0 43.08,-20.88 45.73,-35.46 6.97,15.58 25.19,35.46 55.02,35.46 31.49,0 49.04,-17.23 49.04,-54.35 v -113.68 h -35.12"
       style="fill:#ffffff;fill-opacity:1;fill-rule:nonzero;stroke:none"
       id="path44" />
    <path
       d="m 4331.56,1626.55 v -214.86 h -61.46 v 214.86 h -64.21 v 52.73 h 189.89 v -52.73 h -64.22"
       style="fill:#ffffff;fill-opacity:1;fill-rule:nonzero;stroke:none"
       id="path46" />
    <path
       d="m 4542.41,1411.69 v 125.27 c 0,15.85 -4.36,25.37 -18.23,25.37 -21.41,0 -39.25,-26.56 -39.25,-55.5 v -95.14 h -60.26 v 289.38 h 60.26 v -78.88 c 0,-11.5 -0.79,-28.15 -3.17,-40.43 h 0.4 c 11.49,18.63 32.9,31.31 62.23,31.31 44.01,0 58.28,-28.54 58.28,-62.63 v -138.75 h -60.26"
       style="fill:#ffffff;fill-opacity:1;fill-rule:nonzero;stroke:none"
       id="path48" />
    <path
       d="m 4731.46,1569.46 c -17.44,0 -30.13,-13.87 -32.11,-34.48 h 59.87 c 0.79,22.6 -10.32,34.48 -27.76,34.48 z m 85.24,-74.52 h -117.35 c 0.4,-25.77 16.26,-40.83 48.76,-40.83 19.04,0 38.85,3.96 57.88,12.29 l 5.95,-45.59 c -22.6,-9.12 -49.55,-13.49 -73.74,-13.49 -64.22,0 -99.89,31.32 -99.89,100.7 0,60.65 33.69,105.45 94.74,105.45 59.47,0 85.63,-40.04 85.63,-91.58 0,-8.32 -0.79,-17.04 -1.98,-26.95"
       style="fill:#ffffff;fill-opacity:1;fill-rule:nonzero;stroke:none"
       id="path50" />
    <path
       d="m 5021.19,1630.52 c -6.35,0 -13.48,-0.4 -17.05,-0.79 v -68.59 c 3.17,-0.4 9.52,-0.79 15.46,-0.79 26.17,0 42.82,13.87 42.82,36.47 0,21.01 -12.3,33.7 -41.23,33.7 z m 48.76,-218.83 -62.24,104.66 h -3.57 v -104.66 h -61.84 v 267.59 c 22.59,1.58 51.53,1.98 83.64,1.98 63.03,0 101.09,-22.6 101.09,-79.29 0,-36.07 -23.78,-65.41 -57.48,-74.13 7.14,-10.3 14.28,-20.21 20.61,-30.13 l 55.11,-86.02 h -75.32"
       style="fill:#ffffff;fill-opacity:1;fill-rule:nonzero;stroke:none"
       id="path52" />
    <path
       d="m 5248.28,1569.46 c -17.44,0 -30.13,-13.87 -32.11,-34.48 h 59.86 c 0.79,22.6 -10.31,34.48 -27.75,34.48 z m 85.23,-74.52 h -117.34 c 0.4,-25.77 16.26,-40.83 48.76,-40.83 19.03,0 38.85,3.96 57.88,12.29 l 5.95,-45.59 c -22.6,-9.12 -49.55,-13.49 -73.74,-13.49 -64.22,0 -99.9,31.32 -99.9,100.7 0,60.65 33.7,105.45 94.75,105.45 59.46,0 85.62,-40.04 85.62,-91.58 0,-8.32 -0.79,-17.04 -1.98,-26.95"
       style="fill:#ffffff;fill-opacity:1;fill-rule:nonzero;stroke:none"
       id="path54" />
    <path
       d="m 5409.98,1407.32 c -15.46,0 -30.92,1.99 -43.61,5.56 l 3.18,49.15 c 11.89,-5.15 26.56,-7.92 41.23,-7.92 15.06,0 24.18,5.94 24.18,15.46 0,28.93 -72.55,12.68 -72.55,78.09 0,36.08 26.96,65.81 87.22,65.81 10.7,0 23.38,-1.59 34.48,-3.57 l -1.97,-47.18 c -9.92,3.58 -22.6,5.16 -34.11,5.16 -15.45,0 -22.58,-5.95 -22.58,-15.07 0,-26.16 73.73,-15.06 73.73,-78.09 0,-41.63 -35.68,-67.4 -89.2,-67.4"
       style="fill:#ffffff;fill-opacity:1;fill-rule:nonzero;stroke:none"
       id="path56" />
    <path
       d="m 5616.88,1569.46 c -17.44,0 -30.13,-13.87 -32.11,-34.48 h 59.87 c 0.79,22.6 -10.32,34.48 -27.76,34.48 z m 85.24,-74.52 h -117.35 c 0.4,-25.77 16.26,-40.83 48.76,-40.83 19.04,0 38.85,3.96 57.88,12.29 l 5.95,-45.59 c -22.6,-9.12 -49.55,-13.49 -73.74,-13.49 -64.22,0 -99.89,31.32 -99.89,100.7 0,60.65 33.69,105.45 94.74,105.45 59.47,0 85.63,-40.04 85.63,-91.58 0,-8.32 -0.79,-17.04 -1.98,-26.95"
       style="fill:#ffffff;fill-opacity:1;fill-rule:nonzero;stroke:none"
       id="path58" />
    <path
       d="m 5841.22,1497.31 c -42.41,0 -53.91,-10.7 -53.91,-25.37 0,-10.3 7.13,-18.63 19.82,-18.63 20.21,0 34.09,18.24 34.09,37.67 z m 5.55,-85.62 c 0,9.51 0,19.82 1.59,29.73 h -0.4 c -9.52,-20.61 -32.9,-34.1 -60.26,-34.1 -37.65,0 -57.48,25.77 -57.48,58.28 0,49.56 46.38,69.77 111,69.77 v 7.93 c 0,16.25 -9.11,24.18 -35.29,24.18 -17.44,0 -38.44,-5.55 -54.3,-13.08 l -10.3,47.17 c 20.61,7.14 49.15,12.3 74.92,12.3 66.6,0 85.62,-25.38 85.62,-68.59 v -86.81 c 0,-14.27 0.4,-31.32 1.58,-46.78 h -56.68"
       style="fill:#ffffff;fill-opacity:1;fill-rule:nonzero;stroke:none"
       id="path60" />
    <path
       d="m 6060.01,1553.61 c -32.91,7.53 -50.35,-11.5 -50.35,-60.65 v -81.27 h -60.26 v 197.02 h 56.29 c 0,-8.32 -0.79,-22.6 -2.77,-34.88 h 0.79 c 10.31,23.39 28.94,41.23 59.07,39.64 l -2.77,-59.86"
       style="fill:#ffffff;fill-opacity:1;fill-rule:nonzero;stroke:none"
       id="path62" />
    <path
       d="m 6168.22,1407.32 c -59.85,0 -90.38,33.3 -90.38,96.73 0,59.46 31.71,109.02 103.07,109.02 13.47,0 27.75,-2.38 40.03,-6.34 l -9.12,-52.33 c -9.9,4.36 -20.6,6.74 -31.31,6.74 -26.96,0 -39.64,-20.21 -39.64,-52.33 0,-30.13 12.68,-48.76 39.64,-48.76 11.5,0 23.39,1.98 33.3,6.75 l 7.13,-50.75 c -14.66,-5.55 -34.49,-8.73 -52.72,-8.73"
       style="fill:#ffffff;fill-opacity:1;fill-rule:nonzero;stroke:none"
       id="path64" />
    <path
       d="m 6372.75,1411.69 v 125.27 c 0,15.85 -4.35,25.37 -18.23,25.37 -21.41,0 -39.25,-26.56 -39.25,-55.5 v -95.14 h -60.25 v 289.38 h 60.25 v -78.88 c 0,-11.5 -0.79,-28.15 -3.16,-40.43 h 0.39 c 11.49,18.63 32.9,31.31 62.23,31.31 44.01,0 58.28,-28.54 58.28,-62.63 v -138.75 h -60.26"
       style="fill:#ffffff;fill-opacity:1;fill-rule:nonzero;stroke:none"
       id="path66" />
    <path
       d="m 3931.07,930.68 c -98.71,0 -125.26,66.992 -125.26,127.65 0,86.82 47.17,145.49 135.57,145.49 18.64,0 38.45,-2.39 54.71,-7.54 l -7.93,-56.29 c -15.07,5.55 -31.32,8.33 -47.97,8.33 -43.21,0 -66.6,-31.32 -66.6,-79.69 0,-52.72 21.41,-81.661 69.78,-81.661 13.86,0 32.9,3.57 45.58,9.91 l 8.72,-54.699 c -19.03,-7.141 -43.6,-11.5 -66.6,-11.5"
       style="fill:#ffffff;fill-opacity:1;fill-rule:nonzero;stroke:none"
       id="path68" />
    <path
       d="m 4116.93,1084.09 c -19.03,0 -37.67,-14.67 -37.67,-49.15 0,-36.069 11.51,-52.721 36.48,-52.721 21.81,0 36.86,18.231 36.86,51.131 0,33.7 -10.7,50.74 -35.67,50.74 z m -5.55,-154.211 c -57.09,0 -94.74,28.16 -94.74,98.321 0,64.22 44,107.43 104.26,107.43 59.85,0 94.34,-33.3 94.34,-98.71 0,-63.83 -44.39,-107.041 -103.86,-107.041"
       style="fill:#ffffff;fill-opacity:1;fill-rule:nonzero;stroke:none"
       id="path70" />
    <path
       d="m 4371.78,934.25 c 0,7.531 0.4,21.398 2.39,30.91 l -0.79,0.41 c -11.9,-20.621 -33.71,-35.691 -65.02,-35.691 -44.01,0 -58.68,28.551 -58.68,62.641 v 138.75 h 60.66 v -125.28 c 0,-15.842 4.36,-25.369 18.24,-25.369 21.41,0 38.85,26.569 38.85,55.109 v 95.54 h 60.65 V 934.25 h -56.3"
       style="fill:#ffffff;fill-opacity:1;fill-rule:nonzero;stroke:none"
       id="path72" />
    <path
       d="m 4592.16,934.25 v 125.27 c 0,15.85 -4.36,25.37 -18.24,25.37 -21.4,0 -39.25,-26.56 -39.25,-55.11 v -95.53 h -60.25 v 197.02 h 56.29 c 0,-7.53 -0.39,-21.41 -2.37,-30.92 l 0.39,-0.4 c 12.29,20.62 34.09,35.68 65.41,35.68 44,0 58.28,-28.54 58.28,-62.63 V 934.25 h -60.26"
       style="fill:#ffffff;fill-opacity:1;fill-rule:nonzero;stroke:none"
       id="path74" />
    <path
       d="m 4778.43,929.879 c -59.85,0 -90.38,33.301 -90.38,96.731 0,59.46 31.71,109.02 103.07,109.02 13.48,0 27.75,-2.38 40.04,-6.34 l -9.12,-52.33 c -9.9,4.36 -20.61,6.74 -31.31,6.74 -26.96,0 -39.65,-20.21 -39.65,-52.33 0,-30.13 12.69,-48.761 39.65,-48.761 11.49,0 23.39,1.981 33.29,6.743 l 7.14,-50.743 c -14.67,-5.55 -34.49,-8.73 -52.73,-8.73"
       style="fill:#ffffff;fill-opacity:1;fill-rule:nonzero;stroke:none"
       id="path76" />
    <path
       d="m 4865.22,934.25 v 197.02 h 60.26 V 934.25 Z m 30.13,220.02 c -20.22,0 -36.87,15.85 -36.87,35.67 0,19.42 16.65,35.67 36.87,35.67 20.61,0 37.26,-15.85 37.26,-35.67 0,-19.82 -16.65,-35.67 -37.26,-35.67"
       style="fill:#ffffff;fill-opacity:1;fill-rule:nonzero;stroke:none"
       id="path78" />
    <path
       d="m 4972.63,934.25 v 289.38 h 60.26 V 934.25 h -60.26"
       style="fill:#ffffff;fill-opacity:1;fill-rule:nonzero;stroke:none"
       id="path80" />
    <path
       d="m 5254.45,1084.09 c -19.03,0 -37.67,-14.67 -37.67,-49.15 0,-36.069 11.51,-52.721 36.48,-52.721 21.81,0 36.86,18.231 36.86,51.131 0,33.7 -10.7,50.74 -35.67,50.74 z m -5.55,-154.211 c -57.09,0 -94.74,28.16 -94.74,98.321 0,64.22 44,107.43 104.25,107.43 59.86,0 94.35,-33.3 94.35,-98.71 0,-63.83 -44.39,-107.041 -103.86,-107.041"
       style="fill:#ffffff;fill-opacity:1;fill-rule:nonzero;stroke:none"
       id="path82" />
    <path
       d="m 5508.08,1174.87 c -7.14,2.38 -15.06,3.58 -21.8,3.58 -18.24,0 -26.56,-8.72 -26.56,-29.74 v -17.44 h 40.43 v -46.38 h -40.43 V 934.25 h -60.26 v 150.64 h -30.13 v 46.38 h 30.13 v 17.05 c 0,52.32 23.4,78.89 80.88,78.89 10.3,0 21.4,-0.8 31.71,-3.18 l -3.97,-49.16"
       style="fill:#ffffff;fill-opacity:1;fill-rule:nonzero;stroke:none"
       id="path84" />
    <path
       d="m 5765.71,934.25 -63.04,115.36 c -11.09,20.61 -20.61,41.23 -27.74,58.67 1.19,-19.82 1.98,-46.78 1.98,-72.15 V 934.25 h -59.46 v 267.58 h 79.28 l 58.67,-105.84 c 11.89,-21.8 23,-45.19 32.51,-65.81 -1.99,22.99 -2.78,58.28 -2.78,83.65 v 88 h 59.47 V 934.25 h -78.89"
       style="fill:#ffffff;fill-opacity:1;fill-rule:nonzero;stroke:none"
       id="path86" />
    <path
       d="m 5979.72,1084.09 c -19.03,0 -37.66,-14.67 -37.66,-49.15 0,-36.069 11.5,-52.721 36.47,-52.721 21.81,0 36.87,18.231 36.87,51.131 0,33.7 -10.71,50.74 -35.68,50.74 z m -5.54,-154.211 c -57.09,0 -94.75,28.16 -94.75,98.321 0,64.22 44,107.43 104.26,107.43 59.85,0 94.34,-33.3 94.34,-98.71 0,-63.83 -44.39,-107.041 -103.85,-107.041"
       style="fill:#ffffff;fill-opacity:1;fill-rule:nonzero;stroke:none"
       id="path88" />
    <path
       d="m 6223.49,1076.17 c -32.91,7.53 -50.35,-11.5 -50.35,-60.65 v -81.27 h -60.25 v 197.02 h 56.29 c 0,-8.32 -0.79,-22.6 -2.78,-34.88 h 0.79 c 10.32,23.38 28.95,41.23 59.08,39.63 l -2.78,-59.85"
       style="fill:#ffffff;fill-opacity:1;fill-rule:nonzero;stroke:none"
       id="path90" />
    <path
       d="m 6487.48,934.25 h -64.22 l -21.81,68.58 c -4.36,14.27 -7.53,28.94 -11.49,47.17 h -0.4 c -3.57,-18.63 -7.93,-33.3 -12.69,-49.55 l -19.82,-66.2 h -60.65 l -59.86,197.02 h 65.81 l 15.06,-54.71 c 5.55,-19.82 11.1,-40.83 16.25,-64.22 h 0.8 c 3.96,24.18 9.11,43.22 14.67,61.45 l 17.04,57.48 h 55.9 l 17.44,-54.31 c 6.74,-21.8 12.28,-42.02 16.65,-64.62 h 0.79 c 4.37,22.6 8.33,42.02 13.88,61.45 l 16.25,57.48 h 61.84 l -61.44,-197.02"
       style="fill:#ffffff;fill-opacity:1;fill-rule:nonzero;stroke:none"
       id="path92" />
    <path
       d="m 6666.98,1019.87 c -42.41,0 -53.91,-10.7 -53.91,-25.37 0,-10.301 7.13,-18.629 19.82,-18.629 20.21,0 34.09,18.238 34.09,37.659 z m 5.56,-85.62 c 0,9.512 0,19.82 1.58,29.73 h -0.4 c -9.51,-20.609 -32.9,-34.101 -60.26,-34.101 -37.65,0 -57.48,25.769 -57.48,58.281 0,49.55 46.38,69.77 111,69.77 v 7.93 c 0,16.25 -9.11,24.18 -35.28,24.18 -17.45,0 -38.45,-5.55 -54.31,-13.08 l -10.3,47.17 c 20.61,7.14 49.15,12.29 74.92,12.29 66.6,0 85.62,-25.37 85.62,-68.58 v -86.82 c 0,-14.258 0.4,-31.309 1.59,-46.77 h -56.68"
       style="fill:#ffffff;fill-opacity:1;fill-rule:nonzero;stroke:none"
       id="path94" />
    <path
       d="m 6874.69,926.719 c -26.95,-71.36 -57.08,-89.59 -103.06,-89.59 -9.12,0 -22.2,1.18 -30.53,2.769 l 6.74,51.532 c 7.93,-2.379 17.44,-3.961 26.17,-3.961 13.87,0 31.71,6.34 40.04,32.113 l 4.76,14.668 -71.36,197.02 h 66.6 l 19.81,-57.48 c 5.95,-16.65 11.5,-38.46 15.86,-57.48 h 0.4 c 4.76,19.82 13.08,47.18 18.63,63.43 l 17.84,51.53 h 64.62 l -76.52,-204.551"
       style="fill:#ffffff;fill-opacity:1;fill-rule:nonzero;stroke:none"
       id="path96" />
    <path
       d="m 2249.73,1002.01 -442.01,763.89 c -3.53,5.73 -9.87,9.6 -17.1,9.6 -7.17,0 -13.37,-3.8 -16.97,-9.41 L 1331.9,1001.46 c -2.3,-3.331 -3.7,-7.53 -3.7,-12.128 0,-11.203 8.34,-20.402 18.54,-20.402 h 888.43 c 10.2,0 18.47,9.199 18.47,20.402 0,4.809 -1.48,9.078 -3.91,12.678"
       style="fill:#28448e;fill-opacity:1;fill-rule:nonzero;stroke:none"
       id="path98" />
    <path
       d="m 2235.17,2616.45 h -888.43 c -10.2,0 -18.54,-9.09 -18.54,-20.36 0,-4.5 1.4,-8.77 3.7,-12.16 l 441.15,-763.4 c 3.4,-6.2 9.96,-10.37 17.57,-10.37 7.46,0 13.96,4.07 17.43,10.1 0.07,0.04 0.1,0.11 0.14,0.17 l 441.54,763.09 c 2.43,3.53 3.91,7.87 3.91,12.57 0,11.27 -8.27,20.36 -18.47,20.36"
       style="fill:#47c3e1;fill-opacity:1;fill-rule:nonzero;stroke:none"
       id="path100" />
    <path
       d="m 2165.37,2336.44 c -1.04,0.24 -2.21,0.38 -3.34,0.38 -7.39,0 -13.43,-5.97 -13.43,-13.44 0,-5.79 3.66,-10.73 8.8,-12.6 200.77,-68.96 334.01,-189.5 334.01,-327.01 0,-171.34 -206.94,-316.68 -493.85,-368.01 -5.84,-1.27 -10.27,-6.41 -10.27,-12.68 0,-2 0.43,-3.85 1.27,-5.59 23.73,-47.27 52.96,-100.94 81.7,-150.67 36.27,-62.8 72.14,-121.66 107.64,-177.01 3.66,-5.66 9.86,-9.66 17.14,-9.66 2,0 3.92,0.33 5.72,0.86 316.44,96.74 534.62,298.34 534.62,532.48 0,242.72 -234.5,450.73 -570.01,542.95"
       style="fill:#f47216;fill-opacity:1;fill-rule:nonzero;stroke:none"
       id="path102" />
    <path
       d="m 1412.27,1254.48 c 1.04,-0.26 2.2,-0.4 3.34,-0.4 7.43,0 13.43,6.07 13.43,13.47 0,5.8 -3.67,10.73 -8.8,12.6 -200.78,68.93 -334.01,189.54 -334.01,327.08 0,171.24 206.94,316.57 493.85,367.91 5.9,1.29 10.26,6.46 10.26,12.73 0,1.97 -0.43,3.83 -1.26,5.54 -23.74,47.26 -52.97,100.99 -81.71,150.73 -36.26,62.74 -72.13,121.64 -107.64,176.94 -3.62,5.74 -9.86,9.7 -17.13,9.7 -1.99,0 -3.93,-0.33 -5.73,-0.87 -316.44,-96.77 -534.616,-298.41 -534.616,-532.52 0,-242.69 234.476,-450.63 570.016,-542.91"
       style="fill:#f47216;fill-opacity:1;fill-rule:nonzero;stroke:none"
       id="path104" />
  </g>
</svg>
